<?xml version="1.0" encoding="UTF-8" standalone="no"?>
<svg width="347.133mm" height="102.306mm"
 viewBox="0 0 984 290"
 xmlns="http://www.w3.org/2000/svg" xmlns:xlink="http://www.w3.org/1999/xlink"  version="1.2" baseProfile="tiny">
<title>Qt SVG Document</title>
<desc>Generated with Qt</desc>
<defs>
</defs>
<g fill="none" stroke="black" stroke-width="1" fill-rule="evenodd" stroke-linecap="square" stroke-linejoin="bevel" >

<g fill="none" stroke="#000000" stroke-opacity="1" stroke-width="1" stroke-linecap="square" stroke-linejoin="bevel" transform="matrix(1,0,0,1,0,0)"
font-family="Ubuntu" font-size="10" font-weight="400" font-style="normal" 
>
</g>

<g fill="none" stroke="#000000" stroke-opacity="1" stroke-width="1" stroke-linecap="square" stroke-linejoin="bevel" transform="matrix(1.00204,0,0,1.00204,0,0)"
font-family="Ubuntu" font-size="10" font-weight="400" font-style="normal" 
>
</g>

<g fill="none" stroke="#000000" stroke-opacity="1" stroke-width="1" stroke-linecap="round" stroke-linejoin="round" transform="matrix(1.00204,0,0,1.00204,0,0)"
font-family="Ubuntu" font-size="10" font-weight="400" font-style="normal" 
>
<polyline fill="none" vector-effect="none" points="45.5,258.5 51.5,258.5 " />
<polyline fill="none" vector-effect="none" points="960.5,258.5 954.5,258.5 " />
</g>

<g fill="none" stroke="#000000" stroke-opacity="1" stroke-width="1" stroke-linecap="square" stroke-linejoin="bevel" transform="matrix(1.00204,0,0,1.00204,0,0)"
font-family="Ubuntu" font-size="10" font-weight="400" font-style="normal" 
>
</g>

<g fill="none" stroke="#000000" stroke-opacity="1" stroke-width="1" stroke-linecap="square" stroke-linejoin="bevel" transform="matrix(1.00204,0,0,1.00204,28.057,263.035)"
font-family="Ubuntu" font-size="10" font-weight="400" font-style="normal" 
>
</g>

<g fill="none" stroke="#000000" stroke-opacity="1" stroke-width="1" stroke-linecap="square" stroke-linejoin="bevel" transform="matrix(1.00204,0,0,1.00204,28.057,263.035)"
font-family="Ubuntu" font-size="10" font-weight="400" font-style="normal" 
>
</g>

<g fill="none" stroke="#000000" stroke-opacity="1" stroke-width="1" stroke-linecap="square" stroke-linejoin="bevel" transform="matrix(1.00204,0,0,1.00204,28.057,263.035)"
font-family="Ubuntu" font-size="10" font-weight="400" font-style="normal" 
>
</g>

<g fill="none" stroke="#000000" stroke-opacity="1" stroke-width="1" stroke-linecap="square" stroke-linejoin="bevel" transform="matrix(1.00204,0,0,1.00204,28.057,263.035)"
font-family="Ubuntu" font-size="10" font-weight="400" font-style="normal" 
>
</g>

<g fill="none" stroke="#000000" stroke-opacity="1" stroke-width="1" stroke-linecap="square" stroke-linejoin="bevel" transform="matrix(1.00204,0,0,1.00204,28.057,263.035)"
font-family="Ubuntu" font-size="10" font-weight="400" font-style="normal" 
>
</g>

<g fill="none" stroke="#000000" stroke-opacity="1" stroke-width="1" stroke-linecap="square" stroke-linejoin="bevel" transform="matrix(1.00204,0,0,1.00204,28.057,263.035)"
font-family="Sans" font-size="9" font-weight="400" font-style="normal" 
>
<text fill="#000000" fill-opacity="1" stroke="none" xml:space="preserve" x="0" y="0" font-family="Sans" font-size="9" font-weight="400" font-style="normal" 
 >-1</text>
</g>

<g fill="none" stroke="#000000" stroke-opacity="1" stroke-width="1" stroke-linecap="square" stroke-linejoin="bevel" transform="matrix(1.00204,0,0,1.00204,28.057,263.035)"
font-family="Ubuntu" font-size="10" font-weight="400" font-style="normal" 
>
</g>

<g fill="none" stroke="#000000" stroke-opacity="1" stroke-width="1" stroke-linecap="square" stroke-linejoin="bevel" transform="matrix(1.00204,0,0,1.00204,0,0)"
font-family="Ubuntu" font-size="10" font-weight="400" font-style="normal" 
>
</g>

<g fill="none" stroke="#000000" stroke-opacity="1" stroke-width="1" stroke-linecap="round" stroke-linejoin="round" transform="matrix(1.00204,0,0,1.00204,0,0)"
font-family="Ubuntu" font-size="10" font-weight="400" font-style="normal" 
>
<polyline fill="none" vector-effect="none" points="45.5,197.5 51.5,197.5 " />
<polyline fill="none" vector-effect="none" points="960.5,197.5 954.5,197.5 " />
</g>

<g fill="none" stroke="#000000" stroke-opacity="1" stroke-width="1" stroke-linecap="square" stroke-linejoin="bevel" transform="matrix(1.00204,0,0,1.00204,0,0)"
font-family="Ubuntu" font-size="10" font-weight="400" font-style="normal" 
>
</g>

<g fill="none" stroke="#000000" stroke-opacity="1" stroke-width="1" stroke-linecap="square" stroke-linejoin="bevel" transform="matrix(1.00204,0,0,1.00204,16.0326,201.91)"
font-family="Ubuntu" font-size="10" font-weight="400" font-style="normal" 
>
</g>

<g fill="none" stroke="#000000" stroke-opacity="1" stroke-width="1" stroke-linecap="square" stroke-linejoin="bevel" transform="matrix(1.00204,0,0,1.00204,16.0326,201.91)"
font-family="Ubuntu" font-size="10" font-weight="400" font-style="normal" 
>
</g>

<g fill="none" stroke="#000000" stroke-opacity="1" stroke-width="1" stroke-linecap="square" stroke-linejoin="bevel" transform="matrix(1.00204,0,0,1.00204,16.0326,201.91)"
font-family="Ubuntu" font-size="10" font-weight="400" font-style="normal" 
>
</g>

<g fill="none" stroke="#000000" stroke-opacity="1" stroke-width="1" stroke-linecap="square" stroke-linejoin="bevel" transform="matrix(1.00204,0,0,1.00204,16.0326,201.91)"
font-family="Ubuntu" font-size="10" font-weight="400" font-style="normal" 
>
</g>

<g fill="none" stroke="#000000" stroke-opacity="1" stroke-width="1" stroke-linecap="square" stroke-linejoin="bevel" transform="matrix(1.00204,0,0,1.00204,16.0326,201.91)"
font-family="Ubuntu" font-size="10" font-weight="400" font-style="normal" 
>
</g>

<g fill="none" stroke="#000000" stroke-opacity="1" stroke-width="1" stroke-linecap="square" stroke-linejoin="bevel" transform="matrix(1.00204,0,0,1.00204,16.0326,201.91)"
font-family="Sans" font-size="9" font-weight="400" font-style="normal" 
>
<text fill="#000000" fill-opacity="1" stroke="none" xml:space="preserve" x="0" y="0" font-family="Sans" font-size="9" font-weight="400" font-style="normal" 
 >-0.5</text>
</g>

<g fill="none" stroke="#000000" stroke-opacity="1" stroke-width="1" stroke-linecap="square" stroke-linejoin="bevel" transform="matrix(1.00204,0,0,1.00204,16.0326,201.91)"
font-family="Ubuntu" font-size="10" font-weight="400" font-style="normal" 
>
</g>

<g fill="none" stroke="#000000" stroke-opacity="1" stroke-width="1" stroke-linecap="square" stroke-linejoin="bevel" transform="matrix(1.00204,0,0,1.00204,0,0)"
font-family="Ubuntu" font-size="10" font-weight="400" font-style="normal" 
>
</g>

<g fill="none" stroke="#000000" stroke-opacity="1" stroke-width="1" stroke-linecap="round" stroke-linejoin="round" transform="matrix(1.00204,0,0,1.00204,0,0)"
font-family="Ubuntu" font-size="10" font-weight="400" font-style="normal" 
>
<polyline fill="none" vector-effect="none" points="45.5,136.5 51.5,136.5 " />
<polyline fill="none" vector-effect="none" points="960.5,136.5 954.5,136.5 " />
</g>

<g fill="none" stroke="#000000" stroke-opacity="1" stroke-width="1" stroke-linecap="square" stroke-linejoin="bevel" transform="matrix(1.00204,0,0,1.00204,0,0)"
font-family="Ubuntu" font-size="10" font-weight="400" font-style="normal" 
>
</g>

<g fill="none" stroke="#000000" stroke-opacity="1" stroke-width="1" stroke-linecap="square" stroke-linejoin="bevel" transform="matrix(1.00204,0,0,1.00204,28.057,141.788)"
font-family="Ubuntu" font-size="10" font-weight="400" font-style="normal" 
>
</g>

<g fill="none" stroke="#000000" stroke-opacity="1" stroke-width="1" stroke-linecap="square" stroke-linejoin="bevel" transform="matrix(1.00204,0,0,1.00204,28.057,141.788)"
font-family="Ubuntu" font-size="10" font-weight="400" font-style="normal" 
>
</g>

<g fill="none" stroke="#000000" stroke-opacity="1" stroke-width="1" stroke-linecap="square" stroke-linejoin="bevel" transform="matrix(1.00204,0,0,1.00204,28.057,141.788)"
font-family="Ubuntu" font-size="10" font-weight="400" font-style="normal" 
>
</g>

<g fill="none" stroke="#000000" stroke-opacity="1" stroke-width="1" stroke-linecap="square" stroke-linejoin="bevel" transform="matrix(1.00204,0,0,1.00204,28.057,141.788)"
font-family="Ubuntu" font-size="10" font-weight="400" font-style="normal" 
>
</g>

<g fill="none" stroke="#000000" stroke-opacity="1" stroke-width="1" stroke-linecap="square" stroke-linejoin="bevel" transform="matrix(1.00204,0,0,1.00204,28.057,141.788)"
font-family="Ubuntu" font-size="10" font-weight="400" font-style="normal" 
>
</g>

<g fill="none" stroke="#000000" stroke-opacity="1" stroke-width="1" stroke-linecap="square" stroke-linejoin="bevel" transform="matrix(1.00204,0,0,1.00204,28.057,141.788)"
font-family="Sans" font-size="9" font-weight="400" font-style="normal" 
>
<text fill="#000000" fill-opacity="1" stroke="none" xml:space="preserve" x="0" y="0" font-family="Sans" font-size="9" font-weight="400" font-style="normal" 
 > 0</text>
</g>

<g fill="none" stroke="#000000" stroke-opacity="1" stroke-width="1" stroke-linecap="square" stroke-linejoin="bevel" transform="matrix(1.00204,0,0,1.00204,28.057,141.788)"
font-family="Ubuntu" font-size="10" font-weight="400" font-style="normal" 
>
</g>

<g fill="none" stroke="#000000" stroke-opacity="1" stroke-width="1" stroke-linecap="square" stroke-linejoin="bevel" transform="matrix(1.00204,0,0,1.00204,0,0)"
font-family="Ubuntu" font-size="10" font-weight="400" font-style="normal" 
>
</g>

<g fill="none" stroke="#000000" stroke-opacity="1" stroke-width="1" stroke-linecap="round" stroke-linejoin="round" transform="matrix(1.00204,0,0,1.00204,0,0)"
font-family="Ubuntu" font-size="10" font-weight="400" font-style="normal" 
>
<polyline fill="none" vector-effect="none" points="45.5,75.5 51.5,75.5 " />
<polyline fill="none" vector-effect="none" points="960.5,75.5 954.5,75.5 " />
</g>

<g fill="none" stroke="#000000" stroke-opacity="1" stroke-width="1" stroke-linecap="square" stroke-linejoin="bevel" transform="matrix(1.00204,0,0,1.00204,0,0)"
font-family="Ubuntu" font-size="10" font-weight="400" font-style="normal" 
>
</g>

<g fill="none" stroke="#000000" stroke-opacity="1" stroke-width="1" stroke-linecap="square" stroke-linejoin="bevel" transform="matrix(1.00204,0,0,1.00204,16.0326,80.664)"
font-family="Ubuntu" font-size="10" font-weight="400" font-style="normal" 
>
</g>

<g fill="none" stroke="#000000" stroke-opacity="1" stroke-width="1" stroke-linecap="square" stroke-linejoin="bevel" transform="matrix(1.00204,0,0,1.00204,16.0326,80.664)"
font-family="Ubuntu" font-size="10" font-weight="400" font-style="normal" 
>
</g>

<g fill="none" stroke="#000000" stroke-opacity="1" stroke-width="1" stroke-linecap="square" stroke-linejoin="bevel" transform="matrix(1.00204,0,0,1.00204,16.0326,80.664)"
font-family="Ubuntu" font-size="10" font-weight="400" font-style="normal" 
>
</g>

<g fill="none" stroke="#000000" stroke-opacity="1" stroke-width="1" stroke-linecap="square" stroke-linejoin="bevel" transform="matrix(1.00204,0,0,1.00204,16.0326,80.664)"
font-family="Ubuntu" font-size="10" font-weight="400" font-style="normal" 
>
</g>

<g fill="none" stroke="#000000" stroke-opacity="1" stroke-width="1" stroke-linecap="square" stroke-linejoin="bevel" transform="matrix(1.00204,0,0,1.00204,16.0326,80.664)"
font-family="Ubuntu" font-size="10" font-weight="400" font-style="normal" 
>
</g>

<g fill="none" stroke="#000000" stroke-opacity="1" stroke-width="1" stroke-linecap="square" stroke-linejoin="bevel" transform="matrix(1.00204,0,0,1.00204,16.0326,80.664)"
font-family="Sans" font-size="9" font-weight="400" font-style="normal" 
>
<text fill="#000000" fill-opacity="1" stroke="none" xml:space="preserve" x="0" y="0" font-family="Sans" font-size="9" font-weight="400" font-style="normal" 
 > 0.5</text>
</g>

<g fill="none" stroke="#000000" stroke-opacity="1" stroke-width="1" stroke-linecap="square" stroke-linejoin="bevel" transform="matrix(1.00204,0,0,1.00204,16.0326,80.664)"
font-family="Ubuntu" font-size="10" font-weight="400" font-style="normal" 
>
</g>

<g fill="none" stroke="#000000" stroke-opacity="1" stroke-width="1" stroke-linecap="square" stroke-linejoin="bevel" transform="matrix(1.00204,0,0,1.00204,0,0)"
font-family="Ubuntu" font-size="10" font-weight="400" font-style="normal" 
>
</g>

<g fill="none" stroke="#000000" stroke-opacity="1" stroke-width="1" stroke-linecap="round" stroke-linejoin="round" transform="matrix(1.00204,0,0,1.00204,0,0)"
font-family="Ubuntu" font-size="10" font-weight="400" font-style="normal" 
>
<polyline fill="none" vector-effect="none" points="45.5,15.5 51.5,15.5 " />
<polyline fill="none" vector-effect="none" points="960.5,15.5 954.5,15.5 " />
</g>

<g fill="none" stroke="#000000" stroke-opacity="1" stroke-width="1" stroke-linecap="square" stroke-linejoin="bevel" transform="matrix(1.00204,0,0,1.00204,0,0)"
font-family="Ubuntu" font-size="10" font-weight="400" font-style="normal" 
>
</g>

<g fill="none" stroke="#000000" stroke-opacity="1" stroke-width="1" stroke-linecap="square" stroke-linejoin="bevel" transform="matrix(1.00204,0,0,1.00204,28.057,19.5397)"
font-family="Ubuntu" font-size="10" font-weight="400" font-style="normal" 
>
</g>

<g fill="none" stroke="#000000" stroke-opacity="1" stroke-width="1" stroke-linecap="square" stroke-linejoin="bevel" transform="matrix(1.00204,0,0,1.00204,28.057,19.5397)"
font-family="Ubuntu" font-size="10" font-weight="400" font-style="normal" 
>
</g>

<g fill="none" stroke="#000000" stroke-opacity="1" stroke-width="1" stroke-linecap="square" stroke-linejoin="bevel" transform="matrix(1.00204,0,0,1.00204,28.057,19.5397)"
font-family="Ubuntu" font-size="10" font-weight="400" font-style="normal" 
>
</g>

<g fill="none" stroke="#000000" stroke-opacity="1" stroke-width="1" stroke-linecap="square" stroke-linejoin="bevel" transform="matrix(1.00204,0,0,1.00204,28.057,19.5397)"
font-family="Ubuntu" font-size="10" font-weight="400" font-style="normal" 
>
</g>

<g fill="none" stroke="#000000" stroke-opacity="1" stroke-width="1" stroke-linecap="square" stroke-linejoin="bevel" transform="matrix(1.00204,0,0,1.00204,28.057,19.5397)"
font-family="Ubuntu" font-size="10" font-weight="400" font-style="normal" 
>
</g>

<g fill="none" stroke="#000000" stroke-opacity="1" stroke-width="1" stroke-linecap="square" stroke-linejoin="bevel" transform="matrix(1.00204,0,0,1.00204,28.057,19.5397)"
font-family="Sans" font-size="9" font-weight="400" font-style="normal" 
>
<text fill="#000000" fill-opacity="1" stroke="none" xml:space="preserve" x="0" y="0" font-family="Sans" font-size="9" font-weight="400" font-style="normal" 
 > 1</text>
</g>

<g fill="none" stroke="#000000" stroke-opacity="1" stroke-width="1" stroke-linecap="square" stroke-linejoin="bevel" transform="matrix(1.00204,0,0,1.00204,28.057,19.5397)"
font-family="Ubuntu" font-size="10" font-weight="400" font-style="normal" 
>
</g>

<g fill="none" stroke="#000000" stroke-opacity="1" stroke-width="1" stroke-linecap="square" stroke-linejoin="bevel" transform="matrix(1.00204,0,0,1.00204,0,0)"
font-family="Ubuntu" font-size="10" font-weight="400" font-style="normal" 
>
</g>

<g fill="none" stroke="#000000" stroke-opacity="1" stroke-width="1" stroke-linecap="round" stroke-linejoin="round" transform="matrix(1.00204,0,0,1.00204,0,0)"
font-family="Ubuntu" font-size="10" font-weight="400" font-style="normal" 
>
<polyline fill="none" vector-effect="none" points="45.5,258.5 45.5,252.5 " />
<polyline fill="none" vector-effect="none" points="45.5,15.5 45.5,21.5 " />
</g>

<g fill="none" stroke="#000000" stroke-opacity="1" stroke-width="1" stroke-linecap="square" stroke-linejoin="bevel" transform="matrix(1.00204,0,0,1.00204,0,0)"
font-family="Ubuntu" font-size="10" font-weight="400" font-style="normal" 
>
</g>

<g fill="none" stroke="#000000" stroke-opacity="1" stroke-width="1" stroke-linecap="square" stroke-linejoin="bevel" transform="matrix(1.00204,0,0,1.00204,40.5825,278.065)"
font-family="Ubuntu" font-size="10" font-weight="400" font-style="normal" 
>
</g>

<g fill="none" stroke="#000000" stroke-opacity="1" stroke-width="1" stroke-linecap="square" stroke-linejoin="bevel" transform="matrix(1.00204,0,0,1.00204,40.5825,278.065)"
font-family="Ubuntu" font-size="10" font-weight="400" font-style="normal" 
>
</g>

<g fill="none" stroke="#000000" stroke-opacity="1" stroke-width="1" stroke-linecap="square" stroke-linejoin="bevel" transform="matrix(1.00204,0,0,1.00204,40.5825,278.065)"
font-family="Ubuntu" font-size="10" font-weight="400" font-style="normal" 
>
</g>

<g fill="none" stroke="#000000" stroke-opacity="1" stroke-width="1" stroke-linecap="square" stroke-linejoin="bevel" transform="matrix(1.00204,0,0,1.00204,40.5825,278.065)"
font-family="Ubuntu" font-size="10" font-weight="400" font-style="normal" 
>
</g>

<g fill="none" stroke="#000000" stroke-opacity="1" stroke-width="1" stroke-linecap="square" stroke-linejoin="bevel" transform="matrix(1.00204,0,0,1.00204,40.5825,278.065)"
font-family="Ubuntu" font-size="10" font-weight="400" font-style="normal" 
>
</g>

<g fill="none" stroke="#000000" stroke-opacity="1" stroke-width="1" stroke-linecap="square" stroke-linejoin="bevel" transform="matrix(1.00204,0,0,1.00204,40.5825,278.065)"
font-family="Sans" font-size="9" font-weight="400" font-style="normal" 
>
<text fill="#000000" fill-opacity="1" stroke="none" xml:space="preserve" x="0" y="0" font-family="Sans" font-size="9" font-weight="400" font-style="normal" 
 > 0</text>
</g>

<g fill="none" stroke="#000000" stroke-opacity="1" stroke-width="1" stroke-linecap="square" stroke-linejoin="bevel" transform="matrix(1.00204,0,0,1.00204,40.5825,278.065)"
font-family="Ubuntu" font-size="10" font-weight="400" font-style="normal" 
>
</g>

<g fill="none" stroke="#000000" stroke-opacity="1" stroke-width="1" stroke-linecap="square" stroke-linejoin="bevel" transform="matrix(1.00204,0,0,1.00204,0,0)"
font-family="Ubuntu" font-size="10" font-weight="400" font-style="normal" 
>
</g>

<g fill="none" stroke="#000000" stroke-opacity="1" stroke-width="1" stroke-linecap="round" stroke-linejoin="round" transform="matrix(1.00204,0,0,1.00204,0,0)"
font-family="Ubuntu" font-size="10" font-weight="400" font-style="normal" 
>
<polyline fill="none" vector-effect="none" points="224.5,258.5 224.5,252.5 " />
<polyline fill="none" vector-effect="none" points="224.5,15.5 224.5,21.5 " />
</g>

<g fill="none" stroke="#000000" stroke-opacity="1" stroke-width="1" stroke-linecap="square" stroke-linejoin="bevel" transform="matrix(1.00204,0,0,1.00204,0,0)"
font-family="Ubuntu" font-size="10" font-weight="400" font-style="normal" 
>
</g>

<g fill="none" stroke="#000000" stroke-opacity="1" stroke-width="1" stroke-linecap="square" stroke-linejoin="bevel" transform="matrix(1.00204,0,0,1.00204,210.929,278.065)"
font-family="Ubuntu" font-size="10" font-weight="400" font-style="normal" 
>
</g>

<g fill="none" stroke="#000000" stroke-opacity="1" stroke-width="1" stroke-linecap="square" stroke-linejoin="bevel" transform="matrix(1.00204,0,0,1.00204,210.929,278.065)"
font-family="Ubuntu" font-size="10" font-weight="400" font-style="normal" 
>
</g>

<g fill="none" stroke="#000000" stroke-opacity="1" stroke-width="1" stroke-linecap="square" stroke-linejoin="bevel" transform="matrix(1.00204,0,0,1.00204,210.929,278.065)"
font-family="Ubuntu" font-size="10" font-weight="400" font-style="normal" 
>
</g>

<g fill="none" stroke="#000000" stroke-opacity="1" stroke-width="1" stroke-linecap="square" stroke-linejoin="bevel" transform="matrix(1.00204,0,0,1.00204,210.929,278.065)"
font-family="Ubuntu" font-size="10" font-weight="400" font-style="normal" 
>
</g>

<g fill="none" stroke="#000000" stroke-opacity="1" stroke-width="1" stroke-linecap="square" stroke-linejoin="bevel" transform="matrix(1.00204,0,0,1.00204,210.929,278.065)"
font-family="Ubuntu" font-size="10" font-weight="400" font-style="normal" 
>
</g>

<g fill="none" stroke="#000000" stroke-opacity="1" stroke-width="1" stroke-linecap="square" stroke-linejoin="bevel" transform="matrix(1.00204,0,0,1.00204,210.929,278.065)"
font-family="Sans" font-size="9" font-weight="400" font-style="normal" 
>
<text fill="#000000" fill-opacity="1" stroke="none" xml:space="preserve" x="0" y="0" font-family="Sans" font-size="9" font-weight="400" font-style="normal" 
 > 200</text>
</g>

<g fill="none" stroke="#000000" stroke-opacity="1" stroke-width="1" stroke-linecap="square" stroke-linejoin="bevel" transform="matrix(1.00204,0,0,1.00204,210.929,278.065)"
font-family="Ubuntu" font-size="10" font-weight="400" font-style="normal" 
>
</g>

<g fill="none" stroke="#000000" stroke-opacity="1" stroke-width="1" stroke-linecap="square" stroke-linejoin="bevel" transform="matrix(1.00204,0,0,1.00204,0,0)"
font-family="Ubuntu" font-size="10" font-weight="400" font-style="normal" 
>
</g>

<g fill="none" stroke="#000000" stroke-opacity="1" stroke-width="1" stroke-linecap="round" stroke-linejoin="round" transform="matrix(1.00204,0,0,1.00204,0,0)"
font-family="Ubuntu" font-size="10" font-weight="400" font-style="normal" 
>
<polyline fill="none" vector-effect="none" points="403.5,258.5 403.5,252.5 " />
<polyline fill="none" vector-effect="none" points="403.5,15.5 403.5,21.5 " />
</g>

<g fill="none" stroke="#000000" stroke-opacity="1" stroke-width="1" stroke-linecap="square" stroke-linejoin="bevel" transform="matrix(1.00204,0,0,1.00204,0,0)"
font-family="Ubuntu" font-size="10" font-weight="400" font-style="normal" 
>
</g>

<g fill="none" stroke="#000000" stroke-opacity="1" stroke-width="1" stroke-linecap="square" stroke-linejoin="bevel" transform="matrix(1.00204,0,0,1.00204,390.293,278.065)"
font-family="Ubuntu" font-size="10" font-weight="400" font-style="normal" 
>
</g>

<g fill="none" stroke="#000000" stroke-opacity="1" stroke-width="1" stroke-linecap="square" stroke-linejoin="bevel" transform="matrix(1.00204,0,0,1.00204,390.293,278.065)"
font-family="Ubuntu" font-size="10" font-weight="400" font-style="normal" 
>
</g>

<g fill="none" stroke="#000000" stroke-opacity="1" stroke-width="1" stroke-linecap="square" stroke-linejoin="bevel" transform="matrix(1.00204,0,0,1.00204,390.293,278.065)"
font-family="Ubuntu" font-size="10" font-weight="400" font-style="normal" 
>
</g>

<g fill="none" stroke="#000000" stroke-opacity="1" stroke-width="1" stroke-linecap="square" stroke-linejoin="bevel" transform="matrix(1.00204,0,0,1.00204,390.293,278.065)"
font-family="Ubuntu" font-size="10" font-weight="400" font-style="normal" 
>
</g>

<g fill="none" stroke="#000000" stroke-opacity="1" stroke-width="1" stroke-linecap="square" stroke-linejoin="bevel" transform="matrix(1.00204,0,0,1.00204,390.293,278.065)"
font-family="Ubuntu" font-size="10" font-weight="400" font-style="normal" 
>
</g>

<g fill="none" stroke="#000000" stroke-opacity="1" stroke-width="1" stroke-linecap="square" stroke-linejoin="bevel" transform="matrix(1.00204,0,0,1.00204,390.293,278.065)"
font-family="Sans" font-size="9" font-weight="400" font-style="normal" 
>
<text fill="#000000" fill-opacity="1" stroke="none" xml:space="preserve" x="0" y="0" font-family="Sans" font-size="9" font-weight="400" font-style="normal" 
 > 400</text>
</g>

<g fill="none" stroke="#000000" stroke-opacity="1" stroke-width="1" stroke-linecap="square" stroke-linejoin="bevel" transform="matrix(1.00204,0,0,1.00204,390.293,278.065)"
font-family="Ubuntu" font-size="10" font-weight="400" font-style="normal" 
>
</g>

<g fill="none" stroke="#000000" stroke-opacity="1" stroke-width="1" stroke-linecap="square" stroke-linejoin="bevel" transform="matrix(1.00204,0,0,1.00204,0,0)"
font-family="Ubuntu" font-size="10" font-weight="400" font-style="normal" 
>
</g>

<g fill="none" stroke="#000000" stroke-opacity="1" stroke-width="1" stroke-linecap="round" stroke-linejoin="round" transform="matrix(1.00204,0,0,1.00204,0,0)"
font-family="Ubuntu" font-size="10" font-weight="400" font-style="normal" 
>
<polyline fill="none" vector-effect="none" points="581.5,258.5 581.5,252.5 " />
<polyline fill="none" vector-effect="none" points="581.5,15.5 581.5,21.5 " />
</g>

<g fill="none" stroke="#000000" stroke-opacity="1" stroke-width="1" stroke-linecap="square" stroke-linejoin="bevel" transform="matrix(1.00204,0,0,1.00204,0,0)"
font-family="Ubuntu" font-size="10" font-weight="400" font-style="normal" 
>
</g>

<g fill="none" stroke="#000000" stroke-opacity="1" stroke-width="1" stroke-linecap="square" stroke-linejoin="bevel" transform="matrix(1.00204,0,0,1.00204,569.658,278.065)"
font-family="Ubuntu" font-size="10" font-weight="400" font-style="normal" 
>
</g>

<g fill="none" stroke="#000000" stroke-opacity="1" stroke-width="1" stroke-linecap="square" stroke-linejoin="bevel" transform="matrix(1.00204,0,0,1.00204,569.658,278.065)"
font-family="Ubuntu" font-size="10" font-weight="400" font-style="normal" 
>
</g>

<g fill="none" stroke="#000000" stroke-opacity="1" stroke-width="1" stroke-linecap="square" stroke-linejoin="bevel" transform="matrix(1.00204,0,0,1.00204,569.658,278.065)"
font-family="Ubuntu" font-size="10" font-weight="400" font-style="normal" 
>
</g>

<g fill="none" stroke="#000000" stroke-opacity="1" stroke-width="1" stroke-linecap="square" stroke-linejoin="bevel" transform="matrix(1.00204,0,0,1.00204,569.658,278.065)"
font-family="Ubuntu" font-size="10" font-weight="400" font-style="normal" 
>
</g>

<g fill="none" stroke="#000000" stroke-opacity="1" stroke-width="1" stroke-linecap="square" stroke-linejoin="bevel" transform="matrix(1.00204,0,0,1.00204,569.658,278.065)"
font-family="Ubuntu" font-size="10" font-weight="400" font-style="normal" 
>
</g>

<g fill="none" stroke="#000000" stroke-opacity="1" stroke-width="1" stroke-linecap="square" stroke-linejoin="bevel" transform="matrix(1.00204,0,0,1.00204,569.658,278.065)"
font-family="Sans" font-size="9" font-weight="400" font-style="normal" 
>
<text fill="#000000" fill-opacity="1" stroke="none" xml:space="preserve" x="0" y="0" font-family="Sans" font-size="9" font-weight="400" font-style="normal" 
 > 600</text>
</g>

<g fill="none" stroke="#000000" stroke-opacity="1" stroke-width="1" stroke-linecap="square" stroke-linejoin="bevel" transform="matrix(1.00204,0,0,1.00204,569.658,278.065)"
font-family="Ubuntu" font-size="10" font-weight="400" font-style="normal" 
>
</g>

<g fill="none" stroke="#000000" stroke-opacity="1" stroke-width="1" stroke-linecap="square" stroke-linejoin="bevel" transform="matrix(1.00204,0,0,1.00204,0,0)"
font-family="Ubuntu" font-size="10" font-weight="400" font-style="normal" 
>
</g>

<g fill="none" stroke="#000000" stroke-opacity="1" stroke-width="1" stroke-linecap="round" stroke-linejoin="round" transform="matrix(1.00204,0,0,1.00204,0,0)"
font-family="Ubuntu" font-size="10" font-weight="400" font-style="normal" 
>
<polyline fill="none" vector-effect="none" points="760.5,258.5 760.5,252.5 " />
<polyline fill="none" vector-effect="none" points="760.5,15.5 760.5,21.5 " />
</g>

<g fill="none" stroke="#000000" stroke-opacity="1" stroke-width="1" stroke-linecap="square" stroke-linejoin="bevel" transform="matrix(1.00204,0,0,1.00204,0,0)"
font-family="Ubuntu" font-size="10" font-weight="400" font-style="normal" 
>
</g>

<g fill="none" stroke="#000000" stroke-opacity="1" stroke-width="1" stroke-linecap="square" stroke-linejoin="bevel" transform="matrix(1.00204,0,0,1.00204,749.022,278.065)"
font-family="Ubuntu" font-size="10" font-weight="400" font-style="normal" 
>
</g>

<g fill="none" stroke="#000000" stroke-opacity="1" stroke-width="1" stroke-linecap="square" stroke-linejoin="bevel" transform="matrix(1.00204,0,0,1.00204,749.022,278.065)"
font-family="Ubuntu" font-size="10" font-weight="400" font-style="normal" 
>
</g>

<g fill="none" stroke="#000000" stroke-opacity="1" stroke-width="1" stroke-linecap="square" stroke-linejoin="bevel" transform="matrix(1.00204,0,0,1.00204,749.022,278.065)"
font-family="Ubuntu" font-size="10" font-weight="400" font-style="normal" 
>
</g>

<g fill="none" stroke="#000000" stroke-opacity="1" stroke-width="1" stroke-linecap="square" stroke-linejoin="bevel" transform="matrix(1.00204,0,0,1.00204,749.022,278.065)"
font-family="Ubuntu" font-size="10" font-weight="400" font-style="normal" 
>
</g>

<g fill="none" stroke="#000000" stroke-opacity="1" stroke-width="1" stroke-linecap="square" stroke-linejoin="bevel" transform="matrix(1.00204,0,0,1.00204,749.022,278.065)"
font-family="Ubuntu" font-size="10" font-weight="400" font-style="normal" 
>
</g>

<g fill="none" stroke="#000000" stroke-opacity="1" stroke-width="1" stroke-linecap="square" stroke-linejoin="bevel" transform="matrix(1.00204,0,0,1.00204,749.022,278.065)"
font-family="Sans" font-size="9" font-weight="400" font-style="normal" 
>
<text fill="#000000" fill-opacity="1" stroke="none" xml:space="preserve" x="0" y="0" font-family="Sans" font-size="9" font-weight="400" font-style="normal" 
 > 800</text>
</g>

<g fill="none" stroke="#000000" stroke-opacity="1" stroke-width="1" stroke-linecap="square" stroke-linejoin="bevel" transform="matrix(1.00204,0,0,1.00204,749.022,278.065)"
font-family="Ubuntu" font-size="10" font-weight="400" font-style="normal" 
>
</g>

<g fill="none" stroke="#000000" stroke-opacity="1" stroke-width="1" stroke-linecap="square" stroke-linejoin="bevel" transform="matrix(1.00204,0,0,1.00204,0,0)"
font-family="Ubuntu" font-size="10" font-weight="400" font-style="normal" 
>
</g>

<g fill="none" stroke="#000000" stroke-opacity="1" stroke-width="1" stroke-linecap="round" stroke-linejoin="round" transform="matrix(1.00204,0,0,1.00204,0,0)"
font-family="Ubuntu" font-size="10" font-weight="400" font-style="normal" 
>
<polyline fill="none" vector-effect="none" points="939.5,258.5 939.5,252.5 " />
<polyline fill="none" vector-effect="none" points="939.5,15.5 939.5,21.5 " />
</g>

<g fill="none" stroke="#000000" stroke-opacity="1" stroke-width="1" stroke-linecap="square" stroke-linejoin="bevel" transform="matrix(1.00204,0,0,1.00204,0,0)"
font-family="Ubuntu" font-size="10" font-weight="400" font-style="normal" 
>
</g>

<g fill="none" stroke="#000000" stroke-opacity="1" stroke-width="1" stroke-linecap="square" stroke-linejoin="bevel" transform="matrix(1.00204,0,0,1.00204,923.377,278.065)"
font-family="Ubuntu" font-size="10" font-weight="400" font-style="normal" 
>
</g>

<g fill="none" stroke="#000000" stroke-opacity="1" stroke-width="1" stroke-linecap="square" stroke-linejoin="bevel" transform="matrix(1.00204,0,0,1.00204,923.377,278.065)"
font-family="Ubuntu" font-size="10" font-weight="400" font-style="normal" 
>
</g>

<g fill="none" stroke="#000000" stroke-opacity="1" stroke-width="1" stroke-linecap="square" stroke-linejoin="bevel" transform="matrix(1.00204,0,0,1.00204,923.377,278.065)"
font-family="Ubuntu" font-size="10" font-weight="400" font-style="normal" 
>
</g>

<g fill="none" stroke="#000000" stroke-opacity="1" stroke-width="1" stroke-linecap="square" stroke-linejoin="bevel" transform="matrix(1.00204,0,0,1.00204,923.377,278.065)"
font-family="Ubuntu" font-size="10" font-weight="400" font-style="normal" 
>
</g>

<g fill="none" stroke="#000000" stroke-opacity="1" stroke-width="1" stroke-linecap="square" stroke-linejoin="bevel" transform="matrix(1.00204,0,0,1.00204,923.377,278.065)"
font-family="Ubuntu" font-size="10" font-weight="400" font-style="normal" 
>
</g>

<g fill="none" stroke="#000000" stroke-opacity="1" stroke-width="1" stroke-linecap="square" stroke-linejoin="bevel" transform="matrix(1.00204,0,0,1.00204,923.377,278.065)"
font-family="Sans" font-size="9" font-weight="400" font-style="normal" 
>
<text fill="#000000" fill-opacity="1" stroke="none" xml:space="preserve" x="0" y="0" font-family="Sans" font-size="9" font-weight="400" font-style="normal" 
 > 1000</text>
</g>

<g fill="none" stroke="#000000" stroke-opacity="1" stroke-width="1" stroke-linecap="square" stroke-linejoin="bevel" transform="matrix(1.00204,0,0,1.00204,923.377,278.065)"
font-family="Ubuntu" font-size="10" font-weight="400" font-style="normal" 
>
</g>

<g fill="none" stroke="#000000" stroke-opacity="1" stroke-width="1" stroke-linecap="square" stroke-linejoin="bevel" transform="matrix(1.00204,0,0,1.00204,0,0)"
font-family="Ubuntu" font-size="10" font-weight="400" font-style="normal" 
>
</g>

<g fill="none" stroke="#000000" stroke-opacity="1" stroke-width="1" stroke-linecap="round" stroke-linejoin="round" transform="matrix(1.00204,0,0,1.00204,0,0)"
font-family="Ubuntu" font-size="10" font-weight="400" font-style="normal" 
>
<polyline fill="none" vector-effect="none" points="45.5,15.5 45.5,258.5 960.5,258.5 960.5,15.5 45.5,15.5 " />
</g>

<g fill="none" stroke="#000000" stroke-opacity="1" stroke-width="1" stroke-linecap="square" stroke-linejoin="bevel" transform="matrix(1.00204,0,0,1.00204,0,0)"
font-family="Ubuntu" font-size="10" font-weight="400" font-style="normal" 
>
</g>

<g fill="none" stroke="#000000" stroke-opacity="1" stroke-width="1" stroke-linecap="square" stroke-linejoin="bevel" transform="matrix(1.00204,0,0,1.00204,840.662,17.5356)"
font-family="Ubuntu" font-size="10" font-weight="400" font-style="normal" 
>
</g>

<g fill="none" stroke="#000000" stroke-opacity="1" stroke-width="1" stroke-linecap="square" stroke-linejoin="bevel" transform="matrix(1.00204,0,0,1.00204,840.662,17.5356)"
font-family="Ubuntu" font-size="10" font-weight="400" font-style="normal" 
>
</g>

<g fill="none" stroke="#000000" stroke-opacity="1" stroke-width="1" stroke-linecap="square" stroke-linejoin="bevel" transform="matrix(1.00204,0,0,1.00204,840.662,17.5356)"
font-family="Ubuntu" font-size="10" font-weight="400" font-style="normal" 
>
</g>

<g fill="none" stroke="#000000" stroke-opacity="1" stroke-width="1" stroke-linecap="square" stroke-linejoin="bevel" transform="matrix(1.00204,0,0,1.00204,840.662,17.5356)"
font-family="Ubuntu" font-size="10" font-weight="400" font-style="normal" 
>
<text fill="#000000" fill-opacity="1" stroke="none" xml:space="preserve" x="4" y="16" font-family="Sans" font-size="9" font-weight="400" font-style="normal" 
 >&quot;sine.dat&quot;</text>
</g>

<g fill="none" stroke="#000000" stroke-opacity="1" stroke-width="1" stroke-linecap="square" stroke-linejoin="bevel" transform="matrix(1.00204,0,0,1.00204,840.662,17.5356)"
font-family="Ubuntu" font-size="10" font-weight="400" font-style="normal" 
>
</g>

<g fill="none" stroke="#000000" stroke-opacity="1" stroke-width="1" stroke-linecap="square" stroke-linejoin="bevel" transform="matrix(1,0,0,1,0,0)"
font-family="Ubuntu" font-size="10" font-weight="400" font-style="normal" 
>
</g>

<g fill="none" stroke="#000000" stroke-opacity="1" stroke-width="1" stroke-linecap="square" stroke-linejoin="bevel" transform="matrix(1.00204,0,0,1.00204,840.662,17.5356)"
font-family="Ubuntu" font-size="10" font-weight="400" font-style="normal" 
>
</g>

<g fill="none" stroke="#000000" stroke-opacity="1" stroke-width="1" stroke-linecap="square" stroke-linejoin="bevel" transform="matrix(1.00204,0,0,1.00204,840.662,17.5356)"
font-family="Ubuntu" font-size="10" font-weight="400" font-style="normal" 
>
</g>

<g fill="none" stroke="#000000" stroke-opacity="1" stroke-width="1" stroke-linecap="square" stroke-linejoin="bevel" transform="matrix(1.00204,0,0,1.00204,840.662,17.5356)"
font-family="Ubuntu" font-size="10" font-weight="400" font-style="normal" 
>
</g>

<g fill="none" stroke="#000000" stroke-opacity="1" stroke-width="1" stroke-linecap="square" stroke-linejoin="bevel" transform="matrix(1.00204,0,0,1.00204,0,0)"
font-family="Ubuntu" font-size="10" font-weight="400" font-style="normal" 
>
</g>

<g fill="none" stroke="#9400d3" stroke-opacity="1" stroke-width="1" stroke-linecap="round" stroke-linejoin="round" transform="matrix(1.00204,0,0,1.00204,0,0)"
font-family="Ubuntu" font-size="10" font-weight="400" font-style="normal" 
>
<path vector-effect="none" fill-rule="evenodd" d="M912.5,28.5 L946.5,28.5"/>
</g>

<g fill="none" stroke="#000000" stroke-opacity="1" stroke-width="1" stroke-linecap="square" stroke-linejoin="bevel" transform="matrix(1.00204,0,0,1.00204,0,0)"
font-family="Ubuntu" font-size="10" font-weight="400" font-style="normal" 
>
</g>

<g fill="none" stroke="#000000" stroke-opacity="1" stroke-width="1" stroke-linecap="square" stroke-linejoin="bevel" transform="matrix(1.00204,0,0,1.00204,0,0)"
font-family="Ubuntu" font-size="10" font-weight="400" font-style="normal" 
>
</g>

<g fill="none" stroke="#000000" stroke-opacity="1" stroke-width="1" stroke-linecap="square" stroke-linejoin="bevel" transform="matrix(1.00204,0,0,1.00204,0,0)"
font-family="Ubuntu" font-size="10" font-weight="400" font-style="normal" 
>
</g>

<g fill="none" stroke="#000000" stroke-opacity="1" stroke-width="1" stroke-linecap="square" stroke-linejoin="bevel" transform="matrix(1.00204,0,0,1.00204,0,0)"
font-family="Ubuntu" font-size="10" font-weight="400" font-style="normal" 
>
</g>

<g fill="none" stroke="#9400d3" stroke-opacity="1" stroke-width="1" stroke-linecap="round" stroke-linejoin="round" transform="matrix(1.00204,0,0,1.00204,0,0)"
font-family="Ubuntu" font-size="10" font-weight="400" font-style="normal" 
>
<polyline fill="none" vector-effect="none" points="45.5,135.1 45.5,135.1 46.4,134.3 47.3,133.6 48.2,132.8 49.1,132.1 50,131.3 50.9,130.6 51.8,129.8 52.7,129.1 53.5,128.4 54.4,127.6 55.3,126.9 56.2,126.1 57.1,125.4 58,124.6 58.9,123.9 59.8,123.2 60.7,122.4 61.6,121.7 62.5,120.9 63.4,120.2 64.3,119.5 65.2,118.7 66.1,118 67,117.3 67.8,116.5 68.7,115.8 69.6,115.1 70.5,114.3 71.4,113.6 72.3,112.9 73.2,112.1 74.1,111.4 75,110.7 75.9,109.9 76.8,109.2 77.7,108.5 78.6,107.8 79.5,107 80.4,106.3 81.3,105.6 82.2,104.9 83,104.2 83.9,103.4 84.8,102.7 85.7,102 86.6,101.3 87.5,100.6 88.4,99.9 89.3,99.2 90.2,98.5 91.1,97.7 92,97 92.9,96.3 93.8,95.6 94.7,94.9 95.6,94.2 96.5,93.5 97.3,92.8 98.2,92.1 99.1,91.5 100,90.8 100.9,90.1 101.8,89.4 102.7,88.7 103.6,88 104.5,87.3 105.4,86.7 106.3,86 107.2,85.3 108.1,84.6 109,84 109.9,83.3 110.8,82.6 111.7,81.9 112.5,81.3 113.4,80.6 114.3,80 115.2,79.3 116.1,78.6 117,78 117.9,77.3 118.8,76.7 119.7,76 120.6,75.4 121.5,74.8 122.4,74.1 123.3,73.5 124.2,72.8 125.1,72.2 126,71.6 126.8,70.9 127.7,70.3 128.6,69.7 129.5,69.1 130.4,68.5 131.3,67.8 132.2,67.2 133.1,66.6 134,66 134.9,65.4 135.8,64.8 136.7,64.2 137.6,63.6 138.5,63 139.4,62.4 140.3,61.8 141.2,61.2 142,60.7 142.9,60.1 143.8,59.5 144.7,58.9 145.6,58.4 146.5,57.8 147.4,57.2 148.3,56.7 149.2,56.1 150.1,55.5 151,55 151.9,54.4 152.8,53.9 153.7,53.3 154.6,52.8 155.5,52.3 156.3,51.7 157.2,51.2 158.1,50.7 159,50.1 159.9,49.6 160.8,49.1 161.7,48.6 162.6,48.1 163.5,47.6 164.4,47.1 165.3,46.6 166.2,46.1 167.1,45.6 168,45.1 168.9,44.6 169.8,44.1 170.7,43.6 171.5,43.1 172.4,42.7 173.3,42.2 174.2,41.7 175.1,41.3 176,40.8 176.9,40.3 177.8,39.9 178.7,39.4 179.6,39 180.5,38.6 181.4,38.1 182.3,37.7 183.2,37.3 184.1,36.8 185,36.4 185.8,36 186.7,35.6 187.6,35.2 188.5,34.7 189.4,34.3 190.3,33.9 191.2,33.5 192.1,33.2 193,32.8 193.9,32.4 194.8,32 195.7,31.6 196.6,31.2 197.5,30.9 198.4,30.5 199.3,30.2 200.2,29.8 201,29.4 201.9,29.1 202.8,28.7 203.7,28.4 204.6,28.1 205.5,27.7 206.4,27.4 207.3,27.1 208.2,26.8 209.1,26.4 210,26.1 210.9,25.8 211.8,25.5 212.7,25.2 213.6,24.9 214.5,24.6 215.3,24.3 216.2,24.1 217.1,23.8 218,23.5 218.9,23.2 219.8,23 220.7,22.7 221.6,22.5 222.5,22.2 223.4,22 224.3,21.7 225.2,21.5 226.1,21.2 227,21 227.9,20.8 228.8,20.5 229.7,20.3 230.5,20.1 231.4,19.9 232.3,19.7 233.2,19.5 234.1,19.3 235,19.1 235.9,18.9 236.8,18.7 237.7,18.6 238.6,18.4 239.5,18.2 240.4,18.1 241.3,17.9 242.2,17.7 243.1,17.6 244,17.4 244.8,17.3 245.7,17.2 246.6,17 247.5,16.9 248.4,16.8 249.3,16.6 250.2,16.5 251.1,16.4 252,16.3 252.9,16.2 253.8,16.1 254.7,16 255.6,15.9 256.5,15.8 257.4,15.8 258.3,15.7 259.2,15.6 260,15.5 260.9,15.5 261.8,15.4 262.7,15.4 263.6,15.3 264.5,15.3 265.4,15.2 266.3,15.2 267.2,15.2 268.1,15.2 269,15.1 269.9,15.1 270.8,15.1 271.7,15.1 272.6,15.1 273.5,15.1 274.4,15.1 275.2,15.1 276.1,15.1 277,15.2 277.9,15.2 278.8,15.2 279.7,15.2 280.6,15.3 281.5,15.3 282.4,15.4 283.3,15.4 284.2,15.5 285.1,15.5 286,15.6 286.9,15.7 287.8,15.8 288.7,15.8 289.5,15.9 290.4,16 291.3,16.1 292.2,16.2 293.1,16.3 294,16.4 294.9,16.5 295.8,16.6 296.7,16.8 297.6,16.9 298.5,17 299.4,17.2 300.3,17.3 301.2,17.4 302.1,17.6 303,17.7 303.9,17.9 304.7,18.1 305.6,18.2 306.5,18.4 307.4,18.6 308.3,18.7 309.2,18.9 310.1,19.1 311,19.3 311.9,19.5 312.8,19.7 313.7,19.9 314.6,20.1 315.5,20.3 316.4,20.5 317.3,20.8 318.2,21 319,21.2 319.9,21.5 320.8,21.7 321.7,22 322.6,22.2 323.5,22.5 324.4,22.7 325.3,23 326.2,23.2 327.1,23.5 328,23.8 328.9,24.1 329.8,24.3 330.7,24.6 331.6,24.9 332.5,25.2 333.4,25.5 334.2,25.8 335.1,26.1 336,26.4 336.9,26.8 337.8,27.1 338.7,27.4 339.6,27.7 340.5,28.1 341.4,28.4 342.3,28.7 343.2,29.1 344.1,29.4 345,29.8 345.9,30.2 346.8,30.5 347.7,30.9 348.5,31.2 349.4,31.6 350.3,32 351.2,32.4 352.1,32.8 353,33.2 353.9,33.5 354.8,33.9 355.7,34.3 356.6,34.7 357.5,35.2 358.4,35.6 359.3,36 360.2,36.4 361.1,36.8 362,37.3 362.9,37.7 363.7,38.1 364.6,38.6 365.5,39 366.4,39.4 367.3,39.9 368.2,40.3 369.1,40.8 370,41.3 370.9,41.7 371.8,42.2 372.7,42.7 373.6,43.1 374.5,43.6 375.4,44.1 376.3,44.6 377.2,45.1 378,45.6 378.9,46.1 379.8,46.6 380.7,47.1 381.6,47.6 382.5,48.1 383.4,48.6 384.3,49.1 385.2,49.6 386.1,50.1 387,50.7 387.9,51.2 388.8,51.7 389.7,52.3 390.6,52.8 391.5,53.3 392.4,53.9 393.2,54.4 394.1,55 395,55.5 395.9,56.1 396.8,56.7 397.7,57.2 398.6,57.8 399.5,58.4 400.4,58.9 401.3,59.5 402.2,60.1 403.1,60.7 404,61.2 404.9,61.8 405.8,62.4 406.7,63 407.5,63.6 408.4,64.2 409.3,64.8 410.2,65.4 411.1,66 412,66.6 412.9,67.2 413.8,67.8 414.7,68.5 415.6,69.1 416.5,69.7 417.4,70.3 418.3,70.9 419.2,71.6 420.1,72.2 421,72.8 421.9,73.5 422.7,74.1 423.6,74.8 424.5,75.4 425.4,76 426.3,76.7 427.2,77.3 428.1,78 429,78.6 429.9,79.3 430.8,80 431.7,80.6 432.6,81.3 433.5,81.9 434.4,82.6 435.3,83.3 436.2,84 437,84.6 437.9,85.3 438.8,86 439.7,86.7 440.6,87.3 441.5,88 442.4,88.7 443.3,89.4 444.2,90.1 445.1,90.8 446,91.5 446.9,92.1 447.8,92.8 448.7,93.5 449.6,94.2 450.5,94.9 451.4,95.6 452.2,96.3 453.1,97 454,97.7 454.9,98.5 455.8,99.2 456.7,99.9 457.6,100.6 458.5,101.3 459.4,102 460.3,102.7 461.2,103.4 462.1,104.2 463,104.9 463.9,105.6 464.8,106.3 465.7,107 466.5,107.8 467.4,108.5 468.3,109.2 469.2,109.9 470.1,110.7 471,111.4 471.9,112.1 472.8,112.9 473.7,113.6 474.6,114.3 475.5,115.1 476.4,115.8 477.3,116.5 478.2,117.3 479.1,118 480,118.7 480.9,119.5 481.7,120.2 482.6,120.9 483.5,121.7 484.4,122.4 485.3,123.2 486.2,123.9 487.1,124.6 488,125.4 488.9,126.1 489.8,126.9 490.7,127.6 491.6,128.4 492.5,129.1 493.4,129.8 494.3,130.6 495.2,131.3 496,132.1 496.9,132.8 497.8,133.6 498.7,134.3 499.6,135.1 500.5,135.8 501.4,136.5 502.3,137.3 503.2,138 504.1,138.8 505,139.5 505.9,140.3 506.8,141 507.7,141.8 508.6,142.5 509.5,143.3 510.4,144 511.2,144.7 512.1,145.5 513,146.2 513.9,147 514.8,147.7 515.7,148.5 516.6,149.2 517.5,149.9 518.4,150.7 519.3,151.4 520.2,152.2 521.1,152.9 522,153.6 522.9,154.4 523.8,155.1 524.7,155.8 525.5,156.6 526.4,157.3 527.3,158 528.2,158.8 529.1,159.5 530,160.2 530.9,161 531.8,161.7 532.7,162.4 533.6,163.2 534.5,163.9 535.4,164.6 536.3,165.3 537.2,166.1 538.1,166.8 539,167.5 539.9,168.2 540.7,168.9 541.6,169.7 542.5,170.4 543.4,171.1 544.3,171.8 545.2,172.5 546.1,173.2 547,173.9 547.9,174.6 548.8,175.4 549.7,176.1 550.6,176.8 551.5,177.5 552.4,178.2 553.3,178.9 554.2,179.6 555,180.3 555.9,181 556.8,181.6 557.7,182.3 558.6,183 559.5,183.7 560.4,184.4 561.3,185.1 562.2,185.8 563.1,186.4 564,187.1 564.9,187.8 565.8,188.5 566.7,189.1 567.6,189.8 568.5,190.5 569.4,191.2 570.2,191.8 571.1,192.5 572,193.1 572.9,193.8 573.8,194.5 574.7,195.1 575.6,195.8 576.5,196.4 577.4,197.1 578.3,197.7 579.2,198.3 580.1,199 581,199.6 581.9,200.3 582.8,200.9 583.7,201.5 584.5,202.2 585.4,202.8 586.3,203.4 587.2,204 588.1,204.6 589,205.3 589.9,205.9 590.8,206.5 591.7,207.1 592.6,207.7 593.5,208.3 594.4,208.9 595.3,209.5 596.2,210.1 597.1,210.7 598,211.3 598.9,211.9 599.7,212.4 600.6,213 601.5,213.6 602.4,214.2 603.3,214.7 604.2,215.3 605.1,215.9 606,216.4 606.9,217 607.8,217.6 608.7,218.1 609.6,218.7 610.5,219.2 611.4,219.8 612.3,220.3 613.2,220.8 614,221.4 614.9,221.9 615.8,222.4 616.7,223 617.6,223.5 618.5,224 619.4,224.5 620.3,225 621.2,225.5 622.1,226 623,226.5 623.9,227 624.8,227.5 625.7,228 626.6,228.5 627.5,229 628.4,229.5 629.2,230 630.1,230.4 631,230.9 631.9,231.4 632.8,231.8 633.7,232.3 634.6,232.8 635.5,233.2 636.4,233.7 637.3,234.1 638.2,234.5 639.1,235 640,235.4 640.9,235.8 641.8,236.3 642.7,236.7 643.5,237.1 644.4,237.5 645.3,237.9 646.2,238.4 647.1,238.8 648,239.2 648.9,239.6 649.8,239.9 650.7,240.3 651.6,240.7 652.5,241.1 653.4,241.5 654.3,241.9 655.2,242.2 656.1,242.6 657,242.9 657.9,243.3 658.7,243.7 659.6,244 660.5,244.4 661.4,244.7 662.3,245 663.2,245.4 664.1,245.7 665,246 665.9,246.3 666.8,246.7 667.7,247 668.6,247.3 669.5,247.6 670.4,247.9 671.3,248.2 672.2,248.5 673,248.8 673.9,249 674.8,249.3 675.7,249.6 676.6,249.9 677.5,250.1 678.4,250.4 679.3,250.6 680.2,250.9 681.1,251.1 682,251.4 682.9,251.6 683.8,251.9 684.7,252.1 685.6,252.3 686.5,252.6 687.4,252.8 688.2,253 689.1,253.2 690,253.4 690.9,253.6 691.8,253.8 692.7,254 693.6,254.2 694.5,254.4 695.4,254.5 696.3,254.7 697.2,254.9 698.1,255 699,255.2 699.9,255.4 700.8,255.5 701.7,255.7 702.5,255.8 703.4,255.9 704.3,256.1 705.2,256.2 706.1,256.3 707,256.5 707.9,256.6 708.8,256.7 709.7,256.8 710.6,256.9 711.5,257 712.4,257.1 713.3,257.2 714.2,257.3 715.1,257.3 716,257.4 716.9,257.5 717.7,257.6 718.6,257.6 719.5,257.7 720.4,257.7 721.3,257.8 722.2,257.8 723.1,257.9 724,257.9 724.9,257.9 725.8,257.9 726.7,258 727.6,258 728.5,258 729.4,258 730.3,258 731.2,258 732.1,258 732.9,258 733.8,258 734.7,257.9 735.6,257.9 736.5,257.9 737.4,257.9 738.3,257.8 739.2,257.8 740.1,257.7 741,257.7 741.9,257.6 742.8,257.6 743.7,257.5 744.6,257.4 745.5,257.3 746.4,257.3 747.2,257.2 748.1,257.1 749,257 749.9,256.9 750.8,256.8 751.7,256.7 752.6,256.6 753.5,256.5 754.4,256.3 755.3,256.2 756.2,256.1 757.1,255.9 758,255.8 758.9,255.7 759.8,255.5 760.7,255.4 761.6,255.2 762.4,255 763.3,254.9 764.2,254.7 765.1,254.5 766,254.4 766.9,254.2 767.8,254 768.7,253.8 769.6,253.6 770.5,253.4 771.4,253.2 772.3,253 773.2,252.8 774.1,252.6 775,252.3 775.9,252.1 776.7,251.9 777.6,251.6 778.5,251.4 779.4,251.1 780.3,250.9 781.2,250.6 782.1,250.4 783,250.1 783.9,249.9 784.8,249.6 785.7,249.3 786.6,249 787.5,248.8 788.4,248.5 789.3,248.2 790.2,247.9 791.1,247.6 791.9,247.3 792.8,247 793.7,246.7 794.6,246.3 795.5,246 796.4,245.7 797.3,245.4 798.2,245 799.1,244.7 800,244.4 800.9,244 801.8,243.7 802.7,243.3 803.6,242.9 804.5,242.6 805.4,242.2 806.2,241.9 807.1,241.5 808,241.1 808.9,240.7 809.8,240.3 810.7,239.9 811.6,239.6 812.5,239.2 813.4,238.8 814.3,238.4 815.2,237.9 816.1,237.5 817,237.1 817.9,236.7 818.8,236.3 819.7,235.8 820.6,235.4 821.4,235 822.3,234.5 823.2,234.1 824.1,233.7 825,233.2 825.9,232.8 826.8,232.3 827.7,231.8 828.6,231.4 829.5,230.9 830.4,230.4 831.3,230 832.2,229.5 833.1,229 834,228.5 834.9,228 835.7,227.5 836.6,227 837.5,226.5 838.4,226 839.3,225.5 840.2,225 841.1,224.5 842,224 842.9,223.5 843.8,223 844.7,222.4 845.6,221.9 846.5,221.4 847.4,220.8 848.3,220.3 849.2,219.8 850.1,219.2 850.9,218.7 851.8,218.1 852.7,217.6 853.6,217 854.5,216.4 855.4,215.9 856.3,215.3 857.2,214.7 858.1,214.2 859,213.6 859.9,213 860.8,212.4 861.7,211.9 862.6,211.3 863.5,210.7 864.4,210.1 865.2,209.5 866.1,208.9 867,208.3 867.9,207.7 868.8,207.1 869.7,206.5 870.6,205.9 871.5,205.3 872.4,204.6 873.3,204 874.2,203.4 875.1,202.8 876,202.2 876.9,201.5 877.8,200.9 878.7,200.3 879.6,199.6 880.4,199 881.3,198.3 882.2,197.7 883.1,197.1 884,196.4 884.9,195.8 885.8,195.1 886.7,194.5 887.6,193.8 888.5,193.1 889.4,192.5 890.3,191.8 891.2,191.2 892.1,190.5 893,189.8 893.9,189.1 894.7,188.5 895.6,187.8 896.5,187.1 897.4,186.4 898.3,185.8 899.2,185.1 900.1,184.4 901,183.7 901.9,183 902.8,182.3 903.7,181.6 904.6,181 905.5,180.3 906.4,179.6 907.3,178.9 908.2,178.2 909.1,177.5 909.9,176.8 910.8,176.1 911.7,175.4 912.6,174.6 913.5,173.9 914.4,173.2 915.3,172.5 916.2,171.8 917.1,171.1 918,170.4 918.9,169.7 919.8,168.9 920.7,168.2 921.6,167.5 922.5,166.8 923.4,166.1 924.2,165.3 925.1,164.6 926,163.9 926.9,163.2 927.8,162.4 928.7,161.7 929.6,161 930.5,160.2 931.4,159.5 932.3,158.8 933.2,158 934.1,157.3 935,156.6 935.9,155.8 936.8,155.1 937.7,154.4 938.6,153.6 939.4,152.9 940.3,152.2 941.2,151.4 942.1,150.7 943,149.9 943.9,149.2 944.8,148.5 945.7,147.7 946.6,147 947.5,146.2 948.4,145.5 949.3,144.7 950.2,144 951.1,143.3 952,142.5 952.9,141.8 953.7,141 954.6,140.3 955.5,139.5 956.4,138.8 957.3,138 958.2,137.3 959.1,136.5 960,135.8 " />
</g>

<g fill="none" stroke="#000000" stroke-opacity="1" stroke-width="1" stroke-linecap="square" stroke-linejoin="bevel" transform="matrix(1.00204,0,0,1.00204,0,0)"
font-family="Ubuntu" font-size="10" font-weight="400" font-style="normal" 
>
</g>

<g fill="none" stroke="#000000" stroke-opacity="1" stroke-width="1" stroke-linecap="square" stroke-linejoin="bevel" transform="matrix(1.00204,0,0,1.00204,0,0)"
font-family="Ubuntu" font-size="10" font-weight="400" font-style="normal" 
>
</g>

<g fill="none" stroke="#000000" stroke-opacity="1" stroke-width="1" stroke-linecap="round" stroke-linejoin="round" transform="matrix(1.00204,0,0,1.00204,0,0)"
font-family="Ubuntu" font-size="10" font-weight="400" font-style="normal" 
>
<polyline fill="none" vector-effect="none" points="45.5,15.5 45.5,258.5 960.5,258.5 960.5,15.5 45.5,15.5 " />
</g>

<g fill="none" stroke="#000000" stroke-opacity="1" stroke-width="1" stroke-linecap="square" stroke-linejoin="bevel" transform="matrix(1.00204,0,0,1.00204,0,0)"
font-family="Ubuntu" font-size="10" font-weight="400" font-style="normal" 
>
</g>

<g fill="none" stroke="#000000" stroke-opacity="1" stroke-width="1" stroke-linecap="square" stroke-linejoin="bevel" transform="matrix(1,0,0,1,0,0)"
font-family="Ubuntu" font-size="10" font-weight="400" font-style="normal" 
>
</g>
</g>
</svg>
