<?xml version="1.0" encoding="UTF-8" standalone="no"?>
<svg width="347.133mm" height="102.306mm"
 viewBox="0 0 984 290"
 xmlns="http://www.w3.org/2000/svg" xmlns:xlink="http://www.w3.org/1999/xlink"  version="1.2" baseProfile="tiny">
<title>Qt SVG Document</title>
<desc>Generated with Qt</desc>
<defs>
</defs>
<g fill="none" stroke="black" stroke-width="1" fill-rule="evenodd" stroke-linecap="square" stroke-linejoin="bevel" >

<g fill="none" stroke="#000000" stroke-opacity="1" stroke-width="1" stroke-linecap="square" stroke-linejoin="bevel" transform="matrix(1,0,0,1,0,0)"
font-family="Ubuntu" font-size="10" font-weight="400" font-style="normal" 
>
</g>

<g fill="none" stroke="#000000" stroke-opacity="1" stroke-width="1" stroke-linecap="square" stroke-linejoin="bevel" transform="matrix(1.00204,0,0,1.00204,0,0)"
font-family="Ubuntu" font-size="10" font-weight="400" font-style="normal" 
>
</g>

<g fill="none" stroke="#000000" stroke-opacity="1" stroke-width="1" stroke-linecap="round" stroke-linejoin="round" transform="matrix(1.00204,0,0,1.00204,0,0)"
font-family="Ubuntu" font-size="10" font-weight="400" font-style="normal" 
>
<polyline fill="none" vector-effect="none" points="45.5,258.5 51.5,258.5 " />
<polyline fill="none" vector-effect="none" points="960.5,258.5 954.5,258.5 " />
</g>

<g fill="none" stroke="#000000" stroke-opacity="1" stroke-width="1" stroke-linecap="square" stroke-linejoin="bevel" transform="matrix(1.00204,0,0,1.00204,0,0)"
font-family="Ubuntu" font-size="10" font-weight="400" font-style="normal" 
>
</g>

<g fill="none" stroke="#000000" stroke-opacity="1" stroke-width="1" stroke-linecap="square" stroke-linejoin="bevel" transform="matrix(1.00204,0,0,1.00204,28.057,263.035)"
font-family="Ubuntu" font-size="10" font-weight="400" font-style="normal" 
>
</g>

<g fill="none" stroke="#000000" stroke-opacity="1" stroke-width="1" stroke-linecap="square" stroke-linejoin="bevel" transform="matrix(1.00204,0,0,1.00204,28.057,263.035)"
font-family="Ubuntu" font-size="10" font-weight="400" font-style="normal" 
>
</g>

<g fill="none" stroke="#000000" stroke-opacity="1" stroke-width="1" stroke-linecap="square" stroke-linejoin="bevel" transform="matrix(1.00204,0,0,1.00204,28.057,263.035)"
font-family="Ubuntu" font-size="10" font-weight="400" font-style="normal" 
>
</g>

<g fill="none" stroke="#000000" stroke-opacity="1" stroke-width="1" stroke-linecap="square" stroke-linejoin="bevel" transform="matrix(1.00204,0,0,1.00204,28.057,263.035)"
font-family="Ubuntu" font-size="10" font-weight="400" font-style="normal" 
>
</g>

<g fill="none" stroke="#000000" stroke-opacity="1" stroke-width="1" stroke-linecap="square" stroke-linejoin="bevel" transform="matrix(1.00204,0,0,1.00204,28.057,263.035)"
font-family="Ubuntu" font-size="10" font-weight="400" font-style="normal" 
>
</g>

<g fill="none" stroke="#000000" stroke-opacity="1" stroke-width="1" stroke-linecap="square" stroke-linejoin="bevel" transform="matrix(1.00204,0,0,1.00204,28.057,263.035)"
font-family="Sans" font-size="9" font-weight="400" font-style="normal" 
>
<text fill="#000000" fill-opacity="1" stroke="none" xml:space="preserve" x="0" y="0" font-family="Sans" font-size="9" font-weight="400" font-style="normal" 
 >-1</text>
</g>

<g fill="none" stroke="#000000" stroke-opacity="1" stroke-width="1" stroke-linecap="square" stroke-linejoin="bevel" transform="matrix(1.00204,0,0,1.00204,28.057,263.035)"
font-family="Ubuntu" font-size="10" font-weight="400" font-style="normal" 
>
</g>

<g fill="none" stroke="#000000" stroke-opacity="1" stroke-width="1" stroke-linecap="square" stroke-linejoin="bevel" transform="matrix(1.00204,0,0,1.00204,0,0)"
font-family="Ubuntu" font-size="10" font-weight="400" font-style="normal" 
>
</g>

<g fill="none" stroke="#000000" stroke-opacity="1" stroke-width="1" stroke-linecap="round" stroke-linejoin="round" transform="matrix(1.00204,0,0,1.00204,0,0)"
font-family="Ubuntu" font-size="10" font-weight="400" font-style="normal" 
>
<polyline fill="none" vector-effect="none" points="45.5,197.5 51.5,197.5 " />
<polyline fill="none" vector-effect="none" points="960.5,197.5 954.5,197.5 " />
</g>

<g fill="none" stroke="#000000" stroke-opacity="1" stroke-width="1" stroke-linecap="square" stroke-linejoin="bevel" transform="matrix(1.00204,0,0,1.00204,0,0)"
font-family="Ubuntu" font-size="10" font-weight="400" font-style="normal" 
>
</g>

<g fill="none" stroke="#000000" stroke-opacity="1" stroke-width="1" stroke-linecap="square" stroke-linejoin="bevel" transform="matrix(1.00204,0,0,1.00204,16.0326,201.91)"
font-family="Ubuntu" font-size="10" font-weight="400" font-style="normal" 
>
</g>

<g fill="none" stroke="#000000" stroke-opacity="1" stroke-width="1" stroke-linecap="square" stroke-linejoin="bevel" transform="matrix(1.00204,0,0,1.00204,16.0326,201.91)"
font-family="Ubuntu" font-size="10" font-weight="400" font-style="normal" 
>
</g>

<g fill="none" stroke="#000000" stroke-opacity="1" stroke-width="1" stroke-linecap="square" stroke-linejoin="bevel" transform="matrix(1.00204,0,0,1.00204,16.0326,201.91)"
font-family="Ubuntu" font-size="10" font-weight="400" font-style="normal" 
>
</g>

<g fill="none" stroke="#000000" stroke-opacity="1" stroke-width="1" stroke-linecap="square" stroke-linejoin="bevel" transform="matrix(1.00204,0,0,1.00204,16.0326,201.91)"
font-family="Ubuntu" font-size="10" font-weight="400" font-style="normal" 
>
</g>

<g fill="none" stroke="#000000" stroke-opacity="1" stroke-width="1" stroke-linecap="square" stroke-linejoin="bevel" transform="matrix(1.00204,0,0,1.00204,16.0326,201.91)"
font-family="Ubuntu" font-size="10" font-weight="400" font-style="normal" 
>
</g>

<g fill="none" stroke="#000000" stroke-opacity="1" stroke-width="1" stroke-linecap="square" stroke-linejoin="bevel" transform="matrix(1.00204,0,0,1.00204,16.0326,201.91)"
font-family="Sans" font-size="9" font-weight="400" font-style="normal" 
>
<text fill="#000000" fill-opacity="1" stroke="none" xml:space="preserve" x="0" y="0" font-family="Sans" font-size="9" font-weight="400" font-style="normal" 
 >-0.5</text>
</g>

<g fill="none" stroke="#000000" stroke-opacity="1" stroke-width="1" stroke-linecap="square" stroke-linejoin="bevel" transform="matrix(1.00204,0,0,1.00204,16.0326,201.91)"
font-family="Ubuntu" font-size="10" font-weight="400" font-style="normal" 
>
</g>

<g fill="none" stroke="#000000" stroke-opacity="1" stroke-width="1" stroke-linecap="square" stroke-linejoin="bevel" transform="matrix(1.00204,0,0,1.00204,0,0)"
font-family="Ubuntu" font-size="10" font-weight="400" font-style="normal" 
>
</g>

<g fill="none" stroke="#000000" stroke-opacity="1" stroke-width="1" stroke-linecap="round" stroke-linejoin="round" transform="matrix(1.00204,0,0,1.00204,0,0)"
font-family="Ubuntu" font-size="10" font-weight="400" font-style="normal" 
>
<polyline fill="none" vector-effect="none" points="45.5,136.5 51.5,136.5 " />
<polyline fill="none" vector-effect="none" points="960.5,136.5 954.5,136.5 " />
</g>

<g fill="none" stroke="#000000" stroke-opacity="1" stroke-width="1" stroke-linecap="square" stroke-linejoin="bevel" transform="matrix(1.00204,0,0,1.00204,0,0)"
font-family="Ubuntu" font-size="10" font-weight="400" font-style="normal" 
>
</g>

<g fill="none" stroke="#000000" stroke-opacity="1" stroke-width="1" stroke-linecap="square" stroke-linejoin="bevel" transform="matrix(1.00204,0,0,1.00204,28.057,141.788)"
font-family="Ubuntu" font-size="10" font-weight="400" font-style="normal" 
>
</g>

<g fill="none" stroke="#000000" stroke-opacity="1" stroke-width="1" stroke-linecap="square" stroke-linejoin="bevel" transform="matrix(1.00204,0,0,1.00204,28.057,141.788)"
font-family="Ubuntu" font-size="10" font-weight="400" font-style="normal" 
>
</g>

<g fill="none" stroke="#000000" stroke-opacity="1" stroke-width="1" stroke-linecap="square" stroke-linejoin="bevel" transform="matrix(1.00204,0,0,1.00204,28.057,141.788)"
font-family="Ubuntu" font-size="10" font-weight="400" font-style="normal" 
>
</g>

<g fill="none" stroke="#000000" stroke-opacity="1" stroke-width="1" stroke-linecap="square" stroke-linejoin="bevel" transform="matrix(1.00204,0,0,1.00204,28.057,141.788)"
font-family="Ubuntu" font-size="10" font-weight="400" font-style="normal" 
>
</g>

<g fill="none" stroke="#000000" stroke-opacity="1" stroke-width="1" stroke-linecap="square" stroke-linejoin="bevel" transform="matrix(1.00204,0,0,1.00204,28.057,141.788)"
font-family="Ubuntu" font-size="10" font-weight="400" font-style="normal" 
>
</g>

<g fill="none" stroke="#000000" stroke-opacity="1" stroke-width="1" stroke-linecap="square" stroke-linejoin="bevel" transform="matrix(1.00204,0,0,1.00204,28.057,141.788)"
font-family="Sans" font-size="9" font-weight="400" font-style="normal" 
>
<text fill="#000000" fill-opacity="1" stroke="none" xml:space="preserve" x="0" y="0" font-family="Sans" font-size="9" font-weight="400" font-style="normal" 
 > 0</text>
</g>

<g fill="none" stroke="#000000" stroke-opacity="1" stroke-width="1" stroke-linecap="square" stroke-linejoin="bevel" transform="matrix(1.00204,0,0,1.00204,28.057,141.788)"
font-family="Ubuntu" font-size="10" font-weight="400" font-style="normal" 
>
</g>

<g fill="none" stroke="#000000" stroke-opacity="1" stroke-width="1" stroke-linecap="square" stroke-linejoin="bevel" transform="matrix(1.00204,0,0,1.00204,0,0)"
font-family="Ubuntu" font-size="10" font-weight="400" font-style="normal" 
>
</g>

<g fill="none" stroke="#000000" stroke-opacity="1" stroke-width="1" stroke-linecap="round" stroke-linejoin="round" transform="matrix(1.00204,0,0,1.00204,0,0)"
font-family="Ubuntu" font-size="10" font-weight="400" font-style="normal" 
>
<polyline fill="none" vector-effect="none" points="45.5,75.5 51.5,75.5 " />
<polyline fill="none" vector-effect="none" points="960.5,75.5 954.5,75.5 " />
</g>

<g fill="none" stroke="#000000" stroke-opacity="1" stroke-width="1" stroke-linecap="square" stroke-linejoin="bevel" transform="matrix(1.00204,0,0,1.00204,0,0)"
font-family="Ubuntu" font-size="10" font-weight="400" font-style="normal" 
>
</g>

<g fill="none" stroke="#000000" stroke-opacity="1" stroke-width="1" stroke-linecap="square" stroke-linejoin="bevel" transform="matrix(1.00204,0,0,1.00204,16.0326,80.664)"
font-family="Ubuntu" font-size="10" font-weight="400" font-style="normal" 
>
</g>

<g fill="none" stroke="#000000" stroke-opacity="1" stroke-width="1" stroke-linecap="square" stroke-linejoin="bevel" transform="matrix(1.00204,0,0,1.00204,16.0326,80.664)"
font-family="Ubuntu" font-size="10" font-weight="400" font-style="normal" 
>
</g>

<g fill="none" stroke="#000000" stroke-opacity="1" stroke-width="1" stroke-linecap="square" stroke-linejoin="bevel" transform="matrix(1.00204,0,0,1.00204,16.0326,80.664)"
font-family="Ubuntu" font-size="10" font-weight="400" font-style="normal" 
>
</g>

<g fill="none" stroke="#000000" stroke-opacity="1" stroke-width="1" stroke-linecap="square" stroke-linejoin="bevel" transform="matrix(1.00204,0,0,1.00204,16.0326,80.664)"
font-family="Ubuntu" font-size="10" font-weight="400" font-style="normal" 
>
</g>

<g fill="none" stroke="#000000" stroke-opacity="1" stroke-width="1" stroke-linecap="square" stroke-linejoin="bevel" transform="matrix(1.00204,0,0,1.00204,16.0326,80.664)"
font-family="Ubuntu" font-size="10" font-weight="400" font-style="normal" 
>
</g>

<g fill="none" stroke="#000000" stroke-opacity="1" stroke-width="1" stroke-linecap="square" stroke-linejoin="bevel" transform="matrix(1.00204,0,0,1.00204,16.0326,80.664)"
font-family="Sans" font-size="9" font-weight="400" font-style="normal" 
>
<text fill="#000000" fill-opacity="1" stroke="none" xml:space="preserve" x="0" y="0" font-family="Sans" font-size="9" font-weight="400" font-style="normal" 
 > 0.5</text>
</g>

<g fill="none" stroke="#000000" stroke-opacity="1" stroke-width="1" stroke-linecap="square" stroke-linejoin="bevel" transform="matrix(1.00204,0,0,1.00204,16.0326,80.664)"
font-family="Ubuntu" font-size="10" font-weight="400" font-style="normal" 
>
</g>

<g fill="none" stroke="#000000" stroke-opacity="1" stroke-width="1" stroke-linecap="square" stroke-linejoin="bevel" transform="matrix(1.00204,0,0,1.00204,0,0)"
font-family="Ubuntu" font-size="10" font-weight="400" font-style="normal" 
>
</g>

<g fill="none" stroke="#000000" stroke-opacity="1" stroke-width="1" stroke-linecap="round" stroke-linejoin="round" transform="matrix(1.00204,0,0,1.00204,0,0)"
font-family="Ubuntu" font-size="10" font-weight="400" font-style="normal" 
>
<polyline fill="none" vector-effect="none" points="45.5,15.5 51.5,15.5 " />
<polyline fill="none" vector-effect="none" points="960.5,15.5 954.5,15.5 " />
</g>

<g fill="none" stroke="#000000" stroke-opacity="1" stroke-width="1" stroke-linecap="square" stroke-linejoin="bevel" transform="matrix(1.00204,0,0,1.00204,0,0)"
font-family="Ubuntu" font-size="10" font-weight="400" font-style="normal" 
>
</g>

<g fill="none" stroke="#000000" stroke-opacity="1" stroke-width="1" stroke-linecap="square" stroke-linejoin="bevel" transform="matrix(1.00204,0,0,1.00204,28.057,19.5397)"
font-family="Ubuntu" font-size="10" font-weight="400" font-style="normal" 
>
</g>

<g fill="none" stroke="#000000" stroke-opacity="1" stroke-width="1" stroke-linecap="square" stroke-linejoin="bevel" transform="matrix(1.00204,0,0,1.00204,28.057,19.5397)"
font-family="Ubuntu" font-size="10" font-weight="400" font-style="normal" 
>
</g>

<g fill="none" stroke="#000000" stroke-opacity="1" stroke-width="1" stroke-linecap="square" stroke-linejoin="bevel" transform="matrix(1.00204,0,0,1.00204,28.057,19.5397)"
font-family="Ubuntu" font-size="10" font-weight="400" font-style="normal" 
>
</g>

<g fill="none" stroke="#000000" stroke-opacity="1" stroke-width="1" stroke-linecap="square" stroke-linejoin="bevel" transform="matrix(1.00204,0,0,1.00204,28.057,19.5397)"
font-family="Ubuntu" font-size="10" font-weight="400" font-style="normal" 
>
</g>

<g fill="none" stroke="#000000" stroke-opacity="1" stroke-width="1" stroke-linecap="square" stroke-linejoin="bevel" transform="matrix(1.00204,0,0,1.00204,28.057,19.5397)"
font-family="Ubuntu" font-size="10" font-weight="400" font-style="normal" 
>
</g>

<g fill="none" stroke="#000000" stroke-opacity="1" stroke-width="1" stroke-linecap="square" stroke-linejoin="bevel" transform="matrix(1.00204,0,0,1.00204,28.057,19.5397)"
font-family="Sans" font-size="9" font-weight="400" font-style="normal" 
>
<text fill="#000000" fill-opacity="1" stroke="none" xml:space="preserve" x="0" y="0" font-family="Sans" font-size="9" font-weight="400" font-style="normal" 
 > 1</text>
</g>

<g fill="none" stroke="#000000" stroke-opacity="1" stroke-width="1" stroke-linecap="square" stroke-linejoin="bevel" transform="matrix(1.00204,0,0,1.00204,28.057,19.5397)"
font-family="Ubuntu" font-size="10" font-weight="400" font-style="normal" 
>
</g>

<g fill="none" stroke="#000000" stroke-opacity="1" stroke-width="1" stroke-linecap="square" stroke-linejoin="bevel" transform="matrix(1.00204,0,0,1.00204,0,0)"
font-family="Ubuntu" font-size="10" font-weight="400" font-style="normal" 
>
</g>

<g fill="none" stroke="#000000" stroke-opacity="1" stroke-width="1" stroke-linecap="round" stroke-linejoin="round" transform="matrix(1.00204,0,0,1.00204,0,0)"
font-family="Ubuntu" font-size="10" font-weight="400" font-style="normal" 
>
<polyline fill="none" vector-effect="none" points="45.5,258.5 45.5,252.5 " />
<polyline fill="none" vector-effect="none" points="45.5,15.5 45.5,21.5 " />
</g>

<g fill="none" stroke="#000000" stroke-opacity="1" stroke-width="1" stroke-linecap="square" stroke-linejoin="bevel" transform="matrix(1.00204,0,0,1.00204,0,0)"
font-family="Ubuntu" font-size="10" font-weight="400" font-style="normal" 
>
</g>

<g fill="none" stroke="#000000" stroke-opacity="1" stroke-width="1" stroke-linecap="square" stroke-linejoin="bevel" transform="matrix(1.00204,0,0,1.00204,40.5825,278.065)"
font-family="Ubuntu" font-size="10" font-weight="400" font-style="normal" 
>
</g>

<g fill="none" stroke="#000000" stroke-opacity="1" stroke-width="1" stroke-linecap="square" stroke-linejoin="bevel" transform="matrix(1.00204,0,0,1.00204,40.5825,278.065)"
font-family="Ubuntu" font-size="10" font-weight="400" font-style="normal" 
>
</g>

<g fill="none" stroke="#000000" stroke-opacity="1" stroke-width="1" stroke-linecap="square" stroke-linejoin="bevel" transform="matrix(1.00204,0,0,1.00204,40.5825,278.065)"
font-family="Ubuntu" font-size="10" font-weight="400" font-style="normal" 
>
</g>

<g fill="none" stroke="#000000" stroke-opacity="1" stroke-width="1" stroke-linecap="square" stroke-linejoin="bevel" transform="matrix(1.00204,0,0,1.00204,40.5825,278.065)"
font-family="Ubuntu" font-size="10" font-weight="400" font-style="normal" 
>
</g>

<g fill="none" stroke="#000000" stroke-opacity="1" stroke-width="1" stroke-linecap="square" stroke-linejoin="bevel" transform="matrix(1.00204,0,0,1.00204,40.5825,278.065)"
font-family="Ubuntu" font-size="10" font-weight="400" font-style="normal" 
>
</g>

<g fill="none" stroke="#000000" stroke-opacity="1" stroke-width="1" stroke-linecap="square" stroke-linejoin="bevel" transform="matrix(1.00204,0,0,1.00204,40.5825,278.065)"
font-family="Sans" font-size="9" font-weight="400" font-style="normal" 
>
<text fill="#000000" fill-opacity="1" stroke="none" xml:space="preserve" x="0" y="0" font-family="Sans" font-size="9" font-weight="400" font-style="normal" 
 > 0</text>
</g>

<g fill="none" stroke="#000000" stroke-opacity="1" stroke-width="1" stroke-linecap="square" stroke-linejoin="bevel" transform="matrix(1.00204,0,0,1.00204,40.5825,278.065)"
font-family="Ubuntu" font-size="10" font-weight="400" font-style="normal" 
>
</g>

<g fill="none" stroke="#000000" stroke-opacity="1" stroke-width="1" stroke-linecap="square" stroke-linejoin="bevel" transform="matrix(1.00204,0,0,1.00204,0,0)"
font-family="Ubuntu" font-size="10" font-weight="400" font-style="normal" 
>
</g>

<g fill="none" stroke="#000000" stroke-opacity="1" stroke-width="1" stroke-linecap="round" stroke-linejoin="round" transform="matrix(1.00204,0,0,1.00204,0,0)"
font-family="Ubuntu" font-size="10" font-weight="400" font-style="normal" 
>
<polyline fill="none" vector-effect="none" points="224.5,258.5 224.5,252.5 " />
<polyline fill="none" vector-effect="none" points="224.5,15.5 224.5,21.5 " />
</g>

<g fill="none" stroke="#000000" stroke-opacity="1" stroke-width="1" stroke-linecap="square" stroke-linejoin="bevel" transform="matrix(1.00204,0,0,1.00204,0,0)"
font-family="Ubuntu" font-size="10" font-weight="400" font-style="normal" 
>
</g>

<g fill="none" stroke="#000000" stroke-opacity="1" stroke-width="1" stroke-linecap="square" stroke-linejoin="bevel" transform="matrix(1.00204,0,0,1.00204,210.929,278.065)"
font-family="Ubuntu" font-size="10" font-weight="400" font-style="normal" 
>
</g>

<g fill="none" stroke="#000000" stroke-opacity="1" stroke-width="1" stroke-linecap="square" stroke-linejoin="bevel" transform="matrix(1.00204,0,0,1.00204,210.929,278.065)"
font-family="Ubuntu" font-size="10" font-weight="400" font-style="normal" 
>
</g>

<g fill="none" stroke="#000000" stroke-opacity="1" stroke-width="1" stroke-linecap="square" stroke-linejoin="bevel" transform="matrix(1.00204,0,0,1.00204,210.929,278.065)"
font-family="Ubuntu" font-size="10" font-weight="400" font-style="normal" 
>
</g>

<g fill="none" stroke="#000000" stroke-opacity="1" stroke-width="1" stroke-linecap="square" stroke-linejoin="bevel" transform="matrix(1.00204,0,0,1.00204,210.929,278.065)"
font-family="Ubuntu" font-size="10" font-weight="400" font-style="normal" 
>
</g>

<g fill="none" stroke="#000000" stroke-opacity="1" stroke-width="1" stroke-linecap="square" stroke-linejoin="bevel" transform="matrix(1.00204,0,0,1.00204,210.929,278.065)"
font-family="Ubuntu" font-size="10" font-weight="400" font-style="normal" 
>
</g>

<g fill="none" stroke="#000000" stroke-opacity="1" stroke-width="1" stroke-linecap="square" stroke-linejoin="bevel" transform="matrix(1.00204,0,0,1.00204,210.929,278.065)"
font-family="Sans" font-size="9" font-weight="400" font-style="normal" 
>
<text fill="#000000" fill-opacity="1" stroke="none" xml:space="preserve" x="0" y="0" font-family="Sans" font-size="9" font-weight="400" font-style="normal" 
 > 100</text>
</g>

<g fill="none" stroke="#000000" stroke-opacity="1" stroke-width="1" stroke-linecap="square" stroke-linejoin="bevel" transform="matrix(1.00204,0,0,1.00204,210.929,278.065)"
font-family="Ubuntu" font-size="10" font-weight="400" font-style="normal" 
>
</g>

<g fill="none" stroke="#000000" stroke-opacity="1" stroke-width="1" stroke-linecap="square" stroke-linejoin="bevel" transform="matrix(1.00204,0,0,1.00204,0,0)"
font-family="Ubuntu" font-size="10" font-weight="400" font-style="normal" 
>
</g>

<g fill="none" stroke="#000000" stroke-opacity="1" stroke-width="1" stroke-linecap="round" stroke-linejoin="round" transform="matrix(1.00204,0,0,1.00204,0,0)"
font-family="Ubuntu" font-size="10" font-weight="400" font-style="normal" 
>
<polyline fill="none" vector-effect="none" points="403.5,258.5 403.5,252.5 " />
<polyline fill="none" vector-effect="none" points="403.5,15.5 403.5,21.5 " />
</g>

<g fill="none" stroke="#000000" stroke-opacity="1" stroke-width="1" stroke-linecap="square" stroke-linejoin="bevel" transform="matrix(1.00204,0,0,1.00204,0,0)"
font-family="Ubuntu" font-size="10" font-weight="400" font-style="normal" 
>
</g>

<g fill="none" stroke="#000000" stroke-opacity="1" stroke-width="1" stroke-linecap="square" stroke-linejoin="bevel" transform="matrix(1.00204,0,0,1.00204,390.293,278.065)"
font-family="Ubuntu" font-size="10" font-weight="400" font-style="normal" 
>
</g>

<g fill="none" stroke="#000000" stroke-opacity="1" stroke-width="1" stroke-linecap="square" stroke-linejoin="bevel" transform="matrix(1.00204,0,0,1.00204,390.293,278.065)"
font-family="Ubuntu" font-size="10" font-weight="400" font-style="normal" 
>
</g>

<g fill="none" stroke="#000000" stroke-opacity="1" stroke-width="1" stroke-linecap="square" stroke-linejoin="bevel" transform="matrix(1.00204,0,0,1.00204,390.293,278.065)"
font-family="Ubuntu" font-size="10" font-weight="400" font-style="normal" 
>
</g>

<g fill="none" stroke="#000000" stroke-opacity="1" stroke-width="1" stroke-linecap="square" stroke-linejoin="bevel" transform="matrix(1.00204,0,0,1.00204,390.293,278.065)"
font-family="Ubuntu" font-size="10" font-weight="400" font-style="normal" 
>
</g>

<g fill="none" stroke="#000000" stroke-opacity="1" stroke-width="1" stroke-linecap="square" stroke-linejoin="bevel" transform="matrix(1.00204,0,0,1.00204,390.293,278.065)"
font-family="Ubuntu" font-size="10" font-weight="400" font-style="normal" 
>
</g>

<g fill="none" stroke="#000000" stroke-opacity="1" stroke-width="1" stroke-linecap="square" stroke-linejoin="bevel" transform="matrix(1.00204,0,0,1.00204,390.293,278.065)"
font-family="Sans" font-size="9" font-weight="400" font-style="normal" 
>
<text fill="#000000" fill-opacity="1" stroke="none" xml:space="preserve" x="0" y="0" font-family="Sans" font-size="9" font-weight="400" font-style="normal" 
 > 200</text>
</g>

<g fill="none" stroke="#000000" stroke-opacity="1" stroke-width="1" stroke-linecap="square" stroke-linejoin="bevel" transform="matrix(1.00204,0,0,1.00204,390.293,278.065)"
font-family="Ubuntu" font-size="10" font-weight="400" font-style="normal" 
>
</g>

<g fill="none" stroke="#000000" stroke-opacity="1" stroke-width="1" stroke-linecap="square" stroke-linejoin="bevel" transform="matrix(1.00204,0,0,1.00204,0,0)"
font-family="Ubuntu" font-size="10" font-weight="400" font-style="normal" 
>
</g>

<g fill="none" stroke="#000000" stroke-opacity="1" stroke-width="1" stroke-linecap="round" stroke-linejoin="round" transform="matrix(1.00204,0,0,1.00204,0,0)"
font-family="Ubuntu" font-size="10" font-weight="400" font-style="normal" 
>
<polyline fill="none" vector-effect="none" points="581.5,258.5 581.5,252.5 " />
<polyline fill="none" vector-effect="none" points="581.5,15.5 581.5,21.5 " />
</g>

<g fill="none" stroke="#000000" stroke-opacity="1" stroke-width="1" stroke-linecap="square" stroke-linejoin="bevel" transform="matrix(1.00204,0,0,1.00204,0,0)"
font-family="Ubuntu" font-size="10" font-weight="400" font-style="normal" 
>
</g>

<g fill="none" stroke="#000000" stroke-opacity="1" stroke-width="1" stroke-linecap="square" stroke-linejoin="bevel" transform="matrix(1.00204,0,0,1.00204,569.658,278.065)"
font-family="Ubuntu" font-size="10" font-weight="400" font-style="normal" 
>
</g>

<g fill="none" stroke="#000000" stroke-opacity="1" stroke-width="1" stroke-linecap="square" stroke-linejoin="bevel" transform="matrix(1.00204,0,0,1.00204,569.658,278.065)"
font-family="Ubuntu" font-size="10" font-weight="400" font-style="normal" 
>
</g>

<g fill="none" stroke="#000000" stroke-opacity="1" stroke-width="1" stroke-linecap="square" stroke-linejoin="bevel" transform="matrix(1.00204,0,0,1.00204,569.658,278.065)"
font-family="Ubuntu" font-size="10" font-weight="400" font-style="normal" 
>
</g>

<g fill="none" stroke="#000000" stroke-opacity="1" stroke-width="1" stroke-linecap="square" stroke-linejoin="bevel" transform="matrix(1.00204,0,0,1.00204,569.658,278.065)"
font-family="Ubuntu" font-size="10" font-weight="400" font-style="normal" 
>
</g>

<g fill="none" stroke="#000000" stroke-opacity="1" stroke-width="1" stroke-linecap="square" stroke-linejoin="bevel" transform="matrix(1.00204,0,0,1.00204,569.658,278.065)"
font-family="Ubuntu" font-size="10" font-weight="400" font-style="normal" 
>
</g>

<g fill="none" stroke="#000000" stroke-opacity="1" stroke-width="1" stroke-linecap="square" stroke-linejoin="bevel" transform="matrix(1.00204,0,0,1.00204,569.658,278.065)"
font-family="Sans" font-size="9" font-weight="400" font-style="normal" 
>
<text fill="#000000" fill-opacity="1" stroke="none" xml:space="preserve" x="0" y="0" font-family="Sans" font-size="9" font-weight="400" font-style="normal" 
 > 300</text>
</g>

<g fill="none" stroke="#000000" stroke-opacity="1" stroke-width="1" stroke-linecap="square" stroke-linejoin="bevel" transform="matrix(1.00204,0,0,1.00204,569.658,278.065)"
font-family="Ubuntu" font-size="10" font-weight="400" font-style="normal" 
>
</g>

<g fill="none" stroke="#000000" stroke-opacity="1" stroke-width="1" stroke-linecap="square" stroke-linejoin="bevel" transform="matrix(1.00204,0,0,1.00204,0,0)"
font-family="Ubuntu" font-size="10" font-weight="400" font-style="normal" 
>
</g>

<g fill="none" stroke="#000000" stroke-opacity="1" stroke-width="1" stroke-linecap="round" stroke-linejoin="round" transform="matrix(1.00204,0,0,1.00204,0,0)"
font-family="Ubuntu" font-size="10" font-weight="400" font-style="normal" 
>
<polyline fill="none" vector-effect="none" points="760.5,258.5 760.5,252.5 " />
<polyline fill="none" vector-effect="none" points="760.5,15.5 760.5,21.5 " />
</g>

<g fill="none" stroke="#000000" stroke-opacity="1" stroke-width="1" stroke-linecap="square" stroke-linejoin="bevel" transform="matrix(1.00204,0,0,1.00204,0,0)"
font-family="Ubuntu" font-size="10" font-weight="400" font-style="normal" 
>
</g>

<g fill="none" stroke="#000000" stroke-opacity="1" stroke-width="1" stroke-linecap="square" stroke-linejoin="bevel" transform="matrix(1.00204,0,0,1.00204,749.022,278.065)"
font-family="Ubuntu" font-size="10" font-weight="400" font-style="normal" 
>
</g>

<g fill="none" stroke="#000000" stroke-opacity="1" stroke-width="1" stroke-linecap="square" stroke-linejoin="bevel" transform="matrix(1.00204,0,0,1.00204,749.022,278.065)"
font-family="Ubuntu" font-size="10" font-weight="400" font-style="normal" 
>
</g>

<g fill="none" stroke="#000000" stroke-opacity="1" stroke-width="1" stroke-linecap="square" stroke-linejoin="bevel" transform="matrix(1.00204,0,0,1.00204,749.022,278.065)"
font-family="Ubuntu" font-size="10" font-weight="400" font-style="normal" 
>
</g>

<g fill="none" stroke="#000000" stroke-opacity="1" stroke-width="1" stroke-linecap="square" stroke-linejoin="bevel" transform="matrix(1.00204,0,0,1.00204,749.022,278.065)"
font-family="Ubuntu" font-size="10" font-weight="400" font-style="normal" 
>
</g>

<g fill="none" stroke="#000000" stroke-opacity="1" stroke-width="1" stroke-linecap="square" stroke-linejoin="bevel" transform="matrix(1.00204,0,0,1.00204,749.022,278.065)"
font-family="Ubuntu" font-size="10" font-weight="400" font-style="normal" 
>
</g>

<g fill="none" stroke="#000000" stroke-opacity="1" stroke-width="1" stroke-linecap="square" stroke-linejoin="bevel" transform="matrix(1.00204,0,0,1.00204,749.022,278.065)"
font-family="Sans" font-size="9" font-weight="400" font-style="normal" 
>
<text fill="#000000" fill-opacity="1" stroke="none" xml:space="preserve" x="0" y="0" font-family="Sans" font-size="9" font-weight="400" font-style="normal" 
 > 400</text>
</g>

<g fill="none" stroke="#000000" stroke-opacity="1" stroke-width="1" stroke-linecap="square" stroke-linejoin="bevel" transform="matrix(1.00204,0,0,1.00204,749.022,278.065)"
font-family="Ubuntu" font-size="10" font-weight="400" font-style="normal" 
>
</g>

<g fill="none" stroke="#000000" stroke-opacity="1" stroke-width="1" stroke-linecap="square" stroke-linejoin="bevel" transform="matrix(1.00204,0,0,1.00204,0,0)"
font-family="Ubuntu" font-size="10" font-weight="400" font-style="normal" 
>
</g>

<g fill="none" stroke="#000000" stroke-opacity="1" stroke-width="1" stroke-linecap="round" stroke-linejoin="round" transform="matrix(1.00204,0,0,1.00204,0,0)"
font-family="Ubuntu" font-size="10" font-weight="400" font-style="normal" 
>
<polyline fill="none" vector-effect="none" points="939.5,258.5 939.5,252.5 " />
<polyline fill="none" vector-effect="none" points="939.5,15.5 939.5,21.5 " />
</g>

<g fill="none" stroke="#000000" stroke-opacity="1" stroke-width="1" stroke-linecap="square" stroke-linejoin="bevel" transform="matrix(1.00204,0,0,1.00204,0,0)"
font-family="Ubuntu" font-size="10" font-weight="400" font-style="normal" 
>
</g>

<g fill="none" stroke="#000000" stroke-opacity="1" stroke-width="1" stroke-linecap="square" stroke-linejoin="bevel" transform="matrix(1.00204,0,0,1.00204,927.385,278.065)"
font-family="Ubuntu" font-size="10" font-weight="400" font-style="normal" 
>
</g>

<g fill="none" stroke="#000000" stroke-opacity="1" stroke-width="1" stroke-linecap="square" stroke-linejoin="bevel" transform="matrix(1.00204,0,0,1.00204,927.385,278.065)"
font-family="Ubuntu" font-size="10" font-weight="400" font-style="normal" 
>
</g>

<g fill="none" stroke="#000000" stroke-opacity="1" stroke-width="1" stroke-linecap="square" stroke-linejoin="bevel" transform="matrix(1.00204,0,0,1.00204,927.385,278.065)"
font-family="Ubuntu" font-size="10" font-weight="400" font-style="normal" 
>
</g>

<g fill="none" stroke="#000000" stroke-opacity="1" stroke-width="1" stroke-linecap="square" stroke-linejoin="bevel" transform="matrix(1.00204,0,0,1.00204,927.385,278.065)"
font-family="Ubuntu" font-size="10" font-weight="400" font-style="normal" 
>
</g>

<g fill="none" stroke="#000000" stroke-opacity="1" stroke-width="1" stroke-linecap="square" stroke-linejoin="bevel" transform="matrix(1.00204,0,0,1.00204,927.385,278.065)"
font-family="Ubuntu" font-size="10" font-weight="400" font-style="normal" 
>
</g>

<g fill="none" stroke="#000000" stroke-opacity="1" stroke-width="1" stroke-linecap="square" stroke-linejoin="bevel" transform="matrix(1.00204,0,0,1.00204,927.385,278.065)"
font-family="Sans" font-size="9" font-weight="400" font-style="normal" 
>
<text fill="#000000" fill-opacity="1" stroke="none" xml:space="preserve" x="0" y="0" font-family="Sans" font-size="9" font-weight="400" font-style="normal" 
 > 500</text>
</g>

<g fill="none" stroke="#000000" stroke-opacity="1" stroke-width="1" stroke-linecap="square" stroke-linejoin="bevel" transform="matrix(1.00204,0,0,1.00204,927.385,278.065)"
font-family="Ubuntu" font-size="10" font-weight="400" font-style="normal" 
>
</g>

<g fill="none" stroke="#000000" stroke-opacity="1" stroke-width="1" stroke-linecap="square" stroke-linejoin="bevel" transform="matrix(1.00204,0,0,1.00204,0,0)"
font-family="Ubuntu" font-size="10" font-weight="400" font-style="normal" 
>
</g>

<g fill="none" stroke="#000000" stroke-opacity="1" stroke-width="1" stroke-linecap="round" stroke-linejoin="round" transform="matrix(1.00204,0,0,1.00204,0,0)"
font-family="Ubuntu" font-size="10" font-weight="400" font-style="normal" 
>
<polyline fill="none" vector-effect="none" points="45.5,15.5 45.5,258.5 960.5,258.5 960.5,15.5 45.5,15.5 " />
</g>

<g fill="none" stroke="#000000" stroke-opacity="1" stroke-width="1" stroke-linecap="square" stroke-linejoin="bevel" transform="matrix(1.00204,0,0,1.00204,0,0)"
font-family="Ubuntu" font-size="10" font-weight="400" font-style="normal" 
>
</g>

<g fill="none" stroke="#000000" stroke-opacity="1" stroke-width="1" stroke-linecap="square" stroke-linejoin="bevel" transform="matrix(1.00204,0,0,1.00204,840.662,17.5356)"
font-family="Ubuntu" font-size="10" font-weight="400" font-style="normal" 
>
</g>

<g fill="none" stroke="#000000" stroke-opacity="1" stroke-width="1" stroke-linecap="square" stroke-linejoin="bevel" transform="matrix(1.00204,0,0,1.00204,840.662,17.5356)"
font-family="Ubuntu" font-size="10" font-weight="400" font-style="normal" 
>
</g>

<g fill="none" stroke="#000000" stroke-opacity="1" stroke-width="1" stroke-linecap="square" stroke-linejoin="bevel" transform="matrix(1.00204,0,0,1.00204,840.662,17.5356)"
font-family="Ubuntu" font-size="10" font-weight="400" font-style="normal" 
>
</g>

<g fill="none" stroke="#000000" stroke-opacity="1" stroke-width="1" stroke-linecap="square" stroke-linejoin="bevel" transform="matrix(1.00204,0,0,1.00204,840.662,17.5356)"
font-family="Ubuntu" font-size="10" font-weight="400" font-style="normal" 
>
<text fill="#000000" fill-opacity="1" stroke="none" xml:space="preserve" x="4" y="16" font-family="Sans" font-size="9" font-weight="400" font-style="normal" 
 >&quot;sine.dat&quot;</text>
</g>

<g fill="none" stroke="#000000" stroke-opacity="1" stroke-width="1" stroke-linecap="square" stroke-linejoin="bevel" transform="matrix(1.00204,0,0,1.00204,840.662,17.5356)"
font-family="Ubuntu" font-size="10" font-weight="400" font-style="normal" 
>
</g>

<g fill="none" stroke="#000000" stroke-opacity="1" stroke-width="1" stroke-linecap="square" stroke-linejoin="bevel" transform="matrix(1,0,0,1,0,0)"
font-family="Ubuntu" font-size="10" font-weight="400" font-style="normal" 
>
</g>

<g fill="none" stroke="#000000" stroke-opacity="1" stroke-width="1" stroke-linecap="square" stroke-linejoin="bevel" transform="matrix(1.00204,0,0,1.00204,840.662,17.5356)"
font-family="Ubuntu" font-size="10" font-weight="400" font-style="normal" 
>
</g>

<g fill="none" stroke="#000000" stroke-opacity="1" stroke-width="1" stroke-linecap="square" stroke-linejoin="bevel" transform="matrix(1.00204,0,0,1.00204,840.662,17.5356)"
font-family="Ubuntu" font-size="10" font-weight="400" font-style="normal" 
>
</g>

<g fill="none" stroke="#000000" stroke-opacity="1" stroke-width="1" stroke-linecap="square" stroke-linejoin="bevel" transform="matrix(1.00204,0,0,1.00204,840.662,17.5356)"
font-family="Ubuntu" font-size="10" font-weight="400" font-style="normal" 
>
</g>

<g fill="none" stroke="#000000" stroke-opacity="1" stroke-width="1" stroke-linecap="square" stroke-linejoin="bevel" transform="matrix(1.00204,0,0,1.00204,0,0)"
font-family="Ubuntu" font-size="10" font-weight="400" font-style="normal" 
>
</g>

<g fill="none" stroke="#9400d3" stroke-opacity="1" stroke-width="1" stroke-linecap="round" stroke-linejoin="round" transform="matrix(1.00204,0,0,1.00204,0,0)"
font-family="Ubuntu" font-size="10" font-weight="400" font-style="normal" 
>
<path vector-effect="none" fill-rule="evenodd" d="M912.5,28.5 L946.5,28.5"/>
</g>

<g fill="none" stroke="#000000" stroke-opacity="1" stroke-width="1" stroke-linecap="square" stroke-linejoin="bevel" transform="matrix(1.00204,0,0,1.00204,0,0)"
font-family="Ubuntu" font-size="10" font-weight="400" font-style="normal" 
>
</g>

<g fill="none" stroke="#000000" stroke-opacity="1" stroke-width="1" stroke-linecap="square" stroke-linejoin="bevel" transform="matrix(1.00204,0,0,1.00204,0,0)"
font-family="Ubuntu" font-size="10" font-weight="400" font-style="normal" 
>
</g>

<g fill="none" stroke="#000000" stroke-opacity="1" stroke-width="1" stroke-linecap="square" stroke-linejoin="bevel" transform="matrix(1.00204,0,0,1.00204,0,0)"
font-family="Ubuntu" font-size="10" font-weight="400" font-style="normal" 
>
</g>

<g fill="none" stroke="#000000" stroke-opacity="1" stroke-width="1" stroke-linecap="square" stroke-linejoin="bevel" transform="matrix(1.00204,0,0,1.00204,0,0)"
font-family="Ubuntu" font-size="10" font-weight="400" font-style="normal" 
>
</g>

<g fill="none" stroke="#9400d3" stroke-opacity="1" stroke-width="1" stroke-linecap="round" stroke-linejoin="round" transform="matrix(1.00204,0,0,1.00204,0,0)"
font-family="Ubuntu" font-size="10" font-weight="400" font-style="normal" 
>
<polyline fill="none" vector-effect="none" points="45.5,126.9 45.5,126.9 47.3,117.3 49.1,107.8 50.9,98.5 52.7,89.4 54.4,81.3 56.2,72.8 58,64.8 59.8,57.2 61.6,50.1 63.4,44.1 65.2,38.1 67,32.8 68.7,28.1 70.5,24.1 72.3,21 74.1,18.4 75.9,16.5 77.7,15.4 79.5,15.1 81.3,15.5 83,16.6 84.8,18.6 86.6,21.2 88.4,24.3 90.2,28.4 92,33.2 93.8,38.6 95.6,44.6 97.3,50.7 99.1,57.8 100.9,65.4 102.7,73.5 104.5,81.9 106.3,90.1 108.1,99.2 109.9,108.5 111.7,118 113.4,127.6 115.2,136.5 117,146.2 118.8,155.8 120.6,165.3 122.4,174.6 124.2,183 126,191.8 127.7,200.3 129.5,208.3 131.3,215.9 133.1,222.4 134.9,229 136.7,235 138.5,240.3 140.3,245 142,248.8 143.8,252.1 145.6,254.7 147.4,256.6 149.2,257.7 151,258 152.8,257.6 154.6,256.5 156.3,254.5 158.1,251.9 159.9,248.8 161.7,244.7 163.5,239.9 165.3,234.5 167.1,228.5 168.9,222.4 170.7,215.3 172.4,207.7 174.2,199.6 176,191.2 177.8,183 179.6,173.9 181.4,164.6 183.2,155.1 185,145.5 186.7,136.5 188.5,126.9 190.3,117.3 192.1,107.8 193.9,98.5 195.7,90.1 197.5,81.3 199.3,72.8 201,64.8 202.8,57.2 204.6,50.7 206.4,44.1 208.2,38.1 210,32.8 211.8,28.1 213.6,24.3 215.3,21 217.1,18.4 218.9,16.5 220.7,15.4 222.5,15.1 224.3,15.5 226.1,16.6 227.9,18.6 229.7,21.2 231.4,24.3 233.2,28.4 235,33.2 236.8,38.6 238.6,44.6 240.4,50.7 242.2,57.8 244,65.4 245.7,73.5 247.5,81.9 249.3,90.1 251.1,99.2 252.9,108.5 254.7,118 256.5,127.6 258.3,136.5 260,146.2 261.8,155.8 263.6,165.3 265.4,174.6 267.2,183 269,191.8 270.8,200.3 272.6,208.3 274.4,215.9 276.1,222.4 277.9,229 279.7,235 281.5,240.3 283.3,245 285.1,248.8 286.9,252.1 288.7,254.7 290.4,256.6 292.2,257.7 294,258 295.8,257.6 297.6,256.5 299.4,254.5 301.2,251.9 303,248.8 304.7,244.7 306.5,239.9 308.3,234.5 310.1,228.5 311.9,222.4 313.7,215.3 315.5,207.7 317.3,199.6 319,191.2 320.8,183 322.6,173.9 324.4,164.6 326.2,155.1 328,145.5 329.8,136.5 331.6,126.9 333.4,117.3 335.1,107.8 336.9,98.5 338.7,90.1 340.5,81.3 342.3,72.8 344.1,64.8 345.9,57.2 347.7,50.7 349.4,44.1 351.2,38.1 353,32.8 354.8,28.1 356.6,24.3 358.4,21 360.2,18.4 362,16.5 363.7,15.4 365.5,15.1 367.3,15.5 369.1,16.6 370.9,18.6 372.7,21.2 374.5,24.3 376.3,28.4 378,33.2 379.8,38.6 381.6,44.6 383.4,50.7 385.2,57.8 387,65.4 388.8,73.5 390.6,81.9 392.4,90.1 394.1,99.2 395.9,108.5 397.7,118 399.5,127.6 401.3,136.5 403.1,146.2 404.9,155.8 406.7,165.3 408.4,174.6 410.2,183 412,191.8 413.8,200.3 415.6,208.3 417.4,215.9 419.2,222.4 421,229 422.7,235 424.5,240.3 426.3,245 428.1,248.8 429.9,252.1 431.7,254.7 433.5,256.6 435.3,257.7 437,258 438.8,257.6 440.6,256.5 442.4,254.5 444.2,251.9 446,248.8 447.8,244.7 449.6,239.9 451.4,234.5 453.1,228.5 454.9,222.4 456.7,215.3 458.5,207.7 460.3,199.6 462.1,191.2 463.9,183 465.7,173.9 467.4,164.6 469.2,155.1 471,145.5 472.8,136.5 474.6,126.9 476.4,117.3 478.2,107.8 480,98.5 481.7,90.1 483.5,81.3 485.3,72.8 487.1,64.8 488.9,57.2 490.7,50.7 492.5,44.1 494.3,38.1 496,32.8 497.8,28.1 499.6,24.3 501.4,21 503.2,18.4 505,16.5 506.8,15.4 508.6,15.1 510.4,15.5 512.1,16.6 513.9,18.6 515.7,21.2 517.5,24.3 519.3,28.4 521.1,33.2 522.9,38.6 524.7,44.6 526.4,50.7 528.2,57.8 530,65.4 531.8,73.5 533.6,81.9 535.4,90.1 537.2,99.2 539,108.5 540.7,118 542.5,127.6 544.3,136.5 546.1,146.2 547.9,155.8 549.7,165.3 551.5,174.6 553.3,183 555,191.8 556.8,200.3 558.6,208.3 560.4,215.9 562.2,222.4 564,229 565.8,235 567.6,240.3 569.4,245 571.1,248.8 572.9,252.1 574.7,254.7 576.5,256.6 578.3,257.7 580.1,258 581.9,257.6 583.7,256.5 585.4,254.5 587.2,251.9 589,248.8 590.8,244.7 592.6,239.9 594.4,234.5 596.2,228.5 598,222.4 599.7,215.3 601.5,207.7 603.3,199.6 605.1,191.2 606.9,183 608.7,173.9 610.5,164.6 612.3,155.1 614,145.5 615.8,136.5 617.6,126.9 619.4,117.3 621.2,107.8 623,98.5 624.8,90.1 626.6,81.3 628.4,72.8 630.1,64.8 631.9,57.2 633.7,50.7 635.5,44.1 637.3,38.1 639.1,32.8 640.9,28.1 642.7,24.3 644.4,21 646.2,18.4 648,16.5 649.8,15.4 651.6,15.1 653.4,15.5 655.2,16.6 657,18.6 658.7,21.2 660.5,24.3 662.3,28.4 664.1,33.2 665.9,38.6 667.7,44.6 669.5,50.7 671.3,57.8 673,65.4 674.8,73.5 676.6,81.9 678.4,90.1 680.2,99.2 682,108.5 683.8,118 685.6,127.6 687.4,136.5 689.1,146.2 690.9,155.8 692.7,165.3 694.5,174.6 696.3,183 698.1,191.8 699.9,200.3 701.7,208.3 703.4,215.9 705.2,222.4 707,229 708.8,235 710.6,240.3 712.4,245 714.2,248.8 716,252.1 717.7,254.7 719.5,256.6 721.3,257.7 723.1,258 724.9,257.6 726.7,256.5 728.5,254.5 730.3,251.9 732.1,248.8 733.8,244.7 735.6,239.9 737.4,234.5 739.2,228.5 741,222.4 742.8,215.3 744.6,207.7 746.4,199.6 748.1,191.2 749.9,183 751.7,173.9 753.5,164.6 755.3,155.1 757.1,145.5 758.9,136.5 760.7,126.9 762.4,117.3 764.2,107.8 766,98.5 767.8,90.1 769.6,81.3 771.4,72.8 773.2,64.8 775,57.2 776.7,50.7 778.5,44.1 780.3,38.1 782.1,32.8 783.9,28.1 785.7,24.3 787.5,21 789.3,18.4 791.1,16.5 792.8,15.4 794.6,15.1 796.4,15.5 798.2,16.6 800,18.6 801.8,21.2 803.6,24.3 805.4,28.4 807.1,33.2 808.9,38.6 810.7,44.6 812.5,50.7 814.3,57.8 816.1,65.4 817.9,73.5 819.7,81.9 821.4,90.1 823.2,99.2 825,108.5 826.8,118 828.6,127.6 830.4,136.5 832.2,146.2 834,155.8 835.7,165.3 837.5,174.6 839.3,183 841.1,191.8 842.9,200.3 844.7,208.3 846.5,215.9 848.3,222.4 850.1,229 851.8,235 853.6,240.3 855.4,245 857.2,248.8 859,252.1 860.8,254.7 862.6,256.6 864.4,257.7 866.1,258 867.9,257.6 869.7,256.5 871.5,254.5 873.3,251.9 875.1,248.8 876.9,244.7 878.7,239.9 880.4,234.5 882.2,228.5 884,222.4 885.8,215.3 887.6,207.7 889.4,199.6 891.2,191.2 893,183 894.7,173.9 896.5,164.6 898.3,155.1 900.1,145.5 901.9,136.5 903.7,126.9 905.5,117.3 907.3,107.8 909.1,98.5 910.8,90.1 912.6,81.3 914.4,72.8 916.2,64.8 918,57.2 919.8,50.7 921.6,44.1 923.4,38.1 925.1,32.8 926.9,28.1 928.7,24.3 930.5,21 932.3,18.4 934.1,16.5 935.9,15.4 937.7,15.1 939.4,15.5 941.2,16.6 943,18.6 944.8,21.2 946.6,24.3 948.4,28.4 950.2,33.2 952,38.6 953.7,44.6 955.5,50.7 957.3,57.8 959.1,65.4 960.9,73.5 960.9,73.5 " />
</g>

<g fill="none" stroke="#000000" stroke-opacity="1" stroke-width="1" stroke-linecap="square" stroke-linejoin="bevel" transform="matrix(1.00204,0,0,1.00204,0,0)"
font-family="Ubuntu" font-size="10" font-weight="400" font-style="normal" 
>
</g>

<g fill="none" stroke="#000000" stroke-opacity="1" stroke-width="1" stroke-linecap="square" stroke-linejoin="bevel" transform="matrix(1.00204,0,0,1.00204,0,0)"
font-family="Ubuntu" font-size="10" font-weight="400" font-style="normal" 
>
</g>

<g fill="none" stroke="#000000" stroke-opacity="1" stroke-width="1" stroke-linecap="round" stroke-linejoin="round" transform="matrix(1.00204,0,0,1.00204,0,0)"
font-family="Ubuntu" font-size="10" font-weight="400" font-style="normal" 
>
<polyline fill="none" vector-effect="none" points="45.5,15.5 45.5,258.5 960.5,258.5 960.5,15.5 45.5,15.5 " />
</g>

<g fill="none" stroke="#000000" stroke-opacity="1" stroke-width="1" stroke-linecap="square" stroke-linejoin="bevel" transform="matrix(1.00204,0,0,1.00204,0,0)"
font-family="Ubuntu" font-size="10" font-weight="400" font-style="normal" 
>
</g>

<g fill="none" stroke="#000000" stroke-opacity="1" stroke-width="1" stroke-linecap="square" stroke-linejoin="bevel" transform="matrix(1,0,0,1,0,0)"
font-family="Ubuntu" font-size="10" font-weight="400" font-style="normal" 
>
</g>
</g>
</svg>
