<?xml version="1.0"?>
<svg xmlns="http://www.w3.org/2000/svg" xmlns:xlink="http://www.w3.org/1999/xlink" viewBox="0 0 453.400000 112.000000" width="226.700000mm" height="56.000000mm" version="1.1">
<a xlink:href="process.svg">
<rect x="1.000000" y="1.000000" width="452.400000" height="111.000000" rx="0" ry="0" style="stroke:none;fill:#cccccc;"/>
<rect x="0.000000" y="0.000000" width="452.400000" height="111.000000" rx="0" ry="0" style="stroke:none;fill:#ffffff;"/>
</a>
<text x="10.000000" y="7.000000" font-family="Arial" font-size="7"></text>
<a xlink:href="phasor-0x7fed1400a9b0.svg">
<rect x="25.000000" y="45.000000" width="51.600000" height="24.000000" rx="0" ry="0" style="stroke:none;fill:#cccccc;"/>
<rect x="24.000000" y="44.000000" width="51.600000" height="24.000000" rx="0" ry="0" style="stroke:none;fill:#003366;"/>
</a>
<a xlink:href="phasor-0x7fed1400a9b0.svg">
<text x="49.800000" y="58.000000" font-family="Arial" font-size="7" text-anchor="middle" fill="#FFFFFF">phasor(100)</text>
</a>
<circle cx="26.000000" cy="46.000000" r="1"/>
<rect x="110.600000" y="53.000000" width="24.000000" height="24.000000" rx="0" ry="0" style="stroke:none;fill:#cccccc;"/>
<rect x="109.600000" y="52.000000" width="24.000000" height="24.000000" rx="0" ry="0" style="stroke:none;fill:#f44800;"/>
<text x="121.600000" y="66.000000" font-family="Arial" font-size="7" text-anchor="middle" fill="#FFFFFF">0.5</text>
<circle cx="111.600000" cy="54.000000" r="1"/>
<rect x="150.600000" y="49.000000" width="24.000000" height="24.000000" rx="0" ry="0" style="stroke:none;fill:#cccccc;"/>
<rect x="149.600000" y="48.000000" width="24.000000" height="24.000000" rx="0" ry="0" style="stroke:none;fill:#4B71A1;"/>
<text x="161.600000" y="62.000000" font-family="Arial" font-size="7" text-anchor="middle" fill="#FFFFFF">+</text>
<circle cx="151.600000" cy="50.000000" r="1"/>
<line x1="146.600000" y1="55.000000" x2="149.600000" y2="56.000000"  transform="rotate(0.000000,149.600000,56.000000)" style="stroke: black; stroke-width:0.25;"/>
<line x1="146.600000" y1="57.000000" x2="149.600000" y2="56.000000"  transform="rotate(0.000000,149.600000,56.000000)" style="stroke: black; stroke-width:0.25;"/>
<line x1="146.600000" y1="63.000000" x2="149.600000" y2="64.000000"  transform="rotate(0.000000,149.600000,64.000000)" style="stroke: black; stroke-width:0.25;"/>
<line x1="146.600000" y1="65.000000" x2="149.600000" y2="64.000000"  transform="rotate(0.000000,149.600000,64.000000)" style="stroke: black; stroke-width:0.25;"/>
<rect x="182.600000" y="49.000000" width="25.800000" height="24.000000" rx="0" ry="0" style="stroke:none;fill:#cccccc;"/>
<rect x="181.600000" y="48.000000" width="25.800000" height="24.000000" rx="0" ry="0" style="stroke:none;fill:#4B71A1;"/>
<text x="194.500000" y="62.000000" font-family="Arial" font-size="7" text-anchor="middle" fill="#FFFFFF">floor</text>
<circle cx="183.600000" cy="50.000000" r="1"/>
<line x1="178.600000" y1="59.000000" x2="181.600000" y2="60.000000"  transform="rotate(0.000000,181.600000,60.000000)" style="stroke: black; stroke-width:0.25;"/>
<line x1="178.600000" y1="61.000000" x2="181.600000" y2="60.000000"  transform="rotate(0.000000,181.600000,60.000000)" style="stroke: black; stroke-width:0.25;"/>
<rect x="224.400000" y="45.000000" width="24.000000" height="24.000000" rx="0" ry="0" style="stroke:none;fill:#cccccc;"/>
<rect x="223.400000" y="44.000000" width="24.000000" height="24.000000" rx="0" ry="0" style="stroke:none;fill:#4B71A1;"/>
<text x="235.400000" y="58.000000" font-family="Arial" font-size="7" text-anchor="middle" fill="#FFFFFF">-</text>
<circle cx="225.400000" cy="46.000000" r="1"/>
<line x1="220.400000" y1="51.000000" x2="223.400000" y2="52.000000"  transform="rotate(0.000000,223.400000,52.000000)" style="stroke: black; stroke-width:0.25;"/>
<line x1="220.400000" y1="53.000000" x2="223.400000" y2="52.000000"  transform="rotate(0.000000,223.400000,52.000000)" style="stroke: black; stroke-width:0.25;"/>
<line x1="220.400000" y1="59.000000" x2="223.400000" y2="60.000000"  transform="rotate(0.000000,223.400000,60.000000)" style="stroke: black; stroke-width:0.25;"/>
<line x1="220.400000" y1="61.000000" x2="223.400000" y2="60.000000"  transform="rotate(0.000000,223.400000,60.000000)" style="stroke: black; stroke-width:0.25;"/>
<rect x="256.400000" y="45.000000" width="24.000000" height="24.000000" rx="0" ry="0" style="stroke:none;fill:#cccccc;"/>
<rect x="255.400000" y="44.000000" width="24.000000" height="24.000000" rx="0" ry="0" style="stroke:none;fill:#4B71A1;"/>
<text x="267.400000" y="58.000000" font-family="Arial" font-size="7" text-anchor="middle" fill="#FFFFFF">abs</text>
<circle cx="257.400000" cy="46.000000" r="1"/>
<line x1="252.400000" y1="55.000000" x2="255.400000" y2="56.000000"  transform="rotate(0.000000,255.400000,56.000000)" style="stroke: black; stroke-width:0.25;"/>
<line x1="252.400000" y1="57.000000" x2="255.400000" y2="56.000000"  transform="rotate(0.000000,255.400000,56.000000)" style="stroke: black; stroke-width:0.25;"/>
<rect x="318.400000" y="33.000000" width="24.000000" height="24.000000" rx="0" ry="0" style="stroke:none;fill:#cccccc;"/>
<rect x="317.400000" y="32.000000" width="24.000000" height="24.000000" rx="0" ry="0" style="stroke:none;fill:#f44800;"/>
<text x="329.400000" y="46.000000" font-family="Arial" font-size="7" text-anchor="middle" fill="#FFFFFF">4</text>
<circle cx="319.400000" cy="34.000000" r="1"/>
<rect x="358.400000" y="29.000000" width="24.000000" height="24.000000" rx="0" ry="0" style="stroke:none;fill:#cccccc;"/>
<rect x="357.400000" y="28.000000" width="24.000000" height="24.000000" rx="0" ry="0" style="stroke:none;fill:#4B71A1;"/>
<text x="369.400000" y="42.000000" font-family="Arial" font-size="7" text-anchor="middle" fill="#FFFFFF">*</text>
<circle cx="359.400000" cy="30.000000" r="1"/>
<line x1="354.400000" y1="35.000000" x2="357.400000" y2="36.000000"  transform="rotate(0.000000,357.400000,36.000000)" style="stroke: black; stroke-width:0.25;"/>
<line x1="354.400000" y1="37.000000" x2="357.400000" y2="36.000000"  transform="rotate(0.000000,357.400000,36.000000)" style="stroke: black; stroke-width:0.25;"/>
<line x1="354.400000" y1="43.000000" x2="357.400000" y2="44.000000"  transform="rotate(0.000000,357.400000,44.000000)" style="stroke: black; stroke-width:0.25;"/>
<line x1="354.400000" y1="45.000000" x2="357.400000" y2="44.000000"  transform="rotate(0.000000,357.400000,44.000000)" style="stroke: black; stroke-width:0.25;"/>
<rect x="338.400000" y="65.000000" width="24.000000" height="24.000000" rx="0" ry="0" style="stroke:none;fill:#cccccc;"/>
<rect x="337.400000" y="64.000000" width="24.000000" height="24.000000" rx="0" ry="0" style="stroke:none;fill:#f44800;"/>
<text x="349.400000" y="78.000000" font-family="Arial" font-size="7" text-anchor="middle" fill="#FFFFFF">1</text>
<circle cx="339.400000" cy="66.000000" r="1"/>
<rect x="398.400000" y="45.000000" width="24.000000" height="24.000000" rx="0" ry="0" style="stroke:none;fill:#cccccc;"/>
<rect x="397.400000" y="44.000000" width="24.000000" height="24.000000" rx="0" ry="0" style="stroke:none;fill:#4B71A1;"/>
<text x="409.400000" y="58.000000" font-family="Arial" font-size="7" text-anchor="middle" fill="#FFFFFF">-</text>
<circle cx="399.400000" cy="46.000000" r="1"/>
<line x1="394.400000" y1="51.000000" x2="397.400000" y2="52.000000"  transform="rotate(0.000000,397.400000,52.000000)" style="stroke: black; stroke-width:0.25;"/>
<line x1="394.400000" y1="53.000000" x2="397.400000" y2="52.000000"  transform="rotate(0.000000,397.400000,52.000000)" style="stroke: black; stroke-width:0.25;"/>
<line x1="394.400000" y1="59.000000" x2="397.400000" y2="60.000000"  transform="rotate(0.000000,397.400000,60.000000)" style="stroke: black; stroke-width:0.25;"/>
<line x1="394.400000" y1="61.000000" x2="397.400000" y2="60.000000"  transform="rotate(0.000000,397.400000,60.000000)" style="stroke: black; stroke-width:0.25;"/>
<line x1="15.000000" y1="15.000000" x2="15.000000" y2="97.000000"  style="stroke: black; stroke-linecap:round; stroke-width:0.25; stroke-dasharray:3,3;"/>
<line x1="15.000000" y1="97.000000" x2="438.400000" y2="97.000000"  style="stroke: black; stroke-linecap:round; stroke-width:0.25; stroke-dasharray:3,3;"/>
<line x1="438.400000" y1="97.000000" x2="438.400000" y2="15.000000"  style="stroke: black; stroke-linecap:round; stroke-width:0.25; stroke-dasharray:3,3;"/>
<line x1="15.000000" y1="15.000000" x2="20.000000" y2="15.000000"  style="stroke: black; stroke-linecap:round; stroke-width:0.25; stroke-dasharray:3,3;"/>
<line x1="68.375000" y1="15.000000" x2="438.400000" y2="15.000000"  style="stroke: black; stroke-linecap:round; stroke-width:0.25; stroke-dasharray:3,3;"/>
<text x="20.000000" y="17.000000" font-family="Arial" font-size="7">triangle(100)</text>
<line x1="440.400000" y1="55.000000" x2="443.400000" y2="56.000000"  transform="rotate(0.000000,443.400000,56.000000)" style="stroke: black; stroke-width:0.25;"/>
<line x1="440.400000" y1="57.000000" x2="443.400000" y2="56.000000"  transform="rotate(0.000000,443.400000,56.000000)" style="stroke: black; stroke-width:0.25;"/>
<line x1="75.600000" y1="56.000000" x2="79.600000" y2="56.000000"  style="stroke:black; stroke-linecap:round; stroke-width:0.25;"/>
<line x1="79.600000" y1="56.000000" x2="105.600000" y2="36.000000"  style="stroke:black; stroke-linecap:round; stroke-width:0.25;"/>
<line x1="79.600000" y1="56.000000" x2="105.600000" y2="44.000000"  style="stroke:black; stroke-linecap:round; stroke-width:0.25;"/>
<line x1="105.600000" y1="36.000000" x2="158.500000" y2="36.000000"  style="stroke:black; stroke-linecap:round; stroke-width:0.25;"/>
<line x1="105.600000" y1="44.000000" x2="121.600000" y2="44.000000"  style="stroke:black; stroke-linecap:round; stroke-width:0.25;"/>
<line x1="121.600000" y1="44.000000" x2="137.600000" y2="44.000000"  style="stroke:black; stroke-linecap:round; stroke-width:0.25;"/>
<line x1="133.600000" y1="64.000000" x2="137.600000" y2="64.000000"  style="stroke:black; stroke-linecap:round; stroke-width:0.25;"/>
<line x1="137.600000" y1="44.000000" x2="145.600000" y2="44.000000"  style="stroke:black; stroke-linecap:round; stroke-width:0.25;"/>
<line x1="137.600000" y1="64.000000" x2="145.600000" y2="64.000000"  style="stroke:black; stroke-linecap:round; stroke-width:0.25;"/>
<line x1="145.600000" y1="44.000000" x2="145.600000" y2="56.000000"  style="stroke:black; stroke-linecap:round; stroke-width:0.25;"/>
<line x1="145.600000" y1="56.000000" x2="145.600000" y2="56.000000"  style="stroke:black; stroke-linecap:round; stroke-width:0.25;"/>
<line x1="145.600000" y1="56.000000" x2="149.600000" y2="56.000000"  style="stroke:black; stroke-linecap:round; stroke-width:0.25;"/>
<line x1="145.600000" y1="64.000000" x2="149.600000" y2="64.000000"  style="stroke:black; stroke-linecap:round; stroke-width:0.25;"/>
<line x1="158.500000" y1="36.000000" x2="211.400000" y2="36.000000"  style="stroke:black; stroke-linecap:round; stroke-width:0.25;"/>
<line x1="173.600000" y1="60.000000" x2="177.600000" y2="60.000000"  style="stroke:black; stroke-linecap:round; stroke-width:0.25;"/>
<line x1="177.600000" y1="60.000000" x2="177.600000" y2="60.000000"  style="stroke:black; stroke-linecap:round; stroke-width:0.25;"/>
<line x1="177.600000" y1="60.000000" x2="181.600000" y2="60.000000"  style="stroke:black; stroke-linecap:round; stroke-width:0.25;"/>
<line x1="207.400000" y1="60.000000" x2="211.400000" y2="60.000000"  style="stroke:black; stroke-linecap:round; stroke-width:0.25;"/>
<line x1="211.400000" y1="60.000000" x2="219.400000" y2="60.000000"  style="stroke:black; stroke-linecap:round; stroke-width:0.25;"/>
<line x1="211.400000" y1="36.000000" x2="219.400000" y2="36.000000"  style="stroke:black; stroke-linecap:round; stroke-width:0.25;"/>
<line x1="219.400000" y1="52.000000" x2="223.400000" y2="52.000000"  style="stroke:black; stroke-linecap:round; stroke-width:0.25;"/>
<line x1="219.400000" y1="60.000000" x2="223.400000" y2="60.000000"  style="stroke:black; stroke-linecap:round; stroke-width:0.25;"/>
<line x1="219.400000" y1="36.000000" x2="219.400000" y2="52.000000"  style="stroke:black; stroke-linecap:round; stroke-width:0.25;"/>
<line x1="219.400000" y1="52.000000" x2="219.400000" y2="52.000000"  style="stroke:black; stroke-linecap:round; stroke-width:0.25;"/>
<line x1="247.400000" y1="56.000000" x2="251.400000" y2="56.000000"  style="stroke:black; stroke-linecap:round; stroke-width:0.25;"/>
<line x1="251.400000" y1="56.000000" x2="251.400000" y2="56.000000"  style="stroke:black; stroke-linecap:round; stroke-width:0.25;"/>
<line x1="251.400000" y1="56.000000" x2="255.400000" y2="56.000000"  style="stroke:black; stroke-linecap:round; stroke-width:0.25;"/>
<line x1="279.400000" y1="56.000000" x2="283.400000" y2="56.000000"  style="stroke:black; stroke-linecap:round; stroke-width:0.25;"/>
<line x1="283.400000" y1="56.000000" x2="313.400000" y2="24.000000"  style="stroke:black; stroke-linecap:round; stroke-width:0.25;"/>
<line x1="313.400000" y1="24.000000" x2="329.400000" y2="24.000000"  style="stroke:black; stroke-linecap:round; stroke-width:0.25;"/>
<line x1="329.400000" y1="24.000000" x2="345.400000" y2="24.000000"  style="stroke:black; stroke-linecap:round; stroke-width:0.25;"/>
<line x1="341.400000" y1="44.000000" x2="345.400000" y2="44.000000"  style="stroke:black; stroke-linecap:round; stroke-width:0.25;"/>
<line x1="345.400000" y1="24.000000" x2="353.400000" y2="24.000000"  style="stroke:black; stroke-linecap:round; stroke-width:0.25;"/>
<line x1="345.400000" y1="44.000000" x2="353.400000" y2="44.000000"  style="stroke:black; stroke-linecap:round; stroke-width:0.25;"/>
<line x1="353.400000" y1="24.000000" x2="353.400000" y2="36.000000"  style="stroke:black; stroke-linecap:round; stroke-width:0.25;"/>
<line x1="353.400000" y1="36.000000" x2="353.400000" y2="36.000000"  style="stroke:black; stroke-linecap:round; stroke-width:0.25;"/>
<line x1="353.400000" y1="36.000000" x2="357.400000" y2="36.000000"  style="stroke:black; stroke-linecap:round; stroke-width:0.25;"/>
<line x1="353.400000" y1="44.000000" x2="357.400000" y2="44.000000"  style="stroke:black; stroke-linecap:round; stroke-width:0.25;"/>
<line x1="361.400000" y1="76.000000" x2="365.400000" y2="76.000000"  style="stroke:black; stroke-linecap:round; stroke-width:0.25;"/>
<line x1="365.400000" y1="76.000000" x2="385.400000" y2="76.000000"  style="stroke:black; stroke-linecap:round; stroke-width:0.25;"/>
<line x1="381.400000" y1="40.000000" x2="385.400000" y2="40.000000"  style="stroke:black; stroke-linecap:round; stroke-width:0.25;"/>
<line x1="385.400000" y1="40.000000" x2="393.400000" y2="40.000000"  style="stroke:black; stroke-linecap:round; stroke-width:0.25;"/>
<line x1="385.400000" y1="60.000000" x2="393.400000" y2="60.000000"  style="stroke:black; stroke-linecap:round; stroke-width:0.25;"/>
<line x1="385.400000" y1="76.000000" x2="385.400000" y2="60.000000"  style="stroke:black; stroke-linecap:round; stroke-width:0.25;"/>
<line x1="385.400000" y1="76.000000" x2="385.400000" y2="76.000000"  style="stroke:black; stroke-linecap:round; stroke-width:0.25;"/>
<line x1="393.400000" y1="40.000000" x2="393.400000" y2="52.000000"  style="stroke:black; stroke-linecap:round; stroke-width:0.25;"/>
<line x1="393.400000" y1="52.000000" x2="393.400000" y2="52.000000"  style="stroke:black; stroke-linecap:round; stroke-width:0.25;"/>
<line x1="393.400000" y1="52.000000" x2="397.400000" y2="52.000000"  style="stroke:black; stroke-linecap:round; stroke-width:0.25;"/>
<line x1="393.400000" y1="60.000000" x2="397.400000" y2="60.000000"  style="stroke:black; stroke-linecap:round; stroke-width:0.25;"/>
<line x1="421.400000" y1="56.000000" x2="425.400000" y2="56.000000"  style="stroke:black; stroke-linecap:round; stroke-width:0.25;"/>
<line x1="425.400000" y1="56.000000" x2="425.400000" y2="56.000000"  style="stroke:black; stroke-linecap:round; stroke-width:0.25;"/>
<line x1="425.400000" y1="56.000000" x2="429.400000" y2="56.000000"  style="stroke:black; stroke-linecap:round; stroke-width:0.25;"/>
<line x1="429.400000" y1="56.000000" x2="433.400000" y2="56.000000"  style="stroke:black; stroke-linecap:round; stroke-width:0.25;"/>
<line x1="433.400000" y1="56.000000" x2="443.400000" y2="56.000000"  style="stroke:black; stroke-linecap:round; stroke-width:0.25;"/>
</svg>
