<?xml version="1.0"?>
<svg xmlns="http://www.w3.org/2000/svg" xmlns:xlink="http://www.w3.org/1999/xlink" viewBox="0 0 256.500000 220.000000" width="128.250000mm" height="110.000000mm" version="1.1">
<a xlink:href="linearInterp-0x7f8542645690.svg">
<rect x="1.000000" y="1.000000" width="255.500000" height="219.000000" rx="0" ry="0" style="stroke:none;fill:#cccccc;"/>
<rect x="0.000000" y="0.000000" width="255.500000" height="219.000000" rx="0" ry="0" style="stroke:none;fill:#ffffff;"/>
</a>
<text x="10.000000" y="7.000000" font-family="Arial" font-size="7"></text>
<rect x="81.000000" y="35.000000" width="25.800000" height="24.000000" rx="0" ry="0" style="stroke:none;fill:#cccccc;"/>
<rect x="80.000000" y="34.000000" width="25.800000" height="24.000000" rx="0" ry="0" style="stroke:none;fill:#f44800;"/>
<text x="92.900000" y="48.000000" font-family="Arial" font-size="7" text-anchor="middle" fill="#FFFFFF">1024</text>
<circle cx="82.000000" cy="36.000000" r="1"/>
<line x1="71.000000" y1="25.000000" x2="71.000000" y2="67.000000"  style="stroke: black; stroke-linecap:round; stroke-width:0.25; stroke-dasharray:3,3;"/>
<line x1="71.000000" y1="67.000000" x2="114.800000" y2="67.000000"  style="stroke: black; stroke-linecap:round; stroke-width:0.25; stroke-dasharray:3,3;"/>
<line x1="114.800000" y1="67.000000" x2="114.800000" y2="25.000000"  style="stroke: black; stroke-linecap:round; stroke-width:0.25; stroke-dasharray:3,3;"/>
<line x1="71.000000" y1="25.000000" x2="76.000000" y2="25.000000"  style="stroke: black; stroke-linecap:round; stroke-width:0.25; stroke-dasharray:3,3;"/>
<line x1="111.475000" y1="25.000000" x2="114.800000" y2="25.000000"  style="stroke: black; stroke-linecap:round; stroke-width:0.25; stroke-dasharray:3,3;"/>
<text x="76.000000" y="27.000000" font-family="Arial" font-size="7">tablesize</text>
<a xlink:href="sinwaveform-0x7f85400e16d0.svg">
<rect x="68.100000" y="77.000000" width="51.600000" height="24.000000" rx="0" ry="0" style="stroke:none;fill:#cccccc;"/>
<rect x="67.100000" y="76.000000" width="51.600000" height="24.000000" rx="0" ry="0" style="stroke:none;fill:#003366;"/>
</a>
<a xlink:href="sinwaveform-0x7f85400e16d0.svg">
<text x="92.900000" y="90.000000" font-family="Arial" font-size="7" text-anchor="middle" fill="#FFFFFF">sinwaveform</text>
</a>
<circle cx="69.100000" cy="78.000000" r="1"/>
<a xlink:href="index-0x7f854000abe0.svg">
<rect x="25.000000" y="109.000000" width="25.800000" height="24.000000" rx="0" ry="0" style="stroke:none;fill:#cccccc;"/>
<rect x="24.000000" y="108.000000" width="25.800000" height="24.000000" rx="0" ry="0" style="stroke:none;fill:#003366;"/>
</a>
<a xlink:href="index-0x7f854000abe0.svg">
<text x="36.900000" y="122.000000" font-family="Arial" font-size="7" text-anchor="middle" fill="#FFFFFF">index</text>
</a>
<circle cx="26.000000" cy="110.000000" r="1"/>
<rect x="25.900000" y="141.000000" width="24.000000" height="24.000000" rx="0" ry="0" style="stroke:none;fill:#cccccc;"/>
<rect x="24.900000" y="140.000000" width="24.000000" height="24.000000" rx="0" ry="0" style="stroke:none;fill:#f44800;"/>
<text x="36.900000" y="154.000000" font-family="Arial" font-size="7" text-anchor="middle" fill="#FFFFFF">1</text>
<circle cx="26.900000" cy="142.000000" r="1"/>
<rect x="66.800000" y="125.000000" width="24.000000" height="24.000000" rx="0" ry="0" style="stroke:none;fill:#cccccc;"/>
<rect x="65.800000" y="124.000000" width="24.000000" height="24.000000" rx="0" ry="0" style="stroke:none;fill:#4B71A1;"/>
<text x="77.800000" y="138.000000" font-family="Arial" font-size="7" text-anchor="middle" fill="#FFFFFF">+</text>
<circle cx="67.800000" cy="126.000000" r="1"/>
<line x1="62.800000" y1="131.000000" x2="65.800000" y2="132.000000"  transform="rotate(0.000000,65.800000,132.000000)" style="stroke: black; stroke-width:0.25;"/>
<line x1="62.800000" y1="133.000000" x2="65.800000" y2="132.000000"  transform="rotate(0.000000,65.800000,132.000000)" style="stroke: black; stroke-width:0.25;"/>
<line x1="62.800000" y1="139.000000" x2="65.800000" y2="140.000000"  transform="rotate(0.000000,65.800000,140.000000)" style="stroke: black; stroke-width:0.25;"/>
<line x1="62.800000" y1="141.000000" x2="65.800000" y2="140.000000"  transform="rotate(0.000000,65.800000,140.000000)" style="stroke: black; stroke-width:0.25;"/>
<rect x="98.800000" y="125.000000" width="24.000000" height="24.000000" rx="0" ry="0" style="stroke:none;fill:#cccccc;"/>
<rect x="97.800000" y="124.000000" width="24.000000" height="24.000000" rx="0" ry="0" style="stroke:none;fill:#4B71A1;"/>
<text x="109.800000" y="138.000000" font-family="Arial" font-size="7" text-anchor="middle" fill="#FFFFFF">int</text>
<circle cx="99.800000" cy="126.000000" r="1"/>
<line x1="94.800000" y1="135.000000" x2="97.800000" y2="136.000000"  transform="rotate(0.000000,97.800000,136.000000)" style="stroke: black; stroke-width:0.25;"/>
<line x1="94.800000" y1="137.000000" x2="97.800000" y2="136.000000"  transform="rotate(0.000000,97.800000,136.000000)" style="stroke: black; stroke-width:0.25;"/>
<rect x="61.000000" y="173.000000" width="25.800000" height="24.000000" rx="0" ry="0" style="stroke:none;fill:#cccccc;"/>
<rect x="60.000000" y="172.000000" width="25.800000" height="24.000000" rx="0" ry="0" style="stroke:none;fill:#f44800;"/>
<text x="72.900000" y="186.000000" font-family="Arial" font-size="7" text-anchor="middle" fill="#FFFFFF">1023</text>
<circle cx="62.000000" cy="174.000000" r="1"/>
<rect x="138.800000" y="141.000000" width="24.000000" height="24.000000" rx="0" ry="0" style="stroke:none;fill:#cccccc;"/>
<rect x="137.800000" y="140.000000" width="24.000000" height="24.000000" rx="0" ry="0" style="stroke:none;fill:#4B71A1;"/>
<text x="149.800000" y="154.000000" font-family="Arial" font-size="7" text-anchor="middle" fill="#FFFFFF">%</text>
<circle cx="139.800000" cy="142.000000" r="1"/>
<line x1="134.800000" y1="147.000000" x2="137.800000" y2="148.000000"  transform="rotate(0.000000,137.800000,148.000000)" style="stroke: black; stroke-width:0.25;"/>
<line x1="134.800000" y1="149.000000" x2="137.800000" y2="148.000000"  transform="rotate(0.000000,137.800000,148.000000)" style="stroke: black; stroke-width:0.25;"/>
<line x1="134.800000" y1="155.000000" x2="137.800000" y2="156.000000"  transform="rotate(0.000000,137.800000,156.000000)" style="stroke: black; stroke-width:0.25;"/>
<line x1="134.800000" y1="157.000000" x2="137.800000" y2="156.000000"  transform="rotate(0.000000,137.800000,156.000000)" style="stroke: black; stroke-width:0.25;"/>
<rect x="186.800000" y="99.000000" width="38.700000" height="24.000000" rx="0" ry="0" style="stroke:none;fill:#cccccc;"/>
<rect x="185.800000" y="98.000000" width="38.700000" height="24.000000" rx="0" ry="0" style="stroke:none;fill:#4B71A1;"/>
<text x="205.150000" y="112.000000" font-family="Arial" font-size="7" text-anchor="middle" fill="#FFFFFF">rdtable</text>
<circle cx="187.800000" cy="100.000000" r="1"/>
<line x1="182.800000" y1="101.000000" x2="185.800000" y2="102.000000"  transform="rotate(0.000000,185.800000,102.000000)" style="stroke: black; stroke-width:0.25;"/>
<line x1="182.800000" y1="103.000000" x2="185.800000" y2="102.000000"  transform="rotate(0.000000,185.800000,102.000000)" style="stroke: black; stroke-width:0.25;"/>
<line x1="182.800000" y1="109.000000" x2="185.800000" y2="110.000000"  transform="rotate(0.000000,185.800000,110.000000)" style="stroke: black; stroke-width:0.25;"/>
<line x1="182.800000" y1="111.000000" x2="185.800000" y2="110.000000"  transform="rotate(0.000000,185.800000,110.000000)" style="stroke: black; stroke-width:0.25;"/>
<line x1="182.800000" y1="117.000000" x2="185.800000" y2="118.000000"  transform="rotate(0.000000,185.800000,118.000000)" style="stroke: black; stroke-width:0.25;"/>
<line x1="182.800000" y1="119.000000" x2="185.800000" y2="118.000000"  transform="rotate(0.000000,185.800000,118.000000)" style="stroke: black; stroke-width:0.25;"/>
<line x1="15.000000" y1="15.000000" x2="15.000000" y2="205.000000"  style="stroke: black; stroke-linecap:round; stroke-width:0.25; stroke-dasharray:3,3;"/>
<line x1="15.000000" y1="205.000000" x2="241.500000" y2="205.000000"  style="stroke: black; stroke-linecap:round; stroke-width:0.25; stroke-dasharray:3,3;"/>
<line x1="241.500000" y1="205.000000" x2="241.500000" y2="15.000000"  style="stroke: black; stroke-linecap:round; stroke-width:0.25; stroke-dasharray:3,3;"/>
<line x1="15.000000" y1="15.000000" x2="20.000000" y2="15.000000"  style="stroke: black; stroke-linecap:round; stroke-width:0.25; stroke-dasharray:3,3;"/>
<line x1="119.975000" y1="15.000000" x2="241.500000" y2="15.000000"  style="stroke: black; stroke-linecap:round; stroke-width:0.25; stroke-dasharray:3,3;"/>
<text x="20.000000" y="17.000000" font-family="Arial" font-size="7">table((((0.01...nt),1023 : %)</text>
<line x1="243.500000" y1="109.000000" x2="246.500000" y2="110.000000"  transform="rotate(0.000000,246.500000,110.000000)" style="stroke: black; stroke-width:0.25;"/>
<line x1="243.500000" y1="111.000000" x2="246.500000" y2="110.000000"  transform="rotate(0.000000,246.500000,110.000000)" style="stroke: black; stroke-width:0.25;"/>
<line x1="48.900000" y1="152.000000" x2="52.900000" y2="152.000000"  style="stroke:black; stroke-linecap:round; stroke-width:0.25;"/>
<line x1="49.800000" y1="120.000000" x2="53.800000" y2="120.000000"  style="stroke:black; stroke-linecap:round; stroke-width:0.25;"/>
<line x1="52.900000" y1="152.000000" x2="53.800000" y2="152.000000"  style="stroke:black; stroke-linecap:round; stroke-width:0.25;"/>
<line x1="53.800000" y1="120.000000" x2="61.800000" y2="120.000000"  style="stroke:black; stroke-linecap:round; stroke-width:0.25;"/>
<line x1="53.800000" y1="140.000000" x2="61.800000" y2="140.000000"  style="stroke:black; stroke-linecap:round; stroke-width:0.25;"/>
<line x1="53.800000" y1="152.000000" x2="53.800000" y2="140.000000"  style="stroke:black; stroke-linecap:round; stroke-width:0.25;"/>
<line x1="53.800000" y1="152.000000" x2="53.800000" y2="152.000000"  style="stroke:black; stroke-linecap:round; stroke-width:0.25;"/>
<line x1="61.800000" y1="120.000000" x2="61.800000" y2="132.000000"  style="stroke:black; stroke-linecap:round; stroke-width:0.25;"/>
<line x1="61.800000" y1="132.000000" x2="61.800000" y2="132.000000"  style="stroke:black; stroke-linecap:round; stroke-width:0.25;"/>
<line x1="61.800000" y1="132.000000" x2="65.800000" y2="132.000000"  style="stroke:black; stroke-linecap:round; stroke-width:0.25;"/>
<line x1="61.800000" y1="140.000000" x2="65.800000" y2="140.000000"  style="stroke:black; stroke-linecap:round; stroke-width:0.25;"/>
<line x1="85.800000" y1="184.000000" x2="89.800000" y2="184.000000"  style="stroke:black; stroke-linecap:round; stroke-width:0.25;"/>
<line x1="89.800000" y1="136.000000" x2="93.800000" y2="136.000000"  style="stroke:black; stroke-linecap:round; stroke-width:0.25;"/>
<line x1="89.800000" y1="184.000000" x2="125.800000" y2="184.000000"  style="stroke:black; stroke-linecap:round; stroke-width:0.25;"/>
<line x1="93.800000" y1="136.000000" x2="93.800000" y2="136.000000"  style="stroke:black; stroke-linecap:round; stroke-width:0.25;"/>
<line x1="93.800000" y1="136.000000" x2="97.800000" y2="136.000000"  style="stroke:black; stroke-linecap:round; stroke-width:0.25;"/>
<line x1="105.800000" y1="46.000000" x2="109.800000" y2="46.000000"  style="stroke:black; stroke-linecap:round; stroke-width:0.25;"/>
<line x1="109.800000" y1="46.000000" x2="119.800000" y2="46.000000"  style="stroke:black; stroke-linecap:round; stroke-width:0.25;"/>
<line x1="118.700000" y1="88.000000" x2="122.700000" y2="88.000000"  style="stroke:black; stroke-linecap:round; stroke-width:0.25;"/>
<line x1="119.800000" y1="46.000000" x2="165.800000" y2="46.000000"  style="stroke:black; stroke-linecap:round; stroke-width:0.25;"/>
<line x1="121.800000" y1="136.000000" x2="125.800000" y2="136.000000"  style="stroke:black; stroke-linecap:round; stroke-width:0.25;"/>
<line x1="122.700000" y1="88.000000" x2="165.800000" y2="88.000000"  style="stroke:black; stroke-linecap:round; stroke-width:0.25;"/>
<line x1="125.800000" y1="136.000000" x2="133.800000" y2="136.000000"  style="stroke:black; stroke-linecap:round; stroke-width:0.25;"/>
<line x1="125.800000" y1="156.000000" x2="133.800000" y2="156.000000"  style="stroke:black; stroke-linecap:round; stroke-width:0.25;"/>
<line x1="125.800000" y1="184.000000" x2="125.800000" y2="156.000000"  style="stroke:black; stroke-linecap:round; stroke-width:0.25;"/>
<line x1="125.800000" y1="184.000000" x2="125.800000" y2="184.000000"  style="stroke:black; stroke-linecap:round; stroke-width:0.25;"/>
<line x1="133.800000" y1="136.000000" x2="133.800000" y2="148.000000"  style="stroke:black; stroke-linecap:round; stroke-width:0.25;"/>
<line x1="133.800000" y1="148.000000" x2="133.800000" y2="148.000000"  style="stroke:black; stroke-linecap:round; stroke-width:0.25;"/>
<line x1="133.800000" y1="148.000000" x2="137.800000" y2="148.000000"  style="stroke:black; stroke-linecap:round; stroke-width:0.25;"/>
<line x1="133.800000" y1="156.000000" x2="137.800000" y2="156.000000"  style="stroke:black; stroke-linecap:round; stroke-width:0.25;"/>
<line x1="161.800000" y1="152.000000" x2="165.800000" y2="152.000000"  style="stroke:black; stroke-linecap:round; stroke-width:0.25;"/>
<line x1="165.800000" y1="46.000000" x2="181.800000" y2="46.000000"  style="stroke:black; stroke-linecap:round; stroke-width:0.25;"/>
<line x1="165.800000" y1="88.000000" x2="173.800000" y2="88.000000"  style="stroke:black; stroke-linecap:round; stroke-width:0.25;"/>
<line x1="165.800000" y1="118.000000" x2="181.800000" y2="118.000000"  style="stroke:black; stroke-linecap:round; stroke-width:0.25;"/>
<line x1="165.800000" y1="152.000000" x2="165.800000" y2="118.000000"  style="stroke:black; stroke-linecap:round; stroke-width:0.25;"/>
<line x1="165.800000" y1="152.000000" x2="165.800000" y2="152.000000"  style="stroke:black; stroke-linecap:round; stroke-width:0.25;"/>
<line x1="173.800000" y1="88.000000" x2="173.800000" y2="110.000000"  style="stroke:black; stroke-linecap:round; stroke-width:0.25;"/>
<line x1="173.800000" y1="110.000000" x2="181.800000" y2="110.000000"  style="stroke:black; stroke-linecap:round; stroke-width:0.25;"/>
<line x1="181.800000" y1="46.000000" x2="181.800000" y2="102.000000"  style="stroke:black; stroke-linecap:round; stroke-width:0.25;"/>
<line x1="181.800000" y1="102.000000" x2="181.800000" y2="102.000000"  style="stroke:black; stroke-linecap:round; stroke-width:0.25;"/>
<line x1="181.800000" y1="102.000000" x2="185.800000" y2="102.000000"  style="stroke:black; stroke-linecap:round; stroke-width:0.25;"/>
<line x1="181.800000" y1="110.000000" x2="185.800000" y2="110.000000"  style="stroke:black; stroke-linecap:round; stroke-width:0.25;"/>
<line x1="181.800000" y1="118.000000" x2="185.800000" y2="118.000000"  style="stroke:black; stroke-linecap:round; stroke-width:0.25;"/>
<line x1="224.500000" y1="110.000000" x2="228.500000" y2="110.000000"  style="stroke:black; stroke-linecap:round; stroke-width:0.25;"/>
<line x1="228.500000" y1="110.000000" x2="228.500000" y2="110.000000"  style="stroke:black; stroke-linecap:round; stroke-width:0.25;"/>
<line x1="228.500000" y1="110.000000" x2="232.500000" y2="110.000000"  style="stroke:black; stroke-linecap:round; stroke-width:0.25;"/>
<line x1="232.500000" y1="110.000000" x2="236.500000" y2="110.000000"  style="stroke:black; stroke-linecap:round; stroke-width:0.25;"/>
<line x1="236.500000" y1="110.000000" x2="246.500000" y2="110.000000"  style="stroke:black; stroke-linecap:round; stroke-width:0.25;"/>
</svg>
