<?xml version="1.0"?>
<svg xmlns="http://www.w3.org/2000/svg" xmlns:xlink="http://www.w3.org/1999/xlink" viewBox="0 0 476.500000 372.000000" width="238.250000mm" height="186.000000mm" version="1.1">
<rect x="1.000000" y="1.000000" width="475.500000" height="371.000000" rx="0" ry="0" style="stroke:none;fill:#cccccc;"/>
<rect x="0.000000" y="0.000000" width="475.500000" height="371.000000" rx="0" ry="0" style="stroke:none;fill:#ffffff;"/>
<text x="10.000000" y="7.000000" font-family="Arial" font-size="7"></text>
<rect x="53.000000" y="137.000000" width="24.000000" height="24.000000" rx="0" ry="0" style="stroke:none;fill:#cccccc;"/>
<rect x="52.000000" y="136.000000" width="24.000000" height="24.000000" rx="0" ry="0" style="stroke:none;fill:#47945E;"/>
<text x="64.000000" y="150.000000" font-family="Arial" font-size="7" text-anchor="middle" fill="#FFFFFF">c</text>
<circle cx="54.000000" cy="138.000000" r="1"/>
<line x1="49.000000" y1="147.000000" x2="52.000000" y2="148.000000"  transform="rotate(0.000000,52.000000,148.000000)" style="stroke: black; stroke-width:0.25;"/>
<line x1="49.000000" y1="149.000000" x2="52.000000" y2="148.000000"  transform="rotate(0.000000,52.000000,148.000000)" style="stroke: black; stroke-width:0.25;"/>
<rect x="135.000000" y="63.000000" width="24.000000" height="24.000000" rx="0" ry="0" style="stroke:none;fill:#cccccc;"/>
<rect x="134.000000" y="62.000000" width="24.000000" height="24.000000" rx="0" ry="0" style="stroke:none;fill:#f44800;"/>
<text x="146.000000" y="76.000000" font-family="Arial" font-size="7" text-anchor="middle" fill="#FFFFFF">0</text>
<circle cx="136.000000" cy="64.000000" r="1"/>
<rect x="114.100000" y="105.000000" width="25.800000" height="24.000000" rx="0" ry="0" style="stroke:none;fill:#cccccc;"/>
<rect x="113.100000" y="104.000000" width="25.800000" height="24.000000" rx="0" ry="0" style="stroke:none;fill:#f44800;"/>
<text x="126.000000" y="118.000000" font-family="Arial" font-size="7" text-anchor="middle" fill="#FFFFFF">1024</text>
<circle cx="115.100000" cy="106.000000" r="1"/>
<line x1="104.100000" y1="95.000000" x2="104.100000" y2="137.000000"  style="stroke: black; stroke-linecap:round; stroke-width:0.25; stroke-dasharray:3,3;"/>
<line x1="104.100000" y1="137.000000" x2="147.900000" y2="137.000000"  style="stroke: black; stroke-linecap:round; stroke-width:0.25; stroke-dasharray:3,3;"/>
<line x1="147.900000" y1="137.000000" x2="147.900000" y2="95.000000"  style="stroke: black; stroke-linecap:round; stroke-width:0.25; stroke-dasharray:3,3;"/>
<line x1="104.100000" y1="95.000000" x2="109.100000" y2="95.000000"  style="stroke: black; stroke-linecap:round; stroke-width:0.25; stroke-dasharray:3,3;"/>
<line x1="144.575000" y1="95.000000" x2="147.900000" y2="95.000000"  style="stroke: black; stroke-linecap:round; stroke-width:0.25; stroke-dasharray:3,3;"/>
<text x="109.100000" y="97.000000" font-family="Arial" font-size="7">tablesize</text>
<rect x="95.000000" y="147.000000" width="24.000000" height="24.000000" rx="0" ry="0" style="stroke:none;fill:#cccccc;"/>
<rect x="94.000000" y="146.000000" width="24.000000" height="24.000000" rx="0" ry="0" style="stroke:none;fill:#47945E;"/>
<text x="106.000000" y="160.000000" font-family="Arial" font-size="7" text-anchor="middle" fill="#FFFFFF">c</text>
<circle cx="96.000000" cy="148.000000" r="1"/>
<rect x="95.000000" y="179.000000" width="24.000000" height="24.000000" rx="0" ry="0" style="stroke:none;fill:#cccccc;"/>
<rect x="94.000000" y="178.000000" width="24.000000" height="24.000000" rx="0" ry="0" style="stroke:none;fill:#f44800;"/>
<text x="106.000000" y="192.000000" font-family="Arial" font-size="7" text-anchor="middle" fill="#FFFFFF">1</text>
<circle cx="96.000000" cy="180.000000" r="1"/>
<rect x="135.000000" y="163.000000" width="24.000000" height="24.000000" rx="0" ry="0" style="stroke:none;fill:#cccccc;"/>
<rect x="134.000000" y="162.000000" width="24.000000" height="24.000000" rx="0" ry="0" style="stroke:none;fill:#4B71A1;"/>
<text x="146.000000" y="176.000000" font-family="Arial" font-size="7" text-anchor="middle" fill="#FFFFFF">+</text>
<circle cx="136.000000" cy="164.000000" r="1"/>
<line x1="131.000000" y1="169.000000" x2="134.000000" y2="170.000000"  transform="rotate(0.000000,134.000000,170.000000)" style="stroke: black; stroke-width:0.25;"/>
<line x1="131.000000" y1="171.000000" x2="134.000000" y2="170.000000"  transform="rotate(0.000000,134.000000,170.000000)" style="stroke: black; stroke-width:0.25;"/>
<line x1="131.000000" y1="177.000000" x2="134.000000" y2="178.000000"  transform="rotate(0.000000,134.000000,178.000000)" style="stroke: black; stroke-width:0.25;"/>
<line x1="131.000000" y1="179.000000" x2="134.000000" y2="178.000000"  transform="rotate(0.000000,134.000000,178.000000)" style="stroke: black; stroke-width:0.25;"/>
<rect x="175.000000" y="137.000000" width="24.000000" height="24.000000" rx="0" ry="0" style="stroke:none;fill:#cccccc;"/>
<rect x="174.000000" y="136.000000" width="24.000000" height="24.000000" rx="0" ry="0" style="stroke:none;fill:#4B71A1;"/>
<text x="186.000000" y="150.000000" font-family="Arial" font-size="7" text-anchor="middle" fill="#FFFFFF">min</text>
<circle cx="176.000000" cy="138.000000" r="1"/>
<line x1="171.000000" y1="143.000000" x2="174.000000" y2="144.000000"  transform="rotate(0.000000,174.000000,144.000000)" style="stroke: black; stroke-width:0.25;"/>
<line x1="171.000000" y1="145.000000" x2="174.000000" y2="144.000000"  transform="rotate(0.000000,174.000000,144.000000)" style="stroke: black; stroke-width:0.25;"/>
<line x1="171.000000" y1="151.000000" x2="174.000000" y2="152.000000"  transform="rotate(0.000000,174.000000,152.000000)" style="stroke: black; stroke-width:0.25;"/>
<line x1="171.000000" y1="153.000000" x2="174.000000" y2="152.000000"  transform="rotate(0.000000,174.000000,152.000000)" style="stroke: black; stroke-width:0.25;"/>
<rect x="135.000000" y="211.000000" width="24.000000" height="24.000000" rx="0" ry="0" style="stroke:none;fill:#cccccc;"/>
<rect x="134.000000" y="210.000000" width="24.000000" height="24.000000" rx="0" ry="0" style="stroke:none;fill:#f44800;"/>
<text x="146.000000" y="224.000000" font-family="Arial" font-size="7" text-anchor="middle" fill="#FFFFFF">0</text>
<circle cx="136.000000" cy="212.000000" r="1"/>
<rect x="215.000000" y="137.000000" width="38.700000" height="24.000000" rx="0" ry="0" style="stroke:none;fill:#cccccc;"/>
<rect x="214.000000" y="136.000000" width="38.700000" height="24.000000" rx="0" ry="0" style="stroke:none;fill:#4B71A1;"/>
<text x="233.350000" y="150.000000" font-family="Arial" font-size="7" text-anchor="middle" fill="#FFFFFF">select2</text>
<circle cx="216.000000" cy="138.000000" r="1"/>
<line x1="211.000000" y1="139.000000" x2="214.000000" y2="140.000000"  transform="rotate(0.000000,214.000000,140.000000)" style="stroke: black; stroke-width:0.25;"/>
<line x1="211.000000" y1="141.000000" x2="214.000000" y2="140.000000"  transform="rotate(0.000000,214.000000,140.000000)" style="stroke: black; stroke-width:0.25;"/>
<line x1="211.000000" y1="147.000000" x2="214.000000" y2="148.000000"  transform="rotate(0.000000,214.000000,148.000000)" style="stroke: black; stroke-width:0.25;"/>
<line x1="211.000000" y1="149.000000" x2="214.000000" y2="148.000000"  transform="rotate(0.000000,214.000000,148.000000)" style="stroke: black; stroke-width:0.25;"/>
<line x1="211.000000" y1="155.000000" x2="214.000000" y2="156.000000"  transform="rotate(0.000000,214.000000,156.000000)" style="stroke: black; stroke-width:0.25;"/>
<line x1="211.000000" y1="157.000000" x2="214.000000" y2="156.000000"  transform="rotate(0.000000,214.000000,156.000000)" style="stroke: black; stroke-width:0.25;"/>
<line x1="85.000000" y1="53.000000" x2="85.000000" y2="243.000000"  style="stroke: black; stroke-linecap:round; stroke-width:0.25; stroke-dasharray:3,3;"/>
<line x1="85.000000" y1="243.000000" x2="261.700000" y2="243.000000"  style="stroke: black; stroke-linecap:round; stroke-width:0.25; stroke-dasharray:3,3;"/>
<line x1="261.700000" y1="243.000000" x2="261.700000" y2="53.000000"  style="stroke: black; stroke-linecap:round; stroke-width:0.25; stroke-dasharray:3,3;"/>
<line x1="85.000000" y1="53.000000" x2="90.000000" y2="53.000000"  style="stroke: black; stroke-linecap:round; stroke-width:0.25; stroke-dasharray:3,3;"/>
<line x1="196.425000" y1="53.000000" x2="261.700000" y2="53.000000"  style="stroke: black; stroke-linecap:round; stroke-width:0.25; stroke-dasharray:3,3;"/>
<text x="90.000000" y="55.000000" font-family="Arial" font-size="7">if(0)(0)(1024,(x1,1 : +) : min)</text>
<line x1="43.000000" y1="43.000000" x2="43.000000" y2="253.000000"  style="stroke: black; stroke-linecap:round; stroke-width:0.25; stroke-dasharray:3,3;"/>
<line x1="43.000000" y1="253.000000" x2="271.700000" y2="253.000000"  style="stroke: black; stroke-linecap:round; stroke-width:0.25; stroke-dasharray:3,3;"/>
<line x1="271.700000" y1="253.000000" x2="271.700000" y2="43.000000"  style="stroke: black; stroke-linecap:round; stroke-width:0.25; stroke-dasharray:3,3;"/>
<line x1="43.000000" y1="43.000000" x2="48.000000" y2="43.000000"  style="stroke: black; stroke-linecap:round; stroke-width:0.25; stroke-dasharray:3,3;"/>
<line x1="89.925000" y1="43.000000" x2="271.700000" y2="43.000000"  style="stroke: black; stroke-linecap:round; stroke-width:0.25; stroke-dasharray:3,3;"/>
<text x="48.000000" y="45.000000" font-family="Arial" font-size="7">Abstraction</text>
<line x1="274.700000" y1="148.000000" x2="274.700000" y2="144.000000"  style="stroke:black; stroke-linecap:round; stroke-width:0.25;"/>
<line x1="274.700000" y1="144.000000" x2="278.700000" y2="144.000000"  style="stroke:black; stroke-linecap:round; stroke-width:0.25;"/>
<line x1="278.700000" y1="144.000000" x2="278.700000" y2="148.000000"  style="stroke:black; stroke-linecap:round; stroke-width:0.25;"/>
<line x1="25.000000" y1="25.000000" x2="25.000000" y2="263.000000"  style="stroke: black; stroke-linecap:round; stroke-width:0.25; stroke-dasharray:3,3;"/>
<line x1="25.000000" y1="263.000000" x2="289.700000" y2="263.000000"  style="stroke: black; stroke-linecap:round; stroke-width:0.25; stroke-dasharray:3,3;"/>
<line x1="289.700000" y1="263.000000" x2="289.700000" y2="25.000000"  style="stroke: black; stroke-linecap:round; stroke-width:0.25; stroke-dasharray:3,3;"/>
<line x1="25.000000" y1="25.000000" x2="30.000000" y2="25.000000"  style="stroke: black; stroke-linecap:round; stroke-width:0.25; stroke-dasharray:3,3;"/>
<line x1="59.025000" y1="25.000000" x2="289.700000" y2="25.000000"  style="stroke: black; stroke-linecap:round; stroke-width:0.25; stroke-dasharray:3,3;"/>
<text x="30.000000" y="27.000000" font-family="Arial" font-size="7">counter</text>
<rect x="307.700000" y="133.000000" width="25.800000" height="24.000000" rx="0" ry="0" style="stroke:none;fill:#cccccc;"/>
<rect x="306.700000" y="132.000000" width="25.800000" height="24.000000" rx="0" ry="0" style="stroke:none;fill:#4B71A1;"/>
<text x="319.600000" y="146.000000" font-family="Arial" font-size="7" text-anchor="middle" fill="#FFFFFF">float</text>
<circle cx="308.700000" cy="134.000000" r="1"/>
<line x1="303.700000" y1="143.000000" x2="306.700000" y2="144.000000"  transform="rotate(0.000000,306.700000,144.000000)" style="stroke: black; stroke-width:0.25;"/>
<line x1="303.700000" y1="145.000000" x2="306.700000" y2="144.000000"  transform="rotate(0.000000,306.700000,144.000000)" style="stroke: black; stroke-width:0.25;"/>
<rect x="159.900000" y="273.000000" width="38.700000" height="24.000000" rx="0" ry="0" style="stroke:none;fill:#cccccc;"/>
<rect x="158.900000" y="272.000000" width="38.700000" height="24.000000" rx="0" ry="0" style="stroke:none;fill:#f44800;"/>
<text x="178.250000" y="286.000000" font-family="Arial" font-size="7" text-anchor="middle" fill="#FFFFFF">6.28319</text>
<circle cx="160.900000" cy="274.000000" r="1"/>
<rect x="349.500000" y="149.000000" width="24.000000" height="24.000000" rx="0" ry="0" style="stroke:none;fill:#cccccc;"/>
<rect x="348.500000" y="148.000000" width="24.000000" height="24.000000" rx="0" ry="0" style="stroke:none;fill:#4B71A1;"/>
<text x="360.500000" y="162.000000" font-family="Arial" font-size="7" text-anchor="middle" fill="#FFFFFF">*</text>
<circle cx="350.500000" cy="150.000000" r="1"/>
<line x1="345.500000" y1="155.000000" x2="348.500000" y2="156.000000"  transform="rotate(0.000000,348.500000,156.000000)" style="stroke: black; stroke-width:0.25;"/>
<line x1="345.500000" y1="157.000000" x2="348.500000" y2="156.000000"  transform="rotate(0.000000,348.500000,156.000000)" style="stroke: black; stroke-width:0.25;"/>
<line x1="345.500000" y1="163.000000" x2="348.500000" y2="164.000000"  transform="rotate(0.000000,348.500000,164.000000)" style="stroke: black; stroke-width:0.25;"/>
<line x1="345.500000" y1="165.000000" x2="348.500000" y2="164.000000"  transform="rotate(0.000000,348.500000,164.000000)" style="stroke: black; stroke-width:0.25;"/>
<rect x="169.450000" y="315.000000" width="25.800000" height="24.000000" rx="0" ry="0" style="stroke:none;fill:#cccccc;"/>
<rect x="168.450000" y="314.000000" width="25.800000" height="24.000000" rx="0" ry="0" style="stroke:none;fill:#f44800;"/>
<text x="181.350000" y="328.000000" font-family="Arial" font-size="7" text-anchor="middle" fill="#FFFFFF">1024</text>
<circle cx="170.450000" cy="316.000000" r="1"/>
<line x1="159.450000" y1="305.000000" x2="159.450000" y2="347.000000"  style="stroke: black; stroke-linecap:round; stroke-width:0.25; stroke-dasharray:3,3;"/>
<line x1="159.450000" y1="347.000000" x2="203.250000" y2="347.000000"  style="stroke: black; stroke-linecap:round; stroke-width:0.25; stroke-dasharray:3,3;"/>
<line x1="203.250000" y1="347.000000" x2="203.250000" y2="305.000000"  style="stroke: black; stroke-linecap:round; stroke-width:0.25; stroke-dasharray:3,3;"/>
<line x1="159.450000" y1="305.000000" x2="164.450000" y2="305.000000"  style="stroke: black; stroke-linecap:round; stroke-width:0.25; stroke-dasharray:3,3;"/>
<line x1="199.925000" y1="305.000000" x2="203.250000" y2="305.000000"  style="stroke: black; stroke-linecap:round; stroke-width:0.25; stroke-dasharray:3,3;"/>
<text x="164.450000" y="307.000000" font-family="Arial" font-size="7">tablesize</text>
<rect x="213.250000" y="315.000000" width="25.800000" height="24.000000" rx="0" ry="0" style="stroke:none;fill:#cccccc;"/>
<rect x="212.250000" y="314.000000" width="25.800000" height="24.000000" rx="0" ry="0" style="stroke:none;fill:#4B71A1;"/>
<text x="225.150000" y="328.000000" font-family="Arial" font-size="7" text-anchor="middle" fill="#FFFFFF">float</text>
<circle cx="214.250000" cy="316.000000" r="1"/>
<line x1="209.250000" y1="325.000000" x2="212.250000" y2="326.000000"  transform="rotate(0.000000,212.250000,326.000000)" style="stroke: black; stroke-width:0.25;"/>
<line x1="209.250000" y1="327.000000" x2="212.250000" y2="326.000000"  transform="rotate(0.000000,212.250000,326.000000)" style="stroke: black; stroke-width:0.25;"/>
<rect x="389.500000" y="175.000000" width="24.000000" height="24.000000" rx="0" ry="0" style="stroke:none;fill:#cccccc;"/>
<rect x="388.500000" y="174.000000" width="24.000000" height="24.000000" rx="0" ry="0" style="stroke:none;fill:#4B71A1;"/>
<text x="400.500000" y="188.000000" font-family="Arial" font-size="7" text-anchor="middle" fill="#FFFFFF">/</text>
<circle cx="390.500000" cy="176.000000" r="1"/>
<line x1="385.500000" y1="181.000000" x2="388.500000" y2="182.000000"  transform="rotate(0.000000,388.500000,182.000000)" style="stroke: black; stroke-width:0.25;"/>
<line x1="385.500000" y1="183.000000" x2="388.500000" y2="182.000000"  transform="rotate(0.000000,388.500000,182.000000)" style="stroke: black; stroke-width:0.25;"/>
<line x1="385.500000" y1="189.000000" x2="388.500000" y2="190.000000"  transform="rotate(0.000000,388.500000,190.000000)" style="stroke: black; stroke-width:0.25;"/>
<line x1="385.500000" y1="191.000000" x2="388.500000" y2="190.000000"  transform="rotate(0.000000,388.500000,190.000000)" style="stroke: black; stroke-width:0.25;"/>
<rect x="421.500000" y="175.000000" width="24.000000" height="24.000000" rx="0" ry="0" style="stroke:none;fill:#cccccc;"/>
<rect x="420.500000" y="174.000000" width="24.000000" height="24.000000" rx="0" ry="0" style="stroke:none;fill:#4B71A1;"/>
<text x="432.500000" y="188.000000" font-family="Arial" font-size="7" text-anchor="middle" fill="#FFFFFF">sin</text>
<circle cx="422.500000" cy="176.000000" r="1"/>
<line x1="417.500000" y1="185.000000" x2="420.500000" y2="186.000000"  transform="rotate(0.000000,420.500000,186.000000)" style="stroke: black; stroke-width:0.25;"/>
<line x1="417.500000" y1="187.000000" x2="420.500000" y2="186.000000"  transform="rotate(0.000000,420.500000,186.000000)" style="stroke: black; stroke-width:0.25;"/>
<line x1="15.000000" y1="15.000000" x2="15.000000" y2="357.000000"  style="stroke: black; stroke-linecap:round; stroke-width:0.25; stroke-dasharray:3,3;"/>
<line x1="15.000000" y1="357.000000" x2="461.500000" y2="357.000000"  style="stroke: black; stroke-linecap:round; stroke-width:0.25; stroke-dasharray:3,3;"/>
<line x1="461.500000" y1="357.000000" x2="461.500000" y2="15.000000"  style="stroke: black; stroke-linecap:round; stroke-width:0.25; stroke-dasharray:3,3;"/>
<line x1="15.000000" y1="15.000000" x2="20.000000" y2="15.000000"  style="stroke: black; stroke-linecap:round; stroke-width:0.25; stroke-dasharray:3,3;"/>
<line x1="49.025000" y1="15.000000" x2="461.500000" y2="15.000000"  style="stroke: black; stroke-linecap:round; stroke-width:0.25; stroke-dasharray:3,3;"/>
<text x="20.000000" y="17.000000" font-family="Arial" font-size="7">process</text>
<line x1="463.500000" y1="185.000000" x2="466.500000" y2="186.000000"  transform="rotate(0.000000,466.500000,186.000000)" style="stroke: black; stroke-width:0.25;"/>
<line x1="463.500000" y1="187.000000" x2="466.500000" y2="186.000000"  transform="rotate(0.000000,466.500000,186.000000)" style="stroke: black; stroke-width:0.25;"/>
<line x1="38.000000" y1="34.000000" x2="38.000000" y2="34.000000"  style="stroke:black; stroke-linecap:round; stroke-width:0.25;"/>
<line x1="38.000000" y1="34.000000" x2="38.000000" y2="148.000000"  style="stroke:black; stroke-linecap:round; stroke-width:0.25;"/>
<line x1="38.000000" y1="148.000000" x2="38.000000" y2="148.000000"  style="stroke:black; stroke-linecap:round; stroke-width:0.25;"/>
<line x1="38.000000" y1="148.000000" x2="48.000000" y2="148.000000"  style="stroke:black; stroke-linecap:round; stroke-width:0.25;"/>
<line x1="48.000000" y1="148.000000" x2="52.000000" y2="148.000000"  style="stroke:black; stroke-linecap:round; stroke-width:0.25;"/>
<line x1="118.000000" y1="158.000000" x2="122.000000" y2="158.000000"  style="stroke:black; stroke-linecap:round; stroke-width:0.25;"/>
<line x1="118.000000" y1="190.000000" x2="122.000000" y2="190.000000"  style="stroke:black; stroke-linecap:round; stroke-width:0.25;"/>
<line x1="122.000000" y1="158.000000" x2="130.000000" y2="158.000000"  style="stroke:black; stroke-linecap:round; stroke-width:0.25;"/>
<line x1="122.000000" y1="178.000000" x2="130.000000" y2="178.000000"  style="stroke:black; stroke-linecap:round; stroke-width:0.25;"/>
<line x1="122.000000" y1="190.000000" x2="122.000000" y2="178.000000"  style="stroke:black; stroke-linecap:round; stroke-width:0.25;"/>
<line x1="122.000000" y1="190.000000" x2="122.000000" y2="190.000000"  style="stroke:black; stroke-linecap:round; stroke-width:0.25;"/>
<line x1="130.000000" y1="158.000000" x2="130.000000" y2="170.000000"  style="stroke:black; stroke-linecap:round; stroke-width:0.25;"/>
<line x1="130.000000" y1="170.000000" x2="130.000000" y2="170.000000"  style="stroke:black; stroke-linecap:round; stroke-width:0.25;"/>
<line x1="130.000000" y1="170.000000" x2="134.000000" y2="170.000000"  style="stroke:black; stroke-linecap:round; stroke-width:0.25;"/>
<line x1="130.000000" y1="178.000000" x2="134.000000" y2="178.000000"  style="stroke:black; stroke-linecap:round; stroke-width:0.25;"/>
<line x1="138.900000" y1="116.000000" x2="142.900000" y2="116.000000"  style="stroke:black; stroke-linecap:round; stroke-width:0.25;"/>
<line x1="142.900000" y1="116.000000" x2="152.900000" y2="116.000000"  style="stroke:black; stroke-linecap:round; stroke-width:0.25;"/>
<line x1="152.900000" y1="116.000000" x2="162.000000" y2="116.000000"  style="stroke:black; stroke-linecap:round; stroke-width:0.25;"/>
<line x1="157.350000" y1="34.000000" x2="38.000000" y2="34.000000"  style="stroke:black; stroke-linecap:round; stroke-width:0.25;"/>
<line x1="158.000000" y1="74.000000" x2="162.000000" y2="74.000000"  style="stroke:black; stroke-linecap:round; stroke-width:0.25;"/>
<line x1="158.000000" y1="174.000000" x2="162.000000" y2="174.000000"  style="stroke:black; stroke-linecap:round; stroke-width:0.25;"/>
<line x1="158.000000" y1="222.000000" x2="162.000000" y2="222.000000"  style="stroke:black; stroke-linecap:round; stroke-width:0.25;"/>
<line x1="162.000000" y1="116.000000" x2="170.000000" y2="116.000000"  style="stroke:black; stroke-linecap:round; stroke-width:0.25;"/>
<line x1="162.000000" y1="74.000000" x2="202.000000" y2="74.000000"  style="stroke:black; stroke-linecap:round; stroke-width:0.25;"/>
<line x1="162.000000" y1="152.000000" x2="170.000000" y2="152.000000"  style="stroke:black; stroke-linecap:round; stroke-width:0.25;"/>
<line x1="162.000000" y1="174.000000" x2="162.000000" y2="152.000000"  style="stroke:black; stroke-linecap:round; stroke-width:0.25;"/>
<line x1="162.000000" y1="174.000000" x2="162.000000" y2="174.000000"  style="stroke:black; stroke-linecap:round; stroke-width:0.25;"/>
<line x1="162.000000" y1="222.000000" x2="202.000000" y2="222.000000"  style="stroke:black; stroke-linecap:round; stroke-width:0.25;"/>
<line x1="170.000000" y1="116.000000" x2="170.000000" y2="144.000000"  style="stroke:black; stroke-linecap:round; stroke-width:0.25;"/>
<line x1="170.000000" y1="144.000000" x2="170.000000" y2="144.000000"  style="stroke:black; stroke-linecap:round; stroke-width:0.25;"/>
<line x1="170.000000" y1="144.000000" x2="174.000000" y2="144.000000"  style="stroke:black; stroke-linecap:round; stroke-width:0.25;"/>
<line x1="170.000000" y1="152.000000" x2="174.000000" y2="152.000000"  style="stroke:black; stroke-linecap:round; stroke-width:0.25;"/>
<line x1="194.250000" y1="326.000000" x2="198.250000" y2="326.000000"  style="stroke:black; stroke-linecap:round; stroke-width:0.25;"/>
<line x1="197.600000" y1="284.000000" x2="201.600000" y2="284.000000"  style="stroke:black; stroke-linecap:round; stroke-width:0.25;"/>
<line x1="198.000000" y1="148.000000" x2="202.000000" y2="148.000000"  style="stroke:black; stroke-linecap:round; stroke-width:0.25;"/>
<line x1="198.250000" y1="326.000000" x2="208.250000" y2="326.000000"  style="stroke:black; stroke-linecap:round; stroke-width:0.25;"/>
<line x1="201.600000" y1="284.000000" x2="336.500000" y2="284.000000"  style="stroke:black; stroke-linecap:round; stroke-width:0.25;"/>
<line x1="202.000000" y1="74.000000" x2="210.000000" y2="74.000000"  style="stroke:black; stroke-linecap:round; stroke-width:0.25;"/>
<line x1="202.000000" y1="148.000000" x2="210.000000" y2="148.000000"  style="stroke:black; stroke-linecap:round; stroke-width:0.25;"/>
<line x1="202.000000" y1="156.000000" x2="210.000000" y2="156.000000"  style="stroke:black; stroke-linecap:round; stroke-width:0.25;"/>
<line x1="202.000000" y1="222.000000" x2="202.000000" y2="156.000000"  style="stroke:black; stroke-linecap:round; stroke-width:0.25;"/>
<line x1="202.000000" y1="222.000000" x2="202.000000" y2="222.000000"  style="stroke:black; stroke-linecap:round; stroke-width:0.25;"/>
<line x1="208.250000" y1="326.000000" x2="208.250000" y2="326.000000"  style="stroke:black; stroke-linecap:round; stroke-width:0.25;"/>
<line x1="208.250000" y1="326.000000" x2="212.250000" y2="326.000000"  style="stroke:black; stroke-linecap:round; stroke-width:0.25;"/>
<line x1="210.000000" y1="74.000000" x2="210.000000" y2="140.000000"  style="stroke:black; stroke-linecap:round; stroke-width:0.25;"/>
<line x1="210.000000" y1="140.000000" x2="210.000000" y2="140.000000"  style="stroke:black; stroke-linecap:round; stroke-width:0.25;"/>
<line x1="210.000000" y1="140.000000" x2="214.000000" y2="140.000000"  style="stroke:black; stroke-linecap:round; stroke-width:0.25;"/>
<line x1="210.000000" y1="148.000000" x2="214.000000" y2="148.000000"  style="stroke:black; stroke-linecap:round; stroke-width:0.25;"/>
<line x1="210.000000" y1="156.000000" x2="214.000000" y2="156.000000"  style="stroke:black; stroke-linecap:round; stroke-width:0.25;"/>
<line x1="238.050000" y1="326.000000" x2="242.050000" y2="326.000000"  style="stroke:black; stroke-linecap:round; stroke-width:0.25;"/>
<line x1="242.050000" y1="326.000000" x2="376.500000" y2="326.000000"  style="stroke:black; stroke-linecap:round; stroke-width:0.25;"/>
<line x1="252.700000" y1="148.000000" x2="256.700000" y2="148.000000"  style="stroke:black; stroke-linecap:round; stroke-width:0.25;"/>
<line x1="256.700000" y1="148.000000" x2="266.700000" y2="148.000000"  style="stroke:black; stroke-linecap:round; stroke-width:0.25;"/>
<line x1="266.700000" y1="148.000000" x2="276.700000" y2="148.000000"  style="stroke:black; stroke-linecap:round; stroke-width:0.25;"/>
<line x1="276.700000" y1="34.000000" x2="157.350000" y2="34.000000"  style="stroke:black; stroke-linecap:round; stroke-width:0.25;"/>
<line x1="276.700000" y1="34.000000" x2="276.700000" y2="34.000000"  style="stroke:black; stroke-linecap:round; stroke-width:0.25;"/>
<line x1="276.700000" y1="144.000000" x2="276.700000" y2="34.000000"  style="stroke:black; stroke-linecap:round; stroke-width:0.25;"/>
<line x1="276.700000" y1="148.000000" x2="278.700000" y2="148.000000"  style="stroke:black; stroke-linecap:round; stroke-width:0.25;"/>
<line x1="278.700000" y1="148.000000" x2="284.700000" y2="148.000000"  style="stroke:black; stroke-linecap:round; stroke-width:0.25;"/>
<line x1="284.700000" y1="148.000000" x2="294.700000" y2="148.000000"  style="stroke:black; stroke-linecap:round; stroke-width:0.25;"/>
<line x1="294.700000" y1="144.000000" x2="302.700000" y2="144.000000"  style="stroke:black; stroke-linecap:round; stroke-width:0.25;"/>
<line x1="294.700000" y1="148.000000" x2="294.700000" y2="144.000000"  style="stroke:black; stroke-linecap:round; stroke-width:0.25;"/>
<line x1="294.700000" y1="148.000000" x2="294.700000" y2="148.000000"  style="stroke:black; stroke-linecap:round; stroke-width:0.25;"/>
<line x1="302.700000" y1="144.000000" x2="306.700000" y2="144.000000"  style="stroke:black; stroke-linecap:round; stroke-width:0.25;"/>
<line x1="332.500000" y1="144.000000" x2="336.500000" y2="144.000000"  style="stroke:black; stroke-linecap:round; stroke-width:0.25;"/>
<line x1="336.500000" y1="144.000000" x2="344.500000" y2="144.000000"  style="stroke:black; stroke-linecap:round; stroke-width:0.25;"/>
<line x1="336.500000" y1="164.000000" x2="344.500000" y2="164.000000"  style="stroke:black; stroke-linecap:round; stroke-width:0.25;"/>
<line x1="336.500000" y1="284.000000" x2="336.500000" y2="164.000000"  style="stroke:black; stroke-linecap:round; stroke-width:0.25;"/>
<line x1="336.500000" y1="284.000000" x2="336.500000" y2="284.000000"  style="stroke:black; stroke-linecap:round; stroke-width:0.25;"/>
<line x1="344.500000" y1="144.000000" x2="344.500000" y2="156.000000"  style="stroke:black; stroke-linecap:round; stroke-width:0.25;"/>
<line x1="344.500000" y1="156.000000" x2="344.500000" y2="156.000000"  style="stroke:black; stroke-linecap:round; stroke-width:0.25;"/>
<line x1="344.500000" y1="156.000000" x2="348.500000" y2="156.000000"  style="stroke:black; stroke-linecap:round; stroke-width:0.25;"/>
<line x1="344.500000" y1="164.000000" x2="348.500000" y2="164.000000"  style="stroke:black; stroke-linecap:round; stroke-width:0.25;"/>
<line x1="372.500000" y1="160.000000" x2="376.500000" y2="160.000000"  style="stroke:black; stroke-linecap:round; stroke-width:0.25;"/>
<line x1="376.500000" y1="160.000000" x2="384.500000" y2="160.000000"  style="stroke:black; stroke-linecap:round; stroke-width:0.25;"/>
<line x1="376.500000" y1="190.000000" x2="384.500000" y2="190.000000"  style="stroke:black; stroke-linecap:round; stroke-width:0.25;"/>
<line x1="376.500000" y1="326.000000" x2="376.500000" y2="190.000000"  style="stroke:black; stroke-linecap:round; stroke-width:0.25;"/>
<line x1="376.500000" y1="326.000000" x2="376.500000" y2="326.000000"  style="stroke:black; stroke-linecap:round; stroke-width:0.25;"/>
<line x1="384.500000" y1="160.000000" x2="384.500000" y2="182.000000"  style="stroke:black; stroke-linecap:round; stroke-width:0.25;"/>
<line x1="384.500000" y1="182.000000" x2="384.500000" y2="182.000000"  style="stroke:black; stroke-linecap:round; stroke-width:0.25;"/>
<line x1="384.500000" y1="182.000000" x2="388.500000" y2="182.000000"  style="stroke:black; stroke-linecap:round; stroke-width:0.25;"/>
<line x1="384.500000" y1="190.000000" x2="388.500000" y2="190.000000"  style="stroke:black; stroke-linecap:round; stroke-width:0.25;"/>
<line x1="412.500000" y1="186.000000" x2="416.500000" y2="186.000000"  style="stroke:black; stroke-linecap:round; stroke-width:0.25;"/>
<line x1="416.500000" y1="186.000000" x2="416.500000" y2="186.000000"  style="stroke:black; stroke-linecap:round; stroke-width:0.25;"/>
<line x1="416.500000" y1="186.000000" x2="420.500000" y2="186.000000"  style="stroke:black; stroke-linecap:round; stroke-width:0.25;"/>
<line x1="444.500000" y1="186.000000" x2="448.500000" y2="186.000000"  style="stroke:black; stroke-linecap:round; stroke-width:0.25;"/>
<line x1="448.500000" y1="186.000000" x2="448.500000" y2="186.000000"  style="stroke:black; stroke-linecap:round; stroke-width:0.25;"/>
<line x1="448.500000" y1="186.000000" x2="452.500000" y2="186.000000"  style="stroke:black; stroke-linecap:round; stroke-width:0.25;"/>
<line x1="452.500000" y1="186.000000" x2="456.500000" y2="186.000000"  style="stroke:black; stroke-linecap:round; stroke-width:0.25;"/>
<line x1="456.500000" y1="186.000000" x2="466.500000" y2="186.000000"  style="stroke:black; stroke-linecap:round; stroke-width:0.25;"/>
</svg>
