<?xml version="1.0" encoding="UTF-8" standalone="no"?>
<svg width="322.792mm" height="137.583mm"
 viewBox="0 0 915 390"
 xmlns="http://www.w3.org/2000/svg" xmlns:xlink="http://www.w3.org/1999/xlink"  version="1.2" baseProfile="tiny">
<title>Qt SVG Document</title>
<desc>Generated with Qt</desc>
<defs>
</defs>
<g fill="none" stroke="black" stroke-width="1" fill-rule="evenodd" stroke-linecap="square" stroke-linejoin="bevel" >

<g fill="none" stroke="#000000" stroke-opacity="1" stroke-width="1" stroke-linecap="square" stroke-linejoin="bevel" transform="matrix(1,0,0,1,0,0)"
font-family="Ubuntu" font-size="11" font-weight="400" font-style="normal" 
>
</g>

<g fill="none" stroke="#000000" stroke-opacity="1" stroke-width="1" stroke-linecap="square" stroke-linejoin="bevel" transform="matrix(1.00219,0,0,1.00219,0,0)"
font-family="Ubuntu" font-size="11" font-weight="400" font-style="normal" 
>
</g>

<g fill="none" stroke="#000000" stroke-opacity="1" stroke-width="1" stroke-linecap="round" stroke-linejoin="round" transform="matrix(1.00219,0,0,1.00219,0,0)"
font-family="Ubuntu" font-size="11" font-weight="400" font-style="normal" 
>
<polyline fill="none" vector-effect="none" points="45.5,358.5 51.5,358.5 " />
<polyline fill="none" vector-effect="none" points="891.5,358.5 885.5,358.5 " />
</g>

<g fill="none" stroke="#000000" stroke-opacity="1" stroke-width="1" stroke-linecap="square" stroke-linejoin="bevel" transform="matrix(1.00219,0,0,1.00219,0,0)"
font-family="Ubuntu" font-size="11" font-weight="400" font-style="normal" 
>
</g>

<g fill="none" stroke="#000000" stroke-opacity="1" stroke-width="1" stroke-linecap="square" stroke-linejoin="bevel" transform="matrix(1.00219,0,0,1.00219,28.0613,363.294)"
font-family="Ubuntu" font-size="11" font-weight="400" font-style="normal" 
>
</g>

<g fill="none" stroke="#000000" stroke-opacity="1" stroke-width="1" stroke-linecap="square" stroke-linejoin="bevel" transform="matrix(1.00219,0,0,1.00219,28.0613,363.294)"
font-family="Ubuntu" font-size="11" font-weight="400" font-style="normal" 
>
</g>

<g fill="none" stroke="#000000" stroke-opacity="1" stroke-width="1" stroke-linecap="square" stroke-linejoin="bevel" transform="matrix(1.00219,0,0,1.00219,28.0613,363.294)"
font-family="Ubuntu" font-size="11" font-weight="400" font-style="normal" 
>
</g>

<g fill="none" stroke="#000000" stroke-opacity="1" stroke-width="1" stroke-linecap="square" stroke-linejoin="bevel" transform="matrix(1.00219,0,0,1.00219,28.0613,363.294)"
font-family="Ubuntu" font-size="11" font-weight="400" font-style="normal" 
>
</g>

<g fill="none" stroke="#000000" stroke-opacity="1" stroke-width="1" stroke-linecap="square" stroke-linejoin="bevel" transform="matrix(1.00219,0,0,1.00219,28.0613,363.294)"
font-family="Ubuntu" font-size="11" font-weight="400" font-style="normal" 
>
</g>

<g fill="none" stroke="#000000" stroke-opacity="1" stroke-width="1" stroke-linecap="square" stroke-linejoin="bevel" transform="matrix(1.00219,0,0,1.00219,28.0613,363.294)"
font-family="Sans" font-size="9" font-weight="400" font-style="normal" 
>
<text fill="#000000" fill-opacity="1" stroke="none" xml:space="preserve" x="0" y="0" font-family="Sans" font-size="9" font-weight="400" font-style="normal" 
 >-1</text>
</g>

<g fill="none" stroke="#000000" stroke-opacity="1" stroke-width="1" stroke-linecap="square" stroke-linejoin="bevel" transform="matrix(1.00219,0,0,1.00219,28.0613,363.294)"
font-family="Ubuntu" font-size="11" font-weight="400" font-style="normal" 
>
</g>

<g fill="none" stroke="#000000" stroke-opacity="1" stroke-width="1" stroke-linecap="square" stroke-linejoin="bevel" transform="matrix(1.00219,0,0,1.00219,0,0)"
font-family="Ubuntu" font-size="11" font-weight="400" font-style="normal" 
>
</g>

<g fill="none" stroke="#000000" stroke-opacity="1" stroke-width="1" stroke-linecap="round" stroke-linejoin="round" transform="matrix(1.00219,0,0,1.00219,0,0)"
font-family="Ubuntu" font-size="11" font-weight="400" font-style="normal" 
>
<polyline fill="none" vector-effect="none" points="45.5,272.5 51.5,272.5 " />
<polyline fill="none" vector-effect="none" points="891.5,272.5 885.5,272.5 " />
</g>

<g fill="none" stroke="#000000" stroke-opacity="1" stroke-width="1" stroke-linecap="square" stroke-linejoin="bevel" transform="matrix(1.00219,0,0,1.00219,0,0)"
font-family="Ubuntu" font-size="11" font-weight="400" font-style="normal" 
>
</g>

<g fill="none" stroke="#000000" stroke-opacity="1" stroke-width="1" stroke-linecap="square" stroke-linejoin="bevel" transform="matrix(1.00219,0,0,1.00219,16.035,277.106)"
font-family="Ubuntu" font-size="11" font-weight="400" font-style="normal" 
>
</g>

<g fill="none" stroke="#000000" stroke-opacity="1" stroke-width="1" stroke-linecap="square" stroke-linejoin="bevel" transform="matrix(1.00219,0,0,1.00219,16.035,277.106)"
font-family="Ubuntu" font-size="11" font-weight="400" font-style="normal" 
>
</g>

<g fill="none" stroke="#000000" stroke-opacity="1" stroke-width="1" stroke-linecap="square" stroke-linejoin="bevel" transform="matrix(1.00219,0,0,1.00219,16.035,277.106)"
font-family="Ubuntu" font-size="11" font-weight="400" font-style="normal" 
>
</g>

<g fill="none" stroke="#000000" stroke-opacity="1" stroke-width="1" stroke-linecap="square" stroke-linejoin="bevel" transform="matrix(1.00219,0,0,1.00219,16.035,277.106)"
font-family="Ubuntu" font-size="11" font-weight="400" font-style="normal" 
>
</g>

<g fill="none" stroke="#000000" stroke-opacity="1" stroke-width="1" stroke-linecap="square" stroke-linejoin="bevel" transform="matrix(1.00219,0,0,1.00219,16.035,277.106)"
font-family="Ubuntu" font-size="11" font-weight="400" font-style="normal" 
>
</g>

<g fill="none" stroke="#000000" stroke-opacity="1" stroke-width="1" stroke-linecap="square" stroke-linejoin="bevel" transform="matrix(1.00219,0,0,1.00219,16.035,277.106)"
font-family="Sans" font-size="9" font-weight="400" font-style="normal" 
>
<text fill="#000000" fill-opacity="1" stroke="none" xml:space="preserve" x="0" y="0" font-family="Sans" font-size="9" font-weight="400" font-style="normal" 
 >-0.5</text>
</g>

<g fill="none" stroke="#000000" stroke-opacity="1" stroke-width="1" stroke-linecap="square" stroke-linejoin="bevel" transform="matrix(1.00219,0,0,1.00219,16.035,277.106)"
font-family="Ubuntu" font-size="11" font-weight="400" font-style="normal" 
>
</g>

<g fill="none" stroke="#000000" stroke-opacity="1" stroke-width="1" stroke-linecap="square" stroke-linejoin="bevel" transform="matrix(1.00219,0,0,1.00219,0,0)"
font-family="Ubuntu" font-size="11" font-weight="400" font-style="normal" 
>
</g>

<g fill="none" stroke="#000000" stroke-opacity="1" stroke-width="1" stroke-linecap="round" stroke-linejoin="round" transform="matrix(1.00219,0,0,1.00219,0,0)"
font-family="Ubuntu" font-size="11" font-weight="400" font-style="normal" 
>
<polyline fill="none" vector-effect="none" points="45.5,186.5 51.5,186.5 " />
<polyline fill="none" vector-effect="none" points="891.5,186.5 885.5,186.5 " />
</g>

<g fill="none" stroke="#000000" stroke-opacity="1" stroke-width="1" stroke-linecap="square" stroke-linejoin="bevel" transform="matrix(1.00219,0,0,1.00219,0,0)"
font-family="Ubuntu" font-size="11" font-weight="400" font-style="normal" 
>
</g>

<g fill="none" stroke="#000000" stroke-opacity="1" stroke-width="1" stroke-linecap="square" stroke-linejoin="bevel" transform="matrix(1.00219,0,0,1.00219,28.0613,191.919)"
font-family="Ubuntu" font-size="11" font-weight="400" font-style="normal" 
>
</g>

<g fill="none" stroke="#000000" stroke-opacity="1" stroke-width="1" stroke-linecap="square" stroke-linejoin="bevel" transform="matrix(1.00219,0,0,1.00219,28.0613,191.919)"
font-family="Ubuntu" font-size="11" font-weight="400" font-style="normal" 
>
</g>

<g fill="none" stroke="#000000" stroke-opacity="1" stroke-width="1" stroke-linecap="square" stroke-linejoin="bevel" transform="matrix(1.00219,0,0,1.00219,28.0613,191.919)"
font-family="Ubuntu" font-size="11" font-weight="400" font-style="normal" 
>
</g>

<g fill="none" stroke="#000000" stroke-opacity="1" stroke-width="1" stroke-linecap="square" stroke-linejoin="bevel" transform="matrix(1.00219,0,0,1.00219,28.0613,191.919)"
font-family="Ubuntu" font-size="11" font-weight="400" font-style="normal" 
>
</g>

<g fill="none" stroke="#000000" stroke-opacity="1" stroke-width="1" stroke-linecap="square" stroke-linejoin="bevel" transform="matrix(1.00219,0,0,1.00219,28.0613,191.919)"
font-family="Ubuntu" font-size="11" font-weight="400" font-style="normal" 
>
</g>

<g fill="none" stroke="#000000" stroke-opacity="1" stroke-width="1" stroke-linecap="square" stroke-linejoin="bevel" transform="matrix(1.00219,0,0,1.00219,28.0613,191.919)"
font-family="Sans" font-size="9" font-weight="400" font-style="normal" 
>
<text fill="#000000" fill-opacity="1" stroke="none" xml:space="preserve" x="0" y="0" font-family="Sans" font-size="9" font-weight="400" font-style="normal" 
 > 0</text>
</g>

<g fill="none" stroke="#000000" stroke-opacity="1" stroke-width="1" stroke-linecap="square" stroke-linejoin="bevel" transform="matrix(1.00219,0,0,1.00219,28.0613,191.919)"
font-family="Ubuntu" font-size="11" font-weight="400" font-style="normal" 
>
</g>

<g fill="none" stroke="#000000" stroke-opacity="1" stroke-width="1" stroke-linecap="square" stroke-linejoin="bevel" transform="matrix(1.00219,0,0,1.00219,0,0)"
font-family="Ubuntu" font-size="11" font-weight="400" font-style="normal" 
>
</g>

<g fill="none" stroke="#000000" stroke-opacity="1" stroke-width="1" stroke-linecap="round" stroke-linejoin="round" transform="matrix(1.00219,0,0,1.00219,0,0)"
font-family="Ubuntu" font-size="11" font-weight="400" font-style="normal" 
>
<polyline fill="none" vector-effect="none" points="45.5,100.5 51.5,100.5 " />
<polyline fill="none" vector-effect="none" points="891.5,100.5 885.5,100.5 " />
</g>

<g fill="none" stroke="#000000" stroke-opacity="1" stroke-width="1" stroke-linecap="square" stroke-linejoin="bevel" transform="matrix(1.00219,0,0,1.00219,0,0)"
font-family="Ubuntu" font-size="11" font-weight="400" font-style="normal" 
>
</g>

<g fill="none" stroke="#000000" stroke-opacity="1" stroke-width="1" stroke-linecap="square" stroke-linejoin="bevel" transform="matrix(1.00219,0,0,1.00219,16.035,105.731)"
font-family="Ubuntu" font-size="11" font-weight="400" font-style="normal" 
>
</g>

<g fill="none" stroke="#000000" stroke-opacity="1" stroke-width="1" stroke-linecap="square" stroke-linejoin="bevel" transform="matrix(1.00219,0,0,1.00219,16.035,105.731)"
font-family="Ubuntu" font-size="11" font-weight="400" font-style="normal" 
>
</g>

<g fill="none" stroke="#000000" stroke-opacity="1" stroke-width="1" stroke-linecap="square" stroke-linejoin="bevel" transform="matrix(1.00219,0,0,1.00219,16.035,105.731)"
font-family="Ubuntu" font-size="11" font-weight="400" font-style="normal" 
>
</g>

<g fill="none" stroke="#000000" stroke-opacity="1" stroke-width="1" stroke-linecap="square" stroke-linejoin="bevel" transform="matrix(1.00219,0,0,1.00219,16.035,105.731)"
font-family="Ubuntu" font-size="11" font-weight="400" font-style="normal" 
>
</g>

<g fill="none" stroke="#000000" stroke-opacity="1" stroke-width="1" stroke-linecap="square" stroke-linejoin="bevel" transform="matrix(1.00219,0,0,1.00219,16.035,105.731)"
font-family="Ubuntu" font-size="11" font-weight="400" font-style="normal" 
>
</g>

<g fill="none" stroke="#000000" stroke-opacity="1" stroke-width="1" stroke-linecap="square" stroke-linejoin="bevel" transform="matrix(1.00219,0,0,1.00219,16.035,105.731)"
font-family="Sans" font-size="9" font-weight="400" font-style="normal" 
>
<text fill="#000000" fill-opacity="1" stroke="none" xml:space="preserve" x="0" y="0" font-family="Sans" font-size="9" font-weight="400" font-style="normal" 
 > 0.5</text>
</g>

<g fill="none" stroke="#000000" stroke-opacity="1" stroke-width="1" stroke-linecap="square" stroke-linejoin="bevel" transform="matrix(1.00219,0,0,1.00219,16.035,105.731)"
font-family="Ubuntu" font-size="11" font-weight="400" font-style="normal" 
>
</g>

<g fill="none" stroke="#000000" stroke-opacity="1" stroke-width="1" stroke-linecap="square" stroke-linejoin="bevel" transform="matrix(1.00219,0,0,1.00219,0,0)"
font-family="Ubuntu" font-size="11" font-weight="400" font-style="normal" 
>
</g>

<g fill="none" stroke="#000000" stroke-opacity="1" stroke-width="1" stroke-linecap="round" stroke-linejoin="round" transform="matrix(1.00219,0,0,1.00219,0,0)"
font-family="Ubuntu" font-size="11" font-weight="400" font-style="normal" 
>
<polyline fill="none" vector-effect="none" points="45.5,15.5 51.5,15.5 " />
<polyline fill="none" vector-effect="none" points="891.5,15.5 885.5,15.5 " />
</g>

<g fill="none" stroke="#000000" stroke-opacity="1" stroke-width="1" stroke-linecap="square" stroke-linejoin="bevel" transform="matrix(1.00219,0,0,1.00219,0,0)"
font-family="Ubuntu" font-size="11" font-weight="400" font-style="normal" 
>
</g>

<g fill="none" stroke="#000000" stroke-opacity="1" stroke-width="1" stroke-linecap="square" stroke-linejoin="bevel" transform="matrix(1.00219,0,0,1.00219,28.0613,19.5427)"
font-family="Ubuntu" font-size="11" font-weight="400" font-style="normal" 
>
</g>

<g fill="none" stroke="#000000" stroke-opacity="1" stroke-width="1" stroke-linecap="square" stroke-linejoin="bevel" transform="matrix(1.00219,0,0,1.00219,28.0613,19.5427)"
font-family="Ubuntu" font-size="11" font-weight="400" font-style="normal" 
>
</g>

<g fill="none" stroke="#000000" stroke-opacity="1" stroke-width="1" stroke-linecap="square" stroke-linejoin="bevel" transform="matrix(1.00219,0,0,1.00219,28.0613,19.5427)"
font-family="Ubuntu" font-size="11" font-weight="400" font-style="normal" 
>
</g>

<g fill="none" stroke="#000000" stroke-opacity="1" stroke-width="1" stroke-linecap="square" stroke-linejoin="bevel" transform="matrix(1.00219,0,0,1.00219,28.0613,19.5427)"
font-family="Ubuntu" font-size="11" font-weight="400" font-style="normal" 
>
</g>

<g fill="none" stroke="#000000" stroke-opacity="1" stroke-width="1" stroke-linecap="square" stroke-linejoin="bevel" transform="matrix(1.00219,0,0,1.00219,28.0613,19.5427)"
font-family="Ubuntu" font-size="11" font-weight="400" font-style="normal" 
>
</g>

<g fill="none" stroke="#000000" stroke-opacity="1" stroke-width="1" stroke-linecap="square" stroke-linejoin="bevel" transform="matrix(1.00219,0,0,1.00219,28.0613,19.5427)"
font-family="Sans" font-size="9" font-weight="400" font-style="normal" 
>
<text fill="#000000" fill-opacity="1" stroke="none" xml:space="preserve" x="0" y="0" font-family="Sans" font-size="9" font-weight="400" font-style="normal" 
 > 1</text>
</g>

<g fill="none" stroke="#000000" stroke-opacity="1" stroke-width="1" stroke-linecap="square" stroke-linejoin="bevel" transform="matrix(1.00219,0,0,1.00219,28.0613,19.5427)"
font-family="Ubuntu" font-size="11" font-weight="400" font-style="normal" 
>
</g>

<g fill="none" stroke="#000000" stroke-opacity="1" stroke-width="1" stroke-linecap="square" stroke-linejoin="bevel" transform="matrix(1.00219,0,0,1.00219,0,0)"
font-family="Ubuntu" font-size="11" font-weight="400" font-style="normal" 
>
</g>

<g fill="none" stroke="#000000" stroke-opacity="1" stroke-width="1" stroke-linecap="round" stroke-linejoin="round" transform="matrix(1.00219,0,0,1.00219,0,0)"
font-family="Ubuntu" font-size="11" font-weight="400" font-style="normal" 
>
<polyline fill="none" vector-effect="none" points="45.5,358.5 45.5,352.5 " />
<polyline fill="none" vector-effect="none" points="45.5,15.5 45.5,21.5 " />
</g>

<g fill="none" stroke="#000000" stroke-opacity="1" stroke-width="1" stroke-linecap="square" stroke-linejoin="bevel" transform="matrix(1.00219,0,0,1.00219,0,0)"
font-family="Ubuntu" font-size="11" font-weight="400" font-style="normal" 
>
</g>

<g fill="none" stroke="#000000" stroke-opacity="1" stroke-width="1" stroke-linecap="square" stroke-linejoin="bevel" transform="matrix(1.00219,0,0,1.00219,42.5931,378.327)"
font-family="Ubuntu" font-size="11" font-weight="400" font-style="normal" 
>
</g>

<g fill="none" stroke="#000000" stroke-opacity="1" stroke-width="1" stroke-linecap="square" stroke-linejoin="bevel" transform="matrix(1.00219,0,0,1.00219,42.5931,378.327)"
font-family="Ubuntu" font-size="11" font-weight="400" font-style="normal" 
>
</g>

<g fill="none" stroke="#000000" stroke-opacity="1" stroke-width="1" stroke-linecap="square" stroke-linejoin="bevel" transform="matrix(1.00219,0,0,1.00219,42.5931,378.327)"
font-family="Ubuntu" font-size="11" font-weight="400" font-style="normal" 
>
</g>

<g fill="none" stroke="#000000" stroke-opacity="1" stroke-width="1" stroke-linecap="square" stroke-linejoin="bevel" transform="matrix(1.00219,0,0,1.00219,42.5931,378.327)"
font-family="Ubuntu" font-size="11" font-weight="400" font-style="normal" 
>
</g>

<g fill="none" stroke="#000000" stroke-opacity="1" stroke-width="1" stroke-linecap="square" stroke-linejoin="bevel" transform="matrix(1.00219,0,0,1.00219,42.5931,378.327)"
font-family="Ubuntu" font-size="11" font-weight="400" font-style="normal" 
>
</g>

<g fill="none" stroke="#000000" stroke-opacity="1" stroke-width="1" stroke-linecap="square" stroke-linejoin="bevel" transform="matrix(1.00219,0,0,1.00219,42.5931,378.327)"
font-family="Sans" font-size="9" font-weight="400" font-style="normal" 
>
<text fill="#000000" fill-opacity="1" stroke="none" xml:space="preserve" x="0" y="0" font-family="Sans" font-size="9" font-weight="400" font-style="normal" 
 >0</text>
</g>

<g fill="none" stroke="#000000" stroke-opacity="1" stroke-width="1" stroke-linecap="square" stroke-linejoin="bevel" transform="matrix(1.00219,0,0,1.00219,42.5931,378.327)"
font-family="Ubuntu" font-size="11" font-weight="400" font-style="normal" 
>
</g>

<g fill="none" stroke="#000000" stroke-opacity="1" stroke-width="1" stroke-linecap="square" stroke-linejoin="bevel" transform="matrix(1.00219,0,0,1.00219,0,0)"
font-family="Ubuntu" font-size="11" font-weight="400" font-style="normal" 
>
</g>

<g fill="none" stroke="#000000" stroke-opacity="1" stroke-width="1" stroke-linecap="round" stroke-linejoin="round" transform="matrix(1.00219,0,0,1.00219,0,0)"
font-family="Ubuntu" font-size="11" font-weight="400" font-style="normal" 
>
<polyline fill="none" vector-effect="none" points="257.5,358.5 257.5,352.5 " />
<polyline fill="none" vector-effect="none" points="257.5,15.5 257.5,21.5 " />
</g>

<g fill="none" stroke="#000000" stroke-opacity="1" stroke-width="1" stroke-linecap="square" stroke-linejoin="bevel" transform="matrix(1.00219,0,0,1.00219,0,0)"
font-family="Ubuntu" font-size="11" font-weight="400" font-style="normal" 
>
</g>

<g fill="none" stroke="#000000" stroke-opacity="1" stroke-width="1" stroke-linecap="square" stroke-linejoin="bevel" transform="matrix(1.00219,0,0,1.00219,246.038,378.327)"
font-family="Ubuntu" font-size="11" font-weight="400" font-style="normal" 
>
</g>

<g fill="none" stroke="#000000" stroke-opacity="1" stroke-width="1" stroke-linecap="square" stroke-linejoin="bevel" transform="matrix(1.00219,0,0,1.00219,246.038,378.327)"
font-family="Ubuntu" font-size="11" font-weight="400" font-style="normal" 
>
</g>

<g fill="none" stroke="#000000" stroke-opacity="1" stroke-width="1" stroke-linecap="square" stroke-linejoin="bevel" transform="matrix(1.00219,0,0,1.00219,246.038,378.327)"
font-family="Ubuntu" font-size="11" font-weight="400" font-style="normal" 
>
</g>

<g fill="none" stroke="#000000" stroke-opacity="1" stroke-width="1" stroke-linecap="square" stroke-linejoin="bevel" transform="matrix(1.00219,0,0,1.00219,246.038,378.327)"
font-family="Ubuntu" font-size="11" font-weight="400" font-style="normal" 
>
</g>

<g fill="none" stroke="#000000" stroke-opacity="1" stroke-width="1" stroke-linecap="square" stroke-linejoin="bevel" transform="matrix(1.00219,0,0,1.00219,246.038,378.327)"
font-family="Ubuntu" font-size="11" font-weight="400" font-style="normal" 
>
</g>

<g fill="none" stroke="#000000" stroke-opacity="1" stroke-width="1" stroke-linecap="square" stroke-linejoin="bevel" transform="matrix(1.00219,0,0,1.00219,246.038,378.327)"
font-family="Sans" font-size="9" font-weight="400" font-style="normal" 
>
<text fill="#000000" fill-opacity="1" stroke="none" xml:space="preserve" x="0" y="0" font-family="Sans" font-size="9" font-weight="400" font-style="normal" 
 >pi/2</text>
</g>

<g fill="none" stroke="#000000" stroke-opacity="1" stroke-width="1" stroke-linecap="square" stroke-linejoin="bevel" transform="matrix(1.00219,0,0,1.00219,246.038,378.327)"
font-family="Ubuntu" font-size="11" font-weight="400" font-style="normal" 
>
</g>

<g fill="none" stroke="#000000" stroke-opacity="1" stroke-width="1" stroke-linecap="square" stroke-linejoin="bevel" transform="matrix(1.00219,0,0,1.00219,0,0)"
font-family="Ubuntu" font-size="11" font-weight="400" font-style="normal" 
>
</g>

<g fill="none" stroke="#000000" stroke-opacity="1" stroke-width="1" stroke-linecap="round" stroke-linejoin="round" transform="matrix(1.00219,0,0,1.00219,0,0)"
font-family="Ubuntu" font-size="11" font-weight="400" font-style="normal" 
>
<polyline fill="none" vector-effect="none" points="469.5,358.5 469.5,352.5 " />
<polyline fill="none" vector-effect="none" points="469.5,15.5 469.5,21.5 " />
</g>

<g fill="none" stroke="#000000" stroke-opacity="1" stroke-width="1" stroke-linecap="square" stroke-linejoin="bevel" transform="matrix(1.00219,0,0,1.00219,0,0)"
font-family="Ubuntu" font-size="11" font-weight="400" font-style="normal" 
>
</g>

<g fill="none" stroke="#000000" stroke-opacity="1" stroke-width="1" stroke-linecap="square" stroke-linejoin="bevel" transform="matrix(1.00219,0,0,1.00219,464.014,378.327)"
font-family="Ubuntu" font-size="11" font-weight="400" font-style="normal" 
>
</g>

<g fill="none" stroke="#000000" stroke-opacity="1" stroke-width="1" stroke-linecap="square" stroke-linejoin="bevel" transform="matrix(1.00219,0,0,1.00219,464.014,378.327)"
font-family="Ubuntu" font-size="11" font-weight="400" font-style="normal" 
>
</g>

<g fill="none" stroke="#000000" stroke-opacity="1" stroke-width="1" stroke-linecap="square" stroke-linejoin="bevel" transform="matrix(1.00219,0,0,1.00219,464.014,378.327)"
font-family="Ubuntu" font-size="11" font-weight="400" font-style="normal" 
>
</g>

<g fill="none" stroke="#000000" stroke-opacity="1" stroke-width="1" stroke-linecap="square" stroke-linejoin="bevel" transform="matrix(1.00219,0,0,1.00219,464.014,378.327)"
font-family="Ubuntu" font-size="11" font-weight="400" font-style="normal" 
>
</g>

<g fill="none" stroke="#000000" stroke-opacity="1" stroke-width="1" stroke-linecap="square" stroke-linejoin="bevel" transform="matrix(1.00219,0,0,1.00219,464.014,378.327)"
font-family="Ubuntu" font-size="11" font-weight="400" font-style="normal" 
>
</g>

<g fill="none" stroke="#000000" stroke-opacity="1" stroke-width="1" stroke-linecap="square" stroke-linejoin="bevel" transform="matrix(1.00219,0,0,1.00219,464.014,378.327)"
font-family="Sans" font-size="9" font-weight="400" font-style="normal" 
>
<text fill="#000000" fill-opacity="1" stroke="none" xml:space="preserve" x="0" y="0" font-family="Sans" font-size="9" font-weight="400" font-style="normal" 
 >pi</text>
</g>

<g fill="none" stroke="#000000" stroke-opacity="1" stroke-width="1" stroke-linecap="square" stroke-linejoin="bevel" transform="matrix(1.00219,0,0,1.00219,464.014,378.327)"
font-family="Ubuntu" font-size="11" font-weight="400" font-style="normal" 
>
</g>

<g fill="none" stroke="#000000" stroke-opacity="1" stroke-width="1" stroke-linecap="square" stroke-linejoin="bevel" transform="matrix(1.00219,0,0,1.00219,0,0)"
font-family="Ubuntu" font-size="11" font-weight="400" font-style="normal" 
>
</g>

<g fill="none" stroke="#000000" stroke-opacity="1" stroke-width="1" stroke-linecap="round" stroke-linejoin="round" transform="matrix(1.00219,0,0,1.00219,0,0)"
font-family="Ubuntu" font-size="11" font-weight="400" font-style="normal" 
>
<polyline fill="none" vector-effect="none" points="680.5,358.5 680.5,352.5 " />
<polyline fill="none" vector-effect="none" points="680.5,15.5 680.5,21.5 " />
</g>

<g fill="none" stroke="#000000" stroke-opacity="1" stroke-width="1" stroke-linecap="square" stroke-linejoin="bevel" transform="matrix(1.00219,0,0,1.00219,0,0)"
font-family="Ubuntu" font-size="11" font-weight="400" font-style="normal" 
>
</g>

<g fill="none" stroke="#000000" stroke-opacity="1" stroke-width="1" stroke-linecap="square" stroke-linejoin="bevel" transform="matrix(1.00219,0,0,1.00219,667.459,378.327)"
font-family="Ubuntu" font-size="11" font-weight="400" font-style="normal" 
>
</g>

<g fill="none" stroke="#000000" stroke-opacity="1" stroke-width="1" stroke-linecap="square" stroke-linejoin="bevel" transform="matrix(1.00219,0,0,1.00219,667.459,378.327)"
font-family="Ubuntu" font-size="11" font-weight="400" font-style="normal" 
>
</g>

<g fill="none" stroke="#000000" stroke-opacity="1" stroke-width="1" stroke-linecap="square" stroke-linejoin="bevel" transform="matrix(1.00219,0,0,1.00219,667.459,378.327)"
font-family="Ubuntu" font-size="11" font-weight="400" font-style="normal" 
>
</g>

<g fill="none" stroke="#000000" stroke-opacity="1" stroke-width="1" stroke-linecap="square" stroke-linejoin="bevel" transform="matrix(1.00219,0,0,1.00219,667.459,378.327)"
font-family="Ubuntu" font-size="11" font-weight="400" font-style="normal" 
>
</g>

<g fill="none" stroke="#000000" stroke-opacity="1" stroke-width="1" stroke-linecap="square" stroke-linejoin="bevel" transform="matrix(1.00219,0,0,1.00219,667.459,378.327)"
font-family="Ubuntu" font-size="11" font-weight="400" font-style="normal" 
>
</g>

<g fill="none" stroke="#000000" stroke-opacity="1" stroke-width="1" stroke-linecap="square" stroke-linejoin="bevel" transform="matrix(1.00219,0,0,1.00219,667.459,378.327)"
font-family="Sans" font-size="9" font-weight="400" font-style="normal" 
>
<text fill="#000000" fill-opacity="1" stroke="none" xml:space="preserve" x="0" y="0" font-family="Sans" font-size="9" font-weight="400" font-style="normal" 
 >3pi/2</text>
</g>

<g fill="none" stroke="#000000" stroke-opacity="1" stroke-width="1" stroke-linecap="square" stroke-linejoin="bevel" transform="matrix(1.00219,0,0,1.00219,667.459,378.327)"
font-family="Ubuntu" font-size="11" font-weight="400" font-style="normal" 
>
</g>

<g fill="none" stroke="#000000" stroke-opacity="1" stroke-width="1" stroke-linecap="square" stroke-linejoin="bevel" transform="matrix(1.00219,0,0,1.00219,0,0)"
font-family="Ubuntu" font-size="11" font-weight="400" font-style="normal" 
>
</g>

<g fill="none" stroke="#000000" stroke-opacity="1" stroke-width="1" stroke-linecap="round" stroke-linejoin="round" transform="matrix(1.00219,0,0,1.00219,0,0)"
font-family="Ubuntu" font-size="11" font-weight="400" font-style="normal" 
>
<polyline fill="none" vector-effect="none" points="891.5,358.5 891.5,352.5 " />
<polyline fill="none" vector-effect="none" points="891.5,15.5 891.5,21.5 " />
</g>

<g fill="none" stroke="#000000" stroke-opacity="1" stroke-width="1" stroke-linecap="square" stroke-linejoin="bevel" transform="matrix(1.00219,0,0,1.00219,0,0)"
font-family="Ubuntu" font-size="11" font-weight="400" font-style="normal" 
>
</g>

<g fill="none" stroke="#000000" stroke-opacity="1" stroke-width="1" stroke-linecap="square" stroke-linejoin="bevel" transform="matrix(1.00219,0,0,1.00219,884.433,378.327)"
font-family="Ubuntu" font-size="11" font-weight="400" font-style="normal" 
>
</g>

<g fill="none" stroke="#000000" stroke-opacity="1" stroke-width="1" stroke-linecap="square" stroke-linejoin="bevel" transform="matrix(1.00219,0,0,1.00219,884.433,378.327)"
font-family="Ubuntu" font-size="11" font-weight="400" font-style="normal" 
>
</g>

<g fill="none" stroke="#000000" stroke-opacity="1" stroke-width="1" stroke-linecap="square" stroke-linejoin="bevel" transform="matrix(1.00219,0,0,1.00219,884.433,378.327)"
font-family="Ubuntu" font-size="11" font-weight="400" font-style="normal" 
>
</g>

<g fill="none" stroke="#000000" stroke-opacity="1" stroke-width="1" stroke-linecap="square" stroke-linejoin="bevel" transform="matrix(1.00219,0,0,1.00219,884.433,378.327)"
font-family="Ubuntu" font-size="11" font-weight="400" font-style="normal" 
>
</g>

<g fill="none" stroke="#000000" stroke-opacity="1" stroke-width="1" stroke-linecap="square" stroke-linejoin="bevel" transform="matrix(1.00219,0,0,1.00219,884.433,378.327)"
font-family="Ubuntu" font-size="11" font-weight="400" font-style="normal" 
>
</g>

<g fill="none" stroke="#000000" stroke-opacity="1" stroke-width="1" stroke-linecap="square" stroke-linejoin="bevel" transform="matrix(1.00219,0,0,1.00219,884.433,378.327)"
font-family="Sans" font-size="9" font-weight="400" font-style="normal" 
>
<text fill="#000000" fill-opacity="1" stroke="none" xml:space="preserve" x="0" y="0" font-family="Sans" font-size="9" font-weight="400" font-style="normal" 
 >2pi</text>
</g>

<g fill="none" stroke="#000000" stroke-opacity="1" stroke-width="1" stroke-linecap="square" stroke-linejoin="bevel" transform="matrix(1.00219,0,0,1.00219,884.433,378.327)"
font-family="Ubuntu" font-size="11" font-weight="400" font-style="normal" 
>
</g>

<g fill="none" stroke="#000000" stroke-opacity="1" stroke-width="1" stroke-linecap="square" stroke-linejoin="bevel" transform="matrix(1.00219,0,0,1.00219,0,0)"
font-family="Ubuntu" font-size="11" font-weight="400" font-style="normal" 
>
</g>

<g fill="none" stroke="#000000" stroke-opacity="1" stroke-width="1" stroke-linecap="round" stroke-linejoin="round" transform="matrix(1.00219,0,0,1.00219,0,0)"
font-family="Ubuntu" font-size="11" font-weight="400" font-style="normal" 
>
<polyline fill="none" vector-effect="none" points="45.5,15.5 45.5,358.5 891.5,358.5 891.5,15.5 45.5,15.5 " />
<polyline fill="none" vector-effect="none" points="257.5,358.5 257.5,15.5 " />
<polyline fill="none" vector-effect="none" points="469.5,358.5 469.5,15.5 " />
<polyline fill="none" vector-effect="none" points="680.5,358.5 680.5,15.5 " />
</g>

<g fill="none" stroke="#000000" stroke-opacity="1" stroke-width="1" stroke-linecap="square" stroke-linejoin="bevel" transform="matrix(1.00219,0,0,1.00219,0,0)"
font-family="Ubuntu" font-size="11" font-weight="400" font-style="normal" 
>
</g>

<g fill="none" stroke="#000000" stroke-opacity="1" stroke-width="1" stroke-linecap="square" stroke-linejoin="bevel" transform="matrix(1.00219,0,0,1.00219,738.583,17.5383)"
font-family="Ubuntu" font-size="11" font-weight="400" font-style="normal" 
>
</g>

<g fill="none" stroke="#000000" stroke-opacity="1" stroke-width="1" stroke-linecap="square" stroke-linejoin="bevel" transform="matrix(1.00219,0,0,1.00219,738.583,17.5383)"
font-family="Ubuntu" font-size="11" font-weight="400" font-style="normal" 
>
</g>

<g fill="none" stroke="#000000" stroke-opacity="1" stroke-width="1" stroke-linecap="square" stroke-linejoin="bevel" transform="matrix(1.00219,0,0,1.00219,738.583,17.5383)"
font-family="Ubuntu" font-size="11" font-weight="400" font-style="normal" 
>
</g>

<g fill="none" stroke="#000000" stroke-opacity="1" stroke-width="1" stroke-linecap="square" stroke-linejoin="bevel" transform="matrix(1.00219,0,0,1.00219,738.583,17.5383)"
font-family="Ubuntu" font-size="11" font-weight="400" font-style="normal" 
>
<text fill="#000000" fill-opacity="1" stroke="none" xml:space="preserve" x="4" y="16" font-family="Sans" font-size="9" font-weight="400" font-style="normal" 
 >&quot;sineTable.dat&quot;</text>
</g>

<g fill="none" stroke="#000000" stroke-opacity="1" stroke-width="1" stroke-linecap="square" stroke-linejoin="bevel" transform="matrix(1.00219,0,0,1.00219,738.583,17.5383)"
font-family="Ubuntu" font-size="11" font-weight="400" font-style="normal" 
>
</g>

<g fill="none" stroke="#000000" stroke-opacity="1" stroke-width="1" stroke-linecap="square" stroke-linejoin="bevel" transform="matrix(1,0,0,1,0,0)"
font-family="Ubuntu" font-size="11" font-weight="400" font-style="normal" 
>
</g>

<g fill="none" stroke="#000000" stroke-opacity="1" stroke-width="1" stroke-linecap="square" stroke-linejoin="bevel" transform="matrix(1.00219,0,0,1.00219,738.583,17.5383)"
font-family="Ubuntu" font-size="11" font-weight="400" font-style="normal" 
>
</g>

<g fill="none" stroke="#000000" stroke-opacity="1" stroke-width="1" stroke-linecap="square" stroke-linejoin="bevel" transform="matrix(1.00219,0,0,1.00219,738.583,17.5383)"
font-family="Ubuntu" font-size="11" font-weight="400" font-style="normal" 
>
</g>

<g fill="none" stroke="#000000" stroke-opacity="1" stroke-width="1" stroke-linecap="square" stroke-linejoin="bevel" transform="matrix(1.00219,0,0,1.00219,738.583,17.5383)"
font-family="Ubuntu" font-size="11" font-weight="400" font-style="normal" 
>
</g>

<g fill="none" stroke="#000000" stroke-opacity="1" stroke-width="1" stroke-linecap="square" stroke-linejoin="bevel" transform="matrix(1.00219,0,0,1.00219,0,0)"
font-family="Ubuntu" font-size="11" font-weight="400" font-style="normal" 
>
</g>

<g fill="none" stroke="#9400d3" stroke-opacity="1" stroke-width="1" stroke-linecap="round" stroke-linejoin="round" transform="matrix(1.00219,0,0,1.00219,0,0)"
font-family="Ubuntu" font-size="11" font-weight="400" font-style="normal" 
>
<path vector-effect="none" fill-rule="evenodd" d="M843.5,28.5 L877.5,28.5"/>
</g>

<g fill="none" stroke="#000000" stroke-opacity="1" stroke-width="1" stroke-linecap="square" stroke-linejoin="bevel" transform="matrix(1.00219,0,0,1.00219,0,0)"
font-family="Ubuntu" font-size="11" font-weight="400" font-style="normal" 
>
</g>

<g fill="none" stroke="#000000" stroke-opacity="1" stroke-width="1" stroke-linecap="square" stroke-linejoin="bevel" transform="matrix(1.00219,0,0,1.00219,0,0)"
font-family="Ubuntu" font-size="11" font-weight="400" font-style="normal" 
>
</g>

<g fill="none" stroke="#000000" stroke-opacity="1" stroke-width="1" stroke-linecap="square" stroke-linejoin="bevel" transform="matrix(1.00219,0,0,1.00219,0,0)"
font-family="Ubuntu" font-size="11" font-weight="400" font-style="normal" 
>
</g>

<g fill="none" stroke="#000000" stroke-opacity="1" stroke-width="1" stroke-linecap="square" stroke-linejoin="bevel" transform="matrix(1.00219,0,0,1.00219,0,0)"
font-family="Ubuntu" font-size="11" font-weight="400" font-style="normal" 
>
</g>

<g fill="none" stroke="#9400d3" stroke-opacity="1" stroke-width="1" stroke-linecap="round" stroke-linejoin="round" transform="matrix(1.00219,0,0,1.00219,0,0)"
font-family="Ubuntu" font-size="11" font-weight="400" font-style="normal" 
>
<polyline fill="none" vector-effect="none" points="45.5,186.5 45.5,186.5 46.3,185.5 47.2,184.4 48,183.4 48.8,182.3 49.6,181.3 50.5,180.2 51.3,179.2 52.1,178.1 52.9,177.1 53.8,176 54.6,175 55.4,173.9 56.3,172.9 57.1,171.8 57.9,170.8 58.7,169.7 59.6,168.7 60.4,167.6 61.2,166.6 62,165.5 62.9,164.5 63.7,163.5 64.5,162.4 65.4,161.4 66.2,160.3 67,159.3 67.8,158.2 68.7,157.2 69.5,156.2 70.3,155.1 71.1,154.1 72,153.1 72.8,152 73.6,151 74.5,150 75.3,148.9 76.1,147.9 76.9,146.9 77.8,145.9 78.6,144.8 79.4,143.8 80.2,142.8 81.1,141.8 81.9,140.8 82.7,139.8 83.6,138.7 84.4,137.7 85.2,136.7 86,135.7 86.9,134.7 87.7,133.7 88.5,132.7 89.4,131.7 90.2,130.7 91,129.7 91.8,128.7 92.7,127.7 93.5,126.8 94.3,125.8 95.1,124.8 96,123.8 96.8,122.8 97.6,121.8 98.5,120.9 99.3,119.9 100.1,118.9 100.9,118 101.8,117 102.6,116 103.4,115.1 104.2,114.1 105.1,113.2 105.9,112.2 106.7,111.3 107.6,110.3 108.4,109.4 109.2,108.5 110,107.5 110.9,106.6 111.7,105.7 112.5,104.7 113.3,103.8 114.2,102.9 115,102 115.8,101 116.7,100.1 117.5,99.2 118.3,98.3 119.1,97.4 120,96.5 120.8,95.6 121.6,94.7 122.4,93.9 123.3,93 124.1,92.1 124.9,91.2 125.8,90.3 126.6,89.5 127.4,88.6 128.2,87.7 129.1,86.9 129.9,86 130.7,85.2 131.5,84.3 132.4,83.5 133.2,82.6 134,81.8 134.9,81 135.7,80.1 136.5,79.3 137.3,78.5 138.2,77.7 139,76.9 139.8,76.1 140.6,75.3 141.5,74.5 142.3,73.7 143.1,72.9 144,72.1 144.8,71.3 145.6,70.5 146.4,69.8 147.3,69 148.1,68.2 148.9,67.5 149.7,66.7 150.6,66 151.4,65.2 152.2,64.5 153.1,63.7 153.9,63 154.7,62.3 155.5,61.6 156.4,60.8 157.2,60.1 158,59.4 158.8,58.7 159.7,58 160.5,57.3 161.3,56.6 162.2,55.9 163,55.3 163.8,54.6 164.6,53.9 165.5,53.3 166.3,52.6 167.1,51.9 168,51.3 168.8,50.6 169.6,50 170.4,49.4 171.3,48.7 172.1,48.1 172.9,47.5 173.7,46.9 174.6,46.3 175.4,45.7 176.2,45.1 177.1,44.5 177.9,43.9 178.7,43.3 179.5,42.7 180.4,42.2 181.2,41.6 182,41 182.8,40.5 183.7,39.9 184.5,39.4 185.3,38.9 186.2,38.3 187,37.8 187.8,37.3 188.6,36.8 189.5,36.3 190.3,35.8 191.1,35.3 191.9,34.8 192.8,34.3 193.6,33.8 194.4,33.3 195.3,32.8 196.1,32.4 196.9,31.9 197.7,31.5 198.6,31 199.4,30.6 200.2,30.2 201,29.7 201.9,29.3 202.7,28.9 203.5,28.5 204.4,28.1 205.2,27.7 206,27.3 206.8,26.9 207.7,26.5 208.5,26.1 209.3,25.8 210.1,25.4 211,25 211.8,24.7 212.6,24.4 213.5,24 214.3,23.7 215.1,23.4 215.9,23 216.8,22.7 217.6,22.4 218.4,22.1 219.2,21.8 220.1,21.5 220.9,21.2 221.7,21 222.6,20.7 223.4,20.4 224.2,20.2 225,19.9 225.9,19.7 226.7,19.4 227.5,19.2 228.3,19 229.2,18.8 230,18.6 230.8,18.3 231.7,18.1 232.5,17.9 233.3,17.8 234.1,17.6 235,17.4 235.8,17.2 236.6,17.1 237.4,16.9 238.3,16.8 239.1,16.6 239.9,16.5 240.8,16.4 241.6,16.2 242.4,16.1 243.2,16 244.1,15.9 244.9,15.8 245.7,15.7 246.6,15.6 247.4,15.5 248.2,15.5 249,15.4 249.9,15.3 250.7,15.3 251.5,15.2 252.3,15.2 253.2,15.2 254,15.1 254.8,15.1 255.7,15.1 256.2,15.1 " />
<polyline fill="none" vector-effect="none" points="258,15.1 258.1,15.1 259,15.1 259.8,15.1 260.6,15.2 261.4,15.2 262.3,15.2 263.1,15.3 263.9,15.3 264.8,15.4 265.6,15.4 266.4,15.5 267.2,15.6 268.1,15.7 268.9,15.8 269.7,15.8 270.5,15.9 271.4,16.1 272.2,16.2 273,16.3 273.9,16.4 274.7,16.6 275.5,16.7 276.3,16.8 277.2,17 278,17.2 278.8,17.3 279.6,17.5 280.5,17.7 281.3,17.9 282.1,18 283,18.2 283.8,18.4 284.6,18.7 285.4,18.9 286.3,19.1 287.1,19.3 287.9,19.6 288.7,19.8 289.6,20.1 290.4,20.3 291.2,20.6 292.1,20.8 292.9,21.1 293.7,21.4 294.5,21.7 295.4,22 296.2,22.3 297,22.6 297.8,22.9 298.7,23.2 299.5,23.5 300.3,23.8 301.2,24.2 302,24.5 302.8,24.9 303.6,25.2 304.5,25.6 305.3,26 306.1,26.3 306.9,26.7 307.8,27.1 308.6,27.5 309.4,27.9 310.3,28.3 311.1,28.7 311.9,29.1 312.7,29.5 313.6,29.9 314.4,30.4 315.2,30.8 316.1,31.3 316.9,31.7 317.7,32.2 318.5,32.6 319.4,33.1 320.2,33.6 321,34 321.8,34.5 322.7,35 323.5,35.5 324.3,36 325.2,36.5 326,37 326.8,37.5 327.6,38.1 328.5,38.6 329.3,39.1 330.1,39.7 330.9,40.2 331.8,40.8 332.6,41.3 333.4,41.9 334.3,42.5 335.1,43 335.9,43.6 336.7,44.2 337.6,44.8 338.4,45.4 339.2,46 340,46.6 340.9,47.2 341.7,47.8 342.5,48.4 343.4,49.1 344.2,49.7 345,50.3 345.8,51 346.7,51.6 347.5,52.3 348.3,52.9 349.1,53.6 350,54.3 350.8,54.9 351.6,55.6 352.5,56.3 353.3,57 354.1,57.7 354.9,58.4 355.8,59.1 356.6,59.8 357.4,60.5 358.2,61.2 359.1,61.9 359.9,62.6 360.7,63.4 361.6,64.1 362.4,64.9 363.2,65.6 364,66.3 364.9,67.1 365.7,67.9 366.5,68.6 367.3,69.4 368.2,70.2 369,70.9 369.8,71.7 370.7,72.5 371.5,73.3 372.3,74.1 373.1,74.9 374,75.7 374.8,76.5 375.6,77.3 376.4,78.1 377.3,78.9 378.1,79.7 378.9,80.6 379.8,81.4 380.6,82.2 381.4,83.1 382.2,83.9 383.1,84.8 383.9,85.6 384.7,86.5 385.5,87.3 386.4,88.2 387.2,89 388,89.9 388.9,90.8 389.7,91.7 390.5,92.5 391.3,93.4 392.2,94.3 393,95.2 393.8,96.1 394.7,97 395.5,97.9 396.3,98.8 397.1,99.7 398,100.6 398.8,101.5 399.6,102.4 400.4,103.3 401.3,104.3 402.1,105.2 402.9,106.1 403.8,107.1 404.6,108 405.4,108.9 406.2,109.9 407.1,110.8 407.9,111.8 408.7,112.7 409.5,113.7 410.4,114.6 411.2,115.6 412,116.5 412.9,117.5 413.7,118.5 414.5,119.4 415.3,120.4 416.2,121.4 417,122.3 417.8,123.3 418.6,124.3 419.5,125.3 420.3,126.3 421.1,127.3 422,128.2 422.8,129.2 423.6,130.2 424.4,131.2 425.3,132.2 426.1,133.2 426.9,134.2 427.7,135.2 428.6,136.2 429.4,137.2 430.2,138.2 431.1,139.3 431.9,140.3 432.7,141.3 433.5,142.3 434.4,143.3 435.2,144.3 436,145.4 436.8,146.4 437.7,147.4 438.5,148.4 439.3,149.5 440.2,150.5 441,151.5 441.8,152.6 442.6,153.6 443.5,154.6 444.3,155.7 445.1,156.7 445.9,157.7 446.8,158.8 447.6,159.8 448.4,160.8 449.3,161.9 450.1,162.9 450.9,164 451.7,165 452.6,166.1 453.4,167.1 454.2,168.2 455,169.2 455.9,170.3 456.7,171.3 457.5,172.4 458.4,173.4 459.2,174.5 460,175.5 460.8,176.6 461.7,177.6 462.5,178.7 463.3,179.7 464.1,180.8 465,181.8 465.8,182.9 466.6,183.9 467.5,185 468.3,186 469.1,187.1 469.9,188.1 470.8,189.2 471.6,190.2 472.4,191.3 473.3,192.3 474.1,193.4 474.9,194.4 475.7,195.5 476.6,196.5 477.4,197.6 478.2,198.7 479,199.7 479.9,200.8 480.7,201.8 481.5,202.8 482.4,203.9 483.2,204.9 484,206 484.8,207 485.7,208.1 486.5,209.1 487.3,210.2 488.1,211.2 489,212.3 489.8,213.3 490.6,214.3 491.5,215.4 492.3,216.4 493.1,217.4 493.9,218.5 494.8,219.5 495.6,220.5 496.4,221.6 497.2,222.6 498.1,223.6 498.9,224.7 499.7,225.7 500.6,226.7 501.4,227.7 502.2,228.8 503,229.8 503.9,230.8 504.7,231.8 505.5,232.8 506.3,233.8 507.2,234.9 508,235.9 508.8,236.9 509.7,237.9 510.5,238.9 511.3,239.9 512.1,240.9 513,241.9 513.8,242.9 514.6,243.9 515.4,244.9 516.3,245.8 517.1,246.8 517.9,247.8 518.8,248.8 519.6,249.8 520.4,250.8 521.2,251.7 522.1,252.7 522.9,253.7 523.7,254.6 524.5,255.6 525.4,256.6 526.2,257.5 527,258.5 527.9,259.4 528.7,260.4 529.5,261.3 530.3,262.3 531.2,263.2 532,264.2 532.8,265.1 533.6,266 534.5,267 535.3,267.9 536.1,268.8 537,269.8 537.8,270.7 538.6,271.6 539.4,272.5 540.3,273.4 541.1,274.3 541.9,275.2 542.7,276.1 543.6,277 544.4,277.9 545.2,278.8 546.1,279.7 546.9,280.6 547.7,281.4 548.5,282.3 549.4,283.2 550.2,284.1 551,284.9 551.9,285.8 552.7,286.6 553.5,287.5 554.3,288.3 555.2,289.2 556,290 556.8,290.9 557.6,291.7 558.5,292.5 559.3,293.4 560.1,294.2 561,295 561.8,295.8 562.6,296.6 563.4,297.4 564.3,298.2 565.1,299 565.9,299.8 566.7,300.6 567.6,301.4 568.4,302.2 569.2,302.9 570.1,303.7 570.9,304.5 571.7,305.2 572.5,306 573.4,306.8 574.2,307.5 575,308.2 575.8,309 576.7,309.7 577.5,310.5 578.3,311.2 579.2,311.9 580,312.6 580.8,313.3 581.6,314 582.5,314.7 583.3,315.4 584.1,316.1 584.9,316.8 585.8,317.5 586.6,318.2 587.4,318.8 588.3,319.5 589.1,320.2 589.9,320.8 590.7,321.5 591.6,322.1 592.4,322.8 593.2,323.4 594,324 594.9,324.7 595.7,325.3 596.5,325.9 597.4,326.5 598.2,327.1 599,327.7 599.8,328.3 600.7,328.9 601.5,329.5 602.3,330.1 603.1,330.6 604,331.2 604.8,331.8 605.6,332.3 606.5,332.9 607.3,333.4 608.1,334 608.9,334.5 609.8,335 610.6,335.6 611.4,336.1 612.2,336.6 613.1,337.1 613.9,337.6 614.7,338.1 615.6,338.6 616.4,339.1 617.2,339.5 618,340 618.9,340.5 619.7,340.9 620.5,341.4 621.3,341.8 622.2,342.3 623,342.7 623.8,343.2 624.7,343.6 625.5,344 626.3,344.4 627.1,344.8 628,345.2 628.8,345.6 629.6,346 630.5,346.4 631.3,346.8 632.1,347.1 632.9,347.5 633.8,347.9 634.6,348.2 635.4,348.6 636.2,348.9 637.1,349.2 637.9,349.6 638.7,349.9 639.6,350.2 640.4,350.5 641.2,350.8 642,351.1 642.9,351.4 643.7,351.7 644.5,352 645.3,352.3 646.2,352.5 647,352.8 647.8,353 648.7,353.3 649.5,353.5 650.3,353.8 651.1,354 652,354.2 652.8,354.4 653.6,354.6 654.4,354.9 655.3,355.1 656.1,355.2 656.9,355.4 657.8,355.6 658.6,355.8 659.4,355.9 660.2,356.1 661.1,356.3 661.9,356.4 662.7,356.5 663.5,356.7 664.4,356.8 665.2,356.9 666,357 666.9,357.1 667.7,357.2 668.5,357.3 669.3,357.4 670.2,357.5 671,357.6 671.8,357.7 672.6,357.7 673.5,357.8 674.3,357.8 675.1,357.9 676,357.9 676.8,357.9 677.6,358 678.4,358 679.3,358 680,358 " />
<polyline fill="none" vector-effect="none" points="680.5,358 680.9,358 681.7,358 682.6,358 683.4,358 684.2,357.9 685.1,357.9 685.9,357.9 686.7,357.8 687.5,357.8 688.4,357.7 689.2,357.6 690,357.6 690.8,357.5 691.7,357.4 692.5,357.3 693.3,357.2 694.2,357.1 695,357 695.8,356.9 696.6,356.7 697.5,356.6 698.3,356.5 699.1,356.3 700,356.2 700.8,356 701.6,355.9 702.4,355.7 703.3,355.5 704.1,355.3 704.9,355.1 705.7,355 706.6,354.8 707.4,354.5 708.2,354.3 709.1,354.1 709.9,353.9 710.7,353.7 711.5,353.4 712.4,353.2 713.2,352.9 714,352.7 714.8,352.4 715.7,352.1 716.5,351.8 717.3,351.6 718.2,351.3 719,351 719.8,350.7 720.6,350.4 721.5,350.1 722.3,349.7 723.1,349.4 723.9,349.1 724.8,348.7 725.6,348.4 726.4,348 727.3,347.7 728.1,347.3 728.9,347 729.7,346.6 730.6,346.2 731.4,345.8 732.2,345.4 733,345 733.9,344.6 734.7,344.2 735.5,343.8 736.4,343.4 737.2,342.9 738,342.5 738.8,342.1 739.7,341.6 740.5,341.2 741.3,340.7 742.1,340.2 743,339.8 743.8,339.3 744.6,338.8 745.5,338.3 746.3,337.8 747.1,337.3 747.9,336.8 748.8,336.3 749.6,335.8 750.4,335.3 751.2,334.8 752.1,334.2 752.9,333.7 753.7,333.2 754.6,332.6 755.4,332.1 756.2,331.5 757,330.9 757.9,330.4 758.7,329.8 759.5,329.2 760.3,328.6 761.2,328 762,327.4 762.8,326.8 763.7,326.2 764.5,325.6 765.3,325 766.1,324.4 767,323.7 767.8,323.1 768.6,322.5 769.4,321.8 770.3,321.2 771.1,320.5 771.9,319.8 772.8,319.2 773.6,318.5 774.4,317.8 775.2,317.2 776.1,316.5 776.9,315.8 777.7,315.1 778.6,314.4 779.4,313.7 780.2,313 781,312.3 781.9,311.5 782.7,310.8 783.5,310.1 784.3,309.4 785.2,308.6 786,307.9 786.8,307.1 787.7,306.4 788.5,305.6 789.3,304.9 790.1,304.1 791,303.3 791.8,302.6 792.6,301.8 793.4,301 794.3,300.2 795.1,299.4 795.9,298.6 796.8,297.8 797.6,297 798.4,296.2 799.2,295.4 800.1,294.6 800.9,293.8 801.7,292.9 802.5,292.1 803.4,291.3 804.2,290.5 805,289.6 805.9,288.8 806.7,287.9 807.5,287.1 808.3,286.2 809.2,285.4 810,284.5 810.8,283.6 811.6,282.8 812.5,281.9 813.3,281 814.1,280.1 815,279.2 815.8,278.4 816.6,277.5 817.4,276.6 818.3,275.7 819.1,274.8 819.9,273.9 820.7,273 821.6,272 822.4,271.1 823.2,270.2 824.1,269.3 824.9,268.4 825.7,267.4 826.5,266.5 827.4,265.6 828.2,264.6 829,263.7 829.8,262.8 830.7,261.8 831.5,260.9 832.3,259.9 833.2,259 834,258 834.8,257.1 835.6,256.1 836.5,255.1 837.3,254.2 838.1,253.2 838.9,252.2 839.8,251.2 840.6,250.3 841.4,249.3 842.3,248.3 843.1,247.3 843.9,246.3 844.7,245.4 845.6,244.4 846.4,243.4 847.2,242.4 848,241.4 848.9,240.4 849.7,239.4 850.5,238.4 851.4,237.4 852.2,236.4 853,235.4 853.8,234.3 854.7,233.3 855.5,232.3 856.3,231.3 857.2,230.3 858,229.3 858.8,228.2 859.6,227.2 860.5,226.2 861.3,225.2 862.1,224.2 862.9,223.1 863.8,222.1 864.6,221.1 865.4,220 866.3,219 867.1,218 867.9,216.9 868.7,215.9 869.6,214.9 870.4,213.8 871.2,212.8 872,211.7 872.9,210.7 873.7,209.6 874.5,208.6 875.4,207.6 876.2,206.5 877,205.5 877.8,204.4 878.7,203.4 879.5,202.3 880.3,201.3 881.1,200.2 882,199.2 882.8,198.1 883.6,197.1 884.5,196 885.3,195 886.1,193.9 886.9,192.9 887.8,191.8 888.6,190.8 889.4,189.7 890.2,188.7 891.1,187.6 891.9,185.5 " />
</g>

<g fill="none" stroke="#000000" stroke-opacity="1" stroke-width="1" stroke-linecap="square" stroke-linejoin="bevel" transform="matrix(1.00219,0,0,1.00219,0,0)"
font-family="Ubuntu" font-size="11" font-weight="400" font-style="normal" 
>
</g>

<g fill="none" stroke="#000000" stroke-opacity="1" stroke-width="1" stroke-linecap="square" stroke-linejoin="bevel" transform="matrix(1.00219,0,0,1.00219,0,0)"
font-family="Ubuntu" font-size="11" font-weight="400" font-style="normal" 
>
</g>

<g fill="none" stroke="#000000" stroke-opacity="1" stroke-width="1" stroke-linecap="round" stroke-linejoin="round" transform="matrix(1.00219,0,0,1.00219,0,0)"
font-family="Ubuntu" font-size="11" font-weight="400" font-style="normal" 
>
<polyline fill="none" vector-effect="none" points="45.5,15.5 45.5,358.5 891.5,358.5 891.5,15.5 45.5,15.5 " />
</g>

<g fill="none" stroke="#000000" stroke-opacity="1" stroke-width="1" stroke-linecap="square" stroke-linejoin="bevel" transform="matrix(1.00219,0,0,1.00219,0,0)"
font-family="Ubuntu" font-size="11" font-weight="400" font-style="normal" 
>
</g>

<g fill="none" stroke="#000000" stroke-opacity="1" stroke-width="1" stroke-linecap="square" stroke-linejoin="bevel" transform="matrix(1,0,0,1,0,0)"
font-family="Ubuntu" font-size="11" font-weight="400" font-style="normal" 
>
</g>
</g>
</svg>
