<?xml version="1.0" encoding="UTF-8" standalone="no"?>
<svg width="360.892mm" height="220.486mm"
 viewBox="0 0 1023 625"
 xmlns="http://www.w3.org/2000/svg" xmlns:xlink="http://www.w3.org/1999/xlink"  version="1.2" baseProfile="tiny">
<title>Qt SVG Document</title>
<desc>Generated with Qt</desc>
<defs>
</defs>
<g fill="none" stroke="black" stroke-width="1" fill-rule="evenodd" stroke-linecap="square" stroke-linejoin="bevel" >

<g fill="none" stroke="#000000" stroke-opacity="1" stroke-width="1" stroke-linecap="square" stroke-linejoin="bevel" transform="matrix(1,0,0,1,0,0)"
font-family="Ubuntu" font-size="11" font-weight="400" font-style="normal" 
>
</g>

<g fill="none" stroke="#000000" stroke-opacity="1" stroke-width="1" stroke-linecap="square" stroke-linejoin="bevel" transform="matrix(1.00196,0,0,1.00196,0,0)"
font-family="Ubuntu" font-size="11" font-weight="400" font-style="normal" 
>
</g>

<g fill="none" stroke="#000000" stroke-opacity="1" stroke-width="1" stroke-linecap="round" stroke-linejoin="round" transform="matrix(1.00196,0,0,1.00196,0,0)"
font-family="Ubuntu" font-size="11" font-weight="400" font-style="normal" 
>
<polyline fill="none" vector-effect="none" points="45.5,593.5 51.5,593.5 " />
<polyline fill="none" vector-effect="none" points="999.5,593.5 993.5,593.5 " />
</g>

<g fill="none" stroke="#000000" stroke-opacity="1" stroke-width="1" stroke-linecap="square" stroke-linejoin="bevel" transform="matrix(1.00196,0,0,1.00196,0,0)"
font-family="Ubuntu" font-size="11" font-weight="400" font-style="normal" 
>
</g>

<g fill="none" stroke="#000000" stroke-opacity="1" stroke-width="1" stroke-linecap="square" stroke-linejoin="bevel" transform="matrix(1.00196,0,0,1.00196,28.0548,598.67)"
font-family="Ubuntu" font-size="11" font-weight="400" font-style="normal" 
>
</g>

<g fill="none" stroke="#000000" stroke-opacity="1" stroke-width="1" stroke-linecap="square" stroke-linejoin="bevel" transform="matrix(1.00196,0,0,1.00196,28.0548,598.67)"
font-family="Ubuntu" font-size="11" font-weight="400" font-style="normal" 
>
</g>

<g fill="none" stroke="#000000" stroke-opacity="1" stroke-width="1" stroke-linecap="square" stroke-linejoin="bevel" transform="matrix(1.00196,0,0,1.00196,28.0548,598.67)"
font-family="Ubuntu" font-size="11" font-weight="400" font-style="normal" 
>
</g>

<g fill="none" stroke="#000000" stroke-opacity="1" stroke-width="1" stroke-linecap="square" stroke-linejoin="bevel" transform="matrix(1.00196,0,0,1.00196,28.0548,598.67)"
font-family="Ubuntu" font-size="11" font-weight="400" font-style="normal" 
>
</g>

<g fill="none" stroke="#000000" stroke-opacity="1" stroke-width="1" stroke-linecap="square" stroke-linejoin="bevel" transform="matrix(1.00196,0,0,1.00196,28.0548,598.67)"
font-family="Ubuntu" font-size="11" font-weight="400" font-style="normal" 
>
</g>

<g fill="none" stroke="#000000" stroke-opacity="1" stroke-width="1" stroke-linecap="square" stroke-linejoin="bevel" transform="matrix(1.00196,0,0,1.00196,28.0548,598.67)"
font-family="Sans" font-size="9" font-weight="400" font-style="normal" 
>
<text fill="#000000" fill-opacity="1" stroke="none" xml:space="preserve" x="0" y="0" font-family="Sans" font-size="9" font-weight="400" font-style="normal" 
 >-1</text>
</g>

<g fill="none" stroke="#000000" stroke-opacity="1" stroke-width="1" stroke-linecap="square" stroke-linejoin="bevel" transform="matrix(1.00196,0,0,1.00196,28.0548,598.67)"
font-family="Ubuntu" font-size="11" font-weight="400" font-style="normal" 
>
</g>

<g fill="none" stroke="#000000" stroke-opacity="1" stroke-width="1" stroke-linecap="square" stroke-linejoin="bevel" transform="matrix(1.00196,0,0,1.00196,0,0)"
font-family="Ubuntu" font-size="11" font-weight="400" font-style="normal" 
>
</g>

<g fill="none" stroke="#000000" stroke-opacity="1" stroke-width="1" stroke-linecap="round" stroke-linejoin="round" transform="matrix(1.00196,0,0,1.00196,0,0)"
font-family="Ubuntu" font-size="11" font-weight="400" font-style="normal" 
>
<polyline fill="none" vector-effect="none" points="45.5,448.5 51.5,448.5 " />
<polyline fill="none" vector-effect="none" points="999.5,448.5 993.5,448.5 " />
</g>

<g fill="none" stroke="#000000" stroke-opacity="1" stroke-width="1" stroke-linecap="square" stroke-linejoin="bevel" transform="matrix(1.00196,0,0,1.00196,0,0)"
font-family="Ubuntu" font-size="11" font-weight="400" font-style="normal" 
>
</g>

<g fill="none" stroke="#000000" stroke-opacity="1" stroke-width="1" stroke-linecap="square" stroke-linejoin="bevel" transform="matrix(1.00196,0,0,1.00196,16.0313,454.388)"
font-family="Ubuntu" font-size="11" font-weight="400" font-style="normal" 
>
</g>

<g fill="none" stroke="#000000" stroke-opacity="1" stroke-width="1" stroke-linecap="square" stroke-linejoin="bevel" transform="matrix(1.00196,0,0,1.00196,16.0313,454.388)"
font-family="Ubuntu" font-size="11" font-weight="400" font-style="normal" 
>
</g>

<g fill="none" stroke="#000000" stroke-opacity="1" stroke-width="1" stroke-linecap="square" stroke-linejoin="bevel" transform="matrix(1.00196,0,0,1.00196,16.0313,454.388)"
font-family="Ubuntu" font-size="11" font-weight="400" font-style="normal" 
>
</g>

<g fill="none" stroke="#000000" stroke-opacity="1" stroke-width="1" stroke-linecap="square" stroke-linejoin="bevel" transform="matrix(1.00196,0,0,1.00196,16.0313,454.388)"
font-family="Ubuntu" font-size="11" font-weight="400" font-style="normal" 
>
</g>

<g fill="none" stroke="#000000" stroke-opacity="1" stroke-width="1" stroke-linecap="square" stroke-linejoin="bevel" transform="matrix(1.00196,0,0,1.00196,16.0313,454.388)"
font-family="Ubuntu" font-size="11" font-weight="400" font-style="normal" 
>
</g>

<g fill="none" stroke="#000000" stroke-opacity="1" stroke-width="1" stroke-linecap="square" stroke-linejoin="bevel" transform="matrix(1.00196,0,0,1.00196,16.0313,454.388)"
font-family="Sans" font-size="9" font-weight="400" font-style="normal" 
>
<text fill="#000000" fill-opacity="1" stroke="none" xml:space="preserve" x="0" y="0" font-family="Sans" font-size="9" font-weight="400" font-style="normal" 
 >-0.5</text>
</g>

<g fill="none" stroke="#000000" stroke-opacity="1" stroke-width="1" stroke-linecap="square" stroke-linejoin="bevel" transform="matrix(1.00196,0,0,1.00196,16.0313,454.388)"
font-family="Ubuntu" font-size="11" font-weight="400" font-style="normal" 
>
</g>

<g fill="none" stroke="#000000" stroke-opacity="1" stroke-width="1" stroke-linecap="square" stroke-linejoin="bevel" transform="matrix(1.00196,0,0,1.00196,0,0)"
font-family="Ubuntu" font-size="11" font-weight="400" font-style="normal" 
>
</g>

<g fill="none" stroke="#000000" stroke-opacity="1" stroke-width="1" stroke-linecap="round" stroke-linejoin="round" transform="matrix(1.00196,0,0,1.00196,0,0)"
font-family="Ubuntu" font-size="11" font-weight="400" font-style="normal" 
>
<polyline fill="none" vector-effect="none" points="45.5,304.5 51.5,304.5 " />
<polyline fill="none" vector-effect="none" points="999.5,304.5 993.5,304.5 " />
</g>

<g fill="none" stroke="#000000" stroke-opacity="1" stroke-width="1" stroke-linecap="square" stroke-linejoin="bevel" transform="matrix(1.00196,0,0,1.00196,0,0)"
font-family="Ubuntu" font-size="11" font-weight="400" font-style="normal" 
>
</g>

<g fill="none" stroke="#000000" stroke-opacity="1" stroke-width="1" stroke-linecap="square" stroke-linejoin="bevel" transform="matrix(1.00196,0,0,1.00196,28.0548,309.104)"
font-family="Ubuntu" font-size="11" font-weight="400" font-style="normal" 
>
</g>

<g fill="none" stroke="#000000" stroke-opacity="1" stroke-width="1" stroke-linecap="square" stroke-linejoin="bevel" transform="matrix(1.00196,0,0,1.00196,28.0548,309.104)"
font-family="Ubuntu" font-size="11" font-weight="400" font-style="normal" 
>
</g>

<g fill="none" stroke="#000000" stroke-opacity="1" stroke-width="1" stroke-linecap="square" stroke-linejoin="bevel" transform="matrix(1.00196,0,0,1.00196,28.0548,309.104)"
font-family="Ubuntu" font-size="11" font-weight="400" font-style="normal" 
>
</g>

<g fill="none" stroke="#000000" stroke-opacity="1" stroke-width="1" stroke-linecap="square" stroke-linejoin="bevel" transform="matrix(1.00196,0,0,1.00196,28.0548,309.104)"
font-family="Ubuntu" font-size="11" font-weight="400" font-style="normal" 
>
</g>

<g fill="none" stroke="#000000" stroke-opacity="1" stroke-width="1" stroke-linecap="square" stroke-linejoin="bevel" transform="matrix(1.00196,0,0,1.00196,28.0548,309.104)"
font-family="Ubuntu" font-size="11" font-weight="400" font-style="normal" 
>
</g>

<g fill="none" stroke="#000000" stroke-opacity="1" stroke-width="1" stroke-linecap="square" stroke-linejoin="bevel" transform="matrix(1.00196,0,0,1.00196,28.0548,309.104)"
font-family="Sans" font-size="9" font-weight="400" font-style="normal" 
>
<text fill="#000000" fill-opacity="1" stroke="none" xml:space="preserve" x="0" y="0" font-family="Sans" font-size="9" font-weight="400" font-style="normal" 
 > 0</text>
</g>

<g fill="none" stroke="#000000" stroke-opacity="1" stroke-width="1" stroke-linecap="square" stroke-linejoin="bevel" transform="matrix(1.00196,0,0,1.00196,28.0548,309.104)"
font-family="Ubuntu" font-size="11" font-weight="400" font-style="normal" 
>
</g>

<g fill="none" stroke="#000000" stroke-opacity="1" stroke-width="1" stroke-linecap="square" stroke-linejoin="bevel" transform="matrix(1.00196,0,0,1.00196,0,0)"
font-family="Ubuntu" font-size="11" font-weight="400" font-style="normal" 
>
</g>

<g fill="none" stroke="#000000" stroke-opacity="1" stroke-width="1" stroke-linecap="round" stroke-linejoin="round" transform="matrix(1.00196,0,0,1.00196,0,0)"
font-family="Ubuntu" font-size="11" font-weight="400" font-style="normal" 
>
<polyline fill="none" vector-effect="none" points="45.5,159.5 51.5,159.5 " />
<polyline fill="none" vector-effect="none" points="999.5,159.5 993.5,159.5 " />
</g>

<g fill="none" stroke="#000000" stroke-opacity="1" stroke-width="1" stroke-linecap="square" stroke-linejoin="bevel" transform="matrix(1.00196,0,0,1.00196,0,0)"
font-family="Ubuntu" font-size="11" font-weight="400" font-style="normal" 
>
</g>

<g fill="none" stroke="#000000" stroke-opacity="1" stroke-width="1" stroke-linecap="square" stroke-linejoin="bevel" transform="matrix(1.00196,0,0,1.00196,16.0313,164.822)"
font-family="Ubuntu" font-size="11" font-weight="400" font-style="normal" 
>
</g>

<g fill="none" stroke="#000000" stroke-opacity="1" stroke-width="1" stroke-linecap="square" stroke-linejoin="bevel" transform="matrix(1.00196,0,0,1.00196,16.0313,164.822)"
font-family="Ubuntu" font-size="11" font-weight="400" font-style="normal" 
>
</g>

<g fill="none" stroke="#000000" stroke-opacity="1" stroke-width="1" stroke-linecap="square" stroke-linejoin="bevel" transform="matrix(1.00196,0,0,1.00196,16.0313,164.822)"
font-family="Ubuntu" font-size="11" font-weight="400" font-style="normal" 
>
</g>

<g fill="none" stroke="#000000" stroke-opacity="1" stroke-width="1" stroke-linecap="square" stroke-linejoin="bevel" transform="matrix(1.00196,0,0,1.00196,16.0313,164.822)"
font-family="Ubuntu" font-size="11" font-weight="400" font-style="normal" 
>
</g>

<g fill="none" stroke="#000000" stroke-opacity="1" stroke-width="1" stroke-linecap="square" stroke-linejoin="bevel" transform="matrix(1.00196,0,0,1.00196,16.0313,164.822)"
font-family="Ubuntu" font-size="11" font-weight="400" font-style="normal" 
>
</g>

<g fill="none" stroke="#000000" stroke-opacity="1" stroke-width="1" stroke-linecap="square" stroke-linejoin="bevel" transform="matrix(1.00196,0,0,1.00196,16.0313,164.822)"
font-family="Sans" font-size="9" font-weight="400" font-style="normal" 
>
<text fill="#000000" fill-opacity="1" stroke="none" xml:space="preserve" x="0" y="0" font-family="Sans" font-size="9" font-weight="400" font-style="normal" 
 > 0.5</text>
</g>

<g fill="none" stroke="#000000" stroke-opacity="1" stroke-width="1" stroke-linecap="square" stroke-linejoin="bevel" transform="matrix(1.00196,0,0,1.00196,16.0313,164.822)"
font-family="Ubuntu" font-size="11" font-weight="400" font-style="normal" 
>
</g>

<g fill="none" stroke="#000000" stroke-opacity="1" stroke-width="1" stroke-linecap="square" stroke-linejoin="bevel" transform="matrix(1.00196,0,0,1.00196,0,0)"
font-family="Ubuntu" font-size="11" font-weight="400" font-style="normal" 
>
</g>

<g fill="none" stroke="#000000" stroke-opacity="1" stroke-width="1" stroke-linecap="round" stroke-linejoin="round" transform="matrix(1.00196,0,0,1.00196,0,0)"
font-family="Ubuntu" font-size="11" font-weight="400" font-style="normal" 
>
<polyline fill="none" vector-effect="none" points="45.5,15.5 51.5,15.5 " />
<polyline fill="none" vector-effect="none" points="999.5,15.5 993.5,15.5 " />
</g>

<g fill="none" stroke="#000000" stroke-opacity="1" stroke-width="1" stroke-linecap="square" stroke-linejoin="bevel" transform="matrix(1.00196,0,0,1.00196,0,0)"
font-family="Ubuntu" font-size="11" font-weight="400" font-style="normal" 
>
</g>

<g fill="none" stroke="#000000" stroke-opacity="1" stroke-width="1" stroke-linecap="square" stroke-linejoin="bevel" transform="matrix(1.00196,0,0,1.00196,28.0548,19.5382)"
font-family="Ubuntu" font-size="11" font-weight="400" font-style="normal" 
>
</g>

<g fill="none" stroke="#000000" stroke-opacity="1" stroke-width="1" stroke-linecap="square" stroke-linejoin="bevel" transform="matrix(1.00196,0,0,1.00196,28.0548,19.5382)"
font-family="Ubuntu" font-size="11" font-weight="400" font-style="normal" 
>
</g>

<g fill="none" stroke="#000000" stroke-opacity="1" stroke-width="1" stroke-linecap="square" stroke-linejoin="bevel" transform="matrix(1.00196,0,0,1.00196,28.0548,19.5382)"
font-family="Ubuntu" font-size="11" font-weight="400" font-style="normal" 
>
</g>

<g fill="none" stroke="#000000" stroke-opacity="1" stroke-width="1" stroke-linecap="square" stroke-linejoin="bevel" transform="matrix(1.00196,0,0,1.00196,28.0548,19.5382)"
font-family="Ubuntu" font-size="11" font-weight="400" font-style="normal" 
>
</g>

<g fill="none" stroke="#000000" stroke-opacity="1" stroke-width="1" stroke-linecap="square" stroke-linejoin="bevel" transform="matrix(1.00196,0,0,1.00196,28.0548,19.5382)"
font-family="Ubuntu" font-size="11" font-weight="400" font-style="normal" 
>
</g>

<g fill="none" stroke="#000000" stroke-opacity="1" stroke-width="1" stroke-linecap="square" stroke-linejoin="bevel" transform="matrix(1.00196,0,0,1.00196,28.0548,19.5382)"
font-family="Sans" font-size="9" font-weight="400" font-style="normal" 
>
<text fill="#000000" fill-opacity="1" stroke="none" xml:space="preserve" x="0" y="0" font-family="Sans" font-size="9" font-weight="400" font-style="normal" 
 > 1</text>
</g>

<g fill="none" stroke="#000000" stroke-opacity="1" stroke-width="1" stroke-linecap="square" stroke-linejoin="bevel" transform="matrix(1.00196,0,0,1.00196,28.0548,19.5382)"
font-family="Ubuntu" font-size="11" font-weight="400" font-style="normal" 
>
</g>

<g fill="none" stroke="#000000" stroke-opacity="1" stroke-width="1" stroke-linecap="square" stroke-linejoin="bevel" transform="matrix(1.00196,0,0,1.00196,0,0)"
font-family="Ubuntu" font-size="11" font-weight="400" font-style="normal" 
>
</g>

<g fill="none" stroke="#000000" stroke-opacity="1" stroke-width="1" stroke-linecap="round" stroke-linejoin="round" transform="matrix(1.00196,0,0,1.00196,0,0)"
font-family="Ubuntu" font-size="11" font-weight="400" font-style="normal" 
>
<polyline fill="none" vector-effect="none" points="45.5,593.5 45.5,587.5 " />
<polyline fill="none" vector-effect="none" points="45.5,15.5 45.5,21.5 " />
</g>

<g fill="none" stroke="#000000" stroke-opacity="1" stroke-width="1" stroke-linecap="square" stroke-linejoin="bevel" transform="matrix(1.00196,0,0,1.00196,0,0)"
font-family="Ubuntu" font-size="11" font-weight="400" font-style="normal" 
>
</g>

<g fill="none" stroke="#000000" stroke-opacity="1" stroke-width="1" stroke-linecap="square" stroke-linejoin="bevel" transform="matrix(1.00196,0,0,1.00196,40.5793,613.7)"
font-family="Ubuntu" font-size="11" font-weight="400" font-style="normal" 
>
</g>

<g fill="none" stroke="#000000" stroke-opacity="1" stroke-width="1" stroke-linecap="square" stroke-linejoin="bevel" transform="matrix(1.00196,0,0,1.00196,40.5793,613.7)"
font-family="Ubuntu" font-size="11" font-weight="400" font-style="normal" 
>
</g>

<g fill="none" stroke="#000000" stroke-opacity="1" stroke-width="1" stroke-linecap="square" stroke-linejoin="bevel" transform="matrix(1.00196,0,0,1.00196,40.5793,613.7)"
font-family="Ubuntu" font-size="11" font-weight="400" font-style="normal" 
>
</g>

<g fill="none" stroke="#000000" stroke-opacity="1" stroke-width="1" stroke-linecap="square" stroke-linejoin="bevel" transform="matrix(1.00196,0,0,1.00196,40.5793,613.7)"
font-family="Ubuntu" font-size="11" font-weight="400" font-style="normal" 
>
</g>

<g fill="none" stroke="#000000" stroke-opacity="1" stroke-width="1" stroke-linecap="square" stroke-linejoin="bevel" transform="matrix(1.00196,0,0,1.00196,40.5793,613.7)"
font-family="Ubuntu" font-size="11" font-weight="400" font-style="normal" 
>
</g>

<g fill="none" stroke="#000000" stroke-opacity="1" stroke-width="1" stroke-linecap="square" stroke-linejoin="bevel" transform="matrix(1.00196,0,0,1.00196,40.5793,613.7)"
font-family="Sans" font-size="9" font-weight="400" font-style="normal" 
>
<text fill="#000000" fill-opacity="1" stroke="none" xml:space="preserve" x="0" y="0" font-family="Sans" font-size="9" font-weight="400" font-style="normal" 
 > 0</text>
</g>

<g fill="none" stroke="#000000" stroke-opacity="1" stroke-width="1" stroke-linecap="square" stroke-linejoin="bevel" transform="matrix(1.00196,0,0,1.00196,40.5793,613.7)"
font-family="Ubuntu" font-size="11" font-weight="400" font-style="normal" 
>
</g>

<g fill="none" stroke="#000000" stroke-opacity="1" stroke-width="1" stroke-linecap="square" stroke-linejoin="bevel" transform="matrix(1.00196,0,0,1.00196,0,0)"
font-family="Ubuntu" font-size="11" font-weight="400" font-style="normal" 
>
</g>

<g fill="none" stroke="#000000" stroke-opacity="1" stroke-width="1" stroke-linecap="round" stroke-linejoin="round" transform="matrix(1.00196,0,0,1.00196,0,0)"
font-family="Ubuntu" font-size="11" font-weight="400" font-style="normal" 
>
<polyline fill="none" vector-effect="none" points="232.5,593.5 232.5,587.5 " />
<polyline fill="none" vector-effect="none" points="232.5,15.5 232.5,21.5 " />
</g>

<g fill="none" stroke="#000000" stroke-opacity="1" stroke-width="1" stroke-linecap="square" stroke-linejoin="bevel" transform="matrix(1.00196,0,0,1.00196,0,0)"
font-family="Ubuntu" font-size="11" font-weight="400" font-style="normal" 
>
</g>

<g fill="none" stroke="#000000" stroke-opacity="1" stroke-width="1" stroke-linecap="square" stroke-linejoin="bevel" transform="matrix(1.00196,0,0,1.00196,218.928,613.7)"
font-family="Ubuntu" font-size="11" font-weight="400" font-style="normal" 
>
</g>

<g fill="none" stroke="#000000" stroke-opacity="1" stroke-width="1" stroke-linecap="square" stroke-linejoin="bevel" transform="matrix(1.00196,0,0,1.00196,218.928,613.7)"
font-family="Ubuntu" font-size="11" font-weight="400" font-style="normal" 
>
</g>

<g fill="none" stroke="#000000" stroke-opacity="1" stroke-width="1" stroke-linecap="square" stroke-linejoin="bevel" transform="matrix(1.00196,0,0,1.00196,218.928,613.7)"
font-family="Ubuntu" font-size="11" font-weight="400" font-style="normal" 
>
</g>

<g fill="none" stroke="#000000" stroke-opacity="1" stroke-width="1" stroke-linecap="square" stroke-linejoin="bevel" transform="matrix(1.00196,0,0,1.00196,218.928,613.7)"
font-family="Ubuntu" font-size="11" font-weight="400" font-style="normal" 
>
</g>

<g fill="none" stroke="#000000" stroke-opacity="1" stroke-width="1" stroke-linecap="square" stroke-linejoin="bevel" transform="matrix(1.00196,0,0,1.00196,218.928,613.7)"
font-family="Ubuntu" font-size="11" font-weight="400" font-style="normal" 
>
</g>

<g fill="none" stroke="#000000" stroke-opacity="1" stroke-width="1" stroke-linecap="square" stroke-linejoin="bevel" transform="matrix(1.00196,0,0,1.00196,218.928,613.7)"
font-family="Sans" font-size="9" font-weight="400" font-style="normal" 
>
<text fill="#000000" fill-opacity="1" stroke="none" xml:space="preserve" x="0" y="0" font-family="Sans" font-size="9" font-weight="400" font-style="normal" 
 > 200</text>
</g>

<g fill="none" stroke="#000000" stroke-opacity="1" stroke-width="1" stroke-linecap="square" stroke-linejoin="bevel" transform="matrix(1.00196,0,0,1.00196,218.928,613.7)"
font-family="Ubuntu" font-size="11" font-weight="400" font-style="normal" 
>
</g>

<g fill="none" stroke="#000000" stroke-opacity="1" stroke-width="1" stroke-linecap="square" stroke-linejoin="bevel" transform="matrix(1.00196,0,0,1.00196,0,0)"
font-family="Ubuntu" font-size="11" font-weight="400" font-style="normal" 
>
</g>

<g fill="none" stroke="#000000" stroke-opacity="1" stroke-width="1" stroke-linecap="round" stroke-linejoin="round" transform="matrix(1.00196,0,0,1.00196,0,0)"
font-family="Ubuntu" font-size="11" font-weight="400" font-style="normal" 
>
<polyline fill="none" vector-effect="none" points="418.5,593.5 418.5,587.5 " />
<polyline fill="none" vector-effect="none" points="418.5,15.5 418.5,21.5 " />
</g>

<g fill="none" stroke="#000000" stroke-opacity="1" stroke-width="1" stroke-linecap="square" stroke-linejoin="bevel" transform="matrix(1.00196,0,0,1.00196,0,0)"
font-family="Ubuntu" font-size="11" font-weight="400" font-style="normal" 
>
</g>

<g fill="none" stroke="#000000" stroke-opacity="1" stroke-width="1" stroke-linecap="square" stroke-linejoin="bevel" transform="matrix(1.00196,0,0,1.00196,406.294,613.7)"
font-family="Ubuntu" font-size="11" font-weight="400" font-style="normal" 
>
</g>

<g fill="none" stroke="#000000" stroke-opacity="1" stroke-width="1" stroke-linecap="square" stroke-linejoin="bevel" transform="matrix(1.00196,0,0,1.00196,406.294,613.7)"
font-family="Ubuntu" font-size="11" font-weight="400" font-style="normal" 
>
</g>

<g fill="none" stroke="#000000" stroke-opacity="1" stroke-width="1" stroke-linecap="square" stroke-linejoin="bevel" transform="matrix(1.00196,0,0,1.00196,406.294,613.7)"
font-family="Ubuntu" font-size="11" font-weight="400" font-style="normal" 
>
</g>

<g fill="none" stroke="#000000" stroke-opacity="1" stroke-width="1" stroke-linecap="square" stroke-linejoin="bevel" transform="matrix(1.00196,0,0,1.00196,406.294,613.7)"
font-family="Ubuntu" font-size="11" font-weight="400" font-style="normal" 
>
</g>

<g fill="none" stroke="#000000" stroke-opacity="1" stroke-width="1" stroke-linecap="square" stroke-linejoin="bevel" transform="matrix(1.00196,0,0,1.00196,406.294,613.7)"
font-family="Ubuntu" font-size="11" font-weight="400" font-style="normal" 
>
</g>

<g fill="none" stroke="#000000" stroke-opacity="1" stroke-width="1" stroke-linecap="square" stroke-linejoin="bevel" transform="matrix(1.00196,0,0,1.00196,406.294,613.7)"
font-family="Sans" font-size="9" font-weight="400" font-style="normal" 
>
<text fill="#000000" fill-opacity="1" stroke="none" xml:space="preserve" x="0" y="0" font-family="Sans" font-size="9" font-weight="400" font-style="normal" 
 > 400</text>
</g>

<g fill="none" stroke="#000000" stroke-opacity="1" stroke-width="1" stroke-linecap="square" stroke-linejoin="bevel" transform="matrix(1.00196,0,0,1.00196,406.294,613.7)"
font-family="Ubuntu" font-size="11" font-weight="400" font-style="normal" 
>
</g>

<g fill="none" stroke="#000000" stroke-opacity="1" stroke-width="1" stroke-linecap="square" stroke-linejoin="bevel" transform="matrix(1.00196,0,0,1.00196,0,0)"
font-family="Ubuntu" font-size="11" font-weight="400" font-style="normal" 
>
</g>

<g fill="none" stroke="#000000" stroke-opacity="1" stroke-width="1" stroke-linecap="round" stroke-linejoin="round" transform="matrix(1.00196,0,0,1.00196,0,0)"
font-family="Ubuntu" font-size="11" font-weight="400" font-style="normal" 
>
<polyline fill="none" vector-effect="none" points="605.5,593.5 605.5,587.5 " />
<polyline fill="none" vector-effect="none" points="605.5,15.5 605.5,21.5 " />
</g>

<g fill="none" stroke="#000000" stroke-opacity="1" stroke-width="1" stroke-linecap="square" stroke-linejoin="bevel" transform="matrix(1.00196,0,0,1.00196,0,0)"
font-family="Ubuntu" font-size="11" font-weight="400" font-style="normal" 
>
</g>

<g fill="none" stroke="#000000" stroke-opacity="1" stroke-width="1" stroke-linecap="square" stroke-linejoin="bevel" transform="matrix(1.00196,0,0,1.00196,592.659,613.7)"
font-family="Ubuntu" font-size="11" font-weight="400" font-style="normal" 
>
</g>

<g fill="none" stroke="#000000" stroke-opacity="1" stroke-width="1" stroke-linecap="square" stroke-linejoin="bevel" transform="matrix(1.00196,0,0,1.00196,592.659,613.7)"
font-family="Ubuntu" font-size="11" font-weight="400" font-style="normal" 
>
</g>

<g fill="none" stroke="#000000" stroke-opacity="1" stroke-width="1" stroke-linecap="square" stroke-linejoin="bevel" transform="matrix(1.00196,0,0,1.00196,592.659,613.7)"
font-family="Ubuntu" font-size="11" font-weight="400" font-style="normal" 
>
</g>

<g fill="none" stroke="#000000" stroke-opacity="1" stroke-width="1" stroke-linecap="square" stroke-linejoin="bevel" transform="matrix(1.00196,0,0,1.00196,592.659,613.7)"
font-family="Ubuntu" font-size="11" font-weight="400" font-style="normal" 
>
</g>

<g fill="none" stroke="#000000" stroke-opacity="1" stroke-width="1" stroke-linecap="square" stroke-linejoin="bevel" transform="matrix(1.00196,0,0,1.00196,592.659,613.7)"
font-family="Ubuntu" font-size="11" font-weight="400" font-style="normal" 
>
</g>

<g fill="none" stroke="#000000" stroke-opacity="1" stroke-width="1" stroke-linecap="square" stroke-linejoin="bevel" transform="matrix(1.00196,0,0,1.00196,592.659,613.7)"
font-family="Sans" font-size="9" font-weight="400" font-style="normal" 
>
<text fill="#000000" fill-opacity="1" stroke="none" xml:space="preserve" x="0" y="0" font-family="Sans" font-size="9" font-weight="400" font-style="normal" 
 > 600</text>
</g>

<g fill="none" stroke="#000000" stroke-opacity="1" stroke-width="1" stroke-linecap="square" stroke-linejoin="bevel" transform="matrix(1.00196,0,0,1.00196,592.659,613.7)"
font-family="Ubuntu" font-size="11" font-weight="400" font-style="normal" 
>
</g>

<g fill="none" stroke="#000000" stroke-opacity="1" stroke-width="1" stroke-linecap="square" stroke-linejoin="bevel" transform="matrix(1.00196,0,0,1.00196,0,0)"
font-family="Ubuntu" font-size="11" font-weight="400" font-style="normal" 
>
</g>

<g fill="none" stroke="#000000" stroke-opacity="1" stroke-width="1" stroke-linecap="round" stroke-linejoin="round" transform="matrix(1.00196,0,0,1.00196,0,0)"
font-family="Ubuntu" font-size="11" font-weight="400" font-style="normal" 
>
<polyline fill="none" vector-effect="none" points="791.5,593.5 791.5,587.5 " />
<polyline fill="none" vector-effect="none" points="791.5,15.5 791.5,21.5 " />
</g>

<g fill="none" stroke="#000000" stroke-opacity="1" stroke-width="1" stroke-linecap="square" stroke-linejoin="bevel" transform="matrix(1.00196,0,0,1.00196,0,0)"
font-family="Ubuntu" font-size="11" font-weight="400" font-style="normal" 
>
</g>

<g fill="none" stroke="#000000" stroke-opacity="1" stroke-width="1" stroke-linecap="square" stroke-linejoin="bevel" transform="matrix(1.00196,0,0,1.00196,780.025,613.7)"
font-family="Ubuntu" font-size="11" font-weight="400" font-style="normal" 
>
</g>

<g fill="none" stroke="#000000" stroke-opacity="1" stroke-width="1" stroke-linecap="square" stroke-linejoin="bevel" transform="matrix(1.00196,0,0,1.00196,780.025,613.7)"
font-family="Ubuntu" font-size="11" font-weight="400" font-style="normal" 
>
</g>

<g fill="none" stroke="#000000" stroke-opacity="1" stroke-width="1" stroke-linecap="square" stroke-linejoin="bevel" transform="matrix(1.00196,0,0,1.00196,780.025,613.7)"
font-family="Ubuntu" font-size="11" font-weight="400" font-style="normal" 
>
</g>

<g fill="none" stroke="#000000" stroke-opacity="1" stroke-width="1" stroke-linecap="square" stroke-linejoin="bevel" transform="matrix(1.00196,0,0,1.00196,780.025,613.7)"
font-family="Ubuntu" font-size="11" font-weight="400" font-style="normal" 
>
</g>

<g fill="none" stroke="#000000" stroke-opacity="1" stroke-width="1" stroke-linecap="square" stroke-linejoin="bevel" transform="matrix(1.00196,0,0,1.00196,780.025,613.7)"
font-family="Ubuntu" font-size="11" font-weight="400" font-style="normal" 
>
</g>

<g fill="none" stroke="#000000" stroke-opacity="1" stroke-width="1" stroke-linecap="square" stroke-linejoin="bevel" transform="matrix(1.00196,0,0,1.00196,780.025,613.7)"
font-family="Sans" font-size="9" font-weight="400" font-style="normal" 
>
<text fill="#000000" fill-opacity="1" stroke="none" xml:space="preserve" x="0" y="0" font-family="Sans" font-size="9" font-weight="400" font-style="normal" 
 > 800</text>
</g>

<g fill="none" stroke="#000000" stroke-opacity="1" stroke-width="1" stroke-linecap="square" stroke-linejoin="bevel" transform="matrix(1.00196,0,0,1.00196,780.025,613.7)"
font-family="Ubuntu" font-size="11" font-weight="400" font-style="normal" 
>
</g>

<g fill="none" stroke="#000000" stroke-opacity="1" stroke-width="1" stroke-linecap="square" stroke-linejoin="bevel" transform="matrix(1.00196,0,0,1.00196,0,0)"
font-family="Ubuntu" font-size="11" font-weight="400" font-style="normal" 
>
</g>

<g fill="none" stroke="#000000" stroke-opacity="1" stroke-width="1" stroke-linecap="round" stroke-linejoin="round" transform="matrix(1.00196,0,0,1.00196,0,0)"
font-family="Ubuntu" font-size="11" font-weight="400" font-style="normal" 
>
<polyline fill="none" vector-effect="none" points="978.5,593.5 978.5,587.5 " />
<polyline fill="none" vector-effect="none" points="978.5,15.5 978.5,21.5 " />
</g>

<g fill="none" stroke="#000000" stroke-opacity="1" stroke-width="1" stroke-linecap="square" stroke-linejoin="bevel" transform="matrix(1.00196,0,0,1.00196,0,0)"
font-family="Ubuntu" font-size="11" font-weight="400" font-style="normal" 
>
</g>

<g fill="none" stroke="#000000" stroke-opacity="1" stroke-width="1" stroke-linecap="square" stroke-linejoin="bevel" transform="matrix(1.00196,0,0,1.00196,962.381,613.7)"
font-family="Ubuntu" font-size="11" font-weight="400" font-style="normal" 
>
</g>

<g fill="none" stroke="#000000" stroke-opacity="1" stroke-width="1" stroke-linecap="square" stroke-linejoin="bevel" transform="matrix(1.00196,0,0,1.00196,962.381,613.7)"
font-family="Ubuntu" font-size="11" font-weight="400" font-style="normal" 
>
</g>

<g fill="none" stroke="#000000" stroke-opacity="1" stroke-width="1" stroke-linecap="square" stroke-linejoin="bevel" transform="matrix(1.00196,0,0,1.00196,962.381,613.7)"
font-family="Ubuntu" font-size="11" font-weight="400" font-style="normal" 
>
</g>

<g fill="none" stroke="#000000" stroke-opacity="1" stroke-width="1" stroke-linecap="square" stroke-linejoin="bevel" transform="matrix(1.00196,0,0,1.00196,962.381,613.7)"
font-family="Ubuntu" font-size="11" font-weight="400" font-style="normal" 
>
</g>

<g fill="none" stroke="#000000" stroke-opacity="1" stroke-width="1" stroke-linecap="square" stroke-linejoin="bevel" transform="matrix(1.00196,0,0,1.00196,962.381,613.7)"
font-family="Ubuntu" font-size="11" font-weight="400" font-style="normal" 
>
</g>

<g fill="none" stroke="#000000" stroke-opacity="1" stroke-width="1" stroke-linecap="square" stroke-linejoin="bevel" transform="matrix(1.00196,0,0,1.00196,962.381,613.7)"
font-family="Sans" font-size="9" font-weight="400" font-style="normal" 
>
<text fill="#000000" fill-opacity="1" stroke="none" xml:space="preserve" x="0" y="0" font-family="Sans" font-size="9" font-weight="400" font-style="normal" 
 > 1000</text>
</g>

<g fill="none" stroke="#000000" stroke-opacity="1" stroke-width="1" stroke-linecap="square" stroke-linejoin="bevel" transform="matrix(1.00196,0,0,1.00196,962.381,613.7)"
font-family="Ubuntu" font-size="11" font-weight="400" font-style="normal" 
>
</g>

<g fill="none" stroke="#000000" stroke-opacity="1" stroke-width="1" stroke-linecap="square" stroke-linejoin="bevel" transform="matrix(1.00196,0,0,1.00196,0,0)"
font-family="Ubuntu" font-size="11" font-weight="400" font-style="normal" 
>
</g>

<g fill="none" stroke="#000000" stroke-opacity="1" stroke-width="1" stroke-linecap="round" stroke-linejoin="round" transform="matrix(1.00196,0,0,1.00196,0,0)"
font-family="Ubuntu" font-size="11" font-weight="400" font-style="normal" 
>
<polyline fill="none" vector-effect="none" points="45.5,15.5 45.5,593.5 999.5,593.5 999.5,15.5 45.5,15.5 " />
</g>

<g fill="none" stroke="#000000" stroke-opacity="1" stroke-width="1" stroke-linecap="square" stroke-linejoin="bevel" transform="matrix(1.00196,0,0,1.00196,0,0)"
font-family="Ubuntu" font-size="11" font-weight="400" font-style="normal" 
>
</g>

<g fill="none" stroke="#000000" stroke-opacity="1" stroke-width="1" stroke-linecap="square" stroke-linejoin="bevel" transform="matrix(1.00196,0,0,1.00196,841.411,17.5343)"
font-family="Ubuntu" font-size="11" font-weight="400" font-style="normal" 
>
</g>

<g fill="none" stroke="#000000" stroke-opacity="1" stroke-width="1" stroke-linecap="square" stroke-linejoin="bevel" transform="matrix(1.00196,0,0,1.00196,841.411,17.5343)"
font-family="Ubuntu" font-size="11" font-weight="400" font-style="normal" 
>
</g>

<g fill="none" stroke="#000000" stroke-opacity="1" stroke-width="1" stroke-linecap="square" stroke-linejoin="bevel" transform="matrix(1.00196,0,0,1.00196,841.411,17.5343)"
font-family="Ubuntu" font-size="11" font-weight="400" font-style="normal" 
>
</g>

<g fill="none" stroke="#000000" stroke-opacity="1" stroke-width="1" stroke-linecap="square" stroke-linejoin="bevel" transform="matrix(1.00196,0,0,1.00196,841.411,17.5343)"
font-family="Ubuntu" font-size="11" font-weight="400" font-style="normal" 
>
<text fill="#000000" fill-opacity="1" stroke="none" xml:space="preserve" x="4" y="16" font-family="Sans" font-size="9" font-weight="400" font-style="normal" 
 >&quot;cubic_a=0.dat&quot;</text>
</g>

<g fill="none" stroke="#000000" stroke-opacity="1" stroke-width="1" stroke-linecap="square" stroke-linejoin="bevel" transform="matrix(1.00196,0,0,1.00196,841.411,17.5343)"
font-family="Ubuntu" font-size="11" font-weight="400" font-style="normal" 
>
</g>

<g fill="none" stroke="#000000" stroke-opacity="1" stroke-width="1" stroke-linecap="square" stroke-linejoin="bevel" transform="matrix(1,0,0,1,0,0)"
font-family="Ubuntu" font-size="11" font-weight="400" font-style="normal" 
>
</g>

<g fill="none" stroke="#000000" stroke-opacity="1" stroke-width="1" stroke-linecap="square" stroke-linejoin="bevel" transform="matrix(1.00196,0,0,1.00196,841.411,17.5343)"
font-family="Ubuntu" font-size="11" font-weight="400" font-style="normal" 
>
</g>

<g fill="none" stroke="#000000" stroke-opacity="1" stroke-width="1" stroke-linecap="square" stroke-linejoin="bevel" transform="matrix(1.00196,0,0,1.00196,841.411,17.5343)"
font-family="Ubuntu" font-size="11" font-weight="400" font-style="normal" 
>
</g>

<g fill="none" stroke="#000000" stroke-opacity="1" stroke-width="1" stroke-linecap="square" stroke-linejoin="bevel" transform="matrix(1.00196,0,0,1.00196,841.411,17.5343)"
font-family="Ubuntu" font-size="11" font-weight="400" font-style="normal" 
>
</g>

<g fill="none" stroke="#000000" stroke-opacity="1" stroke-width="1" stroke-linecap="square" stroke-linejoin="bevel" transform="matrix(1.00196,0,0,1.00196,0,0)"
font-family="Ubuntu" font-size="11" font-weight="400" font-style="normal" 
>
</g>

<g fill="none" stroke="#9400d3" stroke-opacity="1" stroke-width="1" stroke-linecap="round" stroke-linejoin="round" transform="matrix(1.00196,0,0,1.00196,0,0)"
font-family="Ubuntu" font-size="11" font-weight="400" font-style="normal" 
>
<path vector-effect="none" fill-rule="evenodd" d="M951.5,28.5 L985.5,28.5"/>
</g>

<g fill="none" stroke="#000000" stroke-opacity="1" stroke-width="1" stroke-linecap="square" stroke-linejoin="bevel" transform="matrix(1.00196,0,0,1.00196,0,0)"
font-family="Ubuntu" font-size="11" font-weight="400" font-style="normal" 
>
</g>

<g fill="none" stroke="#000000" stroke-opacity="1" stroke-width="1" stroke-linecap="square" stroke-linejoin="bevel" transform="matrix(1.00196,0,0,1.00196,0,0)"
font-family="Ubuntu" font-size="11" font-weight="400" font-style="normal" 
>
</g>

<g fill="none" stroke="#000000" stroke-opacity="1" stroke-width="1" stroke-linecap="square" stroke-linejoin="bevel" transform="matrix(1.00196,0,0,1.00196,0,0)"
font-family="Ubuntu" font-size="11" font-weight="400" font-style="normal" 
>
</g>

<g fill="none" stroke="#000000" stroke-opacity="1" stroke-width="1" stroke-linecap="square" stroke-linejoin="bevel" transform="matrix(1.00196,0,0,1.00196,0,0)"
font-family="Ubuntu" font-size="11" font-weight="400" font-style="normal" 
>
</g>

<g fill="none" stroke="#9400d3" stroke-opacity="1" stroke-width="1" stroke-linecap="round" stroke-linejoin="round" transform="matrix(1.00196,0,0,1.00196,0,0)"
font-family="Ubuntu" font-size="11" font-weight="400" font-style="normal" 
>
<polyline fill="none" vector-effect="none" points="45.5,304 45.5,304 46.4,302.3 47.4,300.5 48.3,298.7 49.2,297 50.2,295.2 51.1,293.4 52,291.6 53,289.9 53.9,288.1 54.8,286.3 55.8,284.6 56.7,282.8 57.6,281 58.6,279.3 59.5,277.5 60.4,275.7 61.4,274 62.3,272.2 63.2,270.4 64.2,268.7 65.1,266.9 66,265.2 67,263.4 67.9,261.7 68.8,259.9 69.8,258.1 70.7,256.4 71.6,254.7 72.6,252.9 73.5,251.2 74.4,249.4 75.4,247.7 76.3,245.9 77.2,244.2 78.2,242.5 79.1,240.7 80,239 81,237.3 81.9,235.6 82.8,233.8 83.8,232.1 84.7,230.4 85.6,228.7 86.5,227 87.5,225.3 88.4,223.6 89.3,221.9 90.3,220.2 91.2,218.5 92.1,216.8 93.1,215.1 94,213.4 94.9,211.7 95.9,210.1 96.8,208.4 97.7,206.7 98.7,205 99.6,203.4 100.5,201.7 101.5,200.1 102.4,198.4 103.3,196.8 104.3,195.1 105.2,193.5 106.1,191.8 107.1,190.2 108,188.6 108.9,187 109.9,185.3 110.8,183.7 111.7,182.1 112.7,180.5 113.6,178.9 114.5,177.3 115.5,175.7 116.4,174.1 117.3,172.6 118.3,171 119.2,169.4 120.1,167.8 121.1,166.3 122,164.7 122.9,163.2 123.9,161.6 124.8,160.1 125.7,158.6 126.7,157 127.6,155.5 128.5,154 129.5,152.5 130.4,151 131.3,149.5 132.3,148 133.2,146.5 134.1,145 135.1,143.5 136,142 136.9,140.6 137.9,139.1 138.8,137.7 139.7,136.2 140.7,134.8 141.6,133.3 142.5,131.9 143.5,130.5 144.4,129.1 145.3,127.7 146.3,126.3 147.2,124.9 148.1,123.5 149.1,122.1 150,120.7 150.9,119.4 151.9,118 152.8,116.7 153.7,115.3 154.7,114 155.6,112.6 156.5,111.3 157.5,110 158.4,108.7 159.3,107.4 160.3,106.1 161.2,104.8 162.1,103.5 163.1,102.3 164,101 164.9,99.7 165.8,98.5 166.8,97.2 167.7,96 168.6,94.8 169.6,93.6 170.5,92.3 171.4,91.1 172.4,90 173.3,88.8 174.2,87.6 175.2,86.4 176.1,85.3 177,84.1 178,83 178.9,81.8 179.8,80.7 180.8,79.6 181.7,78.5 182.6,77.4 183.6,76.3 184.5,75.2 185.4,74.1 186.4,73 187.3,72 188.2,70.9 189.2,69.9 190.1,68.8 191,67.8 192,66.8 192.9,65.8 193.8,64.8 194.8,63.8 195.7,62.8 196.6,61.8 197.6,60.9 198.5,59.9 199.4,59 200.4,58.1 201.3,57.1 202.2,56.2 203.2,55.3 204.1,54.4 205,53.5 206,52.6 206.9,51.8 207.8,50.9 208.8,50.1 209.7,49.2 210.6,48.4 211.6,47.6 212.5,46.8 213.4,46 214.4,45.2 215.3,44.4 216.2,43.6 217.2,42.8 218.1,42.1 219,41.3 220,40.6 220.9,39.9 221.8,39.2 222.8,38.5 223.7,37.8 224.6,37.1 225.6,36.4 226.5,35.8 227.4,35.1 228.4,34.5 229.3,33.8 230.2,33.2 231.2,32.6 232.1,32 233,31.4 234,30.8 234.9,30.2 235.8,29.7 236.8,29.1 237.7,28.6 238.6,28.1 239.6,27.5 240.5,27 241.4,26.5 242.4,26 243.3,25.6 244.2,25.1 245.1,24.6 246.1,24.2 247,23.8 247.9,23.3 248.9,22.9 249.8,22.5 250.7,22.1 251.7,21.7 252.6,21.4 253.5,21 254.5,20.7 255.4,20.3 256.3,20 257.3,19.7 258.2,19.4 259.1,19.1 260.1,18.8 261,18.5 261.9,18.2 262.9,18 263.8,17.7 264.7,17.5 265.7,17.3 266.6,17.1 267.5,16.9 268.5,16.7 269.4,16.5 270.3,16.3 271.3,16.2 272.2,16 273.1,15.9 274.1,15.8 275,15.6 275.9,15.5 276.9,15.4 277.8,15.4 278.7,15.3 279.7,15.2 280.6,15.2 281.5,15.1 282.5,15.1 283.4,15.1 284.3,15.1 285.3,15.1 286.2,15.1 287.1,15.1 288.1,15.2 289,15.2 289.9,15.3 290.9,15.4 291.8,15.4 292.7,15.5 293.7,15.6 294.6,15.8 295.5,15.9 296.5,16 297.4,16.2 298.3,16.3 299.3,16.5 300.2,16.7 301.1,16.9 302.1,17.1 303,17.3 303.9,17.5 304.9,17.7 305.8,18 306.7,18.2 307.7,18.5 308.6,18.8 309.5,19.1 310.5,19.4 311.4,19.7 312.3,20 313.3,20.3 314.2,20.7 315.1,21 316.1,21.4 317,21.7 317.9,22.1 318.9,22.5 319.8,22.9 320.7,23.3 321.7,23.8 322.6,24.2 323.5,24.6 324.4,25.1 325.4,25.6 326.3,26 327.2,26.5 328.2,27 329.1,27.5 330,28.1 331,28.6 331.9,29.1 332.8,29.7 333.8,30.2 334.7,30.8 335.6,31.4 336.6,32 337.5,32.6 338.4,33.2 339.4,33.8 340.3,34.5 341.2,35.1 342.2,35.8 343.1,36.4 344,37.1 345,37.8 345.9,38.5 346.8,39.2 347.8,39.9 348.7,40.6 349.6,41.3 350.6,42.1 351.5,42.8 352.4,43.6 353.4,44.4 354.3,45.2 355.2,46 356.2,46.8 357.1,47.6 358,48.4 359,49.2 359.9,50.1 360.8,50.9 361.8,51.8 362.7,52.6 363.6,53.5 364.6,54.4 365.5,55.3 366.4,56.2 367.4,57.1 368.3,58.1 369.2,59 370.2,59.9 371.1,60.9 372,61.8 373,62.8 373.9,63.8 374.8,64.8 375.8,65.8 376.7,66.8 377.6,67.8 378.6,68.8 379.5,69.9 380.4,70.9 381.4,72 382.3,73 383.2,74.1 384.2,75.2 385.1,76.3 386,77.4 387,78.5 387.9,79.6 388.8,80.7 389.8,81.8 390.7,83 391.6,84.1 392.6,85.3 393.5,86.4 394.4,87.6 395.4,88.8 396.3,90 397.2,91.1 398.2,92.3 399.1,93.6 400,94.8 401,96 401.9,97.2 402.8,98.5 403.7,99.7 404.7,101 405.6,102.3 406.5,103.5 407.5,104.8 408.4,106.1 409.3,107.4 410.3,108.7 411.2,110 412.1,111.3 413.1,112.6 414,114 414.9,115.3 415.9,116.7 416.8,118 417.7,119.4 418.7,120.7 419.6,122.1 420.5,123.5 421.5,124.9 422.4,126.3 423.3,127.7 424.3,129.1 425.2,130.5 426.1,131.9 427.1,133.3 428,134.8 428.9,136.2 429.9,137.7 430.8,139.1 431.7,140.6 432.7,142 433.6,143.5 434.5,145 435.5,146.5 436.4,148 437.3,149.5 438.3,151 439.2,152.5 440.1,154 441.1,155.5 442,157 442.9,158.6 443.9,160.1 444.8,161.6 445.7,163.2 446.7,164.7 447.6,166.3 448.5,167.8 449.5,169.4 450.4,171 451.3,172.6 452.3,174.1 453.2,175.7 454.1,177.3 455.1,178.9 456,180.5 456.9,182.1 457.9,183.7 458.8,185.3 459.7,187 460.7,188.6 461.6,190.2 462.5,191.8 463.5,193.5 464.4,195.1 465.3,196.8 466.3,198.4 467.2,200.1 468.1,201.7 469.1,203.4 470,205 470.9,206.7 471.9,208.4 472.8,210.1 473.7,211.7 474.7,213.4 475.6,215.1 476.5,216.8 477.5,218.5 478.4,220.2 479.3,221.9 480.3,223.6 481.2,225.3 482.1,227 483,228.7 484,230.4 484.9,232.1 485.8,233.8 486.8,235.6 487.7,237.3 488.6,239 489.6,240.7 490.5,242.5 491.4,244.2 492.4,245.9 493.3,247.7 494.2,249.4 495.2,251.2 496.1,252.9 497,254.7 498,256.4 498.9,258.1 499.8,259.9 500.8,261.7 501.7,263.4 502.6,265.2 503.6,266.9 504.5,268.7 505.4,270.4 506.4,272.2 507.3,274 508.2,275.7 509.2,277.5 510.1,279.3 511,281 512,282.8 512.9,284.6 513.8,286.3 514.8,288.1 515.7,289.9 516.6,291.6 517.6,293.4 518.5,295.2 519.4,297 520.4,298.7 521.3,300.5 522.2,302.3 523.2,304.1 524.1,305.8 525,307.6 526,309.4 526.9,311.1 527.8,312.9 528.8,314.7 529.7,316.5 530.6,318.2 531.6,320 532.5,321.8 533.4,323.5 534.4,325.3 535.3,327.1 536.2,328.8 537.2,330.6 538.1,332.4 539,334.1 540,335.9 540.9,337.7 541.8,339.4 542.8,341.2 543.7,342.9 544.6,344.7 545.6,346.4 546.5,348.2 547.4,350 548.4,351.7 549.3,353.4 550.2,355.2 551.2,356.9 552.1,358.7 553,360.4 554,362.2 554.9,363.9 555.8,365.6 556.8,367.4 557.7,369.1 558.6,370.8 559.6,372.5 560.5,374.3 561.4,376 562.4,377.7 563.3,379.4 564.2,381.1 565.1,382.8 566.1,384.5 567,386.2 567.9,387.9 568.9,389.6 569.8,391.3 570.7,393 571.7,394.7 572.6,396.4 573.5,398 574.5,399.7 575.4,401.4 576.3,403.1 577.3,404.7 578.2,406.4 579.1,408 580.1,409.7 581,411.3 581.9,413 582.9,414.6 583.8,416.3 584.7,417.9 585.7,419.5 586.6,421.1 587.5,422.8 588.5,424.4 589.4,426 590.3,427.6 591.3,429.2 592.2,430.8 593.1,432.4 594.1,434 595,435.5 595.9,437.1 596.9,438.7 597.8,440.3 598.7,441.8 599.7,443.4 600.6,444.9 601.5,446.5 602.5,448 603.4,449.5 604.3,451.1 605.3,452.6 606.2,454.1 607.1,455.6 608.1,457.1 609,458.6 609.9,460.1 610.9,461.6 611.8,463.1 612.7,464.6 613.7,466.1 614.6,467.5 615.5,469 616.5,470.4 617.4,471.9 618.3,473.3 619.3,474.8 620.2,476.2 621.1,477.6 622.1,479 623,480.4 623.9,481.8 624.9,483.2 625.8,484.6 626.7,486 627.7,487.4 628.6,488.7 629.5,490.1 630.5,491.4 631.4,492.8 632.3,494.1 633.3,495.5 634.2,496.8 635.1,498.1 636.1,499.4 637,500.7 637.9,502 638.9,503.3 639.8,504.6 640.7,505.8 641.7,507.1 642.6,508.4 643.5,509.6 644.4,510.9 645.4,512.1 646.3,513.3 647.2,514.5 648.2,515.8 649.1,517 650,518.1 651,519.3 651.9,520.5 652.8,521.7 653.8,522.8 654.7,524 655.6,525.1 656.6,526.3 657.5,527.4 658.4,528.5 659.4,529.6 660.3,530.7 661.2,531.8 662.2,532.9 663.1,534 664,535.1 665,536.1 665.9,537.2 666.8,538.2 667.8,539.3 668.7,540.3 669.6,541.3 670.6,542.3 671.5,543.3 672.4,544.3 673.4,545.3 674.3,546.3 675.2,547.2 676.2,548.2 677.1,549.1 678,550 679,551 679.9,551.9 680.8,552.8 681.8,553.7 682.7,554.6 683.6,555.5 684.6,556.3 685.5,557.2 686.4,558 687.4,558.9 688.3,559.7 689.2,560.5 690.2,561.3 691.1,562.1 692,562.9 693,563.7 693.9,564.5 694.8,565.3 695.8,566 696.7,566.8 697.6,567.5 698.6,568.2 699.5,568.9 700.4,569.6 701.4,570.3 702.3,571 703.2,571.7 704.2,572.3 705.1,573 706,573.6 707,574.3 707.9,574.9 708.8,575.5 709.8,576.1 710.7,576.7 711.6,577.3 712.6,577.9 713.5,578.4 714.4,579 715.4,579.5 716.3,580 717.2,580.6 718.2,581.1 719.1,581.6 720,582.1 721,582.5 721.9,583 722.8,583.5 723.7,583.9 724.7,584.3 725.6,584.8 726.5,585.2 727.5,585.6 728.4,586 729.3,586.4 730.3,586.7 731.2,587.1 732.1,587.4 733.1,587.8 734,588.1 734.9,588.4 735.9,588.7 736.8,589 737.7,589.3 738.7,589.6 739.6,589.9 740.5,590.1 741.5,590.4 742.4,590.6 743.3,590.8 744.3,591 745.2,591.2 746.1,591.4 747.1,591.6 748,591.8 748.9,591.9 749.9,592.1 750.8,592.2 751.7,592.3 752.7,592.5 753.6,592.6 754.5,592.7 755.5,592.7 756.4,592.8 757.3,592.9 758.3,592.9 759.2,593 760.1,593 761.1,593 762,593 762.9,593 763.9,593 764.8,593 765.7,592.9 766.7,592.9 767.6,592.8 768.5,592.7 769.5,592.7 770.4,592.6 771.3,592.5 772.3,592.3 773.2,592.2 774.1,592.1 775.1,591.9 776,591.8 776.9,591.6 777.9,591.4 778.8,591.2 779.7,591 780.7,590.8 781.6,590.6 782.5,590.4 783.5,590.1 784.4,589.9 785.3,589.6 786.3,589.3 787.2,589 788.1,588.7 789.1,588.4 790,588.1 790.9,587.8 791.9,587.4 792.8,587.1 793.7,586.7 794.7,586.4 795.6,586 796.5,585.6 797.5,585.2 798.4,584.8 799.3,584.3 800.3,583.9 801.2,583.5 802.1,583 803,582.5 804,582.1 804.9,581.6 805.8,581.1 806.8,580.6 807.7,580 808.6,579.5 809.6,579 810.5,578.4 811.4,577.9 812.4,577.3 813.3,576.7 814.2,576.1 815.2,575.5 816.1,574.9 817,574.3 818,573.6 818.9,573 819.8,572.3 820.8,571.7 821.7,571 822.6,570.3 823.6,569.6 824.5,568.9 825.4,568.2 826.4,567.5 827.3,566.8 828.2,566 829.2,565.3 830.1,564.5 831,563.7 832,562.9 832.9,562.1 833.8,561.3 834.8,560.5 835.7,559.7 836.6,558.9 837.6,558 838.5,557.2 839.4,556.3 840.4,555.5 841.3,554.6 842.2,553.7 843.2,552.8 844.1,551.9 845,551 846,550 846.9,549.1 847.8,548.2 848.8,547.2 849.7,546.3 850.6,545.3 851.6,544.3 852.5,543.3 853.4,542.3 854.4,541.3 855.3,540.3 856.2,539.3 857.2,538.2 858.1,537.2 859,536.1 860,535.1 860.9,534 861.8,532.9 862.8,531.8 863.7,530.7 864.6,529.6 865.6,528.5 866.5,527.4 867.4,526.3 868.4,525.1 869.3,524 870.2,522.8 871.2,521.7 872.1,520.5 873,519.3 874,518.1 874.9,517 875.8,515.8 876.8,514.5 877.7,513.3 878.6,512.1 879.6,510.9 880.5,509.6 881.4,508.4 882.3,507.1 883.3,505.8 884.2,504.6 885.1,503.3 886.1,502 887,500.7 887.9,499.4 888.9,498.1 889.8,496.8 890.7,495.5 891.7,494.1 892.6,492.8 893.5,491.4 894.5,490.1 895.4,488.7 896.3,487.4 897.3,486 898.2,484.6 899.1,483.2 900.1,481.8 901,480.4 901.9,479 902.9,477.6 903.8,476.2 904.7,474.8 905.7,473.3 906.6,471.9 907.5,470.4 908.5,469 909.4,467.5 910.3,466.1 911.3,464.6 912.2,463.1 913.1,461.6 914.1,460.1 915,458.6 915.9,457.1 916.9,455.6 917.8,454.1 918.7,452.6 919.7,451.1 920.6,449.5 921.5,448 922.5,446.5 923.4,444.9 924.3,443.4 925.3,441.8 926.2,440.3 927.1,438.7 928.1,437.1 929,435.5 929.9,434 930.9,432.4 931.8,430.8 932.7,429.2 933.7,427.6 934.6,426 935.5,424.4 936.5,422.8 937.4,421.1 938.3,419.5 939.3,417.9 940.2,416.3 941.1,414.6 942.1,413 943,411.3 943.9,409.7 944.9,408 945.8,406.4 946.7,404.7 947.7,403.1 948.6,401.4 949.5,399.7 950.5,398 951.4,396.4 952.3,394.7 953.3,393 954.2,391.3 955.1,389.6 956.1,387.9 957,386.2 957.9,384.5 958.9,382.8 959.8,381.1 960.7,379.4 961.6,377.7 962.6,376 963.5,374.3 964.4,372.5 965.4,370.8 966.3,369.1 967.2,367.4 968.2,365.6 969.1,363.9 970,362.2 971,360.4 971.9,358.7 972.8,356.9 973.8,355.2 974.7,353.4 975.6,351.7 976.6,350 977.5,348.2 978.4,346.4 979.4,344.7 980.3,342.9 981.2,341.2 982.2,339.4 983.1,337.7 984,335.9 985,334.1 985.9,332.4 986.8,330.6 987.8,328.8 988.7,327.1 989.6,325.3 990.6,323.5 991.5,321.8 992.4,320 993.4,318.2 994.3,316.5 995.2,314.7 996.2,312.9 997.1,311.1 998,309.4 999,307.6 999.9,305.8 " />
</g>

<g fill="none" stroke="#000000" stroke-opacity="1" stroke-width="1" stroke-linecap="square" stroke-linejoin="bevel" transform="matrix(1.00196,0,0,1.00196,0,0)"
font-family="Ubuntu" font-size="11" font-weight="400" font-style="normal" 
>
</g>

<g fill="none" stroke="#000000" stroke-opacity="1" stroke-width="1" stroke-linecap="square" stroke-linejoin="bevel" transform="matrix(1.00196,0,0,1.00196,814.671,32.5637)"
font-family="Ubuntu" font-size="11" font-weight="400" font-style="normal" 
>
</g>

<g fill="none" stroke="#000000" stroke-opacity="1" stroke-width="1" stroke-linecap="square" stroke-linejoin="bevel" transform="matrix(1.00196,0,0,1.00196,814.671,32.5637)"
font-family="Ubuntu" font-size="11" font-weight="400" font-style="normal" 
>
</g>

<g fill="none" stroke="#000000" stroke-opacity="1" stroke-width="1" stroke-linecap="square" stroke-linejoin="bevel" transform="matrix(1.00196,0,0,1.00196,814.671,32.5637)"
font-family="Ubuntu" font-size="11" font-weight="400" font-style="normal" 
>
</g>

<g fill="none" stroke="#000000" stroke-opacity="1" stroke-width="1" stroke-linecap="square" stroke-linejoin="bevel" transform="matrix(1.00196,0,0,1.00196,814.671,32.5637)"
font-family="Ubuntu" font-size="11" font-weight="400" font-style="normal" 
>
<text fill="#000000" fill-opacity="1" stroke="none" xml:space="preserve" x="4" y="16" font-family="Sans" font-size="9" font-weight="400" font-style="normal" 
 >&quot;cubic_a=0.333.dat&quot;</text>
</g>

<g fill="none" stroke="#000000" stroke-opacity="1" stroke-width="1" stroke-linecap="square" stroke-linejoin="bevel" transform="matrix(1.00196,0,0,1.00196,814.671,32.5637)"
font-family="Ubuntu" font-size="11" font-weight="400" font-style="normal" 
>
</g>

<g fill="none" stroke="#000000" stroke-opacity="1" stroke-width="1" stroke-linecap="square" stroke-linejoin="bevel" transform="matrix(1,0,0,1,0,0)"
font-family="Ubuntu" font-size="11" font-weight="400" font-style="normal" 
>
</g>

<g fill="none" stroke="#000000" stroke-opacity="1" stroke-width="1" stroke-linecap="square" stroke-linejoin="bevel" transform="matrix(1.00196,0,0,1.00196,814.671,32.5637)"
font-family="Ubuntu" font-size="11" font-weight="400" font-style="normal" 
>
</g>

<g fill="none" stroke="#000000" stroke-opacity="1" stroke-width="1" stroke-linecap="square" stroke-linejoin="bevel" transform="matrix(1.00196,0,0,1.00196,814.671,32.5637)"
font-family="Ubuntu" font-size="11" font-weight="400" font-style="normal" 
>
</g>

<g fill="none" stroke="#000000" stroke-opacity="1" stroke-width="1" stroke-linecap="square" stroke-linejoin="bevel" transform="matrix(1.00196,0,0,1.00196,814.671,32.5637)"
font-family="Ubuntu" font-size="11" font-weight="400" font-style="normal" 
>
</g>

<g fill="none" stroke="#000000" stroke-opacity="1" stroke-width="1" stroke-linecap="square" stroke-linejoin="bevel" transform="matrix(1.00196,0,0,1.00196,0,0)"
font-family="Ubuntu" font-size="11" font-weight="400" font-style="normal" 
>
</g>

<g fill="none" stroke="#009e73" stroke-opacity="1" stroke-width="1" stroke-linecap="round" stroke-linejoin="round" transform="matrix(1.00196,0,0,1.00196,0,0)"
font-family="Ubuntu" font-size="11" font-weight="400" font-style="normal" 
>
<path vector-effect="none" fill-rule="evenodd" d="M951.5,43.5 L985.5,43.5"/>
</g>

<g fill="none" stroke="#000000" stroke-opacity="1" stroke-width="1" stroke-linecap="square" stroke-linejoin="bevel" transform="matrix(1.00196,0,0,1.00196,0,0)"
font-family="Ubuntu" font-size="11" font-weight="400" font-style="normal" 
>
</g>

<g fill="none" stroke="#000000" stroke-opacity="1" stroke-width="1" stroke-linecap="square" stroke-linejoin="bevel" transform="matrix(1.00196,0,0,1.00196,0,0)"
font-family="Ubuntu" font-size="11" font-weight="400" font-style="normal" 
>
</g>

<g fill="none" stroke="#000000" stroke-opacity="1" stroke-width="1" stroke-linecap="square" stroke-linejoin="bevel" transform="matrix(1.00196,0,0,1.00196,0,0)"
font-family="Ubuntu" font-size="11" font-weight="400" font-style="normal" 
>
</g>

<g fill="none" stroke="#000000" stroke-opacity="1" stroke-width="1" stroke-linecap="square" stroke-linejoin="bevel" transform="matrix(1.00196,0,0,1.00196,0,0)"
font-family="Ubuntu" font-size="11" font-weight="400" font-style="normal" 
>
</g>

<g fill="none" stroke="#009e73" stroke-opacity="1" stroke-width="1" stroke-linecap="round" stroke-linejoin="round" transform="matrix(1.00196,0,0,1.00196,0,0)"
font-family="Ubuntu" font-size="11" font-weight="400" font-style="normal" 
>
<polyline fill="none" vector-effect="none" points="45.5,304 45.5,304 46.4,302.3 47.4,300.5 48.3,298.7 49.2,297 50.2,295.2 51.1,293.4 52,291.7 53,289.9 53.9,288.1 54.8,286.4 55.8,284.6 56.7,282.8 57.6,281.1 58.6,279.3 59.5,277.6 60.4,275.8 61.4,274.1 62.3,272.3 63.2,270.6 64.2,268.9 65.1,267.1 66,265.4 67,263.7 67.9,262 68.8,260.2 69.8,258.5 70.7,256.8 71.6,255.1 72.6,253.4 73.5,251.8 74.4,250.1 75.4,248.4 76.3,246.7 77.2,245.1 78.2,243.4 79.1,241.8 80,240.1 81,238.5 81.9,236.8 82.8,235.2 83.8,233.6 84.7,232 85.6,230.4 86.5,228.8 87.5,227.2 88.4,225.7 89.3,224.1 90.3,222.5 91.2,221 92.1,219.4 93.1,217.9 94,216.4 94.9,214.9 95.9,213.4 96.8,211.9 97.7,210.4 98.7,208.9 99.6,207.4 100.5,206 101.5,204.5 102.4,203.1 103.3,201.7 104.3,200.3 105.2,198.9 106.1,197.5 107.1,196.1 108,194.7 108.9,193.4 109.9,192 110.8,190.7 111.7,189.3 112.7,188 113.6,186.7 114.5,185.4 115.5,184.1 116.4,182.9 117.3,181.6 118.3,180.4 119.2,179.1 120.1,177.9 121.1,176.7 122,175.5 122.9,174.3 123.9,173.1 124.8,172 125.7,170.8 126.7,169.7 127.6,168.6 128.5,167.5 129.5,166.4 130.4,165.3 131.3,164.2 132.3,163.1 133.2,162.1 134.1,161 135.1,160 136,159 136.9,158 137.9,157 138.8,156 139.7,155.1 140.7,154.1 141.6,153.2 142.5,152.3 143.5,151.3 144.4,150.4 145.3,149.6 146.3,148.7 147.2,147.8 148.1,147 149.1,146.1 150,145.3 150.9,144.5 151.9,143.7 152.8,142.9 153.7,142.1 154.7,141.4 155.6,140.6 156.5,139.9 157.5,139.1 158.4,138.4 159.3,137.7 160.3,137 161.2,136.4 162.1,135.7 163.1,135 164,134.4 164.9,133.8 165.8,133.1 166.8,132.5 167.7,131.9 168.6,131.3 169.6,130.8 170.5,130.2 171.4,129.6 172.4,129.1 173.3,128.6 174.2,128 175.2,127.5 176.1,127 177,126.5 178,126.1 178.9,125.6 179.8,125.1 180.8,124.7 181.7,124.2 182.6,123.8 183.6,123.4 184.5,123 185.4,122.6 186.4,122.2 187.3,121.8 188.2,121.5 189.2,121.1 190.1,120.7 191,120.4 192,120.1 192.9,119.7 193.8,119.4 194.8,119.1 195.7,118.8 196.6,118.5 197.6,118.2 198.5,118 199.4,117.7 200.4,117.4 201.3,117.2 202.2,116.9 203.2,116.7 204.1,116.5 205,116.2 206,116 206.9,115.8 207.8,115.6 208.8,115.4 209.7,115.2 210.6,115 211.6,114.9 212.5,114.7 213.4,114.5 214.4,114.4 215.3,114.2 216.2,114.1 217.2,113.9 218.1,113.8 219,113.7 220,113.5 220.9,113.4 221.8,113.3 222.8,113.2 223.7,113.1 224.6,113 225.6,112.9 226.5,112.8 227.4,112.7 228.4,112.6 229.3,112.5 230.2,112.4 231.2,112.4 232.1,112.3 233,112.2 234,112.2 234.9,112.1 235.8,112.1 236.8,112 237.7,112 238.6,111.9 239.6,111.9 240.5,111.8 241.4,111.8 242.4,111.7 243.3,111.7 244.2,111.7 245.1,111.6 246.1,111.6 247,111.6 247.9,111.6 248.9,111.5 249.8,111.5 250.7,111.5 251.7,111.5 252.6,111.5 253.5,111.4 254.5,111.4 255.4,111.4 256.3,111.4 257.3,111.4 258.2,111.4 259.1,111.4 260.1,111.4 261,111.4 261.9,111.4 262.9,111.4 263.8,111.3 264.7,111.3 265.7,111.3 266.6,111.3 267.5,111.3 268.5,111.3 269.4,111.3 270.3,111.3 271.3,111.3 272.2,111.3 273.1,111.3 274.1,111.3 275,111.3 275.9,111.3 276.9,111.3 277.8,111.3 278.7,111.3 279.7,111.3 280.6,111.3 281.5,111.3 282.5,111.3 283.4,111.3 284.3,111.3 285.3,111.3 286.2,111.3 287.1,111.3 288.1,111.3 289,111.3 289.9,111.3 290.9,111.3 291.8,111.3 292.7,111.3 293.7,111.3 294.6,111.3 295.5,111.3 296.5,111.3 297.4,111.3 298.3,111.3 299.3,111.3 300.2,111.3 301.1,111.3 302.1,111.3 303,111.3 303.9,111.3 304.9,111.3 305.8,111.4 306.7,111.4 307.7,111.4 308.6,111.4 309.5,111.4 310.5,111.4 311.4,111.4 312.3,111.4 313.3,111.4 314.2,111.4 315.1,111.4 316.1,111.5 317,111.5 317.9,111.5 318.9,111.5 319.8,111.5 320.7,111.6 321.7,111.6 322.6,111.6 323.5,111.6 324.4,111.7 325.4,111.7 326.3,111.7 327.2,111.8 328.2,111.8 329.1,111.9 330,111.9 331,112 331.9,112 332.8,112.1 333.8,112.1 334.7,112.2 335.6,112.2 336.6,112.3 337.5,112.4 338.4,112.4 339.4,112.5 340.3,112.6 341.2,112.7 342.2,112.8 343.1,112.9 344,113 345,113.1 345.9,113.2 346.8,113.3 347.8,113.4 348.7,113.5 349.6,113.7 350.6,113.8 351.5,113.9 352.4,114.1 353.4,114.2 354.3,114.4 355.2,114.5 356.2,114.7 357.1,114.9 358,115 359,115.2 359.9,115.4 360.8,115.6 361.8,115.8 362.7,116 363.6,116.2 364.6,116.5 365.5,116.7 366.4,116.9 367.4,117.2 368.3,117.4 369.2,117.7 370.2,118 371.1,118.2 372,118.5 373,118.8 373.9,119.1 374.8,119.4 375.8,119.7 376.7,120.1 377.6,120.4 378.6,120.7 379.5,121.1 380.4,121.5 381.4,121.8 382.3,122.2 383.2,122.6 384.2,123 385.1,123.4 386,123.8 387,124.2 387.9,124.7 388.8,125.1 389.8,125.6 390.7,126.1 391.6,126.5 392.6,127 393.5,127.5 394.4,128 395.4,128.6 396.3,129.1 397.2,129.6 398.2,130.2 399.1,130.8 400,131.3 401,131.9 401.9,132.5 402.8,133.1 403.7,133.8 404.7,134.4 405.6,135 406.5,135.7 407.5,136.4 408.4,137 409.3,137.7 410.3,138.4 411.2,139.1 412.1,139.9 413.1,140.6 414,141.4 414.9,142.1 415.9,142.9 416.8,143.7 417.7,144.5 418.7,145.3 419.6,146.1 420.5,147 421.5,147.8 422.4,148.7 423.3,149.6 424.3,150.4 425.2,151.3 426.1,152.3 427.1,153.2 428,154.1 428.9,155.1 429.9,156 430.8,157 431.7,158 432.7,159 433.6,160 434.5,161 435.5,162.1 436.4,163.1 437.3,164.2 438.3,165.3 439.2,166.4 440.1,167.5 441.1,168.6 442,169.7 442.9,170.8 443.9,172 444.8,173.1 445.7,174.3 446.7,175.5 447.6,176.7 448.5,177.9 449.5,179.1 450.4,180.4 451.3,181.6 452.3,182.9 453.2,184.1 454.1,185.4 455.1,186.7 456,188 456.9,189.3 457.9,190.7 458.8,192 459.7,193.4 460.7,194.7 461.6,196.1 462.5,197.5 463.5,198.9 464.4,200.3 465.3,201.7 466.3,203.1 467.2,204.5 468.1,206 469.1,207.4 470,208.9 470.9,210.4 471.9,211.9 472.8,213.4 473.7,214.9 474.7,216.4 475.6,217.9 476.5,219.4 477.5,221 478.4,222.5 479.3,224.1 480.3,225.7 481.2,227.2 482.1,228.8 483,230.4 484,232 484.9,233.6 485.8,235.2 486.8,236.8 487.7,238.5 488.6,240.1 489.6,241.8 490.5,243.4 491.4,245.1 492.4,246.7 493.3,248.4 494.2,250.1 495.2,251.8 496.1,253.4 497,255.1 498,256.8 498.9,258.5 499.8,260.2 500.8,262 501.7,263.7 502.6,265.4 503.6,267.1 504.5,268.9 505.4,270.6 506.4,272.3 507.3,274.1 508.2,275.8 509.2,277.6 510.1,279.3 511,281.1 512,282.8 512.9,284.6 513.8,286.4 514.8,288.1 515.7,289.9 516.6,291.7 517.6,293.4 518.5,295.2 519.4,297 520.4,298.7 521.3,300.5 522.2,302.3 523.2,304.1 524.1,305.8 525,307.6 526,309.4 526.9,311.1 527.8,312.9 528.8,314.7 529.7,316.4 530.6,318.2 531.6,320 532.5,321.7 533.4,323.5 534.4,325.3 535.3,327 536.2,328.8 537.2,330.5 538.1,332.3 539,334 540,335.8 540.9,337.5 541.8,339.2 542.8,341 543.7,342.7 544.6,344.4 545.6,346.1 546.5,347.9 547.4,349.6 548.4,351.3 549.3,353 550.2,354.7 551.2,356.3 552.1,358 553,359.7 554,361.4 554.9,363 555.8,364.7 556.8,366.3 557.7,368 558.6,369.6 559.6,371.3 560.5,372.9 561.4,374.5 562.4,376.1 563.3,377.7 564.2,379.3 565.1,380.9 566.1,382.4 567,384 567.9,385.6 568.9,387.1 569.8,388.7 570.7,390.2 571.7,391.7 572.6,393.2 573.5,394.7 574.5,396.2 575.4,397.7 576.3,399.2 577.3,400.7 578.2,402.1 579.1,403.6 580.1,405 581,406.4 581.9,407.8 582.9,409.2 583.8,410.6 584.7,412 585.7,413.4 586.6,414.7 587.5,416.1 588.5,417.4 589.4,418.8 590.3,420.1 591.3,421.4 592.2,422.7 593.1,424 594.1,425.2 595,426.5 595.9,427.7 596.9,429 597.8,430.2 598.7,431.4 599.7,432.6 600.6,433.8 601.5,435 602.5,436.1 603.4,437.3 604.3,438.4 605.3,439.5 606.2,440.6 607.1,441.7 608.1,442.8 609,443.9 609.9,445 610.9,446 611.8,447.1 612.7,448.1 613.7,449.1 614.6,450.1 615.5,451.1 616.5,452.1 617.4,453 618.3,454 619.3,454.9 620.2,455.8 621.1,456.8 622.1,457.7 623,458.5 623.9,459.4 624.9,460.3 625.8,461.1 626.7,462 627.7,462.8 628.6,463.6 629.5,464.4 630.5,465.2 631.4,466 632.3,466.7 633.3,467.5 634.2,468.2 635.1,469 636.1,469.7 637,470.4 637.9,471.1 638.9,471.7 639.8,472.4 640.7,473.1 641.7,473.7 642.6,474.3 643.5,475 644.4,475.6 645.4,476.2 646.3,476.8 647.2,477.3 648.2,477.9 649.1,478.5 650,479 651,479.5 651.9,480.1 652.8,480.6 653.8,481.1 654.7,481.6 655.6,482 656.6,482.5 657.5,483 658.4,483.4 659.4,483.9 660.3,484.3 661.2,484.7 662.2,485.1 663.1,485.5 664,485.9 665,486.3 665.9,486.6 666.8,487 667.8,487.4 668.7,487.7 669.6,488 670.6,488.4 671.5,488.7 672.4,489 673.4,489.3 674.3,489.6 675.2,489.9 676.2,490.1 677.1,490.4 678,490.7 679,490.9 679.9,491.2 680.8,491.4 681.8,491.6 682.7,491.9 683.6,492.1 684.6,492.3 685.5,492.5 686.4,492.7 687.4,492.9 688.3,493.1 689.2,493.2 690.2,493.4 691.1,493.6 692,493.7 693,493.9 693.9,494 694.8,494.2 695.8,494.3 696.7,494.4 697.6,494.6 698.6,494.7 699.5,494.8 700.4,494.9 701.4,495 702.3,495.1 703.2,495.2 704.2,495.3 705.1,495.4 706,495.5 707,495.6 707.9,495.7 708.8,495.7 709.8,495.8 710.7,495.9 711.6,495.9 712.6,496 713.5,496 714.4,496.1 715.4,496.1 716.3,496.2 717.2,496.2 718.2,496.3 719.1,496.3 720,496.4 721,496.4 721.9,496.4 722.8,496.5 723.7,496.5 724.7,496.5 725.6,496.5 726.5,496.6 727.5,496.6 728.4,496.6 729.3,496.6 730.3,496.6 731.2,496.7 732.1,496.7 733.1,496.7 734,496.7 734.9,496.7 735.9,496.7 736.8,496.7 737.7,496.7 738.7,496.7 739.6,496.7 740.5,496.7 741.5,496.8 742.4,496.8 743.3,496.8 744.3,496.8 745.2,496.8 746.1,496.8 747.1,496.8 748,496.8 748.9,496.8 749.9,496.8 750.8,496.8 751.7,496.8 752.7,496.8 753.6,496.8 754.5,496.8 755.5,496.8 756.4,496.8 757.3,496.8 758.3,496.8 759.2,496.8 760.1,496.8 761.1,496.8 762,496.8 762.9,496.8 763.9,496.8 764.8,496.8 765.7,496.8 766.7,496.8 767.6,496.8 768.5,496.8 769.5,496.8 770.4,496.8 771.3,496.8 772.3,496.8 773.2,496.8 774.1,496.8 775.1,496.8 776,496.8 776.9,496.8 777.9,496.8 778.8,496.8 779.7,496.8 780.7,496.8 781.6,496.8 782.5,496.8 783.5,496.7 784.4,496.7 785.3,496.7 786.3,496.7 787.2,496.7 788.1,496.7 789.1,496.7 790,496.7 790.9,496.7 791.9,496.7 792.8,496.7 793.7,496.6 794.7,496.6 795.6,496.6 796.5,496.6 797.5,496.6 798.4,496.5 799.3,496.5 800.3,496.5 801.2,496.5 802.1,496.4 803,496.4 804,496.4 804.9,496.3 805.8,496.3 806.8,496.2 807.7,496.2 808.6,496.1 809.6,496.1 810.5,496 811.4,496 812.4,495.9 813.3,495.9 814.2,495.8 815.2,495.7 816.1,495.7 817,495.6 818,495.5 818.9,495.4 819.8,495.3 820.8,495.2 821.7,495.1 822.6,495 823.6,494.9 824.5,494.8 825.4,494.7 826.4,494.6 827.3,494.4 828.2,494.3 829.2,494.2 830.1,494 831,493.9 832,493.7 832.9,493.6 833.8,493.4 834.8,493.2 835.7,493.1 836.6,492.9 837.6,492.7 838.5,492.5 839.4,492.3 840.4,492.1 841.3,491.9 842.2,491.6 843.2,491.4 844.1,491.2 845,490.9 846,490.7 846.9,490.4 847.8,490.1 848.8,489.9 849.7,489.6 850.6,489.3 851.6,489 852.5,488.7 853.4,488.4 854.4,488 855.3,487.7 856.2,487.4 857.2,487 858.1,486.6 859,486.3 860,485.9 860.9,485.5 861.8,485.1 862.8,484.7 863.7,484.3 864.6,483.9 865.6,483.4 866.5,483 867.4,482.5 868.4,482 869.3,481.6 870.2,481.1 871.2,480.6 872.1,480.1 873,479.5 874,479 874.9,478.5 875.8,477.9 876.8,477.3 877.7,476.8 878.6,476.2 879.6,475.6 880.5,475 881.4,474.3 882.3,473.7 883.3,473.1 884.2,472.4 885.1,471.7 886.1,471.1 887,470.4 887.9,469.7 888.9,469 889.8,468.2 890.7,467.5 891.7,466.7 892.6,466 893.5,465.2 894.5,464.4 895.4,463.6 896.3,462.8 897.3,462 898.2,461.1 899.1,460.3 900.1,459.4 901,458.5 901.9,457.7 902.9,456.8 903.8,455.8 904.7,454.9 905.7,454 906.6,453 907.5,452.1 908.5,451.1 909.4,450.1 910.3,449.1 911.3,448.1 912.2,447.1 913.1,446 914.1,445 915,443.9 915.9,442.8 916.9,441.7 917.8,440.6 918.7,439.5 919.7,438.4 920.6,437.3 921.5,436.1 922.5,435 923.4,433.8 924.3,432.6 925.3,431.4 926.2,430.2 927.1,429 928.1,427.7 929,426.5 929.9,425.2 930.9,424 931.8,422.7 932.7,421.4 933.7,420.1 934.6,418.8 935.5,417.4 936.5,416.1 937.4,414.7 938.3,413.4 939.3,412 940.2,410.6 941.1,409.2 942.1,407.8 943,406.4 943.9,405 944.9,403.6 945.8,402.1 946.7,400.7 947.7,399.2 948.6,397.7 949.5,396.2 950.5,394.7 951.4,393.2 952.3,391.7 953.3,390.2 954.2,388.7 955.1,387.1 956.1,385.6 957,384 957.9,382.4 958.9,380.9 959.8,379.3 960.7,377.7 961.6,376.1 962.6,374.5 963.5,372.9 964.4,371.3 965.4,369.6 966.3,368 967.2,366.3 968.2,364.7 969.1,363 970,361.4 971,359.7 971.9,358 972.8,356.3 973.8,354.7 974.7,353 975.6,351.3 976.6,349.6 977.5,347.9 978.4,346.1 979.4,344.4 980.3,342.7 981.2,341 982.2,339.2 983.1,337.5 984,335.8 985,334 985.9,332.3 986.8,330.5 987.8,328.8 988.7,327 989.6,325.3 990.6,323.5 991.5,321.7 992.4,320 993.4,318.2 994.3,316.4 995.2,314.7 996.2,312.9 997.1,311.1 998,309.4 999,307.6 999.9,305.8 " />
</g>

<g fill="none" stroke="#000000" stroke-opacity="1" stroke-width="1" stroke-linecap="square" stroke-linejoin="bevel" transform="matrix(1.00196,0,0,1.00196,0,0)"
font-family="Ubuntu" font-size="11" font-weight="400" font-style="normal" 
>
</g>

<g fill="none" stroke="#000000" stroke-opacity="1" stroke-width="1" stroke-linecap="square" stroke-linejoin="bevel" transform="matrix(1.00196,0,0,1.00196,0,0)"
font-family="Ubuntu" font-size="11" font-weight="400" font-style="normal" 
>
</g>

<g fill="none" stroke="#000000" stroke-opacity="1" stroke-width="1" stroke-linecap="round" stroke-linejoin="round" transform="matrix(1.00196,0,0,1.00196,0,0)"
font-family="Ubuntu" font-size="11" font-weight="400" font-style="normal" 
>
<polyline fill="none" vector-effect="none" points="45.5,15.5 45.5,593.5 999.5,593.5 999.5,15.5 45.5,15.5 " />
</g>

<g fill="none" stroke="#000000" stroke-opacity="1" stroke-width="1" stroke-linecap="square" stroke-linejoin="bevel" transform="matrix(1.00196,0,0,1.00196,0,0)"
font-family="Ubuntu" font-size="11" font-weight="400" font-style="normal" 
>
</g>

<g fill="none" stroke="#000000" stroke-opacity="1" stroke-width="1" stroke-linecap="square" stroke-linejoin="bevel" transform="matrix(1,0,0,1,0,0)"
font-family="Ubuntu" font-size="11" font-weight="400" font-style="normal" 
>
</g>
</g>
</svg>
