<?xml version="1.0" encoding="UTF-8" standalone="no"?>
<svg width="360.892mm" height="220.486mm"
 viewBox="0 0 1023 625"
 xmlns="http://www.w3.org/2000/svg" xmlns:xlink="http://www.w3.org/1999/xlink"  version="1.2" baseProfile="tiny">
<title>Qt SVG Document</title>
<desc>Generated with Qt</desc>
<defs>
</defs>
<g fill="none" stroke="black" stroke-width="1" fill-rule="evenodd" stroke-linecap="square" stroke-linejoin="bevel" >

<g fill="none" stroke="#000000" stroke-opacity="1" stroke-width="1" stroke-linecap="square" stroke-linejoin="bevel" transform="matrix(1,0,0,1,0,0)"
font-family="Ubuntu" font-size="11" font-weight="400" font-style="normal" 
>
</g>

<g fill="none" stroke="#000000" stroke-opacity="1" stroke-width="1" stroke-linecap="square" stroke-linejoin="bevel" transform="matrix(1.00196,0,0,1.00196,0,0)"
font-family="Ubuntu" font-size="11" font-weight="400" font-style="normal" 
>
</g>

<g fill="none" stroke="#000000" stroke-opacity="1" stroke-width="1" stroke-linecap="round" stroke-linejoin="round" transform="matrix(1.00196,0,0,1.00196,0,0)"
font-family="Ubuntu" font-size="11" font-weight="400" font-style="normal" 
>
<polyline fill="none" vector-effect="none" points="45.5,593.5 51.5,593.5 " />
<polyline fill="none" vector-effect="none" points="999.5,593.5 993.5,593.5 " />
</g>

<g fill="none" stroke="#000000" stroke-opacity="1" stroke-width="1" stroke-linecap="square" stroke-linejoin="bevel" transform="matrix(1.00196,0,0,1.00196,0,0)"
font-family="Ubuntu" font-size="11" font-weight="400" font-style="normal" 
>
</g>

<g fill="none" stroke="#000000" stroke-opacity="1" stroke-width="1" stroke-linecap="square" stroke-linejoin="bevel" transform="matrix(1.00196,0,0,1.00196,28.0548,598.67)"
font-family="Ubuntu" font-size="11" font-weight="400" font-style="normal" 
>
</g>

<g fill="none" stroke="#000000" stroke-opacity="1" stroke-width="1" stroke-linecap="square" stroke-linejoin="bevel" transform="matrix(1.00196,0,0,1.00196,28.0548,598.67)"
font-family="Ubuntu" font-size="11" font-weight="400" font-style="normal" 
>
</g>

<g fill="none" stroke="#000000" stroke-opacity="1" stroke-width="1" stroke-linecap="square" stroke-linejoin="bevel" transform="matrix(1.00196,0,0,1.00196,28.0548,598.67)"
font-family="Ubuntu" font-size="11" font-weight="400" font-style="normal" 
>
</g>

<g fill="none" stroke="#000000" stroke-opacity="1" stroke-width="1" stroke-linecap="square" stroke-linejoin="bevel" transform="matrix(1.00196,0,0,1.00196,28.0548,598.67)"
font-family="Ubuntu" font-size="11" font-weight="400" font-style="normal" 
>
</g>

<g fill="none" stroke="#000000" stroke-opacity="1" stroke-width="1" stroke-linecap="square" stroke-linejoin="bevel" transform="matrix(1.00196,0,0,1.00196,28.0548,598.67)"
font-family="Ubuntu" font-size="11" font-weight="400" font-style="normal" 
>
</g>

<g fill="none" stroke="#000000" stroke-opacity="1" stroke-width="1" stroke-linecap="square" stroke-linejoin="bevel" transform="matrix(1.00196,0,0,1.00196,28.0548,598.67)"
font-family="Sans" font-size="9" font-weight="400" font-style="normal" 
>
<text fill="#000000" fill-opacity="1" stroke="none" xml:space="preserve" x="0" y="0" font-family="Sans" font-size="9" font-weight="400" font-style="normal" 
 >-1</text>
</g>

<g fill="none" stroke="#000000" stroke-opacity="1" stroke-width="1" stroke-linecap="square" stroke-linejoin="bevel" transform="matrix(1.00196,0,0,1.00196,28.0548,598.67)"
font-family="Ubuntu" font-size="11" font-weight="400" font-style="normal" 
>
</g>

<g fill="none" stroke="#000000" stroke-opacity="1" stroke-width="1" stroke-linecap="square" stroke-linejoin="bevel" transform="matrix(1.00196,0,0,1.00196,0,0)"
font-family="Ubuntu" font-size="11" font-weight="400" font-style="normal" 
>
</g>

<g fill="none" stroke="#000000" stroke-opacity="1" stroke-width="1" stroke-linecap="round" stroke-linejoin="round" transform="matrix(1.00196,0,0,1.00196,0,0)"
font-family="Ubuntu" font-size="11" font-weight="400" font-style="normal" 
>
<polyline fill="none" vector-effect="none" points="45.5,448.5 51.5,448.5 " />
<polyline fill="none" vector-effect="none" points="999.5,448.5 993.5,448.5 " />
</g>

<g fill="none" stroke="#000000" stroke-opacity="1" stroke-width="1" stroke-linecap="square" stroke-linejoin="bevel" transform="matrix(1.00196,0,0,1.00196,0,0)"
font-family="Ubuntu" font-size="11" font-weight="400" font-style="normal" 
>
</g>

<g fill="none" stroke="#000000" stroke-opacity="1" stroke-width="1" stroke-linecap="square" stroke-linejoin="bevel" transform="matrix(1.00196,0,0,1.00196,16.0313,454.388)"
font-family="Ubuntu" font-size="11" font-weight="400" font-style="normal" 
>
</g>

<g fill="none" stroke="#000000" stroke-opacity="1" stroke-width="1" stroke-linecap="square" stroke-linejoin="bevel" transform="matrix(1.00196,0,0,1.00196,16.0313,454.388)"
font-family="Ubuntu" font-size="11" font-weight="400" font-style="normal" 
>
</g>

<g fill="none" stroke="#000000" stroke-opacity="1" stroke-width="1" stroke-linecap="square" stroke-linejoin="bevel" transform="matrix(1.00196,0,0,1.00196,16.0313,454.388)"
font-family="Ubuntu" font-size="11" font-weight="400" font-style="normal" 
>
</g>

<g fill="none" stroke="#000000" stroke-opacity="1" stroke-width="1" stroke-linecap="square" stroke-linejoin="bevel" transform="matrix(1.00196,0,0,1.00196,16.0313,454.388)"
font-family="Ubuntu" font-size="11" font-weight="400" font-style="normal" 
>
</g>

<g fill="none" stroke="#000000" stroke-opacity="1" stroke-width="1" stroke-linecap="square" stroke-linejoin="bevel" transform="matrix(1.00196,0,0,1.00196,16.0313,454.388)"
font-family="Ubuntu" font-size="11" font-weight="400" font-style="normal" 
>
</g>

<g fill="none" stroke="#000000" stroke-opacity="1" stroke-width="1" stroke-linecap="square" stroke-linejoin="bevel" transform="matrix(1.00196,0,0,1.00196,16.0313,454.388)"
font-family="Sans" font-size="9" font-weight="400" font-style="normal" 
>
<text fill="#000000" fill-opacity="1" stroke="none" xml:space="preserve" x="0" y="0" font-family="Sans" font-size="9" font-weight="400" font-style="normal" 
 >-0.5</text>
</g>

<g fill="none" stroke="#000000" stroke-opacity="1" stroke-width="1" stroke-linecap="square" stroke-linejoin="bevel" transform="matrix(1.00196,0,0,1.00196,16.0313,454.388)"
font-family="Ubuntu" font-size="11" font-weight="400" font-style="normal" 
>
</g>

<g fill="none" stroke="#000000" stroke-opacity="1" stroke-width="1" stroke-linecap="square" stroke-linejoin="bevel" transform="matrix(1.00196,0,0,1.00196,0,0)"
font-family="Ubuntu" font-size="11" font-weight="400" font-style="normal" 
>
</g>

<g fill="none" stroke="#000000" stroke-opacity="1" stroke-width="1" stroke-linecap="round" stroke-linejoin="round" transform="matrix(1.00196,0,0,1.00196,0,0)"
font-family="Ubuntu" font-size="11" font-weight="400" font-style="normal" 
>
<polyline fill="none" vector-effect="none" points="45.5,304.5 51.5,304.5 " />
<polyline fill="none" vector-effect="none" points="999.5,304.5 993.5,304.5 " />
</g>

<g fill="none" stroke="#000000" stroke-opacity="1" stroke-width="1" stroke-linecap="square" stroke-linejoin="bevel" transform="matrix(1.00196,0,0,1.00196,0,0)"
font-family="Ubuntu" font-size="11" font-weight="400" font-style="normal" 
>
</g>

<g fill="none" stroke="#000000" stroke-opacity="1" stroke-width="1" stroke-linecap="square" stroke-linejoin="bevel" transform="matrix(1.00196,0,0,1.00196,28.0548,309.104)"
font-family="Ubuntu" font-size="11" font-weight="400" font-style="normal" 
>
</g>

<g fill="none" stroke="#000000" stroke-opacity="1" stroke-width="1" stroke-linecap="square" stroke-linejoin="bevel" transform="matrix(1.00196,0,0,1.00196,28.0548,309.104)"
font-family="Ubuntu" font-size="11" font-weight="400" font-style="normal" 
>
</g>

<g fill="none" stroke="#000000" stroke-opacity="1" stroke-width="1" stroke-linecap="square" stroke-linejoin="bevel" transform="matrix(1.00196,0,0,1.00196,28.0548,309.104)"
font-family="Ubuntu" font-size="11" font-weight="400" font-style="normal" 
>
</g>

<g fill="none" stroke="#000000" stroke-opacity="1" stroke-width="1" stroke-linecap="square" stroke-linejoin="bevel" transform="matrix(1.00196,0,0,1.00196,28.0548,309.104)"
font-family="Ubuntu" font-size="11" font-weight="400" font-style="normal" 
>
</g>

<g fill="none" stroke="#000000" stroke-opacity="1" stroke-width="1" stroke-linecap="square" stroke-linejoin="bevel" transform="matrix(1.00196,0,0,1.00196,28.0548,309.104)"
font-family="Ubuntu" font-size="11" font-weight="400" font-style="normal" 
>
</g>

<g fill="none" stroke="#000000" stroke-opacity="1" stroke-width="1" stroke-linecap="square" stroke-linejoin="bevel" transform="matrix(1.00196,0,0,1.00196,28.0548,309.104)"
font-family="Sans" font-size="9" font-weight="400" font-style="normal" 
>
<text fill="#000000" fill-opacity="1" stroke="none" xml:space="preserve" x="0" y="0" font-family="Sans" font-size="9" font-weight="400" font-style="normal" 
 > 0</text>
</g>

<g fill="none" stroke="#000000" stroke-opacity="1" stroke-width="1" stroke-linecap="square" stroke-linejoin="bevel" transform="matrix(1.00196,0,0,1.00196,28.0548,309.104)"
font-family="Ubuntu" font-size="11" font-weight="400" font-style="normal" 
>
</g>

<g fill="none" stroke="#000000" stroke-opacity="1" stroke-width="1" stroke-linecap="square" stroke-linejoin="bevel" transform="matrix(1.00196,0,0,1.00196,0,0)"
font-family="Ubuntu" font-size="11" font-weight="400" font-style="normal" 
>
</g>

<g fill="none" stroke="#000000" stroke-opacity="1" stroke-width="1" stroke-linecap="round" stroke-linejoin="round" transform="matrix(1.00196,0,0,1.00196,0,0)"
font-family="Ubuntu" font-size="11" font-weight="400" font-style="normal" 
>
<polyline fill="none" vector-effect="none" points="45.5,159.5 51.5,159.5 " />
<polyline fill="none" vector-effect="none" points="999.5,159.5 993.5,159.5 " />
</g>

<g fill="none" stroke="#000000" stroke-opacity="1" stroke-width="1" stroke-linecap="square" stroke-linejoin="bevel" transform="matrix(1.00196,0,0,1.00196,0,0)"
font-family="Ubuntu" font-size="11" font-weight="400" font-style="normal" 
>
</g>

<g fill="none" stroke="#000000" stroke-opacity="1" stroke-width="1" stroke-linecap="square" stroke-linejoin="bevel" transform="matrix(1.00196,0,0,1.00196,16.0313,164.822)"
font-family="Ubuntu" font-size="11" font-weight="400" font-style="normal" 
>
</g>

<g fill="none" stroke="#000000" stroke-opacity="1" stroke-width="1" stroke-linecap="square" stroke-linejoin="bevel" transform="matrix(1.00196,0,0,1.00196,16.0313,164.822)"
font-family="Ubuntu" font-size="11" font-weight="400" font-style="normal" 
>
</g>

<g fill="none" stroke="#000000" stroke-opacity="1" stroke-width="1" stroke-linecap="square" stroke-linejoin="bevel" transform="matrix(1.00196,0,0,1.00196,16.0313,164.822)"
font-family="Ubuntu" font-size="11" font-weight="400" font-style="normal" 
>
</g>

<g fill="none" stroke="#000000" stroke-opacity="1" stroke-width="1" stroke-linecap="square" stroke-linejoin="bevel" transform="matrix(1.00196,0,0,1.00196,16.0313,164.822)"
font-family="Ubuntu" font-size="11" font-weight="400" font-style="normal" 
>
</g>

<g fill="none" stroke="#000000" stroke-opacity="1" stroke-width="1" stroke-linecap="square" stroke-linejoin="bevel" transform="matrix(1.00196,0,0,1.00196,16.0313,164.822)"
font-family="Ubuntu" font-size="11" font-weight="400" font-style="normal" 
>
</g>

<g fill="none" stroke="#000000" stroke-opacity="1" stroke-width="1" stroke-linecap="square" stroke-linejoin="bevel" transform="matrix(1.00196,0,0,1.00196,16.0313,164.822)"
font-family="Sans" font-size="9" font-weight="400" font-style="normal" 
>
<text fill="#000000" fill-opacity="1" stroke="none" xml:space="preserve" x="0" y="0" font-family="Sans" font-size="9" font-weight="400" font-style="normal" 
 > 0.5</text>
</g>

<g fill="none" stroke="#000000" stroke-opacity="1" stroke-width="1" stroke-linecap="square" stroke-linejoin="bevel" transform="matrix(1.00196,0,0,1.00196,16.0313,164.822)"
font-family="Ubuntu" font-size="11" font-weight="400" font-style="normal" 
>
</g>

<g fill="none" stroke="#000000" stroke-opacity="1" stroke-width="1" stroke-linecap="square" stroke-linejoin="bevel" transform="matrix(1.00196,0,0,1.00196,0,0)"
font-family="Ubuntu" font-size="11" font-weight="400" font-style="normal" 
>
</g>

<g fill="none" stroke="#000000" stroke-opacity="1" stroke-width="1" stroke-linecap="round" stroke-linejoin="round" transform="matrix(1.00196,0,0,1.00196,0,0)"
font-family="Ubuntu" font-size="11" font-weight="400" font-style="normal" 
>
<polyline fill="none" vector-effect="none" points="45.5,15.5 51.5,15.5 " />
<polyline fill="none" vector-effect="none" points="999.5,15.5 993.5,15.5 " />
</g>

<g fill="none" stroke="#000000" stroke-opacity="1" stroke-width="1" stroke-linecap="square" stroke-linejoin="bevel" transform="matrix(1.00196,0,0,1.00196,0,0)"
font-family="Ubuntu" font-size="11" font-weight="400" font-style="normal" 
>
</g>

<g fill="none" stroke="#000000" stroke-opacity="1" stroke-width="1" stroke-linecap="square" stroke-linejoin="bevel" transform="matrix(1.00196,0,0,1.00196,28.0548,19.5382)"
font-family="Ubuntu" font-size="11" font-weight="400" font-style="normal" 
>
</g>

<g fill="none" stroke="#000000" stroke-opacity="1" stroke-width="1" stroke-linecap="square" stroke-linejoin="bevel" transform="matrix(1.00196,0,0,1.00196,28.0548,19.5382)"
font-family="Ubuntu" font-size="11" font-weight="400" font-style="normal" 
>
</g>

<g fill="none" stroke="#000000" stroke-opacity="1" stroke-width="1" stroke-linecap="square" stroke-linejoin="bevel" transform="matrix(1.00196,0,0,1.00196,28.0548,19.5382)"
font-family="Ubuntu" font-size="11" font-weight="400" font-style="normal" 
>
</g>

<g fill="none" stroke="#000000" stroke-opacity="1" stroke-width="1" stroke-linecap="square" stroke-linejoin="bevel" transform="matrix(1.00196,0,0,1.00196,28.0548,19.5382)"
font-family="Ubuntu" font-size="11" font-weight="400" font-style="normal" 
>
</g>

<g fill="none" stroke="#000000" stroke-opacity="1" stroke-width="1" stroke-linecap="square" stroke-linejoin="bevel" transform="matrix(1.00196,0,0,1.00196,28.0548,19.5382)"
font-family="Ubuntu" font-size="11" font-weight="400" font-style="normal" 
>
</g>

<g fill="none" stroke="#000000" stroke-opacity="1" stroke-width="1" stroke-linecap="square" stroke-linejoin="bevel" transform="matrix(1.00196,0,0,1.00196,28.0548,19.5382)"
font-family="Sans" font-size="9" font-weight="400" font-style="normal" 
>
<text fill="#000000" fill-opacity="1" stroke="none" xml:space="preserve" x="0" y="0" font-family="Sans" font-size="9" font-weight="400" font-style="normal" 
 > 1</text>
</g>

<g fill="none" stroke="#000000" stroke-opacity="1" stroke-width="1" stroke-linecap="square" stroke-linejoin="bevel" transform="matrix(1.00196,0,0,1.00196,28.0548,19.5382)"
font-family="Ubuntu" font-size="11" font-weight="400" font-style="normal" 
>
</g>

<g fill="none" stroke="#000000" stroke-opacity="1" stroke-width="1" stroke-linecap="square" stroke-linejoin="bevel" transform="matrix(1.00196,0,0,1.00196,0,0)"
font-family="Ubuntu" font-size="11" font-weight="400" font-style="normal" 
>
</g>

<g fill="none" stroke="#000000" stroke-opacity="1" stroke-width="1" stroke-linecap="round" stroke-linejoin="round" transform="matrix(1.00196,0,0,1.00196,0,0)"
font-family="Ubuntu" font-size="11" font-weight="400" font-style="normal" 
>
<polyline fill="none" vector-effect="none" points="45.5,593.5 45.5,587.5 " />
<polyline fill="none" vector-effect="none" points="45.5,15.5 45.5,21.5 " />
</g>

<g fill="none" stroke="#000000" stroke-opacity="1" stroke-width="1" stroke-linecap="square" stroke-linejoin="bevel" transform="matrix(1.00196,0,0,1.00196,0,0)"
font-family="Ubuntu" font-size="11" font-weight="400" font-style="normal" 
>
</g>

<g fill="none" stroke="#000000" stroke-opacity="1" stroke-width="1" stroke-linecap="square" stroke-linejoin="bevel" transform="matrix(1.00196,0,0,1.00196,40.5793,613.7)"
font-family="Ubuntu" font-size="11" font-weight="400" font-style="normal" 
>
</g>

<g fill="none" stroke="#000000" stroke-opacity="1" stroke-width="1" stroke-linecap="square" stroke-linejoin="bevel" transform="matrix(1.00196,0,0,1.00196,40.5793,613.7)"
font-family="Ubuntu" font-size="11" font-weight="400" font-style="normal" 
>
</g>

<g fill="none" stroke="#000000" stroke-opacity="1" stroke-width="1" stroke-linecap="square" stroke-linejoin="bevel" transform="matrix(1.00196,0,0,1.00196,40.5793,613.7)"
font-family="Ubuntu" font-size="11" font-weight="400" font-style="normal" 
>
</g>

<g fill="none" stroke="#000000" stroke-opacity="1" stroke-width="1" stroke-linecap="square" stroke-linejoin="bevel" transform="matrix(1.00196,0,0,1.00196,40.5793,613.7)"
font-family="Ubuntu" font-size="11" font-weight="400" font-style="normal" 
>
</g>

<g fill="none" stroke="#000000" stroke-opacity="1" stroke-width="1" stroke-linecap="square" stroke-linejoin="bevel" transform="matrix(1.00196,0,0,1.00196,40.5793,613.7)"
font-family="Ubuntu" font-size="11" font-weight="400" font-style="normal" 
>
</g>

<g fill="none" stroke="#000000" stroke-opacity="1" stroke-width="1" stroke-linecap="square" stroke-linejoin="bevel" transform="matrix(1.00196,0,0,1.00196,40.5793,613.7)"
font-family="Sans" font-size="9" font-weight="400" font-style="normal" 
>
<text fill="#000000" fill-opacity="1" stroke="none" xml:space="preserve" x="0" y="0" font-family="Sans" font-size="9" font-weight="400" font-style="normal" 
 > 0</text>
</g>

<g fill="none" stroke="#000000" stroke-opacity="1" stroke-width="1" stroke-linecap="square" stroke-linejoin="bevel" transform="matrix(1.00196,0,0,1.00196,40.5793,613.7)"
font-family="Ubuntu" font-size="11" font-weight="400" font-style="normal" 
>
</g>

<g fill="none" stroke="#000000" stroke-opacity="1" stroke-width="1" stroke-linecap="square" stroke-linejoin="bevel" transform="matrix(1.00196,0,0,1.00196,0,0)"
font-family="Ubuntu" font-size="11" font-weight="400" font-style="normal" 
>
</g>

<g fill="none" stroke="#000000" stroke-opacity="1" stroke-width="1" stroke-linecap="round" stroke-linejoin="round" transform="matrix(1.00196,0,0,1.00196,0,0)"
font-family="Ubuntu" font-size="11" font-weight="400" font-style="normal" 
>
<polyline fill="none" vector-effect="none" points="232.5,593.5 232.5,587.5 " />
<polyline fill="none" vector-effect="none" points="232.5,15.5 232.5,21.5 " />
</g>

<g fill="none" stroke="#000000" stroke-opacity="1" stroke-width="1" stroke-linecap="square" stroke-linejoin="bevel" transform="matrix(1.00196,0,0,1.00196,0,0)"
font-family="Ubuntu" font-size="11" font-weight="400" font-style="normal" 
>
</g>

<g fill="none" stroke="#000000" stroke-opacity="1" stroke-width="1" stroke-linecap="square" stroke-linejoin="bevel" transform="matrix(1.00196,0,0,1.00196,218.928,613.7)"
font-family="Ubuntu" font-size="11" font-weight="400" font-style="normal" 
>
</g>

<g fill="none" stroke="#000000" stroke-opacity="1" stroke-width="1" stroke-linecap="square" stroke-linejoin="bevel" transform="matrix(1.00196,0,0,1.00196,218.928,613.7)"
font-family="Ubuntu" font-size="11" font-weight="400" font-style="normal" 
>
</g>

<g fill="none" stroke="#000000" stroke-opacity="1" stroke-width="1" stroke-linecap="square" stroke-linejoin="bevel" transform="matrix(1.00196,0,0,1.00196,218.928,613.7)"
font-family="Ubuntu" font-size="11" font-weight="400" font-style="normal" 
>
</g>

<g fill="none" stroke="#000000" stroke-opacity="1" stroke-width="1" stroke-linecap="square" stroke-linejoin="bevel" transform="matrix(1.00196,0,0,1.00196,218.928,613.7)"
font-family="Ubuntu" font-size="11" font-weight="400" font-style="normal" 
>
</g>

<g fill="none" stroke="#000000" stroke-opacity="1" stroke-width="1" stroke-linecap="square" stroke-linejoin="bevel" transform="matrix(1.00196,0,0,1.00196,218.928,613.7)"
font-family="Ubuntu" font-size="11" font-weight="400" font-style="normal" 
>
</g>

<g fill="none" stroke="#000000" stroke-opacity="1" stroke-width="1" stroke-linecap="square" stroke-linejoin="bevel" transform="matrix(1.00196,0,0,1.00196,218.928,613.7)"
font-family="Sans" font-size="9" font-weight="400" font-style="normal" 
>
<text fill="#000000" fill-opacity="1" stroke="none" xml:space="preserve" x="0" y="0" font-family="Sans" font-size="9" font-weight="400" font-style="normal" 
 > 200</text>
</g>

<g fill="none" stroke="#000000" stroke-opacity="1" stroke-width="1" stroke-linecap="square" stroke-linejoin="bevel" transform="matrix(1.00196,0,0,1.00196,218.928,613.7)"
font-family="Ubuntu" font-size="11" font-weight="400" font-style="normal" 
>
</g>

<g fill="none" stroke="#000000" stroke-opacity="1" stroke-width="1" stroke-linecap="square" stroke-linejoin="bevel" transform="matrix(1.00196,0,0,1.00196,0,0)"
font-family="Ubuntu" font-size="11" font-weight="400" font-style="normal" 
>
</g>

<g fill="none" stroke="#000000" stroke-opacity="1" stroke-width="1" stroke-linecap="round" stroke-linejoin="round" transform="matrix(1.00196,0,0,1.00196,0,0)"
font-family="Ubuntu" font-size="11" font-weight="400" font-style="normal" 
>
<polyline fill="none" vector-effect="none" points="418.5,593.5 418.5,587.5 " />
<polyline fill="none" vector-effect="none" points="418.5,15.5 418.5,21.5 " />
</g>

<g fill="none" stroke="#000000" stroke-opacity="1" stroke-width="1" stroke-linecap="square" stroke-linejoin="bevel" transform="matrix(1.00196,0,0,1.00196,0,0)"
font-family="Ubuntu" font-size="11" font-weight="400" font-style="normal" 
>
</g>

<g fill="none" stroke="#000000" stroke-opacity="1" stroke-width="1" stroke-linecap="square" stroke-linejoin="bevel" transform="matrix(1.00196,0,0,1.00196,406.294,613.7)"
font-family="Ubuntu" font-size="11" font-weight="400" font-style="normal" 
>
</g>

<g fill="none" stroke="#000000" stroke-opacity="1" stroke-width="1" stroke-linecap="square" stroke-linejoin="bevel" transform="matrix(1.00196,0,0,1.00196,406.294,613.7)"
font-family="Ubuntu" font-size="11" font-weight="400" font-style="normal" 
>
</g>

<g fill="none" stroke="#000000" stroke-opacity="1" stroke-width="1" stroke-linecap="square" stroke-linejoin="bevel" transform="matrix(1.00196,0,0,1.00196,406.294,613.7)"
font-family="Ubuntu" font-size="11" font-weight="400" font-style="normal" 
>
</g>

<g fill="none" stroke="#000000" stroke-opacity="1" stroke-width="1" stroke-linecap="square" stroke-linejoin="bevel" transform="matrix(1.00196,0,0,1.00196,406.294,613.7)"
font-family="Ubuntu" font-size="11" font-weight="400" font-style="normal" 
>
</g>

<g fill="none" stroke="#000000" stroke-opacity="1" stroke-width="1" stroke-linecap="square" stroke-linejoin="bevel" transform="matrix(1.00196,0,0,1.00196,406.294,613.7)"
font-family="Ubuntu" font-size="11" font-weight="400" font-style="normal" 
>
</g>

<g fill="none" stroke="#000000" stroke-opacity="1" stroke-width="1" stroke-linecap="square" stroke-linejoin="bevel" transform="matrix(1.00196,0,0,1.00196,406.294,613.7)"
font-family="Sans" font-size="9" font-weight="400" font-style="normal" 
>
<text fill="#000000" fill-opacity="1" stroke="none" xml:space="preserve" x="0" y="0" font-family="Sans" font-size="9" font-weight="400" font-style="normal" 
 > 400</text>
</g>

<g fill="none" stroke="#000000" stroke-opacity="1" stroke-width="1" stroke-linecap="square" stroke-linejoin="bevel" transform="matrix(1.00196,0,0,1.00196,406.294,613.7)"
font-family="Ubuntu" font-size="11" font-weight="400" font-style="normal" 
>
</g>

<g fill="none" stroke="#000000" stroke-opacity="1" stroke-width="1" stroke-linecap="square" stroke-linejoin="bevel" transform="matrix(1.00196,0,0,1.00196,0,0)"
font-family="Ubuntu" font-size="11" font-weight="400" font-style="normal" 
>
</g>

<g fill="none" stroke="#000000" stroke-opacity="1" stroke-width="1" stroke-linecap="round" stroke-linejoin="round" transform="matrix(1.00196,0,0,1.00196,0,0)"
font-family="Ubuntu" font-size="11" font-weight="400" font-style="normal" 
>
<polyline fill="none" vector-effect="none" points="605.5,593.5 605.5,587.5 " />
<polyline fill="none" vector-effect="none" points="605.5,15.5 605.5,21.5 " />
</g>

<g fill="none" stroke="#000000" stroke-opacity="1" stroke-width="1" stroke-linecap="square" stroke-linejoin="bevel" transform="matrix(1.00196,0,0,1.00196,0,0)"
font-family="Ubuntu" font-size="11" font-weight="400" font-style="normal" 
>
</g>

<g fill="none" stroke="#000000" stroke-opacity="1" stroke-width="1" stroke-linecap="square" stroke-linejoin="bevel" transform="matrix(1.00196,0,0,1.00196,592.659,613.7)"
font-family="Ubuntu" font-size="11" font-weight="400" font-style="normal" 
>
</g>

<g fill="none" stroke="#000000" stroke-opacity="1" stroke-width="1" stroke-linecap="square" stroke-linejoin="bevel" transform="matrix(1.00196,0,0,1.00196,592.659,613.7)"
font-family="Ubuntu" font-size="11" font-weight="400" font-style="normal" 
>
</g>

<g fill="none" stroke="#000000" stroke-opacity="1" stroke-width="1" stroke-linecap="square" stroke-linejoin="bevel" transform="matrix(1.00196,0,0,1.00196,592.659,613.7)"
font-family="Ubuntu" font-size="11" font-weight="400" font-style="normal" 
>
</g>

<g fill="none" stroke="#000000" stroke-opacity="1" stroke-width="1" stroke-linecap="square" stroke-linejoin="bevel" transform="matrix(1.00196,0,0,1.00196,592.659,613.7)"
font-family="Ubuntu" font-size="11" font-weight="400" font-style="normal" 
>
</g>

<g fill="none" stroke="#000000" stroke-opacity="1" stroke-width="1" stroke-linecap="square" stroke-linejoin="bevel" transform="matrix(1.00196,0,0,1.00196,592.659,613.7)"
font-family="Ubuntu" font-size="11" font-weight="400" font-style="normal" 
>
</g>

<g fill="none" stroke="#000000" stroke-opacity="1" stroke-width="1" stroke-linecap="square" stroke-linejoin="bevel" transform="matrix(1.00196,0,0,1.00196,592.659,613.7)"
font-family="Sans" font-size="9" font-weight="400" font-style="normal" 
>
<text fill="#000000" fill-opacity="1" stroke="none" xml:space="preserve" x="0" y="0" font-family="Sans" font-size="9" font-weight="400" font-style="normal" 
 > 600</text>
</g>

<g fill="none" stroke="#000000" stroke-opacity="1" stroke-width="1" stroke-linecap="square" stroke-linejoin="bevel" transform="matrix(1.00196,0,0,1.00196,592.659,613.7)"
font-family="Ubuntu" font-size="11" font-weight="400" font-style="normal" 
>
</g>

<g fill="none" stroke="#000000" stroke-opacity="1" stroke-width="1" stroke-linecap="square" stroke-linejoin="bevel" transform="matrix(1.00196,0,0,1.00196,0,0)"
font-family="Ubuntu" font-size="11" font-weight="400" font-style="normal" 
>
</g>

<g fill="none" stroke="#000000" stroke-opacity="1" stroke-width="1" stroke-linecap="round" stroke-linejoin="round" transform="matrix(1.00196,0,0,1.00196,0,0)"
font-family="Ubuntu" font-size="11" font-weight="400" font-style="normal" 
>
<polyline fill="none" vector-effect="none" points="791.5,593.5 791.5,587.5 " />
<polyline fill="none" vector-effect="none" points="791.5,15.5 791.5,21.5 " />
</g>

<g fill="none" stroke="#000000" stroke-opacity="1" stroke-width="1" stroke-linecap="square" stroke-linejoin="bevel" transform="matrix(1.00196,0,0,1.00196,0,0)"
font-family="Ubuntu" font-size="11" font-weight="400" font-style="normal" 
>
</g>

<g fill="none" stroke="#000000" stroke-opacity="1" stroke-width="1" stroke-linecap="square" stroke-linejoin="bevel" transform="matrix(1.00196,0,0,1.00196,780.025,613.7)"
font-family="Ubuntu" font-size="11" font-weight="400" font-style="normal" 
>
</g>

<g fill="none" stroke="#000000" stroke-opacity="1" stroke-width="1" stroke-linecap="square" stroke-linejoin="bevel" transform="matrix(1.00196,0,0,1.00196,780.025,613.7)"
font-family="Ubuntu" font-size="11" font-weight="400" font-style="normal" 
>
</g>

<g fill="none" stroke="#000000" stroke-opacity="1" stroke-width="1" stroke-linecap="square" stroke-linejoin="bevel" transform="matrix(1.00196,0,0,1.00196,780.025,613.7)"
font-family="Ubuntu" font-size="11" font-weight="400" font-style="normal" 
>
</g>

<g fill="none" stroke="#000000" stroke-opacity="1" stroke-width="1" stroke-linecap="square" stroke-linejoin="bevel" transform="matrix(1.00196,0,0,1.00196,780.025,613.7)"
font-family="Ubuntu" font-size="11" font-weight="400" font-style="normal" 
>
</g>

<g fill="none" stroke="#000000" stroke-opacity="1" stroke-width="1" stroke-linecap="square" stroke-linejoin="bevel" transform="matrix(1.00196,0,0,1.00196,780.025,613.7)"
font-family="Ubuntu" font-size="11" font-weight="400" font-style="normal" 
>
</g>

<g fill="none" stroke="#000000" stroke-opacity="1" stroke-width="1" stroke-linecap="square" stroke-linejoin="bevel" transform="matrix(1.00196,0,0,1.00196,780.025,613.7)"
font-family="Sans" font-size="9" font-weight="400" font-style="normal" 
>
<text fill="#000000" fill-opacity="1" stroke="none" xml:space="preserve" x="0" y="0" font-family="Sans" font-size="9" font-weight="400" font-style="normal" 
 > 800</text>
</g>

<g fill="none" stroke="#000000" stroke-opacity="1" stroke-width="1" stroke-linecap="square" stroke-linejoin="bevel" transform="matrix(1.00196,0,0,1.00196,780.025,613.7)"
font-family="Ubuntu" font-size="11" font-weight="400" font-style="normal" 
>
</g>

<g fill="none" stroke="#000000" stroke-opacity="1" stroke-width="1" stroke-linecap="square" stroke-linejoin="bevel" transform="matrix(1.00196,0,0,1.00196,0,0)"
font-family="Ubuntu" font-size="11" font-weight="400" font-style="normal" 
>
</g>

<g fill="none" stroke="#000000" stroke-opacity="1" stroke-width="1" stroke-linecap="round" stroke-linejoin="round" transform="matrix(1.00196,0,0,1.00196,0,0)"
font-family="Ubuntu" font-size="11" font-weight="400" font-style="normal" 
>
<polyline fill="none" vector-effect="none" points="978.5,593.5 978.5,587.5 " />
<polyline fill="none" vector-effect="none" points="978.5,15.5 978.5,21.5 " />
</g>

<g fill="none" stroke="#000000" stroke-opacity="1" stroke-width="1" stroke-linecap="square" stroke-linejoin="bevel" transform="matrix(1.00196,0,0,1.00196,0,0)"
font-family="Ubuntu" font-size="11" font-weight="400" font-style="normal" 
>
</g>

<g fill="none" stroke="#000000" stroke-opacity="1" stroke-width="1" stroke-linecap="square" stroke-linejoin="bevel" transform="matrix(1.00196,0,0,1.00196,962.381,613.7)"
font-family="Ubuntu" font-size="11" font-weight="400" font-style="normal" 
>
</g>

<g fill="none" stroke="#000000" stroke-opacity="1" stroke-width="1" stroke-linecap="square" stroke-linejoin="bevel" transform="matrix(1.00196,0,0,1.00196,962.381,613.7)"
font-family="Ubuntu" font-size="11" font-weight="400" font-style="normal" 
>
</g>

<g fill="none" stroke="#000000" stroke-opacity="1" stroke-width="1" stroke-linecap="square" stroke-linejoin="bevel" transform="matrix(1.00196,0,0,1.00196,962.381,613.7)"
font-family="Ubuntu" font-size="11" font-weight="400" font-style="normal" 
>
</g>

<g fill="none" stroke="#000000" stroke-opacity="1" stroke-width="1" stroke-linecap="square" stroke-linejoin="bevel" transform="matrix(1.00196,0,0,1.00196,962.381,613.7)"
font-family="Ubuntu" font-size="11" font-weight="400" font-style="normal" 
>
</g>

<g fill="none" stroke="#000000" stroke-opacity="1" stroke-width="1" stroke-linecap="square" stroke-linejoin="bevel" transform="matrix(1.00196,0,0,1.00196,962.381,613.7)"
font-family="Ubuntu" font-size="11" font-weight="400" font-style="normal" 
>
</g>

<g fill="none" stroke="#000000" stroke-opacity="1" stroke-width="1" stroke-linecap="square" stroke-linejoin="bevel" transform="matrix(1.00196,0,0,1.00196,962.381,613.7)"
font-family="Sans" font-size="9" font-weight="400" font-style="normal" 
>
<text fill="#000000" fill-opacity="1" stroke="none" xml:space="preserve" x="0" y="0" font-family="Sans" font-size="9" font-weight="400" font-style="normal" 
 > 1000</text>
</g>

<g fill="none" stroke="#000000" stroke-opacity="1" stroke-width="1" stroke-linecap="square" stroke-linejoin="bevel" transform="matrix(1.00196,0,0,1.00196,962.381,613.7)"
font-family="Ubuntu" font-size="11" font-weight="400" font-style="normal" 
>
</g>

<g fill="none" stroke="#000000" stroke-opacity="1" stroke-width="1" stroke-linecap="square" stroke-linejoin="bevel" transform="matrix(1.00196,0,0,1.00196,0,0)"
font-family="Ubuntu" font-size="11" font-weight="400" font-style="normal" 
>
</g>

<g fill="none" stroke="#000000" stroke-opacity="1" stroke-width="1" stroke-linecap="round" stroke-linejoin="round" transform="matrix(1.00196,0,0,1.00196,0,0)"
font-family="Ubuntu" font-size="11" font-weight="400" font-style="normal" 
>
<polyline fill="none" vector-effect="none" points="45.5,15.5 45.5,593.5 999.5,593.5 999.5,15.5 45.5,15.5 " />
</g>

<g fill="none" stroke="#000000" stroke-opacity="1" stroke-width="1" stroke-linecap="square" stroke-linejoin="bevel" transform="matrix(1.00196,0,0,1.00196,0,0)"
font-family="Ubuntu" font-size="11" font-weight="400" font-style="normal" 
>
</g>

<g fill="none" stroke="#000000" stroke-opacity="1" stroke-width="1" stroke-linecap="square" stroke-linejoin="bevel" transform="matrix(1.00196,0,0,1.00196,830.546,17.5343)"
font-family="Ubuntu" font-size="11" font-weight="400" font-style="normal" 
>
</g>

<g fill="none" stroke="#000000" stroke-opacity="1" stroke-width="1" stroke-linecap="square" stroke-linejoin="bevel" transform="matrix(1.00196,0,0,1.00196,830.546,17.5343)"
font-family="Ubuntu" font-size="11" font-weight="400" font-style="normal" 
>
</g>

<g fill="none" stroke="#000000" stroke-opacity="1" stroke-width="1" stroke-linecap="square" stroke-linejoin="bevel" transform="matrix(1.00196,0,0,1.00196,830.546,17.5343)"
font-family="Ubuntu" font-size="11" font-weight="400" font-style="normal" 
>
</g>

<g fill="none" stroke="#000000" stroke-opacity="1" stroke-width="1" stroke-linecap="square" stroke-linejoin="bevel" transform="matrix(1.00196,0,0,1.00196,830.546,17.5343)"
font-family="Ubuntu" font-size="11" font-weight="400" font-style="normal" 
>
<text fill="#000000" fill-opacity="1" stroke="none" xml:space="preserve" x="4" y="16" font-family="Sans" font-size="9" font-weight="400" font-style="normal" 
 >&quot;quadradic_1.dat&quot;</text>
</g>

<g fill="none" stroke="#000000" stroke-opacity="1" stroke-width="1" stroke-linecap="square" stroke-linejoin="bevel" transform="matrix(1.00196,0,0,1.00196,830.546,17.5343)"
font-family="Ubuntu" font-size="11" font-weight="400" font-style="normal" 
>
</g>

<g fill="none" stroke="#000000" stroke-opacity="1" stroke-width="1" stroke-linecap="square" stroke-linejoin="bevel" transform="matrix(1,0,0,1,0,0)"
font-family="Ubuntu" font-size="11" font-weight="400" font-style="normal" 
>
</g>

<g fill="none" stroke="#000000" stroke-opacity="1" stroke-width="1" stroke-linecap="square" stroke-linejoin="bevel" transform="matrix(1.00196,0,0,1.00196,830.546,17.5343)"
font-family="Ubuntu" font-size="11" font-weight="400" font-style="normal" 
>
</g>

<g fill="none" stroke="#000000" stroke-opacity="1" stroke-width="1" stroke-linecap="square" stroke-linejoin="bevel" transform="matrix(1.00196,0,0,1.00196,830.546,17.5343)"
font-family="Ubuntu" font-size="11" font-weight="400" font-style="normal" 
>
</g>

<g fill="none" stroke="#000000" stroke-opacity="1" stroke-width="1" stroke-linecap="square" stroke-linejoin="bevel" transform="matrix(1.00196,0,0,1.00196,830.546,17.5343)"
font-family="Ubuntu" font-size="11" font-weight="400" font-style="normal" 
>
</g>

<g fill="none" stroke="#000000" stroke-opacity="1" stroke-width="1" stroke-linecap="square" stroke-linejoin="bevel" transform="matrix(1.00196,0,0,1.00196,0,0)"
font-family="Ubuntu" font-size="11" font-weight="400" font-style="normal" 
>
</g>

<g fill="none" stroke="#9400d3" stroke-opacity="1" stroke-width="1" stroke-linecap="round" stroke-linejoin="round" transform="matrix(1.00196,0,0,1.00196,0,0)"
font-family="Ubuntu" font-size="11" font-weight="400" font-style="normal" 
>
<path vector-effect="none" fill-rule="evenodd" d="M951.5,28.5 L985.5,28.5"/>
</g>

<g fill="none" stroke="#000000" stroke-opacity="1" stroke-width="1" stroke-linecap="square" stroke-linejoin="bevel" transform="matrix(1.00196,0,0,1.00196,0,0)"
font-family="Ubuntu" font-size="11" font-weight="400" font-style="normal" 
>
</g>

<g fill="none" stroke="#000000" stroke-opacity="1" stroke-width="1" stroke-linecap="square" stroke-linejoin="bevel" transform="matrix(1.00196,0,0,1.00196,0,0)"
font-family="Ubuntu" font-size="11" font-weight="400" font-style="normal" 
>
</g>

<g fill="none" stroke="#000000" stroke-opacity="1" stroke-width="1" stroke-linecap="square" stroke-linejoin="bevel" transform="matrix(1.00196,0,0,1.00196,0,0)"
font-family="Ubuntu" font-size="11" font-weight="400" font-style="normal" 
>
</g>

<g fill="none" stroke="#000000" stroke-opacity="1" stroke-width="1" stroke-linecap="square" stroke-linejoin="bevel" transform="matrix(1.00196,0,0,1.00196,0,0)"
font-family="Ubuntu" font-size="11" font-weight="400" font-style="normal" 
>
</g>

<g fill="none" stroke="#9400d3" stroke-opacity="1" stroke-width="1" stroke-linecap="round" stroke-linejoin="round" transform="matrix(1.00196,0,0,1.00196,0,0)"
font-family="Ubuntu" font-size="11" font-weight="400" font-style="normal" 
>
<polyline fill="none" vector-effect="none" points="45.5,304 45.5,304 46.4,301.4 47.4,298.7 48.3,296.1 49.2,293.4 50.2,290.8 51.1,288.1 52,285.5 53,282.8 53.9,280.2 54.8,277.5 55.8,274.9 56.7,272.2 57.6,269.6 58.6,267 59.5,264.3 60.4,261.7 61.4,259.1 62.3,256.5 63.2,253.9 64.2,251.3 65.1,248.7 66,246.1 67,243.5 67.9,240.9 68.8,238.3 69.8,235.8 70.7,233.2 71.6,230.7 72.6,228.1 73.5,225.6 74.4,223.1 75.4,220.6 76.3,218.1 77.2,215.6 78.2,213.1 79.1,210.6 80,208.1 81,205.7 81.9,203.2 82.8,200.8 83.8,198.4 84.7,196 85.6,193.6 86.5,191.2 87.5,188.8 88.4,186.5 89.3,184.1 90.3,181.8 91.2,179.4 92.1,177.1 93.1,174.8 94,172.6 94.9,170.3 95.9,168 96.8,165.8 97.7,163.6 98.7,161.3 99.6,159.1 100.5,157 101.5,154.8 102.4,152.6 103.3,150.5 104.3,148.4 105.2,146.3 106.1,144.2 107.1,142.1 108,140.1 108.9,138 109.9,136 110.8,134 111.7,132 112.7,130 113.6,128.1 114.5,126.1 115.5,124.2 116.4,122.3 117.3,120.4 118.3,118.6 119.2,116.7 120.1,114.9 121.1,113.1 122,111.3 122.9,109.5 123.9,107.7 124.8,106 125.7,104.2 126.7,102.5 127.6,100.9 128.5,99.2 129.5,97.5 130.4,95.9 131.3,94.3 132.3,92.7 133.2,91.1 134.1,89.6 135.1,88 136,86.5 136.9,85 137.9,83.5 138.8,82.1 139.7,80.6 140.7,79.2 141.6,77.8 142.5,76.4 143.5,75 144.4,73.7 145.3,72.3 146.3,71 147.2,69.7 148.1,68.5 149.1,67.2 150,66 150.9,64.8 151.9,63.6 152.8,62.4 153.7,61.2 154.7,60.1 155.6,58.9 156.5,57.8 157.5,56.7 158.4,55.7 159.3,54.6 160.3,53.6 161.2,52.6 162.1,51.6 163.1,50.6 164,49.6 164.9,48.7 165.8,47.7 166.8,46.8 167.7,45.9 168.6,45 169.6,44.2 170.5,43.3 171.4,42.5 172.4,41.7 173.3,40.9 174.2,40.1 175.2,39.3 176.1,38.6 177,37.8 178,37.1 178.9,36.4 179.8,35.7 180.8,35.1 181.7,34.4 182.6,33.8 183.6,33.1 184.5,32.5 185.4,31.9 186.4,31.4 187.3,30.8 188.2,30.2 189.2,29.7 190.1,29.2 191,28.6 192,28.1 192.9,27.7 193.8,27.2 194.8,26.7 195.7,26.3 196.6,25.8 197.6,25.4 198.5,25 199.4,24.6 200.4,24.2 201.3,23.8 202.2,23.5 203.2,23.1 204.1,22.8 205,22.4 206,22.1 206.9,21.8 207.8,21.5 208.8,21.2 209.7,20.9 210.6,20.6 211.6,20.4 212.5,20.1 213.4,19.9 214.4,19.6 215.3,19.4 216.2,19.2 217.2,19 218.1,18.8 219,18.6 220,18.4 220.9,18.2 221.8,18 222.8,17.9 223.7,17.7 224.6,17.5 225.6,17.4 226.5,17.3 227.4,17.1 228.4,17 229.3,16.9 230.2,16.8 231.2,16.7 232.1,16.6 233,16.5 234,16.4 234.9,16.3 235.8,16.2 236.8,16.1 237.7,16 238.6,16 239.6,15.9 240.5,15.8 241.4,15.8 242.4,15.7 243.3,15.7 244.2,15.6 245.1,15.6 246.1,15.5 247,15.5 247.9,15.4 248.9,15.4 249.8,15.4 250.7,15.4 251.7,15.3 252.6,15.3 253.5,15.3 254.5,15.3 255.4,15.2 256.3,15.2 257.3,15.2 258.2,15.2 259.1,15.2 260.1,15.2 261,15.2 261.9,15.2 262.9,15.1 263.8,15.1 264.7,15.1 265.7,15.1 266.6,15.1 267.5,15.1 268.5,15.1 269.4,15.1 270.3,15.1 271.3,15.1 272.2,15.1 273.1,15.1 274.1,15.1 275,15.1 275.9,15.1 276.9,15.1 277.8,15.1 278.7,15.1 279.7,15.1 280.6,15.1 281.5,15.1 282.5,15.1 283.4,15.1 284.3,15.1 285.3,15.1 286.2,15.1 287.1,15.1 288.1,15.1 289,15.1 289.9,15.1 290.9,15.1 291.8,15.1 292.7,15.1 293.7,15.1 294.6,15.1 295.5,15.1 296.5,15.1 297.4,15.1 298.3,15.1 299.3,15.1 300.2,15.1 301.1,15.1 302.1,15.1 303,15.1 303.9,15.1 304.9,15.1 305.8,15.1 306.7,15.2 307.7,15.2 308.6,15.2 309.5,15.2 310.5,15.2 311.4,15.2 312.3,15.2 313.3,15.2 314.2,15.3 315.1,15.3 316.1,15.3 317,15.3 317.9,15.4 318.9,15.4 319.8,15.4 320.7,15.4 321.7,15.5 322.6,15.5 323.5,15.6 324.4,15.6 325.4,15.7 326.3,15.7 327.2,15.8 328.2,15.8 329.1,15.9 330,16 331,16 331.9,16.1 332.8,16.2 333.8,16.3 334.7,16.4 335.6,16.5 336.6,16.6 337.5,16.7 338.4,16.8 339.4,16.9 340.3,17 341.2,17.1 342.2,17.3 343.1,17.4 344,17.5 345,17.7 345.9,17.9 346.8,18 347.8,18.2 348.7,18.4 349.6,18.6 350.6,18.8 351.5,19 352.4,19.2 353.4,19.4 354.3,19.6 355.2,19.9 356.2,20.1 357.1,20.4 358,20.6 359,20.9 359.9,21.2 360.8,21.5 361.8,21.8 362.7,22.1 363.6,22.4 364.6,22.8 365.5,23.1 366.4,23.5 367.4,23.8 368.3,24.2 369.2,24.6 370.2,25 371.1,25.4 372,25.8 373,26.3 373.9,26.7 374.8,27.2 375.8,27.7 376.7,28.1 377.6,28.6 378.6,29.2 379.5,29.7 380.4,30.2 381.4,30.8 382.3,31.4 383.2,31.9 384.2,32.5 385.1,33.1 386,33.8 387,34.4 387.9,35.1 388.8,35.7 389.8,36.4 390.7,37.1 391.6,37.8 392.6,38.6 393.5,39.3 394.4,40.1 395.4,40.9 396.3,41.7 397.2,42.5 398.2,43.3 399.1,44.2 400,45 401,45.9 401.9,46.8 402.8,47.7 403.7,48.7 404.7,49.6 405.6,50.6 406.5,51.6 407.5,52.6 408.4,53.6 409.3,54.6 410.3,55.7 411.2,56.7 412.1,57.8 413.1,58.9 414,60.1 414.9,61.2 415.9,62.4 416.8,63.6 417.7,64.8 418.7,66 419.6,67.2 420.5,68.5 421.5,69.7 422.4,71 423.3,72.3 424.3,73.7 425.2,75 426.1,76.4 427.1,77.8 428,79.2 428.9,80.6 429.9,82.1 430.8,83.5 431.7,85 432.7,86.5 433.6,88 434.5,89.6 435.5,91.1 436.4,92.7 437.3,94.3 438.3,95.9 439.2,97.5 440.1,99.2 441.1,100.9 442,102.5 442.9,104.2 443.9,106 444.8,107.7 445.7,109.5 446.7,111.3 447.6,113.1 448.5,114.9 449.5,116.7 450.4,118.6 451.3,120.4 452.3,122.3 453.2,124.2 454.1,126.1 455.1,128.1 456,130 456.9,132 457.9,134 458.8,136 459.7,138 460.7,140.1 461.6,142.1 462.5,144.2 463.5,146.3 464.4,148.4 465.3,150.5 466.3,152.6 467.2,154.8 468.1,157 469.1,159.1 470,161.3 470.9,163.6 471.9,165.8 472.8,168 473.7,170.3 474.7,172.6 475.6,174.8 476.5,177.1 477.5,179.4 478.4,181.8 479.3,184.1 480.3,186.5 481.2,188.8 482.1,191.2 483,193.6 484,196 484.9,198.4 485.8,200.8 486.8,203.2 487.7,205.7 488.6,208.1 489.6,210.6 490.5,213.1 491.4,215.6 492.4,218.1 493.3,220.6 494.2,223.1 495.2,225.6 496.1,228.1 497,230.7 498,233.2 498.9,235.8 499.8,238.3 500.8,240.9 501.7,243.5 502.6,246.1 503.6,248.7 504.5,251.3 505.4,253.9 506.4,256.5 507.3,259.1 508.2,261.7 509.2,264.3 510.1,267 511,269.6 512,272.2 512.9,274.9 513.8,277.5 514.8,280.2 515.7,282.8 516.6,285.5 517.6,288.1 518.5,290.8 519.4,293.4 520.4,296.1 521.3,298.7 522.2,301.4 523.2,304.1 524.1,306.7 525,309.4 526,312 526.9,314.7 527.8,317.3 528.8,320 529.7,322.6 530.6,325.3 531.6,327.9 532.5,330.6 533.4,333.2 534.4,335.9 535.3,338.5 536.2,341.1 537.2,343.8 538.1,346.4 539,349 540,351.6 540.9,354.2 541.8,356.8 542.8,359.4 543.7,362 544.6,364.6 545.6,367.2 546.5,369.8 547.4,372.3 548.4,374.9 549.3,377.4 550.2,380 551.2,382.5 552.1,385 553,387.5 554,390 554.9,392.5 555.8,395 556.8,397.5 557.7,400 558.6,402.4 559.6,404.9 560.5,407.3 561.4,409.7 562.4,412.1 563.3,414.5 564.2,416.9 565.1,419.3 566.1,421.6 567,424 567.9,426.3 568.9,428.7 569.8,431 570.7,433.3 571.7,435.5 572.6,437.8 573.5,440.1 574.5,442.3 575.4,444.5 576.3,446.8 577.3,449 578.2,451.1 579.1,453.3 580.1,455.5 581,457.6 581.9,459.7 582.9,461.8 583.8,463.9 584.7,466 585.7,468 586.6,470.1 587.5,472.1 588.5,474.1 589.4,476.1 590.3,478.1 591.3,480 592.2,482 593.1,483.9 594.1,485.8 595,487.7 595.9,489.5 596.9,491.4 597.8,493.2 598.7,495 599.7,496.8 600.6,498.6 601.5,500.4 602.5,502.1 603.4,503.9 604.3,505.6 605.3,507.2 606.2,508.9 607.1,510.6 608.1,512.2 609,513.8 609.9,515.4 610.9,517 611.8,518.5 612.7,520.1 613.7,521.6 614.6,523.1 615.5,524.6 616.5,526 617.4,527.5 618.3,528.9 619.3,530.3 620.2,531.7 621.1,533.1 622.1,534.4 623,535.8 623.9,537.1 624.9,538.4 625.8,539.6 626.7,540.9 627.7,542.1 628.6,543.3 629.5,544.5 630.5,545.7 631.4,546.9 632.3,548 633.3,549.2 634.2,550.3 635.1,551.4 636.1,552.4 637,553.5 637.9,554.5 638.9,555.5 639.8,556.5 640.7,557.5 641.7,558.5 642.6,559.4 643.5,560.4 644.4,561.3 645.4,562.2 646.3,563.1 647.2,563.9 648.2,564.8 649.1,565.6 650,566.4 651,567.2 651.9,568 652.8,568.8 653.8,569.5 654.7,570.3 655.6,571 656.6,571.7 657.5,572.4 658.4,573 659.4,573.7 660.3,574.3 661.2,575 662.2,575.6 663.1,576.2 664,576.7 665,577.3 665.9,577.9 666.8,578.4 667.8,578.9 668.7,579.5 669.6,580 670.6,580.4 671.5,580.9 672.4,581.4 673.4,581.8 674.3,582.3 675.2,582.7 676.2,583.1 677.1,583.5 678,583.9 679,584.3 679.9,584.6 680.8,585 681.8,585.3 682.7,585.7 683.6,586 684.6,586.3 685.5,586.6 686.4,586.9 687.4,587.2 688.3,587.5 689.2,587.7 690.2,588 691.1,588.2 692,588.5 693,588.7 693.9,588.9 694.8,589.1 695.8,589.3 696.7,589.5 697.6,589.7 698.6,589.9 699.5,590.1 700.4,590.2 701.4,590.4 702.3,590.6 703.2,590.7 704.2,590.8 705.1,591 706,591.1 707,591.2 707.9,591.3 708.8,591.4 709.8,591.5 710.7,591.6 711.6,591.7 712.6,591.8 713.5,591.9 714.4,592 715.4,592.1 716.3,592.1 717.2,592.2 718.2,592.3 719.1,592.3 720,592.4 721,592.4 721.9,592.5 722.8,592.5 723.7,592.6 724.7,592.6 725.6,592.7 726.5,592.7 727.5,592.7 728.4,592.7 729.3,592.8 730.3,592.8 731.2,592.8 732.1,592.8 733.1,592.9 734,592.9 734.9,592.9 735.9,592.9 736.8,592.9 737.7,592.9 738.7,592.9 739.6,592.9 740.5,593 741.5,593 742.4,593 743.3,593 744.3,593 745.2,593 746.1,593 747.1,593 748,593 748.9,593 749.9,593 750.8,593 751.7,593 752.7,593 753.6,593 754.5,593 755.5,593 756.4,593 757.3,593 758.3,593 759.2,593 760.1,593 761.1,593 762,593 762.9,593 763.9,593 764.8,593 765.7,593 766.7,593 767.6,593 768.5,593 769.5,593 770.4,593 771.3,593 772.3,593 773.2,593 774.1,593 775.1,593 776,593 776.9,593 777.9,593 778.8,593 779.7,593 780.7,593 781.6,593 782.5,593 783.5,593 784.4,592.9 785.3,592.9 786.3,592.9 787.2,592.9 788.1,592.9 789.1,592.9 790,592.9 790.9,592.9 791.9,592.8 792.8,592.8 793.7,592.8 794.7,592.8 795.6,592.7 796.5,592.7 797.5,592.7 798.4,592.7 799.3,592.6 800.3,592.6 801.2,592.5 802.1,592.5 803,592.4 804,592.4 804.9,592.3 805.8,592.3 806.8,592.2 807.7,592.1 808.6,592.1 809.6,592 810.5,591.9 811.4,591.8 812.4,591.7 813.3,591.6 814.2,591.5 815.2,591.4 816.1,591.3 817,591.2 818,591.1 818.9,591 819.8,590.8 820.8,590.7 821.7,590.6 822.6,590.4 823.6,590.2 824.5,590.1 825.4,589.9 826.4,589.7 827.3,589.5 828.2,589.3 829.2,589.1 830.1,588.9 831,588.7 832,588.5 832.9,588.2 833.8,588 834.8,587.7 835.7,587.5 836.6,587.2 837.6,586.9 838.5,586.6 839.4,586.3 840.4,586 841.3,585.7 842.2,585.3 843.2,585 844.1,584.6 845,584.3 846,583.9 846.9,583.5 847.8,583.1 848.8,582.7 849.7,582.3 850.6,581.8 851.6,581.4 852.5,580.9 853.4,580.4 854.4,580 855.3,579.5 856.2,578.9 857.2,578.4 858.1,577.9 859,577.3 860,576.7 860.9,576.2 861.8,575.6 862.8,575 863.7,574.3 864.6,573.7 865.6,573 866.5,572.4 867.4,571.7 868.4,571 869.3,570.3 870.2,569.5 871.2,568.8 872.1,568 873,567.2 874,566.4 874.9,565.6 875.8,564.8 876.8,563.9 877.7,563.1 878.6,562.2 879.6,561.3 880.5,560.4 881.4,559.4 882.3,558.5 883.3,557.5 884.2,556.5 885.1,555.5 886.1,554.5 887,553.5 887.9,552.4 888.9,551.4 889.8,550.3 890.7,549.2 891.7,548 892.6,546.9 893.5,545.7 894.5,544.5 895.4,543.3 896.3,542.1 897.3,540.9 898.2,539.6 899.1,538.4 900.1,537.1 901,535.8 901.9,534.4 902.9,533.1 903.8,531.7 904.7,530.3 905.7,528.9 906.6,527.5 907.5,526 908.5,524.6 909.4,523.1 910.3,521.6 911.3,520.1 912.2,518.5 913.1,517 914.1,515.4 915,513.8 915.9,512.2 916.9,510.6 917.8,508.9 918.7,507.2 919.7,505.6 920.6,503.9 921.5,502.1 922.5,500.4 923.4,498.6 924.3,496.8 925.3,495 926.2,493.2 927.1,491.4 928.1,489.5 929,487.7 929.9,485.8 930.9,483.9 931.8,482 932.7,480 933.7,478.1 934.6,476.1 935.5,474.1 936.5,472.1 937.4,470.1 938.3,468 939.3,466 940.2,463.9 941.1,461.8 942.1,459.7 943,457.6 943.9,455.5 944.9,453.3 945.8,451.1 946.7,449 947.7,446.8 948.6,444.5 949.5,442.3 950.5,440.1 951.4,437.8 952.3,435.5 953.3,433.3 954.2,431 955.1,428.7 956.1,426.3 957,424 957.9,421.6 958.9,419.3 959.8,416.9 960.7,414.5 961.6,412.1 962.6,409.7 963.5,407.3 964.4,404.9 965.4,402.4 966.3,400 967.2,397.5 968.2,395 969.1,392.5 970,390 971,387.5 971.9,385 972.8,382.5 973.8,380 974.7,377.4 975.6,374.9 976.6,372.3 977.5,369.8 978.4,367.2 979.4,364.6 980.3,362 981.2,359.4 982.2,356.8 983.1,354.2 984,351.6 985,349 985.9,346.4 986.8,343.8 987.8,341.1 988.7,338.5 989.6,335.9 990.6,333.2 991.5,330.6 992.4,327.9 993.4,325.3 994.3,322.6 995.2,320 996.2,317.3 997.1,314.7 998,312 999,309.4 999.9,306.7 " />
</g>

<g fill="none" stroke="#000000" stroke-opacity="1" stroke-width="1" stroke-linecap="square" stroke-linejoin="bevel" transform="matrix(1.00196,0,0,1.00196,0,0)"
font-family="Ubuntu" font-size="11" font-weight="400" font-style="normal" 
>
</g>

<g fill="none" stroke="#000000" stroke-opacity="1" stroke-width="1" stroke-linecap="square" stroke-linejoin="bevel" transform="matrix(1.00196,0,0,1.00196,815.297,32.5637)"
font-family="Ubuntu" font-size="11" font-weight="400" font-style="normal" 
>
</g>

<g fill="none" stroke="#000000" stroke-opacity="1" stroke-width="1" stroke-linecap="square" stroke-linejoin="bevel" transform="matrix(1.00196,0,0,1.00196,815.297,32.5637)"
font-family="Ubuntu" font-size="11" font-weight="400" font-style="normal" 
>
</g>

<g fill="none" stroke="#000000" stroke-opacity="1" stroke-width="1" stroke-linecap="square" stroke-linejoin="bevel" transform="matrix(1.00196,0,0,1.00196,815.297,32.5637)"
font-family="Ubuntu" font-size="11" font-weight="400" font-style="normal" 
>
</g>

<g fill="none" stroke="#000000" stroke-opacity="1" stroke-width="1" stroke-linecap="square" stroke-linejoin="bevel" transform="matrix(1.00196,0,0,1.00196,815.297,32.5637)"
font-family="Ubuntu" font-size="11" font-weight="400" font-style="normal" 
>
<text fill="#000000" fill-opacity="1" stroke="none" xml:space="preserve" x="4" y="16" font-family="Sans" font-size="9" font-weight="400" font-style="normal" 
 >&quot;quadradic_3db.dat&quot;</text>
</g>

<g fill="none" stroke="#000000" stroke-opacity="1" stroke-width="1" stroke-linecap="square" stroke-linejoin="bevel" transform="matrix(1.00196,0,0,1.00196,815.297,32.5637)"
font-family="Ubuntu" font-size="11" font-weight="400" font-style="normal" 
>
</g>

<g fill="none" stroke="#000000" stroke-opacity="1" stroke-width="1" stroke-linecap="square" stroke-linejoin="bevel" transform="matrix(1,0,0,1,0,0)"
font-family="Ubuntu" font-size="11" font-weight="400" font-style="normal" 
>
</g>

<g fill="none" stroke="#000000" stroke-opacity="1" stroke-width="1" stroke-linecap="square" stroke-linejoin="bevel" transform="matrix(1.00196,0,0,1.00196,815.297,32.5637)"
font-family="Ubuntu" font-size="11" font-weight="400" font-style="normal" 
>
</g>

<g fill="none" stroke="#000000" stroke-opacity="1" stroke-width="1" stroke-linecap="square" stroke-linejoin="bevel" transform="matrix(1.00196,0,0,1.00196,815.297,32.5637)"
font-family="Ubuntu" font-size="11" font-weight="400" font-style="normal" 
>
</g>

<g fill="none" stroke="#000000" stroke-opacity="1" stroke-width="1" stroke-linecap="square" stroke-linejoin="bevel" transform="matrix(1.00196,0,0,1.00196,815.297,32.5637)"
font-family="Ubuntu" font-size="11" font-weight="400" font-style="normal" 
>
</g>

<g fill="none" stroke="#000000" stroke-opacity="1" stroke-width="1" stroke-linecap="square" stroke-linejoin="bevel" transform="matrix(1.00196,0,0,1.00196,0,0)"
font-family="Ubuntu" font-size="11" font-weight="400" font-style="normal" 
>
</g>

<g fill="none" stroke="#009e73" stroke-opacity="1" stroke-width="1" stroke-linecap="round" stroke-linejoin="round" transform="matrix(1.00196,0,0,1.00196,0,0)"
font-family="Ubuntu" font-size="11" font-weight="400" font-style="normal" 
>
<path vector-effect="none" fill-rule="evenodd" d="M951.5,43.5 L985.5,43.5"/>
</g>

<g fill="none" stroke="#000000" stroke-opacity="1" stroke-width="1" stroke-linecap="square" stroke-linejoin="bevel" transform="matrix(1.00196,0,0,1.00196,0,0)"
font-family="Ubuntu" font-size="11" font-weight="400" font-style="normal" 
>
</g>

<g fill="none" stroke="#000000" stroke-opacity="1" stroke-width="1" stroke-linecap="square" stroke-linejoin="bevel" transform="matrix(1.00196,0,0,1.00196,0,0)"
font-family="Ubuntu" font-size="11" font-weight="400" font-style="normal" 
>
</g>

<g fill="none" stroke="#000000" stroke-opacity="1" stroke-width="1" stroke-linecap="square" stroke-linejoin="bevel" transform="matrix(1.00196,0,0,1.00196,0,0)"
font-family="Ubuntu" font-size="11" font-weight="400" font-style="normal" 
>
</g>

<g fill="none" stroke="#000000" stroke-opacity="1" stroke-width="1" stroke-linecap="square" stroke-linejoin="bevel" transform="matrix(1.00196,0,0,1.00196,0,0)"
font-family="Ubuntu" font-size="11" font-weight="400" font-style="normal" 
>
</g>

<g fill="none" stroke="#009e73" stroke-opacity="1" stroke-width="1" stroke-linecap="round" stroke-linejoin="round" transform="matrix(1.00196,0,0,1.00196,0,0)"
font-family="Ubuntu" font-size="11" font-weight="400" font-style="normal" 
>
<polyline fill="none" vector-effect="none" points="45.5,304 45.5,304 46.4,300.3 47.4,296.5 48.3,292.8 49.2,289 50.2,285.3 51.1,281.5 52,277.8 53,274.1 53.9,270.3 54.8,266.6 55.8,262.9 56.7,259.2 57.6,255.5 58.6,251.8 59.5,248.1 60.4,244.4 61.4,240.8 62.3,237.1 63.2,233.5 64.2,229.9 65.1,226.2 66,222.6 67,219.1 67.9,215.5 68.8,212 69.8,208.4 70.7,204.9 71.6,201.4 72.6,197.9 73.5,194.5 74.4,191 75.4,187.6 76.3,184.2 77.2,180.9 78.2,177.5 79.1,174.2 80,170.9 81,167.6 81.9,164.4 82.8,161.1 83.8,157.9 84.7,154.8 85.6,151.6 86.5,148.5 87.5,145.4 88.4,142.3 89.3,139.3 90.3,136.3 91.2,133.3 92.1,130.4 93.1,127.5 94,124.6 94.9,121.7 95.9,118.9 96.8,116.1 97.7,113.4 98.7,110.6 99.6,108 100.5,105.3 101.5,102.7 102.4,100.1 103.3,97.6 104.3,95.1 105.2,92.6 106.1,90.1 107.1,87.7 108,85.4 108.9,83 109.9,80.8 110.8,78.5 111.7,76.3 112.7,74.1 113.6,72 114.5,69.9 115.5,67.8 116.4,65.8 117.3,63.8 118.3,61.9 119.2,60 120.1,58.1 121.1,56.3 122,54.5 122.9,52.7 123.9,51 124.8,49.4 125.7,47.8 126.7,46.2 127.6,44.6 128.5,43.1 129.5,41.7 130.4,40.2 131.3,38.9 132.3,37.5 133.2,36.2 134.1,35 135.1,33.7 136,32.6 136.9,31.4 137.9,30.3 138.8,29.3 139.7,28.2 140.7,27.3 141.6,26.3 142.5,25.4 143.5,24.6 144.4,23.7 145.3,23 146.3,22.2 147.2,21.5 148.1,20.8 149.1,20.2 150,19.6 150.9,19.1 151.9,18.5 152.8,18.1 153.7,17.6 154.7,17.2 155.6,16.9 156.5,16.5 157.5,16.2 158.4,16 159.3,15.7 160.3,15.5 161.2,15.4 162.1,15.3 163.1,15.2 164,15.1 164.9,15.1 165.8,15.1 166.8,15.1 167.7,15.1 168.6,15.1 169.6,15.1 170.5,15.1 171.4,15.1 172.4,15.1 173.3,15.1 174.2,15.1 175.2,15.1 176.1,15.1 177,15.1 178,15.1 178.9,15.1 179.8,15.1 180.8,15.1 181.7,15.1 182.6,15.1 183.6,15.1 184.5,15.1 185.4,15.1 186.4,15.1 187.3,15.1 188.2,15.1 189.2,15.1 190.1,15.1 191,15.1 192,15.1 192.9,15.1 193.8,15.1 194.8,15.1 195.7,15.1 196.6,15.1 197.6,15.1 198.5,15.1 199.4,15.1 200.4,15.1 201.3,15.1 202.2,15.1 203.2,15.1 204.1,15.1 205,15.1 206,15.1 206.9,15.1 207.8,15.1 208.8,15.1 209.7,15.1 210.6,15.1 211.6,15.1 212.5,15.1 213.4,15.1 214.4,15.1 215.3,15.1 216.2,15.1 217.2,15.1 218.1,15.1 219,15.1 220,15.1 220.9,15.1 221.8,15.1 222.8,15.1 223.7,15.1 224.6,15.1 225.6,15.1 226.5,15.1 227.4,15.1 228.4,15.1 229.3,15.1 230.2,15.1 231.2,15.1 232.1,15.1 233,15.1 234,15.1 234.9,15.1 235.8,15.1 236.8,15.1 237.7,15.1 238.6,15.1 239.6,15.1 240.5,15.1 241.4,15.1 242.4,15.1 243.3,15.1 244.2,15.1 245.1,15.1 246.1,15.1 247,15.1 247.9,15.1 248.9,15.1 249.8,15.1 250.7,15.1 251.7,15.1 252.6,15.1 253.5,15.1 254.5,15.1 255.4,15.1 256.3,15.1 257.3,15.1 258.2,15.1 259.1,15.1 260.1,15.1 261,15.1 261.9,15.1 262.9,15.1 263.8,15.1 264.7,15.1 265.7,15.1 266.6,15.1 267.5,15.1 268.5,15.1 269.4,15.1 270.3,15.1 271.3,15.1 272.2,15.1 273.1,15.1 274.1,15.1 275,15.1 275.9,15.1 276.9,15.1 277.8,15.1 278.7,15.1 279.7,15.1 280.6,15.1 281.5,15.1 282.5,15.1 283.4,15.1 284.3,15.1 285.3,15.1 286.2,15.1 287.1,15.1 288.1,15.1 289,15.1 289.9,15.1 290.9,15.1 291.8,15.1 292.7,15.1 293.7,15.1 294.6,15.1 295.5,15.1 296.5,15.1 297.4,15.1 298.3,15.1 299.3,15.1 300.2,15.1 301.1,15.1 302.1,15.1 303,15.1 303.9,15.1 304.9,15.1 305.8,15.1 306.7,15.1 307.7,15.1 308.6,15.1 309.5,15.1 310.5,15.1 311.4,15.1 312.3,15.1 313.3,15.1 314.2,15.1 315.1,15.1 316.1,15.1 317,15.1 317.9,15.1 318.9,15.1 319.8,15.1 320.7,15.1 321.7,15.1 322.6,15.1 323.5,15.1 324.4,15.1 325.4,15.1 326.3,15.1 327.2,15.1 328.2,15.1 329.1,15.1 330,15.1 331,15.1 331.9,15.1 332.8,15.1 333.8,15.1 334.7,15.1 335.6,15.1 336.6,15.1 337.5,15.1 338.4,15.1 339.4,15.1 340.3,15.1 341.2,15.1 342.2,15.1 343.1,15.1 344,15.1 345,15.1 345.9,15.1 346.8,15.1 347.8,15.1 348.7,15.1 349.6,15.1 350.6,15.1 351.5,15.1 352.4,15.1 353.4,15.1 354.3,15.1 355.2,15.1 356.2,15.1 357.1,15.1 358,15.1 359,15.1 359.9,15.1 360.8,15.1 361.8,15.1 362.7,15.1 363.6,15.1 364.6,15.1 365.5,15.1 366.4,15.1 367.4,15.1 368.3,15.1 369.2,15.1 370.2,15.1 371.1,15.1 372,15.1 373,15.1 373.9,15.1 374.8,15.1 375.8,15.1 376.7,15.1 377.6,15.1 378.6,15.1 379.5,15.1 380.4,15.1 381.4,15.1 382.3,15.1 383.2,15.1 384.2,15.1 385.1,15.1 386,15.1 387,15.1 387.9,15.1 388.8,15.1 389.8,15.1 390.7,15.1 391.6,15.1 392.6,15.1 393.5,15.1 394.4,15.1 395.4,15.1 396.3,15.1 397.2,15.1 398.2,15.1 399.1,15.1 400,15.1 401,15.1 401.9,15.1 402.8,15.1 403.7,15.1 404.7,15.1 405.6,15.2 406.5,15.3 407.5,15.4 408.4,15.5 409.3,15.7 410.3,16 411.2,16.2 412.1,16.5 413.1,16.9 414,17.2 414.9,17.6 415.9,18.1 416.8,18.5 417.7,19.1 418.7,19.6 419.6,20.2 420.5,20.8 421.5,21.5 422.4,22.2 423.3,23 424.3,23.7 425.2,24.6 426.1,25.4 427.1,26.3 428,27.3 428.9,28.2 429.9,29.3 430.8,30.3 431.7,31.4 432.7,32.6 433.6,33.7 434.5,35 435.5,36.2 436.4,37.5 437.3,38.9 438.3,40.2 439.2,41.7 440.1,43.1 441.1,44.6 442,46.2 442.9,47.8 443.9,49.4 444.8,51 445.7,52.7 446.7,54.5 447.6,56.3 448.5,58.1 449.5,60 450.4,61.9 451.3,63.8 452.3,65.8 453.2,67.8 454.1,69.9 455.1,72 456,74.1 456.9,76.3 457.9,78.5 458.8,80.8 459.7,83 460.7,85.4 461.6,87.7 462.5,90.1 463.5,92.6 464.4,95.1 465.3,97.6 466.3,100.1 467.2,102.7 468.1,105.3 469.1,108 470,110.6 470.9,113.4 471.9,116.1 472.8,118.9 473.7,121.7 474.7,124.6 475.6,127.5 476.5,130.4 477.5,133.3 478.4,136.3 479.3,139.3 480.3,142.3 481.2,145.4 482.1,148.5 483,151.6 484,154.8 484.9,157.9 485.8,161.1 486.8,164.4 487.7,167.6 488.6,170.9 489.6,174.2 490.5,177.5 491.4,180.9 492.4,184.2 493.3,187.6 494.2,191 495.2,194.5 496.1,197.9 497,201.4 498,204.9 498.9,208.4 499.8,212 500.8,215.5 501.7,219.1 502.6,222.6 503.6,226.2 504.5,229.9 505.4,233.5 506.4,237.1 507.3,240.8 508.2,244.4 509.2,248.1 510.1,251.8 511,255.5 512,259.2 512.9,262.9 513.8,266.6 514.8,270.3 515.7,274.1 516.6,277.8 517.6,281.5 518.5,285.3 519.4,289 520.4,292.8 521.3,296.5 522.2,300.3 523.2,304.1 524.1,307.8 525,311.6 526,315.3 526.9,319.1 527.8,322.8 528.8,326.6 529.7,330.3 530.6,334 531.6,337.8 532.5,341.5 533.4,345.2 534.4,348.9 535.3,352.6 536.2,356.3 537.2,360 538.1,363.7 539,367.3 540,371 540.9,374.6 541.8,378.2 542.8,381.9 543.7,385.5 544.6,389 545.6,392.6 546.5,396.1 547.4,399.7 548.4,403.2 549.3,406.7 550.2,410.2 551.2,413.6 552.1,417.1 553,420.5 554,423.9 554.9,427.2 555.8,430.6 556.8,433.9 557.7,437.2 558.6,440.5 559.6,443.7 560.5,447 561.4,450.2 562.4,453.3 563.3,456.5 564.2,459.6 565.1,462.7 566.1,465.8 567,468.8 567.9,471.8 568.9,474.8 569.8,477.7 570.7,480.6 571.7,483.5 572.6,486.4 573.5,489.2 574.5,492 575.4,494.7 576.3,497.5 577.3,500.1 578.2,502.8 579.1,505.4 580.1,508 581,510.5 581.9,513 582.9,515.5 583.8,518 584.7,520.4 585.7,522.7 586.6,525.1 587.5,527.3 588.5,529.6 589.4,531.8 590.3,534 591.3,536.1 592.2,538.2 593.1,540.3 594.1,542.3 595,544.3 595.9,546.2 596.9,548.1 597.8,550 598.7,551.8 599.7,553.6 600.6,555.4 601.5,557.1 602.5,558.7 603.4,560.3 604.3,561.9 605.3,563.5 606.2,565 607.1,566.4 608.1,567.9 609,569.2 609.9,570.6 610.9,571.9 611.8,573.1 612.7,574.4 613.7,575.5 614.6,576.7 615.5,577.8 616.5,578.8 617.4,579.9 618.3,580.8 619.3,581.8 620.2,582.7 621.1,583.5 622.1,584.4 623,585.1 623.9,585.9 624.9,586.6 625.8,587.3 626.7,587.9 627.7,588.5 628.6,589 629.5,589.6 630.5,590 631.4,590.5 632.3,590.9 633.3,591.2 634.2,591.6 635.1,591.9 636.1,592.1 637,592.4 637.9,592.6 638.9,592.7 639.8,592.8 640.7,592.9 641.7,593 642.6,593 643.5,593 644.4,593 645.4,593 646.3,593 647.2,593 648.2,593 649.1,593 650,593 651,593 651.9,593 652.8,593 653.8,593 654.7,593 655.6,593 656.6,593 657.5,593 658.4,593 659.4,593 660.3,593 661.2,593 662.2,593 663.1,593 664,593 665,593 665.9,593 666.8,593 667.8,593 668.7,593 669.6,593 670.6,593 671.5,593 672.4,593 673.4,593 674.3,593 675.2,593 676.2,593 677.1,593 678,593 679,593 679.9,593 680.8,593 681.8,593 682.7,593 683.6,593 684.6,593 685.5,593 686.4,593 687.4,593 688.3,593 689.2,593 690.2,593 691.1,593 692,593 693,593 693.9,593 694.8,593 695.8,593 696.7,593 697.6,593 698.6,593 699.5,593 700.4,593 701.4,593 702.3,593 703.2,593 704.2,593 705.1,593 706,593 707,593 707.9,593 708.8,593 709.8,593 710.7,593 711.6,593 712.6,593 713.5,593 714.4,593 715.4,593 716.3,593 717.2,593 718.2,593 719.1,593 720,593 721,593 721.9,593 722.8,593 723.7,593 724.7,593 725.6,593 726.5,593 727.5,593 728.4,593 729.3,593 730.3,593 731.2,593 732.1,593 733.1,593 734,593 734.9,593 735.9,593 736.8,593 737.7,593 738.7,593 739.6,593 740.5,593 741.5,593 742.4,593 743.3,593 744.3,593 745.2,593 746.1,593 747.1,593 748,593 748.9,593 749.9,593 750.8,593 751.7,593 752.7,593 753.6,593 754.5,593 755.5,593 756.4,593 757.3,593 758.3,593 759.2,593 760.1,593 761.1,593 762,593 762.9,593 763.9,593 764.8,593 765.7,593 766.7,593 767.6,593 768.5,593 769.5,593 770.4,593 771.3,593 772.3,593 773.2,593 774.1,593 775.1,593 776,593 776.9,593 777.9,593 778.8,593 779.7,593 780.7,593 781.6,593 782.5,593 783.5,593 784.4,593 785.3,593 786.3,593 787.2,593 788.1,593 789.1,593 790,593 790.9,593 791.9,593 792.8,593 793.7,593 794.7,593 795.6,593 796.5,593 797.5,593 798.4,593 799.3,593 800.3,593 801.2,593 802.1,593 803,593 804,593 804.9,593 805.8,593 806.8,593 807.7,593 808.6,593 809.6,593 810.5,593 811.4,593 812.4,593 813.3,593 814.2,593 815.2,593 816.1,593 817,593 818,593 818.9,593 819.8,593 820.8,593 821.7,593 822.6,593 823.6,593 824.5,593 825.4,593 826.4,593 827.3,593 828.2,593 829.2,593 830.1,593 831,593 832,593 832.9,593 833.8,593 834.8,593 835.7,593 836.6,593 837.6,593 838.5,593 839.4,593 840.4,593 841.3,593 842.2,593 843.2,593 844.1,593 845,593 846,593 846.9,593 847.8,593 848.8,593 849.7,593 850.6,593 851.6,593 852.5,593 853.4,593 854.4,593 855.3,593 856.2,593 857.2,593 858.1,593 859,593 860,593 860.9,593 861.8,593 862.8,593 863.7,593 864.6,593 865.6,593 866.5,593 867.4,593 868.4,593 869.3,593 870.2,593 871.2,593 872.1,593 873,593 874,593 874.9,593 875.8,593 876.8,593 877.7,593 878.6,593 879.6,593 880.5,593 881.4,593 882.3,593 883.3,592.9 884.2,592.8 885.1,592.7 886.1,592.6 887,592.4 887.9,592.1 888.9,591.9 889.8,591.6 890.7,591.2 891.7,590.9 892.6,590.5 893.5,590 894.5,589.6 895.4,589 896.3,588.5 897.3,587.9 898.2,587.3 899.1,586.6 900.1,585.9 901,585.1 901.9,584.4 902.9,583.5 903.8,582.7 904.7,581.8 905.7,580.8 906.6,579.9 907.5,578.8 908.5,577.8 909.4,576.7 910.3,575.5 911.3,574.4 912.2,573.1 913.1,571.9 914.1,570.6 915,569.2 915.9,567.9 916.9,566.4 917.8,565 918.7,563.5 919.7,561.9 920.6,560.3 921.5,558.7 922.5,557.1 923.4,555.4 924.3,553.6 925.3,551.8 926.2,550 927.1,548.1 928.1,546.2 929,544.3 929.9,542.3 930.9,540.3 931.8,538.2 932.7,536.1 933.7,534 934.6,531.8 935.5,529.6 936.5,527.3 937.4,525.1 938.3,522.7 939.3,520.4 940.2,518 941.1,515.5 942.1,513 943,510.5 943.9,508 944.9,505.4 945.8,502.8 946.7,500.1 947.7,497.5 948.6,494.7 949.5,492 950.5,489.2 951.4,486.4 952.3,483.5 953.3,480.6 954.2,477.7 955.1,474.8 956.1,471.8 957,468.8 957.9,465.8 958.9,462.7 959.8,459.6 960.7,456.5 961.6,453.3 962.6,450.2 963.5,447 964.4,443.7 965.4,440.5 966.3,437.2 967.2,433.9 968.2,430.6 969.1,427.2 970,423.9 971,420.5 971.9,417.1 972.8,413.6 973.8,410.2 974.7,406.7 975.6,403.2 976.6,399.7 977.5,396.1 978.4,392.6 979.4,389 980.3,385.5 981.2,381.9 982.2,378.2 983.1,374.6 984,371 985,367.3 985.9,363.7 986.8,360 987.8,356.3 988.7,352.6 989.6,348.9 990.6,345.2 991.5,341.5 992.4,337.8 993.4,334 994.3,330.3 995.2,326.6 996.2,322.8 997.1,319.1 998,315.3 999,311.6 999.9,307.8 " />
</g>

<g fill="none" stroke="#000000" stroke-opacity="1" stroke-width="1" stroke-linecap="square" stroke-linejoin="bevel" transform="matrix(1.00196,0,0,1.00196,0,0)"
font-family="Ubuntu" font-size="11" font-weight="400" font-style="normal" 
>
</g>

<g fill="none" stroke="#000000" stroke-opacity="1" stroke-width="1" stroke-linecap="square" stroke-linejoin="bevel" transform="matrix(1.00196,0,0,1.00196,0,0)"
font-family="Ubuntu" font-size="11" font-weight="400" font-style="normal" 
>
</g>

<g fill="none" stroke="#000000" stroke-opacity="1" stroke-width="1" stroke-linecap="round" stroke-linejoin="round" transform="matrix(1.00196,0,0,1.00196,0,0)"
font-family="Ubuntu" font-size="11" font-weight="400" font-style="normal" 
>
<polyline fill="none" vector-effect="none" points="45.5,15.5 45.5,593.5 999.5,593.5 999.5,15.5 45.5,15.5 " />
</g>

<g fill="none" stroke="#000000" stroke-opacity="1" stroke-width="1" stroke-linecap="square" stroke-linejoin="bevel" transform="matrix(1.00196,0,0,1.00196,0,0)"
font-family="Ubuntu" font-size="11" font-weight="400" font-style="normal" 
>
</g>

<g fill="none" stroke="#000000" stroke-opacity="1" stroke-width="1" stroke-linecap="square" stroke-linejoin="bevel" transform="matrix(1,0,0,1,0,0)"
font-family="Ubuntu" font-size="11" font-weight="400" font-style="normal" 
>
</g>
</g>
</svg>
