<?xml version="1.0" encoding="UTF-8" standalone="no"?>
<svg width="344.311mm" height="212.725mm"
 viewBox="0 0 976 603"
 xmlns="http://www.w3.org/2000/svg" xmlns:xlink="http://www.w3.org/1999/xlink"  version="1.2" baseProfile="tiny">
<title>Qt SVG Document</title>
<desc>Generated with Qt</desc>
<defs>
</defs>
<g fill="none" stroke="black" stroke-width="1" fill-rule="evenodd" stroke-linecap="square" stroke-linejoin="bevel" >

<g fill="none" stroke="#000000" stroke-opacity="1" stroke-width="1" stroke-linecap="square" stroke-linejoin="bevel" transform="matrix(1,0,0,1,0,0)"
font-family="Ubuntu" font-size="11" font-weight="400" font-style="normal" 
>
</g>

<g fill="none" stroke="#000000" stroke-opacity="1" stroke-width="1" stroke-linecap="square" stroke-linejoin="bevel" transform="matrix(1.00205,0,0,1.00205,0,0)"
font-family="Ubuntu" font-size="11" font-weight="400" font-style="normal" 
>
</g>

<g fill="none" stroke="#000000" stroke-opacity="1" stroke-width="1" stroke-linecap="round" stroke-linejoin="round" transform="matrix(1.00205,0,0,1.00205,0,0)"
font-family="Ubuntu" font-size="11" font-weight="400" font-style="normal" 
>
<polyline fill="none" vector-effect="none" points="45.5,571.5 51.5,571.5 " />
<polyline fill="none" vector-effect="none" points="952.5,571.5 946.5,571.5 " />
</g>

<g fill="none" stroke="#000000" stroke-opacity="1" stroke-width="1" stroke-linecap="square" stroke-linejoin="bevel" transform="matrix(1.00205,0,0,1.00205,0,0)"
font-family="Ubuntu" font-size="11" font-weight="400" font-style="normal" 
>
</g>

<g fill="none" stroke="#000000" stroke-opacity="1" stroke-width="1" stroke-linecap="square" stroke-linejoin="bevel" transform="matrix(1.00205,0,0,1.00205,28.0575,576.682)"
font-family="Ubuntu" font-size="11" font-weight="400" font-style="normal" 
>
</g>

<g fill="none" stroke="#000000" stroke-opacity="1" stroke-width="1" stroke-linecap="square" stroke-linejoin="bevel" transform="matrix(1.00205,0,0,1.00205,28.0575,576.682)"
font-family="Ubuntu" font-size="11" font-weight="400" font-style="normal" 
>
</g>

<g fill="none" stroke="#000000" stroke-opacity="1" stroke-width="1" stroke-linecap="square" stroke-linejoin="bevel" transform="matrix(1.00205,0,0,1.00205,28.0575,576.682)"
font-family="Ubuntu" font-size="11" font-weight="400" font-style="normal" 
>
</g>

<g fill="none" stroke="#000000" stroke-opacity="1" stroke-width="1" stroke-linecap="square" stroke-linejoin="bevel" transform="matrix(1.00205,0,0,1.00205,28.0575,576.682)"
font-family="Ubuntu" font-size="11" font-weight="400" font-style="normal" 
>
</g>

<g fill="none" stroke="#000000" stroke-opacity="1" stroke-width="1" stroke-linecap="square" stroke-linejoin="bevel" transform="matrix(1.00205,0,0,1.00205,28.0575,576.682)"
font-family="Ubuntu" font-size="11" font-weight="400" font-style="normal" 
>
</g>

<g fill="none" stroke="#000000" stroke-opacity="1" stroke-width="1" stroke-linecap="square" stroke-linejoin="bevel" transform="matrix(1.00205,0,0,1.00205,28.0575,576.682)"
font-family="Sans" font-size="9" font-weight="400" font-style="normal" 
>
<text fill="#000000" fill-opacity="1" stroke="none" xml:space="preserve" x="0" y="0" font-family="Sans" font-size="9" font-weight="400" font-style="normal" 
 >-1</text>
</g>

<g fill="none" stroke="#000000" stroke-opacity="1" stroke-width="1" stroke-linecap="square" stroke-linejoin="bevel" transform="matrix(1.00205,0,0,1.00205,28.0575,576.682)"
font-family="Ubuntu" font-size="11" font-weight="400" font-style="normal" 
>
</g>

<g fill="none" stroke="#000000" stroke-opacity="1" stroke-width="1" stroke-linecap="square" stroke-linejoin="bevel" transform="matrix(1.00205,0,0,1.00205,0,0)"
font-family="Ubuntu" font-size="11" font-weight="400" font-style="normal" 
>
</g>

<g fill="none" stroke="#000000" stroke-opacity="1" stroke-width="1" stroke-linecap="round" stroke-linejoin="round" transform="matrix(1.00205,0,0,1.00205,0,0)"
font-family="Ubuntu" font-size="11" font-weight="400" font-style="normal" 
>
<polyline fill="none" vector-effect="none" points="45.5,432.5 51.5,432.5 " />
<polyline fill="none" vector-effect="none" points="952.5,432.5 946.5,432.5 " />
</g>

<g fill="none" stroke="#000000" stroke-opacity="1" stroke-width="1" stroke-linecap="square" stroke-linejoin="bevel" transform="matrix(1.00205,0,0,1.00205,0,0)"
font-family="Ubuntu" font-size="11" font-weight="400" font-style="normal" 
>
</g>

<g fill="none" stroke="#000000" stroke-opacity="1" stroke-width="1" stroke-linecap="square" stroke-linejoin="bevel" transform="matrix(1.00205,0,0,1.00205,16.0329,437.396)"
font-family="Ubuntu" font-size="11" font-weight="400" font-style="normal" 
>
</g>

<g fill="none" stroke="#000000" stroke-opacity="1" stroke-width="1" stroke-linecap="square" stroke-linejoin="bevel" transform="matrix(1.00205,0,0,1.00205,16.0329,437.396)"
font-family="Ubuntu" font-size="11" font-weight="400" font-style="normal" 
>
</g>

<g fill="none" stroke="#000000" stroke-opacity="1" stroke-width="1" stroke-linecap="square" stroke-linejoin="bevel" transform="matrix(1.00205,0,0,1.00205,16.0329,437.396)"
font-family="Ubuntu" font-size="11" font-weight="400" font-style="normal" 
>
</g>

<g fill="none" stroke="#000000" stroke-opacity="1" stroke-width="1" stroke-linecap="square" stroke-linejoin="bevel" transform="matrix(1.00205,0,0,1.00205,16.0329,437.396)"
font-family="Ubuntu" font-size="11" font-weight="400" font-style="normal" 
>
</g>

<g fill="none" stroke="#000000" stroke-opacity="1" stroke-width="1" stroke-linecap="square" stroke-linejoin="bevel" transform="matrix(1.00205,0,0,1.00205,16.0329,437.396)"
font-family="Ubuntu" font-size="11" font-weight="400" font-style="normal" 
>
</g>

<g fill="none" stroke="#000000" stroke-opacity="1" stroke-width="1" stroke-linecap="square" stroke-linejoin="bevel" transform="matrix(1.00205,0,0,1.00205,16.0329,437.396)"
font-family="Sans" font-size="9" font-weight="400" font-style="normal" 
>
<text fill="#000000" fill-opacity="1" stroke="none" xml:space="preserve" x="0" y="0" font-family="Sans" font-size="9" font-weight="400" font-style="normal" 
 >-0.5</text>
</g>

<g fill="none" stroke="#000000" stroke-opacity="1" stroke-width="1" stroke-linecap="square" stroke-linejoin="bevel" transform="matrix(1.00205,0,0,1.00205,16.0329,437.396)"
font-family="Ubuntu" font-size="11" font-weight="400" font-style="normal" 
>
</g>

<g fill="none" stroke="#000000" stroke-opacity="1" stroke-width="1" stroke-linecap="square" stroke-linejoin="bevel" transform="matrix(1.00205,0,0,1.00205,0,0)"
font-family="Ubuntu" font-size="11" font-weight="400" font-style="normal" 
>
</g>

<g fill="none" stroke="#000000" stroke-opacity="1" stroke-width="1" stroke-linecap="round" stroke-linejoin="round" transform="matrix(1.00205,0,0,1.00205,0,0)"
font-family="Ubuntu" font-size="11" font-weight="400" font-style="normal" 
>
<polyline fill="none" vector-effect="none" points="45.5,293.5 51.5,293.5 " />
<polyline fill="none" vector-effect="none" points="952.5,293.5 946.5,293.5 " />
</g>

<g fill="none" stroke="#000000" stroke-opacity="1" stroke-width="1" stroke-linecap="square" stroke-linejoin="bevel" transform="matrix(1.00205,0,0,1.00205,0,0)"
font-family="Ubuntu" font-size="11" font-weight="400" font-style="normal" 
>
</g>

<g fill="none" stroke="#000000" stroke-opacity="1" stroke-width="1" stroke-linecap="square" stroke-linejoin="bevel" transform="matrix(1.00205,0,0,1.00205,28.0575,298.111)"
font-family="Ubuntu" font-size="11" font-weight="400" font-style="normal" 
>
</g>

<g fill="none" stroke="#000000" stroke-opacity="1" stroke-width="1" stroke-linecap="square" stroke-linejoin="bevel" transform="matrix(1.00205,0,0,1.00205,28.0575,298.111)"
font-family="Ubuntu" font-size="11" font-weight="400" font-style="normal" 
>
</g>

<g fill="none" stroke="#000000" stroke-opacity="1" stroke-width="1" stroke-linecap="square" stroke-linejoin="bevel" transform="matrix(1.00205,0,0,1.00205,28.0575,298.111)"
font-family="Ubuntu" font-size="11" font-weight="400" font-style="normal" 
>
</g>

<g fill="none" stroke="#000000" stroke-opacity="1" stroke-width="1" stroke-linecap="square" stroke-linejoin="bevel" transform="matrix(1.00205,0,0,1.00205,28.0575,298.111)"
font-family="Ubuntu" font-size="11" font-weight="400" font-style="normal" 
>
</g>

<g fill="none" stroke="#000000" stroke-opacity="1" stroke-width="1" stroke-linecap="square" stroke-linejoin="bevel" transform="matrix(1.00205,0,0,1.00205,28.0575,298.111)"
font-family="Ubuntu" font-size="11" font-weight="400" font-style="normal" 
>
</g>

<g fill="none" stroke="#000000" stroke-opacity="1" stroke-width="1" stroke-linecap="square" stroke-linejoin="bevel" transform="matrix(1.00205,0,0,1.00205,28.0575,298.111)"
font-family="Sans" font-size="9" font-weight="400" font-style="normal" 
>
<text fill="#000000" fill-opacity="1" stroke="none" xml:space="preserve" x="0" y="0" font-family="Sans" font-size="9" font-weight="400" font-style="normal" 
 > 0</text>
</g>

<g fill="none" stroke="#000000" stroke-opacity="1" stroke-width="1" stroke-linecap="square" stroke-linejoin="bevel" transform="matrix(1.00205,0,0,1.00205,28.0575,298.111)"
font-family="Ubuntu" font-size="11" font-weight="400" font-style="normal" 
>
</g>

<g fill="none" stroke="#000000" stroke-opacity="1" stroke-width="1" stroke-linecap="square" stroke-linejoin="bevel" transform="matrix(1.00205,0,0,1.00205,0,0)"
font-family="Ubuntu" font-size="11" font-weight="400" font-style="normal" 
>
</g>

<g fill="none" stroke="#000000" stroke-opacity="1" stroke-width="1" stroke-linecap="round" stroke-linejoin="round" transform="matrix(1.00205,0,0,1.00205,0,0)"
font-family="Ubuntu" font-size="11" font-weight="400" font-style="normal" 
>
<polyline fill="none" vector-effect="none" points="45.5,154.5 51.5,154.5 " />
<polyline fill="none" vector-effect="none" points="952.5,154.5 946.5,154.5 " />
</g>

<g fill="none" stroke="#000000" stroke-opacity="1" stroke-width="1" stroke-linecap="square" stroke-linejoin="bevel" transform="matrix(1.00205,0,0,1.00205,0,0)"
font-family="Ubuntu" font-size="11" font-weight="400" font-style="normal" 
>
</g>

<g fill="none" stroke="#000000" stroke-opacity="1" stroke-width="1" stroke-linecap="square" stroke-linejoin="bevel" transform="matrix(1.00205,0,0,1.00205,16.0329,158.825)"
font-family="Ubuntu" font-size="11" font-weight="400" font-style="normal" 
>
</g>

<g fill="none" stroke="#000000" stroke-opacity="1" stroke-width="1" stroke-linecap="square" stroke-linejoin="bevel" transform="matrix(1.00205,0,0,1.00205,16.0329,158.825)"
font-family="Ubuntu" font-size="11" font-weight="400" font-style="normal" 
>
</g>

<g fill="none" stroke="#000000" stroke-opacity="1" stroke-width="1" stroke-linecap="square" stroke-linejoin="bevel" transform="matrix(1.00205,0,0,1.00205,16.0329,158.825)"
font-family="Ubuntu" font-size="11" font-weight="400" font-style="normal" 
>
</g>

<g fill="none" stroke="#000000" stroke-opacity="1" stroke-width="1" stroke-linecap="square" stroke-linejoin="bevel" transform="matrix(1.00205,0,0,1.00205,16.0329,158.825)"
font-family="Ubuntu" font-size="11" font-weight="400" font-style="normal" 
>
</g>

<g fill="none" stroke="#000000" stroke-opacity="1" stroke-width="1" stroke-linecap="square" stroke-linejoin="bevel" transform="matrix(1.00205,0,0,1.00205,16.0329,158.825)"
font-family="Ubuntu" font-size="11" font-weight="400" font-style="normal" 
>
</g>

<g fill="none" stroke="#000000" stroke-opacity="1" stroke-width="1" stroke-linecap="square" stroke-linejoin="bevel" transform="matrix(1.00205,0,0,1.00205,16.0329,158.825)"
font-family="Sans" font-size="9" font-weight="400" font-style="normal" 
>
<text fill="#000000" fill-opacity="1" stroke="none" xml:space="preserve" x="0" y="0" font-family="Sans" font-size="9" font-weight="400" font-style="normal" 
 > 0.5</text>
</g>

<g fill="none" stroke="#000000" stroke-opacity="1" stroke-width="1" stroke-linecap="square" stroke-linejoin="bevel" transform="matrix(1.00205,0,0,1.00205,16.0329,158.825)"
font-family="Ubuntu" font-size="11" font-weight="400" font-style="normal" 
>
</g>

<g fill="none" stroke="#000000" stroke-opacity="1" stroke-width="1" stroke-linecap="square" stroke-linejoin="bevel" transform="matrix(1.00205,0,0,1.00205,0,0)"
font-family="Ubuntu" font-size="11" font-weight="400" font-style="normal" 
>
</g>

<g fill="none" stroke="#000000" stroke-opacity="1" stroke-width="1" stroke-linecap="round" stroke-linejoin="round" transform="matrix(1.00205,0,0,1.00205,0,0)"
font-family="Ubuntu" font-size="11" font-weight="400" font-style="normal" 
>
<polyline fill="none" vector-effect="none" points="45.5,15.5 51.5,15.5 " />
<polyline fill="none" vector-effect="none" points="952.5,15.5 946.5,15.5 " />
</g>

<g fill="none" stroke="#000000" stroke-opacity="1" stroke-width="1" stroke-linecap="square" stroke-linejoin="bevel" transform="matrix(1.00205,0,0,1.00205,0,0)"
font-family="Ubuntu" font-size="11" font-weight="400" font-style="normal" 
>
</g>

<g fill="none" stroke="#000000" stroke-opacity="1" stroke-width="1" stroke-linecap="square" stroke-linejoin="bevel" transform="matrix(1.00205,0,0,1.00205,28.0575,19.54)"
font-family="Ubuntu" font-size="11" font-weight="400" font-style="normal" 
>
</g>

<g fill="none" stroke="#000000" stroke-opacity="1" stroke-width="1" stroke-linecap="square" stroke-linejoin="bevel" transform="matrix(1.00205,0,0,1.00205,28.0575,19.54)"
font-family="Ubuntu" font-size="11" font-weight="400" font-style="normal" 
>
</g>

<g fill="none" stroke="#000000" stroke-opacity="1" stroke-width="1" stroke-linecap="square" stroke-linejoin="bevel" transform="matrix(1.00205,0,0,1.00205,28.0575,19.54)"
font-family="Ubuntu" font-size="11" font-weight="400" font-style="normal" 
>
</g>

<g fill="none" stroke="#000000" stroke-opacity="1" stroke-width="1" stroke-linecap="square" stroke-linejoin="bevel" transform="matrix(1.00205,0,0,1.00205,28.0575,19.54)"
font-family="Ubuntu" font-size="11" font-weight="400" font-style="normal" 
>
</g>

<g fill="none" stroke="#000000" stroke-opacity="1" stroke-width="1" stroke-linecap="square" stroke-linejoin="bevel" transform="matrix(1.00205,0,0,1.00205,28.0575,19.54)"
font-family="Ubuntu" font-size="11" font-weight="400" font-style="normal" 
>
</g>

<g fill="none" stroke="#000000" stroke-opacity="1" stroke-width="1" stroke-linecap="square" stroke-linejoin="bevel" transform="matrix(1.00205,0,0,1.00205,28.0575,19.54)"
font-family="Sans" font-size="9" font-weight="400" font-style="normal" 
>
<text fill="#000000" fill-opacity="1" stroke="none" xml:space="preserve" x="0" y="0" font-family="Sans" font-size="9" font-weight="400" font-style="normal" 
 > 1</text>
</g>

<g fill="none" stroke="#000000" stroke-opacity="1" stroke-width="1" stroke-linecap="square" stroke-linejoin="bevel" transform="matrix(1.00205,0,0,1.00205,28.0575,19.54)"
font-family="Ubuntu" font-size="11" font-weight="400" font-style="normal" 
>
</g>

<g fill="none" stroke="#000000" stroke-opacity="1" stroke-width="1" stroke-linecap="square" stroke-linejoin="bevel" transform="matrix(1.00205,0,0,1.00205,0,0)"
font-family="Ubuntu" font-size="11" font-weight="400" font-style="normal" 
>
</g>

<g fill="none" stroke="#000000" stroke-opacity="1" stroke-width="1" stroke-linecap="round" stroke-linejoin="round" transform="matrix(1.00205,0,0,1.00205,0,0)"
font-family="Ubuntu" font-size="11" font-weight="400" font-style="normal" 
>
<polyline fill="none" vector-effect="none" points="45.5,571.5 45.5,565.5 " />
<polyline fill="none" vector-effect="none" points="45.5,15.5 45.5,21.5 " />
</g>

<g fill="none" stroke="#000000" stroke-opacity="1" stroke-width="1" stroke-linecap="square" stroke-linejoin="bevel" transform="matrix(1.00205,0,0,1.00205,0,0)"
font-family="Ubuntu" font-size="11" font-weight="400" font-style="normal" 
>
</g>

<g fill="none" stroke="#000000" stroke-opacity="1" stroke-width="1" stroke-linecap="square" stroke-linejoin="bevel" transform="matrix(1.00205,0,0,1.00205,40.5832,591.713)"
font-family="Ubuntu" font-size="11" font-weight="400" font-style="normal" 
>
</g>

<g fill="none" stroke="#000000" stroke-opacity="1" stroke-width="1" stroke-linecap="square" stroke-linejoin="bevel" transform="matrix(1.00205,0,0,1.00205,40.5832,591.713)"
font-family="Ubuntu" font-size="11" font-weight="400" font-style="normal" 
>
</g>

<g fill="none" stroke="#000000" stroke-opacity="1" stroke-width="1" stroke-linecap="square" stroke-linejoin="bevel" transform="matrix(1.00205,0,0,1.00205,40.5832,591.713)"
font-family="Ubuntu" font-size="11" font-weight="400" font-style="normal" 
>
</g>

<g fill="none" stroke="#000000" stroke-opacity="1" stroke-width="1" stroke-linecap="square" stroke-linejoin="bevel" transform="matrix(1.00205,0,0,1.00205,40.5832,591.713)"
font-family="Ubuntu" font-size="11" font-weight="400" font-style="normal" 
>
</g>

<g fill="none" stroke="#000000" stroke-opacity="1" stroke-width="1" stroke-linecap="square" stroke-linejoin="bevel" transform="matrix(1.00205,0,0,1.00205,40.5832,591.713)"
font-family="Ubuntu" font-size="11" font-weight="400" font-style="normal" 
>
</g>

<g fill="none" stroke="#000000" stroke-opacity="1" stroke-width="1" stroke-linecap="square" stroke-linejoin="bevel" transform="matrix(1.00205,0,0,1.00205,40.5832,591.713)"
font-family="Sans" font-size="9" font-weight="400" font-style="normal" 
>
<text fill="#000000" fill-opacity="1" stroke="none" xml:space="preserve" x="0" y="0" font-family="Sans" font-size="9" font-weight="400" font-style="normal" 
 > 0</text>
</g>

<g fill="none" stroke="#000000" stroke-opacity="1" stroke-width="1" stroke-linecap="square" stroke-linejoin="bevel" transform="matrix(1.00205,0,0,1.00205,40.5832,591.713)"
font-family="Ubuntu" font-size="11" font-weight="400" font-style="normal" 
>
</g>

<g fill="none" stroke="#000000" stroke-opacity="1" stroke-width="1" stroke-linecap="square" stroke-linejoin="bevel" transform="matrix(1.00205,0,0,1.00205,0,0)"
font-family="Ubuntu" font-size="11" font-weight="400" font-style="normal" 
>
</g>

<g fill="none" stroke="#000000" stroke-opacity="1" stroke-width="1" stroke-linecap="round" stroke-linejoin="round" transform="matrix(1.00205,0,0,1.00205,0,0)"
font-family="Ubuntu" font-size="11" font-weight="400" font-style="normal" 
>
<polyline fill="none" vector-effect="none" points="222.5,571.5 222.5,565.5 " />
<polyline fill="none" vector-effect="none" points="222.5,15.5 222.5,21.5 " />
</g>

<g fill="none" stroke="#000000" stroke-opacity="1" stroke-width="1" stroke-linecap="square" stroke-linejoin="bevel" transform="matrix(1.00205,0,0,1.00205,0,0)"
font-family="Ubuntu" font-size="11" font-weight="400" font-style="normal" 
>
</g>

<g fill="none" stroke="#000000" stroke-opacity="1" stroke-width="1" stroke-linecap="square" stroke-linejoin="bevel" transform="matrix(1.00205,0,0,1.00205,209.93,591.713)"
font-family="Ubuntu" font-size="11" font-weight="400" font-style="normal" 
>
</g>

<g fill="none" stroke="#000000" stroke-opacity="1" stroke-width="1" stroke-linecap="square" stroke-linejoin="bevel" transform="matrix(1.00205,0,0,1.00205,209.93,591.713)"
font-family="Ubuntu" font-size="11" font-weight="400" font-style="normal" 
>
</g>

<g fill="none" stroke="#000000" stroke-opacity="1" stroke-width="1" stroke-linecap="square" stroke-linejoin="bevel" transform="matrix(1.00205,0,0,1.00205,209.93,591.713)"
font-family="Ubuntu" font-size="11" font-weight="400" font-style="normal" 
>
</g>

<g fill="none" stroke="#000000" stroke-opacity="1" stroke-width="1" stroke-linecap="square" stroke-linejoin="bevel" transform="matrix(1.00205,0,0,1.00205,209.93,591.713)"
font-family="Ubuntu" font-size="11" font-weight="400" font-style="normal" 
>
</g>

<g fill="none" stroke="#000000" stroke-opacity="1" stroke-width="1" stroke-linecap="square" stroke-linejoin="bevel" transform="matrix(1.00205,0,0,1.00205,209.93,591.713)"
font-family="Ubuntu" font-size="11" font-weight="400" font-style="normal" 
>
</g>

<g fill="none" stroke="#000000" stroke-opacity="1" stroke-width="1" stroke-linecap="square" stroke-linejoin="bevel" transform="matrix(1.00205,0,0,1.00205,209.93,591.713)"
font-family="Sans" font-size="9" font-weight="400" font-style="normal" 
>
<text fill="#000000" fill-opacity="1" stroke="none" xml:space="preserve" x="0" y="0" font-family="Sans" font-size="9" font-weight="400" font-style="normal" 
 > 200</text>
</g>

<g fill="none" stroke="#000000" stroke-opacity="1" stroke-width="1" stroke-linecap="square" stroke-linejoin="bevel" transform="matrix(1.00205,0,0,1.00205,209.93,591.713)"
font-family="Ubuntu" font-size="11" font-weight="400" font-style="normal" 
>
</g>

<g fill="none" stroke="#000000" stroke-opacity="1" stroke-width="1" stroke-linecap="square" stroke-linejoin="bevel" transform="matrix(1.00205,0,0,1.00205,0,0)"
font-family="Ubuntu" font-size="11" font-weight="400" font-style="normal" 
>
</g>

<g fill="none" stroke="#000000" stroke-opacity="1" stroke-width="1" stroke-linecap="round" stroke-linejoin="round" transform="matrix(1.00205,0,0,1.00205,0,0)"
font-family="Ubuntu" font-size="11" font-weight="400" font-style="normal" 
>
<polyline fill="none" vector-effect="none" points="400.5,571.5 400.5,565.5 " />
<polyline fill="none" vector-effect="none" points="400.5,15.5 400.5,21.5 " />
</g>

<g fill="none" stroke="#000000" stroke-opacity="1" stroke-width="1" stroke-linecap="square" stroke-linejoin="bevel" transform="matrix(1.00205,0,0,1.00205,0,0)"
font-family="Ubuntu" font-size="11" font-weight="400" font-style="normal" 
>
</g>

<g fill="none" stroke="#000000" stroke-opacity="1" stroke-width="1" stroke-linecap="square" stroke-linejoin="bevel" transform="matrix(1.00205,0,0,1.00205,387.294,591.713)"
font-family="Ubuntu" font-size="11" font-weight="400" font-style="normal" 
>
</g>

<g fill="none" stroke="#000000" stroke-opacity="1" stroke-width="1" stroke-linecap="square" stroke-linejoin="bevel" transform="matrix(1.00205,0,0,1.00205,387.294,591.713)"
font-family="Ubuntu" font-size="11" font-weight="400" font-style="normal" 
>
</g>

<g fill="none" stroke="#000000" stroke-opacity="1" stroke-width="1" stroke-linecap="square" stroke-linejoin="bevel" transform="matrix(1.00205,0,0,1.00205,387.294,591.713)"
font-family="Ubuntu" font-size="11" font-weight="400" font-style="normal" 
>
</g>

<g fill="none" stroke="#000000" stroke-opacity="1" stroke-width="1" stroke-linecap="square" stroke-linejoin="bevel" transform="matrix(1.00205,0,0,1.00205,387.294,591.713)"
font-family="Ubuntu" font-size="11" font-weight="400" font-style="normal" 
>
</g>

<g fill="none" stroke="#000000" stroke-opacity="1" stroke-width="1" stroke-linecap="square" stroke-linejoin="bevel" transform="matrix(1.00205,0,0,1.00205,387.294,591.713)"
font-family="Ubuntu" font-size="11" font-weight="400" font-style="normal" 
>
</g>

<g fill="none" stroke="#000000" stroke-opacity="1" stroke-width="1" stroke-linecap="square" stroke-linejoin="bevel" transform="matrix(1.00205,0,0,1.00205,387.294,591.713)"
font-family="Sans" font-size="9" font-weight="400" font-style="normal" 
>
<text fill="#000000" fill-opacity="1" stroke="none" xml:space="preserve" x="0" y="0" font-family="Sans" font-size="9" font-weight="400" font-style="normal" 
 > 400</text>
</g>

<g fill="none" stroke="#000000" stroke-opacity="1" stroke-width="1" stroke-linecap="square" stroke-linejoin="bevel" transform="matrix(1.00205,0,0,1.00205,387.294,591.713)"
font-family="Ubuntu" font-size="11" font-weight="400" font-style="normal" 
>
</g>

<g fill="none" stroke="#000000" stroke-opacity="1" stroke-width="1" stroke-linecap="square" stroke-linejoin="bevel" transform="matrix(1.00205,0,0,1.00205,0,0)"
font-family="Ubuntu" font-size="11" font-weight="400" font-style="normal" 
>
</g>

<g fill="none" stroke="#000000" stroke-opacity="1" stroke-width="1" stroke-linecap="round" stroke-linejoin="round" transform="matrix(1.00205,0,0,1.00205,0,0)"
font-family="Ubuntu" font-size="11" font-weight="400" font-style="normal" 
>
<polyline fill="none" vector-effect="none" points="577.5,571.5 577.5,565.5 " />
<polyline fill="none" vector-effect="none" points="577.5,15.5 577.5,21.5 " />
</g>

<g fill="none" stroke="#000000" stroke-opacity="1" stroke-width="1" stroke-linecap="square" stroke-linejoin="bevel" transform="matrix(1.00205,0,0,1.00205,0,0)"
font-family="Ubuntu" font-size="11" font-weight="400" font-style="normal" 
>
</g>

<g fill="none" stroke="#000000" stroke-opacity="1" stroke-width="1" stroke-linecap="square" stroke-linejoin="bevel" transform="matrix(1.00205,0,0,1.00205,565.659,591.713)"
font-family="Ubuntu" font-size="11" font-weight="400" font-style="normal" 
>
</g>

<g fill="none" stroke="#000000" stroke-opacity="1" stroke-width="1" stroke-linecap="square" stroke-linejoin="bevel" transform="matrix(1.00205,0,0,1.00205,565.659,591.713)"
font-family="Ubuntu" font-size="11" font-weight="400" font-style="normal" 
>
</g>

<g fill="none" stroke="#000000" stroke-opacity="1" stroke-width="1" stroke-linecap="square" stroke-linejoin="bevel" transform="matrix(1.00205,0,0,1.00205,565.659,591.713)"
font-family="Ubuntu" font-size="11" font-weight="400" font-style="normal" 
>
</g>

<g fill="none" stroke="#000000" stroke-opacity="1" stroke-width="1" stroke-linecap="square" stroke-linejoin="bevel" transform="matrix(1.00205,0,0,1.00205,565.659,591.713)"
font-family="Ubuntu" font-size="11" font-weight="400" font-style="normal" 
>
</g>

<g fill="none" stroke="#000000" stroke-opacity="1" stroke-width="1" stroke-linecap="square" stroke-linejoin="bevel" transform="matrix(1.00205,0,0,1.00205,565.659,591.713)"
font-family="Ubuntu" font-size="11" font-weight="400" font-style="normal" 
>
</g>

<g fill="none" stroke="#000000" stroke-opacity="1" stroke-width="1" stroke-linecap="square" stroke-linejoin="bevel" transform="matrix(1.00205,0,0,1.00205,565.659,591.713)"
font-family="Sans" font-size="9" font-weight="400" font-style="normal" 
>
<text fill="#000000" fill-opacity="1" stroke="none" xml:space="preserve" x="0" y="0" font-family="Sans" font-size="9" font-weight="400" font-style="normal" 
 > 600</text>
</g>

<g fill="none" stroke="#000000" stroke-opacity="1" stroke-width="1" stroke-linecap="square" stroke-linejoin="bevel" transform="matrix(1.00205,0,0,1.00205,565.659,591.713)"
font-family="Ubuntu" font-size="11" font-weight="400" font-style="normal" 
>
</g>

<g fill="none" stroke="#000000" stroke-opacity="1" stroke-width="1" stroke-linecap="square" stroke-linejoin="bevel" transform="matrix(1.00205,0,0,1.00205,0,0)"
font-family="Ubuntu" font-size="11" font-weight="400" font-style="normal" 
>
</g>

<g fill="none" stroke="#000000" stroke-opacity="1" stroke-width="1" stroke-linecap="round" stroke-linejoin="round" transform="matrix(1.00205,0,0,1.00205,0,0)"
font-family="Ubuntu" font-size="11" font-weight="400" font-style="normal" 
>
<polyline fill="none" vector-effect="none" points="755.5,571.5 755.5,565.5 " />
<polyline fill="none" vector-effect="none" points="755.5,15.5 755.5,21.5 " />
</g>

<g fill="none" stroke="#000000" stroke-opacity="1" stroke-width="1" stroke-linecap="square" stroke-linejoin="bevel" transform="matrix(1.00205,0,0,1.00205,0,0)"
font-family="Ubuntu" font-size="11" font-weight="400" font-style="normal" 
>
</g>

<g fill="none" stroke="#000000" stroke-opacity="1" stroke-width="1" stroke-linecap="square" stroke-linejoin="bevel" transform="matrix(1.00205,0,0,1.00205,743.023,591.713)"
font-family="Ubuntu" font-size="11" font-weight="400" font-style="normal" 
>
</g>

<g fill="none" stroke="#000000" stroke-opacity="1" stroke-width="1" stroke-linecap="square" stroke-linejoin="bevel" transform="matrix(1.00205,0,0,1.00205,743.023,591.713)"
font-family="Ubuntu" font-size="11" font-weight="400" font-style="normal" 
>
</g>

<g fill="none" stroke="#000000" stroke-opacity="1" stroke-width="1" stroke-linecap="square" stroke-linejoin="bevel" transform="matrix(1.00205,0,0,1.00205,743.023,591.713)"
font-family="Ubuntu" font-size="11" font-weight="400" font-style="normal" 
>
</g>

<g fill="none" stroke="#000000" stroke-opacity="1" stroke-width="1" stroke-linecap="square" stroke-linejoin="bevel" transform="matrix(1.00205,0,0,1.00205,743.023,591.713)"
font-family="Ubuntu" font-size="11" font-weight="400" font-style="normal" 
>
</g>

<g fill="none" stroke="#000000" stroke-opacity="1" stroke-width="1" stroke-linecap="square" stroke-linejoin="bevel" transform="matrix(1.00205,0,0,1.00205,743.023,591.713)"
font-family="Ubuntu" font-size="11" font-weight="400" font-style="normal" 
>
</g>

<g fill="none" stroke="#000000" stroke-opacity="1" stroke-width="1" stroke-linecap="square" stroke-linejoin="bevel" transform="matrix(1.00205,0,0,1.00205,743.023,591.713)"
font-family="Sans" font-size="9" font-weight="400" font-style="normal" 
>
<text fill="#000000" fill-opacity="1" stroke="none" xml:space="preserve" x="0" y="0" font-family="Sans" font-size="9" font-weight="400" font-style="normal" 
 > 800</text>
</g>

<g fill="none" stroke="#000000" stroke-opacity="1" stroke-width="1" stroke-linecap="square" stroke-linejoin="bevel" transform="matrix(1.00205,0,0,1.00205,743.023,591.713)"
font-family="Ubuntu" font-size="11" font-weight="400" font-style="normal" 
>
</g>

<g fill="none" stroke="#000000" stroke-opacity="1" stroke-width="1" stroke-linecap="square" stroke-linejoin="bevel" transform="matrix(1.00205,0,0,1.00205,0,0)"
font-family="Ubuntu" font-size="11" font-weight="400" font-style="normal" 
>
</g>

<g fill="none" stroke="#000000" stroke-opacity="1" stroke-width="1" stroke-linecap="round" stroke-linejoin="round" transform="matrix(1.00205,0,0,1.00205,0,0)"
font-family="Ubuntu" font-size="11" font-weight="400" font-style="normal" 
>
<polyline fill="none" vector-effect="none" points="932.5,571.5 932.5,565.5 " />
<polyline fill="none" vector-effect="none" points="932.5,15.5 932.5,21.5 " />
</g>

<g fill="none" stroke="#000000" stroke-opacity="1" stroke-width="1" stroke-linecap="square" stroke-linejoin="bevel" transform="matrix(1.00205,0,0,1.00205,0,0)"
font-family="Ubuntu" font-size="11" font-weight="400" font-style="normal" 
>
</g>

<g fill="none" stroke="#000000" stroke-opacity="1" stroke-width="1" stroke-linecap="square" stroke-linejoin="bevel" transform="matrix(1.00205,0,0,1.00205,917.38,591.713)"
font-family="Ubuntu" font-size="11" font-weight="400" font-style="normal" 
>
</g>

<g fill="none" stroke="#000000" stroke-opacity="1" stroke-width="1" stroke-linecap="square" stroke-linejoin="bevel" transform="matrix(1.00205,0,0,1.00205,917.38,591.713)"
font-family="Ubuntu" font-size="11" font-weight="400" font-style="normal" 
>
</g>

<g fill="none" stroke="#000000" stroke-opacity="1" stroke-width="1" stroke-linecap="square" stroke-linejoin="bevel" transform="matrix(1.00205,0,0,1.00205,917.38,591.713)"
font-family="Ubuntu" font-size="11" font-weight="400" font-style="normal" 
>
</g>

<g fill="none" stroke="#000000" stroke-opacity="1" stroke-width="1" stroke-linecap="square" stroke-linejoin="bevel" transform="matrix(1.00205,0,0,1.00205,917.38,591.713)"
font-family="Ubuntu" font-size="11" font-weight="400" font-style="normal" 
>
</g>

<g fill="none" stroke="#000000" stroke-opacity="1" stroke-width="1" stroke-linecap="square" stroke-linejoin="bevel" transform="matrix(1.00205,0,0,1.00205,917.38,591.713)"
font-family="Ubuntu" font-size="11" font-weight="400" font-style="normal" 
>
</g>

<g fill="none" stroke="#000000" stroke-opacity="1" stroke-width="1" stroke-linecap="square" stroke-linejoin="bevel" transform="matrix(1.00205,0,0,1.00205,917.38,591.713)"
font-family="Sans" font-size="9" font-weight="400" font-style="normal" 
>
<text fill="#000000" fill-opacity="1" stroke="none" xml:space="preserve" x="0" y="0" font-family="Sans" font-size="9" font-weight="400" font-style="normal" 
 > 1000</text>
</g>

<g fill="none" stroke="#000000" stroke-opacity="1" stroke-width="1" stroke-linecap="square" stroke-linejoin="bevel" transform="matrix(1.00205,0,0,1.00205,917.38,591.713)"
font-family="Ubuntu" font-size="11" font-weight="400" font-style="normal" 
>
</g>

<g fill="none" stroke="#000000" stroke-opacity="1" stroke-width="1" stroke-linecap="square" stroke-linejoin="bevel" transform="matrix(1.00205,0,0,1.00205,0,0)"
font-family="Ubuntu" font-size="11" font-weight="400" font-style="normal" 
>
</g>

<g fill="none" stroke="#000000" stroke-opacity="1" stroke-width="1" stroke-linecap="round" stroke-linejoin="round" transform="matrix(1.00205,0,0,1.00205,0,0)"
font-family="Ubuntu" font-size="11" font-weight="400" font-style="normal" 
>
<polyline fill="none" vector-effect="none" points="45.5,15.5 45.5,571.5 952.5,571.5 952.5,15.5 45.5,15.5 " />
</g>

<g fill="none" stroke="#000000" stroke-opacity="1" stroke-width="1" stroke-linecap="square" stroke-linejoin="bevel" transform="matrix(1.00205,0,0,1.00205,0,0)"
font-family="Ubuntu" font-size="11" font-weight="400" font-style="normal" 
>
</g>

<g fill="none" stroke="#000000" stroke-opacity="1" stroke-width="1" stroke-linecap="square" stroke-linejoin="bevel" transform="matrix(1.00205,0,0,1.00205,832.659,17.5359)"
font-family="Ubuntu" font-size="11" font-weight="400" font-style="normal" 
>
</g>

<g fill="none" stroke="#000000" stroke-opacity="1" stroke-width="1" stroke-linecap="square" stroke-linejoin="bevel" transform="matrix(1.00205,0,0,1.00205,832.659,17.5359)"
font-family="Ubuntu" font-size="11" font-weight="400" font-style="normal" 
>
</g>

<g fill="none" stroke="#000000" stroke-opacity="1" stroke-width="1" stroke-linecap="square" stroke-linejoin="bevel" transform="matrix(1.00205,0,0,1.00205,832.659,17.5359)"
font-family="Ubuntu" font-size="11" font-weight="400" font-style="normal" 
>
</g>

<g fill="none" stroke="#000000" stroke-opacity="1" stroke-width="1" stroke-linecap="square" stroke-linejoin="bevel" transform="matrix(1.00205,0,0,1.00205,832.659,17.5359)"
font-family="Ubuntu" font-size="11" font-weight="400" font-style="normal" 
>
<text fill="#000000" fill-opacity="1" stroke="none" xml:space="preserve" x="4" y="16" font-family="Sans" font-size="9" font-weight="400" font-style="normal" 
 >&quot;sine.dat&quot;</text>
</g>

<g fill="none" stroke="#000000" stroke-opacity="1" stroke-width="1" stroke-linecap="square" stroke-linejoin="bevel" transform="matrix(1.00205,0,0,1.00205,832.659,17.5359)"
font-family="Ubuntu" font-size="11" font-weight="400" font-style="normal" 
>
</g>

<g fill="none" stroke="#000000" stroke-opacity="1" stroke-width="1" stroke-linecap="square" stroke-linejoin="bevel" transform="matrix(1,0,0,1,0,0)"
font-family="Ubuntu" font-size="11" font-weight="400" font-style="normal" 
>
</g>

<g fill="none" stroke="#000000" stroke-opacity="1" stroke-width="1" stroke-linecap="square" stroke-linejoin="bevel" transform="matrix(1.00205,0,0,1.00205,832.659,17.5359)"
font-family="Ubuntu" font-size="11" font-weight="400" font-style="normal" 
>
</g>

<g fill="none" stroke="#000000" stroke-opacity="1" stroke-width="1" stroke-linecap="square" stroke-linejoin="bevel" transform="matrix(1.00205,0,0,1.00205,832.659,17.5359)"
font-family="Ubuntu" font-size="11" font-weight="400" font-style="normal" 
>
</g>

<g fill="none" stroke="#000000" stroke-opacity="1" stroke-width="1" stroke-linecap="square" stroke-linejoin="bevel" transform="matrix(1.00205,0,0,1.00205,832.659,17.5359)"
font-family="Ubuntu" font-size="11" font-weight="400" font-style="normal" 
>
</g>

<g fill="none" stroke="#000000" stroke-opacity="1" stroke-width="1" stroke-linecap="square" stroke-linejoin="bevel" transform="matrix(1.00205,0,0,1.00205,0,0)"
font-family="Ubuntu" font-size="11" font-weight="400" font-style="normal" 
>
</g>

<g fill="none" stroke="#9400d3" stroke-opacity="1" stroke-width="1" stroke-linecap="round" stroke-linejoin="round" transform="matrix(1.00205,0,0,1.00205,0,0)"
font-family="Ubuntu" font-size="11" font-weight="400" font-style="normal" 
>
<path vector-effect="none" fill-rule="evenodd" d="M904.5,28.5 L938.5,28.5"/>
</g>

<g fill="none" stroke="#000000" stroke-opacity="1" stroke-width="1" stroke-linecap="square" stroke-linejoin="bevel" transform="matrix(1.00205,0,0,1.00205,0,0)"
font-family="Ubuntu" font-size="11" font-weight="400" font-style="normal" 
>
</g>

<g fill="none" stroke="#000000" stroke-opacity="1" stroke-width="1" stroke-linecap="square" stroke-linejoin="bevel" transform="matrix(1.00205,0,0,1.00205,0,0)"
font-family="Ubuntu" font-size="11" font-weight="400" font-style="normal" 
>
</g>

<g fill="none" stroke="#000000" stroke-opacity="1" stroke-width="1" stroke-linecap="square" stroke-linejoin="bevel" transform="matrix(1.00205,0,0,1.00205,0,0)"
font-family="Ubuntu" font-size="11" font-weight="400" font-style="normal" 
>
</g>

<g fill="none" stroke="#000000" stroke-opacity="1" stroke-width="1" stroke-linecap="square" stroke-linejoin="bevel" transform="matrix(1.00205,0,0,1.00205,0,0)"
font-family="Ubuntu" font-size="11" font-weight="400" font-style="normal" 
>
</g>

<g fill="none" stroke="#9400d3" stroke-opacity="1" stroke-width="1" stroke-linecap="round" stroke-linejoin="round" transform="matrix(1.00205,0,0,1.00205,0,0)"
font-family="Ubuntu" font-size="11" font-weight="400" font-style="normal" 
>
<polyline fill="none" vector-effect="none" points="45.5,293 45.5,293 46.4,291.3 47.3,289.6 48.2,287.9 49,286.2 49.9,284.5 50.8,282.8 51.7,281.1 52.6,279.4 53.5,277.7 54.4,276 55.3,274.3 56.1,272.6 57,270.9 57.9,269.2 58.8,267.5 59.7,265.8 60.6,264.1 61.5,262.4 62.4,260.7 63.2,259 64.1,257.3 65,255.6 65.9,254 66.8,252.3 67.7,250.6 68.6,248.9 69.4,247.2 70.3,245.5 71.2,243.9 72.1,242.2 73,240.5 73.9,238.8 74.8,237.2 75.7,235.5 76.5,233.8 77.4,232.2 78.3,230.5 79.2,228.8 80.1,227.2 81,225.5 81.9,223.9 82.8,222.2 83.6,220.6 84.5,218.9 85.4,217.3 86.3,215.6 87.2,214 88.1,212.4 89,210.7 89.8,209.1 90.7,207.5 91.6,205.9 92.5,204.2 93.4,202.6 94.3,201 95.2,199.4 96.1,197.8 96.9,196.2 97.8,194.6 98.7,193 99.6,191.4 100.5,189.8 101.4,188.3 102.3,186.7 103.2,185.1 104,183.5 104.9,182 105.8,180.4 106.7,178.9 107.6,177.3 108.5,175.8 109.4,174.2 110.3,172.7 111.1,171.1 112,169.6 112.9,168.1 113.8,166.6 114.7,165 115.6,163.5 116.5,162 117.3,160.5 118.2,159 119.1,157.5 120,156 120.9,154.6 121.8,153.1 122.7,151.6 123.6,150.2 124.4,148.7 125.3,147.2 126.2,145.8 127.1,144.3 128,142.9 128.9,141.5 129.8,140.1 130.7,138.6 131.5,137.2 132.4,135.8 133.3,134.4 134.2,133 135.1,131.6 136,130.2 136.9,128.8 137.7,127.5 138.6,126.1 139.5,124.7 140.4,123.4 141.3,122 142.2,120.7 143.1,119.4 144,118 144.8,116.7 145.7,115.4 146.6,114.1 147.5,112.8 148.4,111.5 149.3,110.2 150.2,108.9 151.1,107.7 151.9,106.4 152.8,105.1 153.7,103.9 154.6,102.6 155.5,101.4 156.4,100.2 157.3,98.9 158.1,97.7 159,96.5 159.9,95.3 160.8,94.1 161.7,92.9 162.6,91.7 163.5,90.6 164.4,89.4 165.2,88.3 166.1,87.1 167,86 167.9,84.8 168.8,83.7 169.7,82.6 170.6,81.5 171.5,80.4 172.3,79.3 173.2,78.2 174.1,77.1 175,76 175.9,75 176.8,73.9 177.7,72.9 178.5,71.8 179.4,70.8 180.3,69.8 181.2,68.8 182.1,67.8 183,66.8 183.9,65.8 184.8,64.8 185.6,63.9 186.5,62.9 187.4,61.9 188.3,61 189.2,60.1 190.1,59.1 191,58.2 191.9,57.3 192.7,56.4 193.6,55.5 194.5,54.6 195.4,53.8 196.3,52.9 197.2,52.1 198.1,51.2 199,50.4 199.8,49.5 200.7,48.7 201.6,47.9 202.5,47.1 203.4,46.3 204.3,45.5 205.2,44.8 206,44 206.9,43.3 207.8,42.5 208.7,41.8 209.6,41.1 210.5,40.3 211.4,39.6 212.3,38.9 213.1,38.3 214,37.6 214.9,36.9 215.8,36.3 216.7,35.6 217.6,35 218.5,34.3 219.4,33.7 220.2,33.1 221.1,32.5 222,31.9 222.9,31.3 223.8,30.8 224.7,30.2 225.6,29.7 226.4,29.1 227.3,28.6 228.2,28.1 229.1,27.6 230,27.1 230.9,26.6 231.8,26.1 232.7,25.6 233.5,25.2 234.4,24.7 235.3,24.3 236.2,23.8 237.1,23.4 238,23 238.9,22.6 239.8,22.2 240.6,21.9 241.5,21.5 242.4,21.1 243.3,20.8 244.2,20.4 245.1,20.1 246,19.8 246.8,19.5 247.7,19.2 248.6,18.9 249.5,18.6 250.4,18.4 251.3,18.1 252.2,17.9 253.1,17.6 253.9,17.4 254.8,17.2 255.7,17 256.6,16.8 257.5,16.6 258.4,16.4 259.3,16.3 260.2,16.1 261,16 261.9,15.9 262.8,15.7 263.7,15.6 264.6,15.5 265.5,15.4 266.4,15.4 267.2,15.3 268.1,15.2 269,15.2 269.9,15.1 270.8,15.1 271.7,15.1 272.6,15.1 273.5,15.1 274.3,15.1 275.2,15.1 276.1,15.2 277,15.2 277.9,15.3 278.8,15.4 279.7,15.4 280.6,15.5 281.4,15.6 282.3,15.7 283.2,15.9 284.1,16 285,16.1 285.9,16.3 286.8,16.4 287.7,16.6 288.5,16.8 289.4,17 290.3,17.2 291.2,17.4 292.1,17.6 293,17.9 293.9,18.1 294.7,18.4 295.6,18.6 296.5,18.9 297.4,19.2 298.3,19.5 299.2,19.8 300.1,20.1 301,20.4 301.8,20.8 302.7,21.1 303.6,21.5 304.5,21.9 305.4,22.2 306.3,22.6 307.2,23 308.1,23.4 308.9,23.8 309.8,24.3 310.7,24.7 311.6,25.2 312.5,25.6 313.4,26.1 314.3,26.6 315.1,27.1 316,27.6 316.9,28.1 317.8,28.6 318.7,29.1 319.6,29.7 320.5,30.2 321.4,30.8 322.2,31.3 323.1,31.9 324,32.5 324.9,33.1 325.8,33.7 326.7,34.3 327.6,35 328.5,35.6 329.3,36.3 330.2,36.9 331.1,37.6 332,38.3 332.9,38.9 333.8,39.6 334.7,40.3 335.5,41.1 336.4,41.8 337.3,42.5 338.2,43.3 339.1,44 340,44.8 340.9,45.5 341.8,46.3 342.6,47.1 343.5,47.9 344.4,48.7 345.3,49.5 346.2,50.4 347.1,51.2 348,52.1 348.9,52.9 349.7,53.8 350.6,54.6 351.5,55.5 352.4,56.4 353.3,57.3 354.2,58.2 355.1,59.1 355.9,60.1 356.8,61 357.7,61.9 358.6,62.9 359.5,63.9 360.4,64.8 361.3,65.8 362.2,66.8 363,67.8 363.9,68.8 364.8,69.8 365.7,70.8 366.6,71.8 367.5,72.9 368.4,73.9 369.3,75 370.1,76 371,77.1 371.9,78.2 372.8,79.3 373.7,80.4 374.6,81.5 375.5,82.6 376.4,83.7 377.2,84.8 378.1,86 379,87.1 379.9,88.3 380.8,89.4 381.7,90.6 382.6,91.7 383.4,92.9 384.3,94.1 385.2,95.3 386.1,96.5 387,97.7 387.9,98.9 388.8,100.2 389.7,101.4 390.5,102.6 391.4,103.9 392.3,105.1 393.2,106.4 394.1,107.7 395,108.9 395.9,110.2 396.8,111.5 397.6,112.8 398.5,114.1 399.4,115.4 400.3,116.7 401.2,118 402.1,119.4 403,120.7 403.8,122 404.7,123.4 405.6,124.7 406.5,126.1 407.4,127.5 408.3,128.8 409.2,130.2 410.1,131.6 410.9,133 411.8,134.4 412.7,135.8 413.6,137.2 414.5,138.6 415.4,140.1 416.3,141.5 417.2,142.9 418,144.3 418.9,145.8 419.8,147.2 420.7,148.7 421.6,150.2 422.5,151.6 423.4,153.1 424.2,154.6 425.1,156 426,157.5 426.9,159 427.8,160.5 428.7,162 429.6,163.5 430.5,165 431.3,166.6 432.2,168.1 433.1,169.6 434,171.1 434.9,172.7 435.8,174.2 436.7,175.8 437.6,177.3 438.4,178.9 439.3,180.4 440.2,182 441.1,183.5 442,185.1 442.9,186.7 443.8,188.3 444.6,189.8 445.5,191.4 446.4,193 447.3,194.6 448.2,196.2 449.1,197.8 450,199.4 450.9,201 451.7,202.6 452.6,204.2 453.5,205.9 454.4,207.5 455.3,209.1 456.2,210.7 457.1,212.4 458,214 458.8,215.6 459.7,217.3 460.6,218.9 461.5,220.6 462.4,222.2 463.3,223.9 464.2,225.5 465.1,227.2 465.9,228.8 466.8,230.5 467.7,232.2 468.6,233.8 469.5,235.5 470.4,237.2 471.3,238.8 472.1,240.5 473,242.2 473.9,243.9 474.8,245.5 475.7,247.2 476.6,248.9 477.5,250.6 478.4,252.3 479.2,254 480.1,255.6 481,257.3 481.9,259 482.8,260.7 483.7,262.4 484.6,264.1 485.5,265.8 486.3,267.5 487.2,269.2 488.1,270.9 489,272.6 489.9,274.3 490.8,276 491.7,277.7 492.5,279.4 493.4,281.1 494.3,282.8 495.2,284.5 496.1,286.2 497,287.9 497.9,289.6 498.8,291.3 499.6,293.1 500.5,294.8 501.4,296.5 502.3,298.2 503.2,299.9 504.1,301.6 505,303.3 505.9,305 506.7,306.7 507.6,308.4 508.5,310.1 509.4,311.8 510.3,313.5 511.2,315.2 512.1,316.9 512.9,318.6 513.8,320.3 514.7,322 515.6,323.7 516.5,325.4 517.4,327.1 518.3,328.8 519.2,330.5 520,332.1 520.9,333.8 521.8,335.5 522.7,337.2 523.6,338.9 524.5,340.6 525.4,342.2 526.3,343.9 527.1,345.6 528,347.3 528.9,348.9 529.8,350.6 530.7,352.3 531.6,353.9 532.5,355.6 533.3,357.3 534.2,358.9 535.1,360.6 536,362.2 536.9,363.9 537.8,365.5 538.7,367.2 539.6,368.8 540.4,370.5 541.3,372.1 542.2,373.7 543.1,375.4 544,377 544.9,378.6 545.8,380.2 546.7,381.9 547.5,383.5 548.4,385.1 549.3,386.7 550.2,388.3 551.1,389.9 552,391.5 552.9,393.1 553.8,394.7 554.6,396.3 555.5,397.8 556.4,399.4 557.3,401 558.2,402.6 559.1,404.1 560,405.7 560.8,407.2 561.7,408.8 562.6,410.3 563.5,411.9 564.4,413.4 565.3,415 566.2,416.5 567.1,418 567.9,419.5 568.8,421.1 569.7,422.6 570.6,424.1 571.5,425.6 572.4,427.1 573.3,428.6 574.2,430.1 575,431.5 575.9,433 576.8,434.5 577.7,435.9 578.6,437.4 579.5,438.9 580.4,440.3 581.2,441.8 582.1,443.2 583,444.6 583.9,446 584.8,447.5 585.7,448.9 586.6,450.3 587.5,451.7 588.3,453.1 589.2,454.5 590.1,455.9 591,457.3 591.9,458.6 592.8,460 593.7,461.4 594.6,462.7 595.4,464.1 596.3,465.4 597.2,466.7 598.1,468.1 599,469.4 599.9,470.7 600.8,472 601.6,473.3 602.5,474.6 603.4,475.9 604.3,477.2 605.2,478.4 606.1,479.7 607,481 607.9,482.2 608.7,483.5 609.6,484.7 610.5,485.9 611.4,487.2 612.3,488.4 613.2,489.6 614.1,490.8 615,492 615.8,493.2 616.7,494.4 617.6,495.5 618.5,496.7 619.4,497.8 620.3,499 621.2,500.1 622,501.3 622.9,502.4 623.8,503.5 624.7,504.6 625.6,505.7 626.5,506.8 627.4,507.9 628.3,509 629.1,510.1 630,511.1 630.9,512.2 631.8,513.2 632.7,514.3 633.6,515.3 634.5,516.3 635.4,517.3 636.2,518.3 637.1,519.3 638,520.3 638.9,521.3 639.8,522.2 640.7,523.2 641.6,524.2 642.5,525.1 643.3,526 644.2,527 645.1,527.9 646,528.8 646.9,529.7 647.8,530.6 648.7,531.5 649.5,532.3 650.4,533.2 651.3,534 652.2,534.9 653.1,535.7 654,536.6 654.9,537.4 655.8,538.2 656.6,539 657.5,539.8 658.4,540.6 659.3,541.3 660.2,542.1 661.1,542.8 662,543.6 662.9,544.3 663.7,545 664.6,545.8 665.5,546.5 666.4,547.2 667.3,547.8 668.2,548.5 669.1,549.2 669.9,549.8 670.8,550.5 671.7,551.1 672.6,551.8 673.5,552.4 674.4,553 675.3,553.6 676.2,554.2 677,554.8 677.9,555.3 678.8,555.9 679.7,556.4 680.6,557 681.5,557.5 682.4,558 683.3,558.5 684.1,559 685,559.5 685.9,560 686.8,560.5 687.7,560.9 688.6,561.4 689.5,561.8 690.3,562.3 691.2,562.7 692.1,563.1 693,563.5 693.9,563.9 694.8,564.2 695.7,564.6 696.6,565 697.4,565.3 698.3,565.7 699.2,566 700.1,566.3 701,566.6 701.9,566.9 702.8,567.2 703.7,567.5 704.5,567.7 705.4,568 706.3,568.2 707.2,568.5 708.1,568.7 709,568.9 709.9,569.1 710.7,569.3 711.6,569.5 712.5,569.7 713.4,569.8 714.3,570 715.2,570.1 716.1,570.2 717,570.4 717.8,570.5 718.7,570.6 719.6,570.7 720.5,570.7 721.4,570.8 722.3,570.9 723.2,570.9 724.1,571 724.9,571 725.8,571 726.7,571 727.6,571 728.5,571 729.4,571 730.3,570.9 731.2,570.9 732,570.8 732.9,570.7 733.8,570.7 734.7,570.6 735.6,570.5 736.5,570.4 737.4,570.2 738.2,570.1 739.1,570 740,569.8 740.9,569.7 741.8,569.5 742.7,569.3 743.6,569.1 744.5,568.9 745.3,568.7 746.2,568.5 747.1,568.2 748,568 748.9,567.7 749.8,567.5 750.7,567.2 751.6,566.9 752.4,566.6 753.3,566.3 754.2,566 755.1,565.7 756,565.3 756.9,565 757.8,564.6 758.6,564.2 759.5,563.9 760.4,563.5 761.3,563.1 762.2,562.7 763.1,562.3 764,561.8 764.9,561.4 765.7,560.9 766.6,560.5 767.5,560 768.4,559.5 769.3,559 770.2,558.5 771.1,558 772,557.5 772.8,557 773.7,556.4 774.6,555.9 775.5,555.3 776.4,554.8 777.3,554.2 778.2,553.6 779,553 779.9,552.4 780.8,551.8 781.7,551.1 782.6,550.5 783.5,549.8 784.4,549.2 785.3,548.5 786.1,547.8 787,547.2 787.9,546.5 788.8,545.8 789.7,545 790.6,544.3 791.5,543.6 792.4,542.8 793.2,542.1 794.1,541.3 795,540.6 795.9,539.8 796.8,539 797.7,538.2 798.6,537.4 799.4,536.6 800.3,535.7 801.2,534.9 802.1,534 803,533.2 803.9,532.3 804.8,531.5 805.7,530.6 806.5,529.7 807.4,528.8 808.3,527.9 809.2,527 810.1,526 811,525.1 811.9,524.2 812.8,523.2 813.6,522.2 814.5,521.3 815.4,520.3 816.3,519.3 817.2,518.3 818.1,517.3 819,516.3 819.9,515.3 820.7,514.3 821.6,513.2 822.5,512.2 823.4,511.1 824.3,510.1 825.2,509 826.1,507.9 826.9,506.8 827.8,505.7 828.7,504.6 829.6,503.5 830.5,502.4 831.4,501.3 832.3,500.1 833.2,499 834,497.8 834.9,496.7 835.8,495.5 836.7,494.4 837.6,493.2 838.5,492 839.4,490.8 840.3,489.6 841.1,488.4 842,487.2 842.9,485.9 843.8,484.7 844.7,483.5 845.6,482.2 846.5,481 847.3,479.7 848.2,478.4 849.1,477.2 850,475.9 850.9,474.6 851.8,473.3 852.7,472 853.6,470.7 854.4,469.4 855.3,468.1 856.2,466.7 857.1,465.4 858,464.1 858.9,462.7 859.8,461.4 860.7,460 861.5,458.6 862.4,457.3 863.3,455.9 864.2,454.5 865.1,453.1 866,451.7 866.9,450.3 867.7,448.9 868.6,447.5 869.5,446 870.4,444.6 871.3,443.2 872.2,441.8 873.1,440.3 874,438.9 874.8,437.4 875.7,435.9 876.6,434.5 877.5,433 878.4,431.5 879.3,430.1 880.2,428.6 881.1,427.1 881.9,425.6 882.8,424.1 883.7,422.6 884.6,421.1 885.5,419.5 886.4,418 887.3,416.5 888.1,415 889,413.4 889.9,411.9 890.8,410.3 891.7,408.8 892.6,407.2 893.5,405.7 894.4,404.1 895.2,402.6 896.1,401 897,399.4 897.9,397.8 898.8,396.3 899.7,394.7 900.6,393.1 901.5,391.5 902.3,389.9 903.2,388.3 904.1,386.7 905,385.1 905.9,383.5 906.8,381.9 907.7,380.2 908.6,378.6 909.4,377 910.3,375.4 911.2,373.7 912.1,372.1 913,370.5 913.9,368.8 914.8,367.2 915.6,365.5 916.5,363.9 917.4,362.2 918.3,360.6 919.2,358.9 920.1,357.3 921,355.6 921.9,353.9 922.7,352.3 923.6,350.6 924.5,348.9 925.4,347.3 926.3,345.6 927.2,343.9 928.1,342.2 929,340.6 929.8,338.9 930.7,337.2 931.6,335.5 932.5,333.8 933.4,332.1 934.3,330.5 935.2,328.8 936,327.1 936.9,325.4 937.8,323.7 938.7,322 939.6,320.3 940.5,318.6 941.4,316.9 942.3,315.2 943.1,313.5 944,311.8 944.9,310.1 945.8,308.4 946.7,306.7 947.6,305 948.5,303.3 949.4,301.6 950.2,299.9 951.1,298.2 952,296.5 952.9,294.8 " />
</g>

<g fill="none" stroke="#000000" stroke-opacity="1" stroke-width="1" stroke-linecap="square" stroke-linejoin="bevel" transform="matrix(1.00205,0,0,1.00205,0,0)"
font-family="Ubuntu" font-size="11" font-weight="400" font-style="normal" 
>
</g>

<g fill="none" stroke="#000000" stroke-opacity="1" stroke-width="1" stroke-linecap="square" stroke-linejoin="bevel" transform="matrix(1.00205,0,0,1.00205,787.755,32.5667)"
font-family="Ubuntu" font-size="11" font-weight="400" font-style="normal" 
>
</g>

<g fill="none" stroke="#000000" stroke-opacity="1" stroke-width="1" stroke-linecap="square" stroke-linejoin="bevel" transform="matrix(1.00205,0,0,1.00205,787.755,32.5667)"
font-family="Ubuntu" font-size="11" font-weight="400" font-style="normal" 
>
</g>

<g fill="none" stroke="#000000" stroke-opacity="1" stroke-width="1" stroke-linecap="square" stroke-linejoin="bevel" transform="matrix(1.00205,0,0,1.00205,787.755,32.5667)"
font-family="Ubuntu" font-size="11" font-weight="400" font-style="normal" 
>
</g>

<g fill="none" stroke="#000000" stroke-opacity="1" stroke-width="1" stroke-linecap="square" stroke-linejoin="bevel" transform="matrix(1.00205,0,0,1.00205,787.755,32.5667)"
font-family="Ubuntu" font-size="11" font-weight="400" font-style="normal" 
>
<text fill="#000000" fill-opacity="1" stroke="none" xml:space="preserve" x="4" y="16" font-family="Sans" font-size="9" font-weight="400" font-style="normal" 
 >&quot;clippedSine.dat&quot;</text>
</g>

<g fill="none" stroke="#000000" stroke-opacity="1" stroke-width="1" stroke-linecap="square" stroke-linejoin="bevel" transform="matrix(1.00205,0,0,1.00205,787.755,32.5667)"
font-family="Ubuntu" font-size="11" font-weight="400" font-style="normal" 
>
</g>

<g fill="none" stroke="#000000" stroke-opacity="1" stroke-width="1" stroke-linecap="square" stroke-linejoin="bevel" transform="matrix(1,0,0,1,0,0)"
font-family="Ubuntu" font-size="11" font-weight="400" font-style="normal" 
>
</g>

<g fill="none" stroke="#000000" stroke-opacity="1" stroke-width="1" stroke-linecap="square" stroke-linejoin="bevel" transform="matrix(1.00205,0,0,1.00205,787.755,32.5667)"
font-family="Ubuntu" font-size="11" font-weight="400" font-style="normal" 
>
</g>

<g fill="none" stroke="#000000" stroke-opacity="1" stroke-width="1" stroke-linecap="square" stroke-linejoin="bevel" transform="matrix(1.00205,0,0,1.00205,787.755,32.5667)"
font-family="Ubuntu" font-size="11" font-weight="400" font-style="normal" 
>
</g>

<g fill="none" stroke="#000000" stroke-opacity="1" stroke-width="1" stroke-linecap="square" stroke-linejoin="bevel" transform="matrix(1.00205,0,0,1.00205,787.755,32.5667)"
font-family="Ubuntu" font-size="11" font-weight="400" font-style="normal" 
>
</g>

<g fill="none" stroke="#000000" stroke-opacity="1" stroke-width="1" stroke-linecap="square" stroke-linejoin="bevel" transform="matrix(1.00205,0,0,1.00205,0,0)"
font-family="Ubuntu" font-size="11" font-weight="400" font-style="normal" 
>
</g>

<g fill="none" stroke="#009e73" stroke-opacity="1" stroke-width="1" stroke-linecap="round" stroke-linejoin="round" transform="matrix(1.00205,0,0,1.00205,0,0)"
font-family="Ubuntu" font-size="11" font-weight="400" font-style="normal" 
>
<path vector-effect="none" fill-rule="evenodd" d="M904.5,43.5 L938.5,43.5"/>
</g>

<g fill="none" stroke="#000000" stroke-opacity="1" stroke-width="1" stroke-linecap="square" stroke-linejoin="bevel" transform="matrix(1.00205,0,0,1.00205,0,0)"
font-family="Ubuntu" font-size="11" font-weight="400" font-style="normal" 
>
</g>

<g fill="none" stroke="#000000" stroke-opacity="1" stroke-width="1" stroke-linecap="square" stroke-linejoin="bevel" transform="matrix(1.00205,0,0,1.00205,0,0)"
font-family="Ubuntu" font-size="11" font-weight="400" font-style="normal" 
>
</g>

<g fill="none" stroke="#000000" stroke-opacity="1" stroke-width="1" stroke-linecap="square" stroke-linejoin="bevel" transform="matrix(1.00205,0,0,1.00205,0,0)"
font-family="Ubuntu" font-size="11" font-weight="400" font-style="normal" 
>
</g>

<g fill="none" stroke="#000000" stroke-opacity="1" stroke-width="1" stroke-linecap="square" stroke-linejoin="bevel" transform="matrix(1.00205,0,0,1.00205,0,0)"
font-family="Ubuntu" font-size="11" font-weight="400" font-style="normal" 
>
</g>

<g fill="none" stroke="#009e73" stroke-opacity="1" stroke-width="1" stroke-linecap="round" stroke-linejoin="round" transform="matrix(1.00205,0,0,1.00205,0,0)"
font-family="Ubuntu" font-size="11" font-weight="400" font-style="normal" 
>
<polyline fill="none" vector-effect="none" points="45.5,293 45.5,293 46.4,291.3 47.3,289.6 48.2,287.9 49,286.2 49.9,284.5 50.8,282.8 51.7,281.1 52.6,279.4 53.5,277.7 54.4,276 55.3,274.3 56.1,272.6 57,270.9 57.9,269.2 58.8,267.5 59.7,265.8 60.6,264.1 61.5,262.4 62.4,260.7 63.2,259 64.1,257.3 65,255.6 65.9,254 66.8,252.3 67.7,250.6 68.6,248.9 69.4,247.2 70.3,245.5 71.2,243.9 72.1,242.2 73,240.5 73.9,238.8 74.8,237.2 75.7,235.5 76.5,233.8 77.4,232.2 78.3,230.5 79.2,228.8 80.1,227.2 81,225.5 81.9,223.9 82.8,222.2 83.6,220.6 84.5,218.9 85.4,217.3 86.3,215.6 87.2,214 88.1,212.4 89,210.7 89.8,209.1 90.7,207.5 91.6,205.9 92.5,204.2 93.4,202.6 94.3,201 95.2,199.4 96.1,197.8 96.9,196.2 97.8,194.6 98.7,193 99.6,191.4 100.5,189.8 101.4,188.3 102.3,186.7 103.2,185.1 104,183.5 104.9,182 105.8,180.4 106.7,178.9 107.6,177.3 108.5,175.8 109.4,174.2 110.3,172.7 111.1,171.1 112,169.6 112.9,168.1 113.8,166.6 114.7,165 115.6,163.5 116.5,162 117.3,160.5 118.2,159 119.1,157.5 120,156 120.9,154.6 121.8,153.1 122.7,151.6 123.6,150.2 124.4,148.7 125.3,147.2 126.2,145.8 127.1,144.3 128,142.9 128.9,141.5 129.8,140.1 130.7,138.6 131.5,137.2 132.4,135.8 133.3,134.4 134.2,133 135.1,131.6 136,130.2 136.9,128.8 137.7,127.5 138.6,126.1 139.5,124.7 140.4,123.4 141.3,122 142.2,120.7 143.1,119.4 144,118 144.8,116.7 145.7,115.4 146.6,114.1 147.5,112.8 148.4,111.5 149.3,110.2 150.2,108.9 151.1,107.7 151.9,106.4 152.8,105.1 153.7,103.9 154.6,102.6 155.5,101.4 156.4,100.2 157.3,98.9 158.1,97.7 159,96.5 159.9,96.3 160.8,96.3 161.7,96.3 162.6,96.3 163.5,96.3 164.4,96.3 165.2,96.3 166.1,96.3 167,96.3 167.9,96.3 168.8,96.3 169.7,96.3 170.6,96.3 171.5,96.3 172.3,96.3 173.2,96.3 174.1,96.3 175,96.3 175.9,96.3 176.8,96.3 177.7,96.3 178.5,96.3 179.4,96.3 180.3,96.3 181.2,96.3 182.1,96.3 183,96.3 183.9,96.3 184.8,96.3 185.6,96.3 186.5,96.3 187.4,96.3 188.3,96.3 189.2,96.3 190.1,96.3 191,96.3 191.9,96.3 192.7,96.3 193.6,96.3 194.5,96.3 195.4,96.3 196.3,96.3 197.2,96.3 198.1,96.3 199,96.3 199.8,96.3 200.7,96.3 201.6,96.3 202.5,96.3 203.4,96.3 204.3,96.3 205.2,96.3 206,96.3 206.9,96.3 207.8,96.3 208.7,96.3 209.6,96.3 210.5,96.3 211.4,96.3 212.3,96.3 213.1,96.3 214,96.3 214.9,96.3 215.8,96.3 216.7,96.3 217.6,96.3 218.5,96.3 219.4,96.3 220.2,96.3 221.1,96.3 222,96.3 222.9,96.3 223.8,96.3 224.7,96.3 225.6,96.3 226.4,96.3 227.3,96.3 228.2,96.3 229.1,96.3 230,96.3 230.9,96.3 231.8,96.3 232.7,96.3 233.5,96.3 234.4,96.3 235.3,96.3 236.2,96.3 237.1,96.3 238,96.3 238.9,96.3 239.8,96.3 240.6,96.3 241.5,96.3 242.4,96.3 243.3,96.3 244.2,96.3 245.1,96.3 246,96.3 246.8,96.3 247.7,96.3 248.6,96.3 249.5,96.3 250.4,96.3 251.3,96.3 252.2,96.3 253.1,96.3 253.9,96.3 254.8,96.3 255.7,96.3 256.6,96.3 257.5,96.3 258.4,96.3 259.3,96.3 260.2,96.3 261,96.3 261.9,96.3 262.8,96.3 263.7,96.3 264.6,96.3 265.5,96.3 266.4,96.3 267.2,96.3 268.1,96.3 269,96.3 269.9,96.3 270.8,96.3 271.7,96.3 272.6,96.3 273.5,96.3 274.3,96.3 275.2,96.3 276.1,96.3 277,96.3 277.9,96.3 278.8,96.3 279.7,96.3 280.6,96.3 281.4,96.3 282.3,96.3 283.2,96.3 284.1,96.3 285,96.3 285.9,96.3 286.8,96.3 287.7,96.3 288.5,96.3 289.4,96.3 290.3,96.3 291.2,96.3 292.1,96.3 293,96.3 293.9,96.3 294.7,96.3 295.6,96.3 296.5,96.3 297.4,96.3 298.3,96.3 299.2,96.3 300.1,96.3 301,96.3 301.8,96.3 302.7,96.3 303.6,96.3 304.5,96.3 305.4,96.3 306.3,96.3 307.2,96.3 308.1,96.3 308.9,96.3 309.8,96.3 310.7,96.3 311.6,96.3 312.5,96.3 313.4,96.3 314.3,96.3 315.1,96.3 316,96.3 316.9,96.3 317.8,96.3 318.7,96.3 319.6,96.3 320.5,96.3 321.4,96.3 322.2,96.3 323.1,96.3 324,96.3 324.9,96.3 325.8,96.3 326.7,96.3 327.6,96.3 328.5,96.3 329.3,96.3 330.2,96.3 331.1,96.3 332,96.3 332.9,96.3 333.8,96.3 334.7,96.3 335.5,96.3 336.4,96.3 337.3,96.3 338.2,96.3 339.1,96.3 340,96.3 340.9,96.3 341.8,96.3 342.6,96.3 343.5,96.3 344.4,96.3 345.3,96.3 346.2,96.3 347.1,96.3 348,96.3 348.9,96.3 349.7,96.3 350.6,96.3 351.5,96.3 352.4,96.3 353.3,96.3 354.2,96.3 355.1,96.3 355.9,96.3 356.8,96.3 357.7,96.3 358.6,96.3 359.5,96.3 360.4,96.3 361.3,96.3 362.2,96.3 363,96.3 363.9,96.3 364.8,96.3 365.7,96.3 366.6,96.3 367.5,96.3 368.4,96.3 369.3,96.3 370.1,96.3 371,96.3 371.9,96.3 372.8,96.3 373.7,96.3 374.6,96.3 375.5,96.3 376.4,96.3 377.2,96.3 378.1,96.3 379,96.3 379.9,96.3 380.8,96.3 381.7,96.3 382.6,96.3 383.4,96.3 384.3,96.3 385.2,96.3 386.1,96.5 387,97.7 387.9,98.9 388.8,100.2 389.7,101.4 390.5,102.6 391.4,103.9 392.3,105.1 393.2,106.4 394.1,107.7 395,108.9 395.9,110.2 396.8,111.5 397.6,112.8 398.5,114.1 399.4,115.4 400.3,116.7 401.2,118 402.1,119.4 403,120.7 403.8,122 404.7,123.4 405.6,124.7 406.5,126.1 407.4,127.5 408.3,128.8 409.2,130.2 410.1,131.6 410.9,133 411.8,134.4 412.7,135.8 413.6,137.2 414.5,138.6 415.4,140.1 416.3,141.5 417.2,142.9 418,144.3 418.9,145.8 419.8,147.2 420.7,148.7 421.6,150.2 422.5,151.6 423.4,153.1 424.2,154.6 425.1,156 426,157.5 426.9,159 427.8,160.5 428.7,162 429.6,163.5 430.5,165 431.3,166.6 432.2,168.1 433.1,169.6 434,171.1 434.9,172.7 435.8,174.2 436.7,175.8 437.6,177.3 438.4,178.9 439.3,180.4 440.2,182 441.1,183.5 442,185.1 442.9,186.7 443.8,188.3 444.6,189.8 445.5,191.4 446.4,193 447.3,194.6 448.2,196.2 449.1,197.8 450,199.4 450.9,201 451.7,202.6 452.6,204.2 453.5,205.9 454.4,207.5 455.3,209.1 456.2,210.7 457.1,212.4 458,214 458.8,215.6 459.7,217.3 460.6,218.9 461.5,220.6 462.4,222.2 463.3,223.9 464.2,225.5 465.1,227.2 465.9,228.8 466.8,230.5 467.7,232.2 468.6,233.8 469.5,235.5 470.4,237.2 471.3,238.8 472.1,240.5 473,242.2 473.9,243.9 474.8,245.5 475.7,247.2 476.6,248.9 477.5,250.6 478.4,252.3 479.2,254 480.1,255.6 481,257.3 481.9,259 482.8,260.7 483.7,262.4 484.6,264.1 485.5,265.8 486.3,267.5 487.2,269.2 488.1,270.9 489,272.6 489.9,274.3 490.8,276 491.7,277.7 492.5,279.4 493.4,281.1 494.3,282.8 495.2,284.5 496.1,286.2 497,287.9 497.9,289.6 498.8,291.3 499.6,293.1 500.5,294.8 501.4,296.5 502.3,298.2 503.2,299.9 504.1,301.6 505,303.3 505.9,305 506.7,306.7 507.6,308.4 508.5,310.1 509.4,311.8 510.3,313.5 511.2,315.2 512.1,316.9 512.9,318.6 513.8,320.3 514.7,322 515.6,323.7 516.5,325.4 517.4,327.1 518.3,328.8 519.2,330.5 520,332.1 520.9,333.8 521.8,335.5 522.7,337.2 523.6,338.9 524.5,340.6 525.4,342.2 526.3,343.9 527.1,345.6 528,347.3 528.9,348.9 529.8,350.6 530.7,352.3 531.6,353.9 532.5,355.6 533.3,357.3 534.2,358.9 535.1,360.6 536,362.2 536.9,363.9 537.8,365.5 538.7,367.2 539.6,368.8 540.4,370.5 541.3,372.1 542.2,373.7 543.1,375.4 544,377 544.9,378.6 545.8,380.2 546.7,381.9 547.5,383.5 548.4,385.1 549.3,386.7 550.2,388.3 551.1,389.9 552,391.5 552.9,393.1 553.8,394.7 554.6,396.3 555.5,397.8 556.4,399.4 557.3,401 558.2,402.6 559.1,404.1 560,405.7 560.8,407.2 561.7,408.8 562.6,410.3 563.5,411.9 564.4,413.4 565.3,415 566.2,416.5 567.1,418 567.9,419.5 568.8,421.1 569.7,422.6 570.6,424.1 571.5,425.6 572.4,427.1 573.3,428.6 574.2,430.1 575,431.5 575.9,433 576.8,434.5 577.7,435.9 578.6,437.4 579.5,438.9 580.4,440.3 581.2,441.8 582.1,443.2 583,444.6 583.9,446 584.8,447.5 585.7,448.9 586.6,450.3 587.5,451.7 588.3,453.1 589.2,454.5 590.1,455.9 591,457.3 591.9,458.6 592.8,460 593.7,461.4 594.6,462.7 595.4,464.1 596.3,465.4 597.2,466.7 598.1,468.1 599,469.4 599.9,470.7 600.8,472 601.6,473.3 602.5,474.6 603.4,475.9 604.3,477.2 605.2,478.4 606.1,479.7 607,481 607.9,482.2 608.7,483.5 609.6,484.7 610.5,485.9 611.4,487.2 612.3,488.4 613.2,489.6 614.1,489.8 615,489.8 615.8,489.8 616.7,489.8 617.6,489.8 618.5,489.8 619.4,489.8 620.3,489.8 621.2,489.8 622,489.8 622.9,489.8 623.8,489.8 624.7,489.8 625.6,489.8 626.5,489.8 627.4,489.8 628.3,489.8 629.1,489.8 630,489.8 630.9,489.8 631.8,489.8 632.7,489.8 633.6,489.8 634.5,489.8 635.4,489.8 636.2,489.8 637.1,489.8 638,489.8 638.9,489.8 639.8,489.8 640.7,489.8 641.6,489.8 642.5,489.8 643.3,489.8 644.2,489.8 645.1,489.8 646,489.8 646.9,489.8 647.8,489.8 648.7,489.8 649.5,489.8 650.4,489.8 651.3,489.8 652.2,489.8 653.1,489.8 654,489.8 654.9,489.8 655.8,489.8 656.6,489.8 657.5,489.8 658.4,489.8 659.3,489.8 660.2,489.8 661.1,489.8 662,489.8 662.9,489.8 663.7,489.8 664.6,489.8 665.5,489.8 666.4,489.8 667.3,489.8 668.2,489.8 669.1,489.8 669.9,489.8 670.8,489.8 671.7,489.8 672.6,489.8 673.5,489.8 674.4,489.8 675.3,489.8 676.2,489.8 677,489.8 677.9,489.8 678.8,489.8 679.7,489.8 680.6,489.8 681.5,489.8 682.4,489.8 683.3,489.8 684.1,489.8 685,489.8 685.9,489.8 686.8,489.8 687.7,489.8 688.6,489.8 689.5,489.8 690.3,489.8 691.2,489.8 692.1,489.8 693,489.8 693.9,489.8 694.8,489.8 695.7,489.8 696.6,489.8 697.4,489.8 698.3,489.8 699.2,489.8 700.1,489.8 701,489.8 701.9,489.8 702.8,489.8 703.7,489.8 704.5,489.8 705.4,489.8 706.3,489.8 707.2,489.8 708.1,489.8 709,489.8 709.9,489.8 710.7,489.8 711.6,489.8 712.5,489.8 713.4,489.8 714.3,489.8 715.2,489.8 716.1,489.8 717,489.8 717.8,489.8 718.7,489.8 719.6,489.8 720.5,489.8 721.4,489.8 722.3,489.8 723.2,489.8 724.1,489.8 724.9,489.8 725.8,489.8 726.7,489.8 727.6,489.8 728.5,489.8 729.4,489.8 730.3,489.8 731.2,489.8 732,489.8 732.9,489.8 733.8,489.8 734.7,489.8 735.6,489.8 736.5,489.8 737.4,489.8 738.2,489.8 739.1,489.8 740,489.8 740.9,489.8 741.8,489.8 742.7,489.8 743.6,489.8 744.5,489.8 745.3,489.8 746.2,489.8 747.1,489.8 748,489.8 748.9,489.8 749.8,489.8 750.7,489.8 751.6,489.8 752.4,489.8 753.3,489.8 754.2,489.8 755.1,489.8 756,489.8 756.9,489.8 757.8,489.8 758.6,489.8 759.5,489.8 760.4,489.8 761.3,489.8 762.2,489.8 763.1,489.8 764,489.8 764.9,489.8 765.7,489.8 766.6,489.8 767.5,489.8 768.4,489.8 769.3,489.8 770.2,489.8 771.1,489.8 772,489.8 772.8,489.8 773.7,489.8 774.6,489.8 775.5,489.8 776.4,489.8 777.3,489.8 778.2,489.8 779,489.8 779.9,489.8 780.8,489.8 781.7,489.8 782.6,489.8 783.5,489.8 784.4,489.8 785.3,489.8 786.1,489.8 787,489.8 787.9,489.8 788.8,489.8 789.7,489.8 790.6,489.8 791.5,489.8 792.4,489.8 793.2,489.8 794.1,489.8 795,489.8 795.9,489.8 796.8,489.8 797.7,489.8 798.6,489.8 799.4,489.8 800.3,489.8 801.2,489.8 802.1,489.8 803,489.8 803.9,489.8 804.8,489.8 805.7,489.8 806.5,489.8 807.4,489.8 808.3,489.8 809.2,489.8 810.1,489.8 811,489.8 811.9,489.8 812.8,489.8 813.6,489.8 814.5,489.8 815.4,489.8 816.3,489.8 817.2,489.8 818.1,489.8 819,489.8 819.9,489.8 820.7,489.8 821.6,489.8 822.5,489.8 823.4,489.8 824.3,489.8 825.2,489.8 826.1,489.8 826.9,489.8 827.8,489.8 828.7,489.8 829.6,489.8 830.5,489.8 831.4,489.8 832.3,489.8 833.2,489.8 834,489.8 834.9,489.8 835.8,489.8 836.7,489.8 837.6,489.8 838.5,489.8 839.4,489.8 840.3,489.6 841.1,488.4 842,487.2 842.9,485.9 843.8,484.7 844.7,483.5 845.6,482.2 846.5,481 847.3,479.7 848.2,478.4 849.1,477.2 850,475.9 850.9,474.6 851.8,473.3 852.7,472 853.6,470.7 854.4,469.4 855.3,468.1 856.2,466.7 857.1,465.4 858,464.1 858.9,462.7 859.8,461.4 860.7,460 861.5,458.6 862.4,457.3 863.3,455.9 864.2,454.5 865.1,453.1 866,451.7 866.9,450.3 867.7,448.9 868.6,447.5 869.5,446 870.4,444.6 871.3,443.2 872.2,441.8 873.1,440.3 874,438.9 874.8,437.4 875.7,435.9 876.6,434.5 877.5,433 878.4,431.5 879.3,430.1 880.2,428.6 881.1,427.1 881.9,425.6 882.8,424.1 883.7,422.6 884.6,421.1 885.5,419.5 886.4,418 887.3,416.5 888.1,415 889,413.4 889.9,411.9 890.8,410.3 891.7,408.8 892.6,407.2 893.5,405.7 894.4,404.1 895.2,402.6 896.1,401 897,399.4 897.9,397.8 898.8,396.3 899.7,394.7 900.6,393.1 901.5,391.5 902.3,389.9 903.2,388.3 904.1,386.7 905,385.1 905.9,383.5 906.8,381.9 907.7,380.2 908.6,378.6 909.4,377 910.3,375.4 911.2,373.7 912.1,372.1 913,370.5 913.9,368.8 914.8,367.2 915.6,365.5 916.5,363.9 917.4,362.2 918.3,360.6 919.2,358.9 920.1,357.3 921,355.6 921.9,353.9 922.7,352.3 923.6,350.6 924.5,348.9 925.4,347.3 926.3,345.6 927.2,343.9 928.1,342.2 929,340.6 929.8,338.9 930.7,337.2 931.6,335.5 932.5,333.8 933.4,332.1 934.3,330.5 935.2,328.8 936,327.1 936.9,325.4 937.8,323.7 938.7,322 939.6,320.3 940.5,318.6 941.4,316.9 942.3,315.2 943.1,313.5 944,311.8 944.9,310.1 945.8,308.4 946.7,306.7 947.6,305 948.5,303.3 949.4,301.6 950.2,299.9 951.1,298.2 952,296.5 952.9,294.8 " />
</g>

<g fill="none" stroke="#000000" stroke-opacity="1" stroke-width="1" stroke-linecap="square" stroke-linejoin="bevel" transform="matrix(1.00205,0,0,1.00205,0,0)"
font-family="Ubuntu" font-size="11" font-weight="400" font-style="normal" 
>
</g>

<g fill="none" stroke="#000000" stroke-opacity="1" stroke-width="1" stroke-linecap="square" stroke-linejoin="bevel" transform="matrix(1.00205,0,0,1.00205,0,0)"
font-family="Ubuntu" font-size="11" font-weight="400" font-style="normal" 
>
</g>

<g fill="none" stroke="#000000" stroke-opacity="1" stroke-width="1" stroke-linecap="round" stroke-linejoin="round" transform="matrix(1.00205,0,0,1.00205,0,0)"
font-family="Ubuntu" font-size="11" font-weight="400" font-style="normal" 
>
<polyline fill="none" vector-effect="none" points="45.5,15.5 45.5,571.5 952.5,571.5 952.5,15.5 45.5,15.5 " />
</g>

<g fill="none" stroke="#000000" stroke-opacity="1" stroke-width="1" stroke-linecap="square" stroke-linejoin="bevel" transform="matrix(1.00205,0,0,1.00205,0,0)"
font-family="Ubuntu" font-size="11" font-weight="400" font-style="normal" 
>
</g>

<g fill="none" stroke="#000000" stroke-opacity="1" stroke-width="1" stroke-linecap="square" stroke-linejoin="bevel" transform="matrix(1,0,0,1,0,0)"
font-family="Ubuntu" font-size="11" font-weight="400" font-style="normal" 
>
</g>
</g>
</svg>
